<svg width="128" height="128" viewBox="0 0 128 128" fill="none" xmlns="http://www.w3.org/2000/svg">
	<path
		d="M63.8385 0.68519C64.0938 0.739372 64.3493 0.792854 64.6049 0.846082C65.5046 1.03354 66.4035 1.22427 67.3013 1.42034C67.5704 1.47848 67.8398 1.53523 68.1094 1.59075C70.3869 2.06264 72.0196 3.10558 73.7392 4.63351C73.9949 4.85786 74.2579 5.07254 74.5219 5.28699C74.9606 5.64422 75.3937 6.0072 75.8242 6.37418C76.2572 6.74318 76.6926 7.10847 77.1334 7.46821C77.6357 7.87824 78.1305 8.29637 78.624 8.71694C78.9968 9.03403 79.3725 9.34683 79.7516 9.65627C80.254 10.0663 80.7488 10.4844 81.2423 10.905C81.6151 11.2221 81.9908 11.5349 82.3699 11.8443C82.8723 12.2544 83.3671 12.6725 83.8606 13.0931C84.2333 13.4101 84.6091 13.7229 84.9882 14.0324C85.4906 14.4425 85.9856 14.8607 86.4791 15.2814C86.8493 15.5963 87.2228 15.9067 87.5997 16.2136C88.1232 16.6408 88.6364 17.079 89.1464 17.5223C89.4142 17.7544 89.681 17.9849 89.9618 18.2012C91.08 19.0751 92.0543 20.1043 93.0527 21.1098C93.257 21.3148 93.4614 21.5198 93.6658 21.7248C94.0924 22.1526 94.5185 22.5809 94.9444 23.0095C95.4346 23.5028 95.9255 23.9956 96.4166 24.4881C96.8923 24.965 97.3676 25.4422 97.8428 25.9196C98.0436 26.1214 98.2446 26.3232 98.4456 26.5248C98.7267 26.807 99.0074 27.0895 99.2881 27.3721C99.3702 27.4543 99.4523 27.5366 99.5368 27.6213C99.973 28.0614 100.389 28.5121 100.793 28.9819C101.055 29.2813 101.333 29.5633 101.614 29.8443C101.674 29.904 101.733 29.9638 101.794 30.0253C101.987 30.2196 102.181 30.4135 102.375 30.6073C102.511 30.744 102.647 30.8808 102.784 31.0175C103.068 31.3028 103.352 31.5879 103.637 31.8729C104 32.2362 104.362 32.6 104.725 32.9639C105.005 33.2459 105.287 33.5277 105.568 33.8095C105.701 33.9434 105.835 34.0774 105.969 34.2115C106.593 34.8386 107.216 35.4614 107.889 36.0371C108.11 36.2284 108.317 36.4318 108.522 36.6412C108.599 36.7191 108.676 36.7971 108.755 36.8775C108.911 37.0367 109.067 37.196 109.223 37.3553C109.663 37.8011 110.113 38.2243 110.587 38.6333C110.887 38.898 111.165 39.1817 111.444 39.4685C111.864 39.8954 112.291 40.3009 112.747 40.6895C113.088 40.9956 113.406 41.3249 113.728 41.6517C114.01 41.9368 114.296 42.2102 114.601 42.4703C114.987 42.8002 115.342 43.1548 115.698 43.5164C116.052 43.8758 116.405 44.2284 116.789 44.5558C117.236 44.9361 117.641 45.3525 118.053 45.7699C118.35 46.0703 118.65 46.3601 118.971 46.6344C119.417 47.0146 119.823 47.431 120.234 47.8483C120.598 48.2154 120.972 48.5596 121.365 48.8947C121.706 49.2007 122.024 49.5297 122.346 49.8565C122.632 50.1462 122.924 50.4241 123.233 50.6892C124.854 52.0883 126.193 53.871 126.717 55.9884C126.75 56.1119 126.75 56.1119 126.784 56.2379C127.26 58.3409 126.903 60.4905 126.167 62.4756C125.801 63.4778 125.451 64.484 125.115 65.4966C125.029 65.7539 124.943 66.0113 124.856 66.2686C124.725 66.6585 124.595 67.0485 124.467 67.4393C123.954 69.0035 123.422 70.4007 122.462 71.7424C122.386 71.8554 122.309 71.9683 122.23 72.0848C122.02 72.3947 121.806 72.7013 121.59 73.0073C121.437 73.2253 121.285 73.4434 121.132 73.6616C121.06 73.7648 120.988 73.8679 120.914 73.9742C120.664 74.3348 120.42 74.6989 120.178 75.0655C119.711 75.7738 119.237 76.4765 118.76 77.1783C118.681 77.2945 118.602 77.4107 118.521 77.5304C118.398 77.7117 118.275 77.893 118.152 78.0743C117.679 78.7711 117.207 79.4687 116.735 80.1664C116.005 81.2451 115.275 82.3233 114.544 83.401C114.008 84.1904 113.473 84.9803 112.939 85.7703C112.808 85.9638 112.677 86.1572 112.546 86.3507C112.46 86.4787 112.373 86.6068 112.286 86.7348C112.244 86.798 112.201 86.8611 112.157 86.9262C111.901 87.3039 111.646 87.6817 111.391 88.0596C110.901 88.7848 110.41 89.509 109.916 90.2314C109.831 90.3572 109.831 90.3572 109.743 90.4855C108.981 91.596 108.209 92.4274 107.147 93.2507C106.669 93.6216 106.207 94.0061 105.75 94.4024C105.112 94.9566 104.463 95.4963 103.807 96.0298C103.607 96.1938 103.407 96.3579 103.207 96.5221C102.915 96.7619 102.623 97.0017 102.33 97.2413C101.402 98.0019 100.477 98.7664 99.5524 99.5307C98.6421 100.283 97.7317 101.035 96.8182 101.784C96.4016 102.126 95.986 102.469 95.5704 102.813C95.062 103.233 94.5533 103.653 94.0431 104.071C93.467 104.543 92.8923 105.017 92.3189 105.492C91.9133 105.828 91.5062 106.162 91.0954 106.491C89.9164 107.442 88.939 108.438 88.002 109.633C87.7332 109.97 87.456 110.299 87.1769 110.628C86.8066 111.065 86.4399 111.503 86.0792 111.948C85.7185 112.392 85.3517 112.831 84.9814 113.268C84.6318 113.68 84.2871 114.095 83.9518 114.519C83.6165 114.943 83.2718 115.358 82.9222 115.77C82.478 116.294 82.0399 116.822 81.6067 117.356C80.7542 118.404 79.8971 119.448 79.0235 120.479C78.5495 121.039 78.087 121.608 77.6243 122.177C75.9663 124.217 75.9663 124.217 75.1151 125.131C75.0572 125.197 74.9992 125.264 74.9395 125.332C73.687 126.703 71.8502 127.423 70.0967 127.866C69.9716 127.898 69.9716 127.898 69.844 127.931C69.399 127.998 68.9574 127.996 68.508 127.996C68.4174 127.997 68.3268 127.999 68.2334 128C66.982 128.003 65.7847 127.705 64.5738 127.415C64.4321 127.381 64.2903 127.348 64.1486 127.314C63.8492 127.243 63.5499 127.172 63.2507 127.101C62.7049 126.971 62.159 126.842 61.613 126.713C61.2205 126.621 60.828 126.528 60.4357 126.435C59.7114 126.262 58.9869 126.094 58.2591 125.937C56.4903 125.554 55.251 125.138 53.8795 123.919C53.5174 123.598 53.14 123.3 52.7574 123.004C52.1568 122.537 51.5771 122.05 51.0024 121.551C50.5542 121.162 50.0977 120.787 49.6329 120.418C49.1399 120.026 48.6551 119.623 48.1686 119.223C47.9686 119.059 47.7686 118.895 47.5686 118.731C47.4687 118.649 47.3689 118.567 47.266 118.483C47.0746 118.326 46.8831 118.169 46.6916 118.012C45.9923 117.439 45.2951 116.863 44.5982 116.287C43.9712 115.769 43.3429 115.253 42.7139 114.738C42.413 114.491 42.1121 114.244 41.8113 113.997C41.6198 113.84 41.4284 113.683 41.2368 113.526C40.5376 112.953 39.8404 112.378 39.1434 111.802C38.5165 111.284 37.8882 110.768 37.2591 110.252C36.9631 110.009 36.667 109.766 36.3717 109.523C36.1872 109.372 36.0012 109.223 35.8123 109.078C34.7006 108.209 33.735 107.181 32.744 106.179C32.54 105.974 32.3359 105.769 32.1317 105.564C31.6513 105.081 31.1715 104.597 30.6919 104.114C29.8332 103.248 28.9739 102.382 28.114 101.517C27.7649 101.166 27.4163 100.815 27.0678 100.463C26.8843 100.278 26.7008 100.093 26.5172 99.9086C26.4355 99.826 26.3538 99.7433 26.2697 99.6582C25.8336 99.2199 25.3867 98.8033 24.9192 98.3992C24.5986 98.117 24.2962 97.8176 23.9939 97.5159C23.9278 97.4503 23.8617 97.3848 23.7935 97.3172C23.5776 97.1027 23.3621 96.8879 23.1466 96.673C23.072 96.5986 22.9974 96.5242 22.9206 96.4476C22.5254 96.0537 22.1307 95.6593 21.7362 95.2647C21.3332 94.8618 20.929 94.4602 20.5244 94.0589C20.2096 93.746 19.8957 93.4322 19.5821 93.118C19.4337 92.9698 19.285 92.8219 19.1359 92.6744C18.1846 91.7328 17.352 90.7592 16.5723 89.6705C16.3102 89.3134 16.0319 88.9693 15.7537 88.6246C15.3122 88.0752 14.8771 87.5221 14.4495 86.9617C14.064 86.4565 13.6752 85.9539 13.2854 85.4519C13.2208 85.3686 13.1561 85.2853 13.0895 85.1994C12.9571 85.029 12.8248 84.8585 12.6925 84.6881C12.3718 84.275 12.0513 83.8617 11.7308 83.4485C11.6681 83.3676 11.6054 83.2867 11.5408 83.2034C11.2183 82.7877 10.896 82.372 10.5738 81.9561C9.99752 81.2123 9.4208 80.4689 8.83982 79.7288C8.19259 78.9042 7.55062 78.0756 6.90866 77.2469C6.6522 76.9159 6.39559 76.5851 6.13895 76.2542C6.01209 76.0907 5.88525 75.9271 5.75844 75.7635C5.43797 75.3501 5.11714 74.937 4.79563 74.5244C4.47652 74.1148 4.15878 73.7042 3.84174 73.2929C3.66141 73.0599 3.47959 72.828 3.29771 72.5962C1.9144 70.8151 1.02522 68.9299 1.02194 66.6334C1.02113 66.4953 1.02113 66.4953 1.0203 66.3544C1.01872 66.0518 1.01797 65.7492 1.01736 65.4466C1.01705 65.3426 1.01675 65.2385 1.01643 65.1314C1.0148 64.581 1.01379 64.0305 1.01331 63.4801C1.01272 62.9142 1.01009 62.3484 1.00699 61.7826C1.00495 61.345 1.00439 60.9074 1.00422 60.4698C1.0039 60.2614 1.00302 60.0529 1.00158 59.8444C0.994659 58.7662 0.994165 57.7811 1.36681 56.7542C1.40407 56.6251 1.44134 56.4961 1.47974 56.3631C2.20161 54.1694 3.69214 52.6907 5.30303 51.1144C5.5287 50.8929 5.75292 50.6699 5.97709 50.4469C7.74457 48.6885 7.74457 48.6885 8.57232 47.9731C8.97271 47.616 9.34618 47.2317 9.72281 46.8498C9.8091 46.7629 9.89539 46.6759 9.9843 46.5863C10.2576 46.3109 10.5306 46.0351 10.8035 45.7592C11.1635 45.3953 11.5237 45.0319 11.8843 44.6686C12.0058 44.5453 12.0058 44.5453 12.1299 44.4195C12.5641 43.9821 13.009 43.5676 13.4752 43.1648C13.8779 42.8061 14.2534 42.42 14.6321 42.0361C14.7184 41.9491 14.8047 41.8622 14.8936 41.7726C15.1669 41.4972 15.4399 41.2214 15.7128 40.9455C16.0727 40.5816 16.433 40.2181 16.7935 39.8549C16.9151 39.7316 16.9151 39.7316 17.0391 39.6058C17.483 39.1587 17.9373 38.7325 18.414 38.3208C18.8019 37.9835 19.1616 37.6172 19.5243 37.2531C19.606 37.1711 19.6877 37.0891 19.7718 37.0047C20.2792 36.4902 20.7512 35.9688 21.1965 35.3993C21.5031 35.0134 21.8256 34.6432 22.1494 34.2719C22.5569 33.8035 22.9594 33.3329 23.3495 32.8497C23.7988 32.293 24.266 31.7534 24.7353 31.2137C25.0802 30.8161 25.4189 30.4149 25.7496 30.0052C26.1944 29.4545 26.6556 28.9195 27.1196 28.3851C27.6566 27.7664 28.1857 27.1413 28.7128 26.514C28.9589 26.221 29.2054 25.9284 29.452 25.6359C29.5011 25.5777 29.5501 25.5194 29.6007 25.4594C29.9739 25.0171 30.3502 24.5776 30.727 24.1385C31.1081 23.6941 31.4841 23.2468 31.8521 22.7914C32.2997 22.2386 32.7628 21.7005 33.2299 21.1641C33.513 20.8386 33.7944 20.5122 34.0681 20.1786C34.6191 19.5077 35.194 18.8733 35.8068 18.2581C35.8729 18.1917 35.9389 18.1254 36.007 18.057C36.3407 17.7265 36.681 17.4088 37.0362 17.1016C37.4969 16.7019 37.9237 16.2735 38.3501 15.8375C38.8442 15.3323 39.346 14.8494 39.8808 14.3875C40.2415 14.0667 40.5764 13.721 40.9138 13.376C41.3828 12.9005 41.8524 12.4394 42.3627 12.0084C42.7302 11.6762 43.0749 11.3216 43.423 10.9691C43.8923 10.4939 44.3615 10.0326 44.8719 9.60157C45.2394 9.26934 45.5841 8.91472 45.9322 8.56224C46.4015 8.08703 46.8707 7.6257 47.3811 7.1947C47.8255 6.79298 48.2397 6.3596 48.6606 5.93339C49.0598 5.5307 49.4644 5.1465 49.8975 4.78058C50.244 4.46844 50.5684 4.13508 50.896 3.80322C51.424 3.26936 51.9546 2.75166 52.5324 2.27158C52.6095 2.20262 52.6865 2.13365 52.766 2.0626C56.0164 -0.738257 59.9825 -0.134906 63.8385 0.68519Z"
		fill="none" />
	<path
		d="M63.8385 0.68519C64.0938 0.739372 64.3493 0.792854 64.6049 0.846082C65.5046 1.03354 66.4035 1.22427 67.3013 1.42034C67.5704 1.47848 67.8398 1.53523 68.1094 1.59075C70.3869 2.06264 72.0196 3.10558 73.7392 4.63351C73.9949 4.85786 74.2579 5.07254 74.5219 5.28699C74.9606 5.64422 75.3937 6.0072 75.8242 6.37418C76.2572 6.74318 76.6926 7.10847 77.1334 7.46821C77.6357 7.87824 78.1305 8.29637 78.624 8.71694C78.9968 9.03403 79.3725 9.34683 79.7516 9.65627C80.254 10.0663 80.7488 10.4844 81.2423 10.905C81.6151 11.2221 81.9908 11.5349 82.3699 11.8443C82.8723 12.2544 83.3671 12.6725 83.8606 13.0931C84.2333 13.4101 84.6091 13.7229 84.9882 14.0324C85.4906 14.4425 85.9856 14.8607 86.4791 15.2814C86.8493 15.5963 87.2228 15.9067 87.5997 16.2136C88.1232 16.6408 88.6364 17.079 89.1464 17.5223C89.4142 17.7544 89.681 17.9849 89.9618 18.2012C91.08 19.0751 92.0543 20.1043 93.0527 21.1098C93.257 21.3148 93.4614 21.5198 93.6658 21.7248C94.0924 22.1526 94.5185 22.5809 94.9444 23.0095C95.4346 23.5028 95.9255 23.9956 96.4166 24.4881C96.8923 24.965 97.3676 25.4422 97.8428 25.9196C98.0436 26.1214 98.2446 26.3232 98.4456 26.5248C98.7267 26.807 99.0074 27.0895 99.2881 27.3721C99.3702 27.4543 99.4523 27.5366 99.5368 27.6213C99.973 28.0614 100.389 28.5121 100.793 28.9819C101.055 29.2813 101.333 29.5633 101.614 29.8443C101.674 29.904 101.733 29.9638 101.794 30.0253C101.987 30.2196 102.181 30.4135 102.375 30.6073C102.511 30.744 102.647 30.8808 102.784 31.0175C103.068 31.3028 103.352 31.5879 103.637 31.8729C104 32.2362 104.362 32.6 104.725 32.9639C105.005 33.2459 105.287 33.5277 105.568 33.8095C105.701 33.9434 105.835 34.0774 105.969 34.2115C106.593 34.8386 107.216 35.4614 107.889 36.0371C108.11 36.2284 108.317 36.4318 108.522 36.6412C108.599 36.7191 108.676 36.7971 108.755 36.8775C108.911 37.0367 109.067 37.196 109.223 37.3553C109.663 37.8011 110.113 38.2243 110.587 38.6333C110.887 38.898 111.165 39.1817 111.444 39.4685C111.864 39.8954 112.291 40.3009 112.747 40.6895C113.088 40.9956 113.406 41.3249 113.728 41.6517C114.01 41.9368 114.296 42.2102 114.601 42.4703C114.987 42.8002 115.342 43.1548 115.698 43.5164C116.052 43.8758 116.405 44.2284 116.789 44.5558C117.236 44.9361 117.641 45.3525 118.053 45.7699C118.35 46.0703 118.65 46.3601 118.971 46.6344C119.417 47.0146 119.823 47.431 120.234 47.8483C120.598 48.2154 120.972 48.5596 121.365 48.8947C121.706 49.2007 122.024 49.5297 122.346 49.8565C122.632 50.1462 122.924 50.4241 123.233 50.6892C124.854 52.0883 126.193 53.871 126.717 55.9884C126.75 56.1119 126.75 56.1119 126.784 56.2379C127.26 58.3409 126.903 60.4905 126.167 62.4756C125.801 63.4778 125.451 64.484 125.115 65.4966C125.029 65.7539 124.943 66.0113 124.856 66.2686C124.725 66.6585 124.595 67.0485 124.467 67.4393C123.954 69.0035 123.422 70.4007 122.462 71.7424C122.386 71.8554 122.309 71.9683 122.23 72.0848C122.02 72.3947 121.806 72.7013 121.59 73.0073C121.437 73.2253 121.285 73.4434 121.132 73.6616C121.06 73.7648 120.988 73.8679 120.914 73.9742C120.664 74.3348 120.42 74.6989 120.178 75.0655C119.711 75.7738 119.237 76.4765 118.76 77.1783C118.681 77.2945 118.602 77.4107 118.521 77.5304C118.398 77.7117 118.275 77.893 118.152 78.0743C117.679 78.7711 117.207 79.4687 116.735 80.1664C116.005 81.2451 115.275 82.3233 114.544 83.401C114.008 84.1904 113.473 84.9803 112.939 85.7703C112.808 85.9638 112.677 86.1572 112.546 86.3507C112.46 86.4787 112.373 86.6068 112.286 86.7348C112.244 86.798 112.201 86.8611 112.157 86.9262C111.901 87.3039 111.646 87.6817 111.391 88.0596C110.901 88.7848 110.41 89.509 109.916 90.2314C109.831 90.3572 109.831 90.3572 109.743 90.4855C108.981 91.596 108.209 92.4274 107.147 93.2507C106.669 93.6216 106.207 94.0061 105.75 94.4024C105.112 94.9566 104.463 95.4963 103.807 96.0298C103.607 96.1938 103.407 96.3579 103.207 96.5221C102.915 96.7619 102.623 97.0017 102.33 97.2413C101.402 98.0019 100.477 98.7664 99.5524 99.5307C98.6421 100.283 97.7317 101.035 96.8182 101.784C96.4016 102.126 95.986 102.469 95.5704 102.813C95.062 103.233 94.5533 103.653 94.0431 104.071C93.467 104.543 92.8923 105.017 92.3189 105.492C91.9133 105.828 91.5062 106.162 91.0954 106.491C89.9164 107.442 88.939 108.438 88.002 109.633C87.7332 109.97 87.456 110.299 87.1769 110.628C86.8066 111.065 86.4399 111.503 86.0792 111.948C85.7185 112.392 85.3517 112.831 84.9814 113.268C84.6318 113.68 84.2871 114.095 83.9518 114.519C83.6165 114.943 83.2718 115.358 82.9222 115.77C82.478 116.294 82.0399 116.822 81.6067 117.356C80.7542 118.404 79.8971 119.448 79.0235 120.479C78.5495 121.039 78.087 121.608 77.6243 122.177C75.9663 124.217 75.9663 124.217 75.1151 125.131C75.0572 125.197 74.9992 125.264 74.9395 125.332C73.687 126.703 71.8502 127.423 70.0967 127.866C69.9716 127.898 69.9716 127.898 69.844 127.931C69.399 127.998 68.9574 127.996 68.508 127.996C68.4174 127.997 68.3268 127.999 68.2334 128C66.982 128.003 65.7847 127.705 64.5738 127.415C64.4321 127.381 64.2903 127.348 64.1486 127.314C63.8492 127.243 63.5499 127.172 63.2507 127.101C62.7049 126.971 62.159 126.842 61.613 126.713C61.2205 126.621 60.828 126.528 60.4357 126.435C59.7114 126.262 58.9869 126.094 58.2591 125.937C56.4903 125.554 55.251 125.138 53.8795 123.919C53.5174 123.598 53.14 123.3 52.7574 123.004C52.1568 122.537 51.5771 122.05 51.0024 121.551C50.5542 121.162 50.0977 120.787 49.6329 120.418C49.1399 120.026 48.6551 119.623 48.1686 119.223C47.9686 119.059 47.7686 118.895 47.5686 118.731C47.4687 118.649 47.3689 118.567 47.266 118.483C47.0746 118.326 46.8831 118.169 46.6916 118.012C45.9923 117.439 45.2951 116.863 44.5982 116.287C43.9712 115.769 43.3429 115.253 42.7139 114.738C42.413 114.491 42.1121 114.244 41.8113 113.997C41.6198 113.84 41.4284 113.683 41.2368 113.526C40.5376 112.953 39.8404 112.378 39.1434 111.802C38.5165 111.284 37.8882 110.768 37.2591 110.252C36.9631 110.009 36.667 109.766 36.3717 109.523C36.1872 109.372 36.0012 109.223 35.8123 109.078C34.7006 108.209 33.735 107.181 32.744 106.179C32.54 105.974 32.3359 105.769 32.1317 105.564C31.6513 105.081 31.1715 104.597 30.6919 104.114C29.8332 103.248 28.9739 102.382 28.114 101.517C27.7649 101.166 27.4163 100.815 27.0678 100.463C26.8843 100.278 26.7008 100.093 26.5172 99.9086C26.4355 99.826 26.3538 99.7433 26.2697 99.6582C25.8336 99.2199 25.3867 98.8033 24.9192 98.3992C24.5986 98.117 24.2962 97.8176 23.9939 97.5159C23.9278 97.4503 23.8617 97.3848 23.7935 97.3172C23.5776 97.1027 23.3621 96.8879 23.1466 96.673C23.072 96.5986 22.9974 96.5242 22.9206 96.4476C22.5254 96.0537 22.1307 95.6593 21.7362 95.2647C21.3332 94.8618 20.929 94.4602 20.5244 94.0589C20.2096 93.746 19.8957 93.4322 19.5821 93.118C19.4337 92.9698 19.285 92.8219 19.1359 92.6744C18.1846 91.7328 17.352 90.7592 16.5723 89.6705C16.3102 89.3134 16.0319 88.9693 15.7537 88.6246C15.3122 88.0752 14.8771 87.5221 14.4495 86.9617C14.064 86.4565 13.6752 85.9539 13.2854 85.4519C13.2208 85.3686 13.1561 85.2853 13.0895 85.1994C12.9571 85.029 12.8248 84.8585 12.6925 84.6881C12.3718 84.275 12.0513 83.8617 11.7308 83.4485C11.6681 83.3676 11.6054 83.2867 11.5408 83.2034C11.2183 82.7877 10.896 82.372 10.5738 81.9561C9.99752 81.2123 9.4208 80.4689 8.83982 79.7288C8.19259 78.9042 7.55062 78.0756 6.90866 77.2469C6.6522 76.9159 6.39559 76.5851 6.13895 76.2542C6.01209 76.0907 5.88525 75.9271 5.75844 75.7635C5.43797 75.3501 5.11714 74.937 4.79563 74.5244C4.47652 74.1148 4.15878 73.7042 3.84174 73.2929C3.66141 73.0599 3.47959 72.828 3.29771 72.5962C1.9144 70.8151 1.02522 68.9299 1.02194 66.6334C1.02113 66.4953 1.02113 66.4953 1.0203 66.3544C1.01872 66.0518 1.01797 65.7492 1.01736 65.4466C1.01705 65.3426 1.01675 65.2385 1.01643 65.1314C1.0148 64.581 1.01379 64.0305 1.01331 63.4801C1.01272 62.9142 1.01009 62.3484 1.00699 61.7826C1.00495 61.345 1.00439 60.9074 1.00422 60.4698C1.0039 60.2614 1.00302 60.0529 1.00158 59.8444C0.994659 58.7662 0.994165 57.7811 1.36681 56.7542C1.40407 56.6251 1.44134 56.4961 1.47974 56.3631C2.20161 54.1694 3.69214 52.6907 5.30303 51.1144C5.5287 50.8929 5.75292 50.6699 5.97709 50.4469C7.74457 48.6885 7.74457 48.6885 8.57232 47.9731C8.97271 47.616 9.34618 47.2317 9.72281 46.8498C9.8091 46.7629 9.89539 46.6759 9.9843 46.5863C10.2576 46.3109 10.5306 46.0351 10.8035 45.7592C11.1635 45.3953 11.5237 45.0319 11.8843 44.6686C12.0058 44.5453 12.0058 44.5453 12.1299 44.4195C12.5641 43.9821 13.009 43.5676 13.4752 43.1648C13.8779 42.8061 14.2534 42.42 14.6321 42.0361C14.7184 41.9491 14.8047 41.8622 14.8936 41.7726C15.1669 41.4972 15.4399 41.2214 15.7128 40.9455C16.0727 40.5816 16.433 40.2181 16.7935 39.8549C16.9151 39.7316 16.9151 39.7316 17.0391 39.6058C17.483 39.1587 17.9373 38.7325 18.414 38.3208C18.8019 37.9835 19.1616 37.6172 19.5243 37.2531C19.606 37.1711 19.6877 37.0891 19.7718 37.0047C20.2792 36.4902 20.7512 35.9688 21.1965 35.3993C21.5031 35.0134 21.8256 34.6432 22.1494 34.2719C22.5569 33.8035 22.9594 33.3329 23.3495 32.8497C23.7988 32.293 24.266 31.7534 24.7353 31.2137C25.0802 30.8161 25.4189 30.4149 25.7496 30.0052C26.1944 29.4545 26.6556 28.9195 27.1196 28.3851C27.6566 27.7664 28.1857 27.1413 28.7128 26.514C28.9589 26.221 29.2054 25.9284 29.452 25.6359C29.5011 25.5777 29.5501 25.5194 29.6007 25.4594C29.9739 25.0171 30.3502 24.5776 30.727 24.1385C31.1081 23.6941 31.4841 23.2468 31.8521 22.7914C32.2997 22.2386 32.7628 21.7005 33.2299 21.1641C33.513 20.8386 33.7944 20.5122 34.0681 20.1786C34.6191 19.5077 35.194 18.8733 35.8068 18.2581C35.8729 18.1917 35.9389 18.1254 36.007 18.057C36.3407 17.7265 36.681 17.4088 37.0362 17.1016C37.4969 16.7019 37.9237 16.2735 38.3501 15.8375C38.8442 15.3323 39.346 14.8494 39.8808 14.3875C40.2415 14.0667 40.5764 13.721 40.9138 13.376C41.3828 12.9005 41.8524 12.4394 42.3627 12.0084C42.7302 11.6762 43.0749 11.3216 43.423 10.9691C43.8923 10.4939 44.3615 10.0326 44.8719 9.60157C45.2394 9.26934 45.5841 8.91472 45.9322 8.56224C46.4015 8.08703 46.8707 7.6257 47.3811 7.1947C47.8255 6.79298 48.2397 6.3596 48.6606 5.93339C49.0598 5.5307 49.4644 5.1465 49.8975 4.78058C50.244 4.46844 50.5684 4.13508 50.896 3.80322C51.424 3.26936 51.9546 2.75166 52.5324 2.27158C52.6095 2.20262 52.6865 2.13365 52.766 2.0626C56.0164 -0.738257 59.9825 -0.134906 63.8385 0.68519ZM57.9667 10.2853C57.896 10.3544 57.8254 10.4236 57.7525 10.4948C57.5378 10.7057 57.3259 10.919 57.1144 11.1332C56.9923 11.2556 56.8701 11.378 56.7479 11.5003C56.581 11.6677 56.4143 11.8353 56.2483 12.0037C55.9711 12.2843 55.6901 12.5534 55.3893 12.8084C54.9394 13.1916 54.5293 13.6121 54.1143 14.0324C53.645 14.5076 53.1757 14.9689 52.6654 15.3999C52.2979 15.7321 51.9532 16.0868 51.6051 16.4392C51.1358 16.9144 50.6666 17.3758 50.1562 17.8068C49.7887 18.139 49.444 18.4936 49.0959 18.8461C48.6266 19.3213 48.1574 19.7826 47.647 20.2136C47.2795 20.5459 46.9348 20.9005 46.5867 21.253C46.1174 21.7282 45.6482 22.1895 45.1378 22.6205C44.694 23.0217 44.2803 23.4545 43.86 23.8801C43.4435 24.3003 43.0202 24.7029 42.5702 25.0872C41.9473 25.6264 41.4304 26.2369 40.9151 26.8782C40.6158 27.2465 40.3092 27.6076 40.0001 27.9676C39.5732 28.4651 39.1475 28.9636 38.7251 29.465C38.6759 29.5233 38.6268 29.5816 38.5762 29.6417C38.428 29.8175 38.2799 29.9934 38.1319 30.1693C37.9342 30.4041 37.7365 30.6389 37.5387 30.8736C37.4896 30.9318 37.4405 30.99 37.39 31.05C37.0168 31.4923 36.6404 31.9318 36.2636 32.371C35.8825 32.8153 35.5065 33.2627 35.1386 33.718C34.6866 34.2766 34.2173 34.8187 33.7459 35.3608C33.401 35.7584 33.0624 36.1597 32.7317 36.5694C32.2868 37.12 31.8256 37.655 31.3616 38.1894C30.8247 38.8082 30.2955 39.4333 29.7685 40.0606C29.4277 40.4662 29.0863 40.8713 28.744 41.2756C28.5399 41.5169 28.337 41.7591 28.1352 42.0024C27.3556 42.9358 26.5266 43.8074 25.6641 44.664C25.4476 44.879 25.2321 45.095 25.0166 45.3111C24.8763 45.4513 24.7359 45.5914 24.5955 45.7314C24.5326 45.7945 24.4696 45.8575 24.4047 45.9224C24.0845 46.2399 23.7582 46.5449 23.4169 46.8396C22.9234 47.2682 22.4652 47.7282 22.0062 48.1934C21.8732 48.3275 21.8732 48.3275 21.7374 48.4642C21.4563 48.7475 21.1755 49.0311 20.8948 49.3148C20.5247 49.6889 20.1542 50.0626 19.7834 50.4362C19.7 50.5207 19.6166 50.6053 19.5306 50.6925C19.0905 51.1358 18.6403 51.5566 18.1678 51.9647C17.7653 52.3231 17.3901 52.7089 17.0117 53.0926C16.9254 53.1796 16.8391 53.2665 16.7502 53.3561C16.4769 53.6315 16.2039 53.9073 15.931 54.1832C15.5711 54.5471 15.2108 54.9106 14.8503 55.2738C14.7287 55.3971 14.7287 55.3971 14.6047 55.5229C13.9196 56.213 13.2509 56.8703 12.4059 57.3597C11.4674 58.0052 10.7069 58.6944 10.4517 59.8465C10.3111 60.7947 10.2831 61.7409 10.2852 62.698C10.2853 62.9268 10.2829 63.1555 10.2802 63.3843C10.2688 64.9306 10.2748 66.327 11.3988 67.4931C11.5202 67.6105 11.6428 67.7267 11.7667 67.8414C12.0899 68.1627 12.3458 68.5348 12.6104 68.9047C13.0904 69.5551 13.5859 70.1906 14.0922 70.8205C14.4783 71.3011 14.8565 71.7868 15.2306 72.277C15.6161 72.7822 16.005 73.2848 16.3947 73.7868C16.4593 73.8701 16.524 73.9535 16.5906 74.0393C16.723 74.2098 16.8553 74.3802 16.9877 74.5507C17.3083 74.9637 17.6288 75.377 17.9493 75.7903C18.0765 75.9544 18.2038 76.1185 18.3311 76.2826C22.1494 81.2057 22.1494 81.2057 22.3406 81.4522C22.467 81.6152 22.5934 81.7781 22.7198 81.9411C23.0517 82.3689 23.3835 82.7969 23.7151 83.225C23.8185 83.3583 23.8185 83.3583 23.9239 83.4944C24.0555 83.6642 24.187 83.834 24.3185 84.0038C24.4358 84.1551 24.5533 84.3061 24.6711 84.4569C24.7928 84.614 24.9116 84.7734 25.0294 84.9335C25.219 85.1531 25.3959 85.3202 25.616 85.5053C26.3201 86.1188 26.9678 86.791 27.6252 87.4538C27.7751 87.6045 27.925 87.7552 28.0749 87.9058C28.3965 88.229 28.7178 88.5523 29.0391 88.8757C29.5478 89.3879 30.057 89.8995 30.5662 90.4111C32.0139 91.8655 33.4609 93.3205 34.9074 94.776C35.7073 95.5808 36.5076 96.3852 37.3083 97.1893C37.8139 97.697 38.319 98.2052 38.8237 98.7138C39.1387 99.031 39.4541 99.3477 39.7697 99.6642C39.9151 99.8103 40.0603 99.9565 40.2053 100.103C40.9707 100.876 41.7365 101.607 42.6048 102.266C42.8029 102.427 43.0007 102.589 43.198 102.751C43.2988 102.834 43.3996 102.917 43.5035 103.003C43.6029 103.084 43.7024 103.166 43.8048 103.25C43.9912 103.403 44.1775 103.556 44.3639 103.708C44.9689 104.205 45.572 104.703 46.1752 105.202C46.8021 105.72 47.4304 106.236 48.0595 106.751C48.3604 106.998 48.6613 107.245 48.9621 107.492C49.1535 107.649 49.345 107.806 49.5366 107.963C50.2358 108.536 50.933 109.111 51.6299 109.687C52.2569 110.205 52.8852 110.721 53.5143 111.237C53.8152 111.484 54.116 111.731 54.4169 111.977C54.6083 112.134 54.7998 112.291 54.9913 112.448C55.6093 112.955 56.2258 113.463 56.8417 113.972C57.079 114.168 57.3164 114.364 57.5538 114.56C57.687 114.67 57.8203 114.78 57.9535 114.89C58.1101 115.02 58.2668 115.149 58.4236 115.278C58.5068 115.347 58.5901 115.415 58.6758 115.486C58.7726 115.564 58.8693 115.642 58.969 115.722C59.0338 115.783 59.0987 115.844 59.1655 115.907C59.8821 116.538 60.6208 116.701 61.5396 116.878C61.6902 116.909 61.8407 116.94 61.9911 116.972C62.2193 117.02 62.4475 117.068 62.6758 117.115C63.3681 117.258 64.0528 117.427 64.7374 117.603C64.9469 117.656 65.1565 117.709 65.366 117.762C65.4641 117.787 65.5622 117.812 65.6632 117.838C66.1109 117.951 66.5591 118.062 67.008 118.17C67.0819 118.189 67.1557 118.207 67.2319 118.226C67.787 118.361 67.787 118.361 68.3512 118.348C68.5727 118.177 68.5727 118.177 68.7603 117.931C68.8356 117.84 68.9108 117.75 68.9883 117.657C69.0661 117.56 69.1438 117.463 69.224 117.363C69.3006 117.27 69.3773 117.176 69.4562 117.08C69.6187 116.881 69.7806 116.682 69.942 116.483C70.2262 116.135 70.5153 115.791 70.8058 115.449C71.341 114.817 71.8663 114.178 72.3877 113.534C72.9593 112.829 73.5371 112.13 74.1238 111.438C74.5214 110.968 74.9108 110.491 75.2988 110.013C75.5818 109.668 75.8696 109.327 76.1583 108.987C76.508 108.575 76.8526 108.16 77.1879 107.736C77.5729 107.249 77.9715 106.775 78.373 106.301C78.6912 105.926 79.0051 105.547 79.3153 105.165C79.676 104.72 80.0427 104.282 80.413 103.845C80.7647 103.431 81.1116 103.013 81.4494 102.587C81.5186 102.5 81.5878 102.413 81.6591 102.324C81.8179 102.124 81.9757 101.923 82.133 101.722C82.7468 100.956 83.395 100.348 84.17 99.7495C84.3705 99.586 84.5705 99.4219 84.77 99.2572C85.0623 99.0173 85.3546 98.7775 85.647 98.5379C86.5751 97.7774 87.4998 97.0129 88.4247 96.2486C89.3359 95.4956 90.2472 94.7427 91.1615 93.9934C91.806 93.464 92.4486 92.9323 93.0916 92.401C93.5582 92.0155 94.0249 91.6301 94.4915 91.2448C94.8862 90.9189 95.2807 90.5929 95.6753 90.2669C97.0112 89.1631 97.0112 89.1631 97.6432 88.6451C98.3876 88.0348 99.1306 87.4229 99.8714 86.8083C100.082 86.6344 100.293 86.462 100.505 86.2899C100.629 86.1884 100.752 86.0869 100.875 85.9852C100.981 85.8988 101.087 85.8123 101.197 85.7233C102.081 84.9249 102.698 83.831 103.357 82.8467C103.459 82.6952 103.561 82.5436 103.663 82.3921C103.868 82.0864 104.074 81.7806 104.28 81.4747C104.688 80.8663 105.1 80.2599 105.512 79.6536C106.163 78.6945 106.812 77.7349 107.462 76.7749C108.192 75.6962 108.922 74.618 109.653 73.5402C110.057 72.9446 110.461 72.3487 110.864 71.7526C110.929 71.657 110.929 71.657 110.995 71.5594C111.213 71.2368 111.431 70.9142 111.649 70.5916C112.08 69.9541 112.512 69.3173 112.946 68.6816C113.03 68.558 113.114 68.4344 113.199 68.3107C113.355 68.0812 113.512 67.8518 113.669 67.6227C113.775 67.4665 113.775 67.4665 113.884 67.3073C113.945 67.2179 114.006 67.1286 114.069 67.0365C114.138 66.9287 114.208 66.8209 114.28 66.7098C114.332 66.6307 114.383 66.5516 114.436 66.4701C114.843 65.8192 115.121 65.1789 115.358 64.4496C115.394 64.3414 115.43 64.2332 115.467 64.1218C115.582 63.7791 115.695 63.436 115.808 63.0927C115.92 62.7534 116.033 62.4142 116.147 62.075C116.22 61.8543 116.293 61.6335 116.366 61.4126C116.532 60.9095 116.702 60.4085 116.884 59.9111C116.916 59.8254 116.947 59.7397 116.979 59.6514C117.037 59.4941 117.096 59.337 117.156 59.1805C117.259 58.9021 117.338 58.6687 117.321 58.3701C117.198 58.1204 117.049 57.9729 116.844 57.7854C116.766 57.7128 116.687 57.6403 116.607 57.5655C116.523 57.4896 116.439 57.4136 116.353 57.3354C116.183 57.1779 116.012 57.0204 115.842 56.8627C115.76 56.7872 115.678 56.7118 115.594 56.634C115.329 56.3865 115.073 56.1314 114.819 55.8721C114.546 55.5945 114.269 55.332 113.973 55.0789C113.583 54.7439 113.223 54.3853 112.862 54.0191C112.442 53.5926 112.015 53.1867 111.559 52.7982C111.218 52.492 110.9 52.1628 110.578 51.8359C110.296 51.5508 110.01 51.2774 109.705 51.0174C109.319 50.6874 108.964 50.3328 108.607 49.9712C108.253 49.6119 107.9 49.2593 107.516 48.9319C107.07 48.5516 106.664 48.1352 106.253 47.7178C105.956 47.4174 105.656 47.1275 105.334 46.8532C104.888 46.473 104.483 46.0567 104.072 45.6393C103.708 45.2723 103.334 44.928 102.941 44.5929C102.554 44.2464 102.195 43.8713 101.833 43.4993C101.606 43.2712 101.37 43.0599 101.125 42.8507C100.593 42.3847 100.094 41.8871 99.595 41.3852C99.4434 41.2335 99.4434 41.2335 99.2888 41.0787C99.014 40.8037 98.7396 40.5283 98.4652 40.2528C98.1766 39.9631 97.8876 39.6736 97.5988 39.3841C97.1139 38.8981 96.6293 38.4119 96.1449 37.9255C95.5866 37.365 95.0279 36.805 94.4691 36.2452C93.9872 35.7625 93.5056 35.2796 93.0242 34.7965C92.7375 34.5089 92.4508 34.2213 92.1639 33.9339C91.8438 33.6133 91.5241 33.2922 91.2045 32.9711C91.1107 32.8772 91.0169 32.7833 90.9202 32.6866C90.4534 32.2168 90.0043 31.739 89.573 31.2363C89.351 30.9805 89.1167 30.7391 88.8782 30.4988C88.7817 30.4013 88.6852 30.3038 88.5857 30.2033C88.4826 30.0998 88.3795 29.9963 88.2764 29.8928C88.1679 29.7836 88.0593 29.6744 87.9508 29.5651C87.7243 29.3374 87.4976 29.1098 87.2708 28.8824C86.9833 28.5942 86.6966 28.3052 86.4101 28.016C86.1864 27.7904 85.9622 27.5654 85.7379 27.3404C85.5815 27.1834 85.4256 27.0259 85.2697 26.8684C84.693 26.2921 84.0997 25.7578 83.4622 25.2498C83.1798 25.0206 82.9107 24.7808 82.6427 24.535C82.1798 24.1125 81.7019 23.7137 81.2155 23.3188C80.8694 23.0354 80.5284 22.7467 80.188 22.4564C79.755 22.0874 79.3196 21.7221 78.8789 21.3624C78.3766 20.9523 77.8817 20.5342 77.3882 20.1136C77.0155 19.7965 76.6397 19.4838 76.2606 19.1743C75.7583 18.7643 75.2635 18.3462 74.7699 17.9256C74.3972 17.6085 74.0214 17.2957 73.6423 16.9863C73.14 16.5762 72.6452 16.1581 72.1516 15.7375C71.7789 15.4204 71.4031 15.1076 71.024 14.7982C70.5833 14.4385 70.1479 14.0731 69.7149 13.7042C68.9271 13.0337 68.9271 13.0337 68.1258 12.3797C67.9161 12.2081 67.7109 12.0309 67.5112 11.8477C66.5094 10.9782 65.5606 10.7615 64.2738 10.552C64.0791 10.5173 63.8845 10.4822 63.69 10.4467C63.3084 10.3772 62.9267 10.3094 62.5446 10.2428C61.7744 10.1062 61.0135 9.93124 60.2522 9.75143C59.2216 9.51665 58.7218 9.51455 57.9667 10.2853Z"
		fill="black" />
	<path
		d="M61.4777 28.09C61.5482 28.1015 61.6186 28.1129 61.6912 28.1246C62.1797 28.2049 62.6658 28.2945 63.1516 28.3894C63.3225 28.4224 63.4935 28.4543 63.6647 28.4851C65.4503 28.807 65.4503 28.807 66.1688 29.5123C66.286 29.6105 66.4037 29.7081 66.5221 29.805C66.634 29.9009 66.7458 29.9971 66.8574 30.0935C67.2969 30.4698 67.7386 30.8424 68.187 31.208C68.6894 31.618 69.1842 32.0362 69.6777 32.4567C70.0504 32.7738 70.4262 33.0866 70.8053 33.3961C71.3077 33.8061 71.8025 34.2242 72.296 34.6448C72.6687 34.9619 73.0445 35.2747 73.4236 35.5841C73.9257 35.994 74.4204 36.4118 74.9136 36.8324C75.3775 37.2273 75.848 37.6135 76.3227 37.9953C77.2444 38.7727 78.1057 39.6078 78.9545 40.4635C79.0725 40.5821 79.1906 40.7006 79.3086 40.8191C79.5606 41.0722 79.8125 41.3254 80.0642 41.5788C80.4629 41.9801 80.862 42.381 81.2612 42.7819C82.1082 43.6325 82.9548 44.4835 83.8013 45.3347C84.7162 46.2546 85.6312 47.1744 86.5468 48.0938C86.9429 48.4916 87.3388 48.8896 87.7345 49.2879C87.9812 49.5362 88.2282 49.7842 88.4752 50.0321C88.5889 50.1464 88.7025 50.2607 88.8161 50.3752C89.3736 50.9371 89.9329 51.4887 90.5353 52.0024C90.8104 52.2413 91.061 52.4993 91.3152 52.7604C91.648 53.0992 91.9832 53.4299 92.3448 53.7382C92.7309 54.0681 93.0864 54.4227 93.4426 54.7843C93.7965 55.1437 94.1494 55.4962 94.5335 55.8236C94.9796 56.2039 95.3853 56.6202 95.7964 57.0375C96.1595 57.4044 96.5339 57.7486 96.9268 58.0835C97.2155 58.3423 97.4868 58.6174 97.7586 58.8938C98.1944 59.3357 98.6369 59.7505 99.1155 60.1451C98.8288 61.1371 98.5083 62.1173 98.1769 63.0951C98.1122 63.2876 98.0486 63.4804 97.986 63.6736C97.5599 64.9867 97.0389 66.0693 96.2057 67.1709C95.9579 67.504 95.7273 67.849 95.4949 68.193C95.0003 68.9154 94.5012 69.6347 94.0017 70.3537C93.4087 71.2073 92.8198 72.0634 92.2353 72.9229C91.6956 73.7155 91.1497 74.5038 90.6002 75.2896C90.2516 75.7891 89.9081 76.2902 89.5791 76.8029C88.8418 77.9442 88.0845 78.7975 87.0059 79.6188C86.8821 79.7162 86.7585 79.8139 86.6352 79.9119C86.3857 80.1098 86.1351 80.3063 85.8839 80.5021C85.4239 80.8628 84.9739 81.2354 84.524 81.6085C83.9604 82.076 83.395 82.5406 82.8224 82.997C82.4332 83.3091 82.0468 83.6247 81.6603 83.9402C81.1049 84.3933 80.548 84.8444 79.9881 85.2919C79.7566 85.4782 79.526 85.6654 79.296 85.8534C79.1875 85.9421 79.1875 85.9421 79.0768 86.0326C78.9261 86.1557 78.7756 86.2791 78.6252 86.4025C78.2659 86.6965 77.9048 86.9863 77.5338 87.2654C76.7084 87.8885 76.0736 88.5281 75.4419 89.3556C75.2445 89.5949 75.0432 89.8308 74.8418 90.0667C74.4757 90.4983 74.1139 90.9328 73.7577 91.3727C73.326 91.9048 72.882 92.4251 72.4356 92.9447C72.0213 93.4279 71.6173 93.9188 71.2166 94.4134C70.6911 95.0564 70.1513 95.6874 69.6144 96.3209C69.0893 96.9407 68.5656 97.5615 68.0507 98.1899C67.9311 98.3337 67.9311 98.3337 67.809 98.4805C67.5827 98.7591 67.5827 98.7591 67.4025 99.0617C67.2249 99.3398 67.0774 99.5389 66.8233 99.7489C65.897 99.8468 64.9078 99.513 64.021 99.2771C63.7522 99.2073 63.4835 99.1376 63.2147 99.0681C63.0857 99.0345 62.9566 99.0009 62.8237 98.9663C62.2045 98.8087 61.5809 98.6719 60.9565 98.5369C60.3052 98.3501 59.8589 97.9537 59.3571 97.513C59.2209 97.3946 59.0847 97.2762 58.9485 97.1578C58.8793 97.0975 58.8101 97.0371 58.7389 96.975C58.4168 96.6946 58.0926 96.4166 57.7685 96.1386C57.6413 96.0293 57.5142 95.9201 57.387 95.8108C57.3241 95.7567 57.2611 95.7025 57.1962 95.6468C57.0038 95.4813 56.8114 95.3157 56.6191 95.1501C56.0039 94.6205 55.3878 94.0922 54.7683 93.5676C54.0841 92.9882 53.404 92.404 52.7246 91.8189C52.4059 91.5447 52.0871 91.2707 51.7682 90.9967C51.7057 90.9429 51.6432 90.8892 51.5788 90.8338C51.2525 90.5533 50.9262 90.273 50.5997 89.9928C50.4993 89.9066 50.4993 89.9066 50.3969 89.8187C50.271 89.7106 50.1452 89.6027 50.0193 89.4947C49.9039 89.3957 49.7888 89.2965 49.6737 89.1971C49.545 89.0859 49.4159 88.9751 49.2865 88.8647C48.6916 88.3515 48.1357 87.8056 47.5827 87.2476C47.4319 87.0962 47.2812 86.9448 47.1305 86.7934C46.9702 86.6323 46.81 86.471 46.6499 86.3097C46.315 85.9724 45.9796 85.6355 45.6443 85.2986C44.9329 84.584 44.222 83.8689 43.5111 83.1538C42.7423 82.3805 41.9734 81.6072 41.204 80.8344C40.8709 80.4998 40.5381 80.165 40.2054 79.8299C40.0484 79.6718 39.8912 79.5138 39.7339 79.3558C39.5426 79.1637 39.3515 78.9713 39.1607 78.7787C38.7602 78.3772 38.3642 77.9947 37.9131 77.6495C37.7518 77.4652 37.7518 77.4652 37.6195 77.2816C37.5689 77.2124 37.5184 77.1433 37.4663 77.0721C37.4135 76.9986 37.3607 76.9252 37.3063 76.8495C36.8613 76.2421 36.4081 75.6443 35.9358 75.058C35.4941 74.5088 35.0592 73.9556 34.6316 73.3952C34.246 72.89 33.8572 72.3874 33.4675 71.8853C33.4032 71.8024 33.3388 71.7195 33.2725 71.6341C33.0739 71.3782 32.8752 71.1224 32.6766 70.8665C30.7265 68.3554 30.7265 68.3554 30.3489 67.8349C30.14 67.559 29.9127 67.3416 29.6517 67.1152C28.6217 66.1457 28.399 65.1483 28.331 63.7765C28.2567 61.0712 28.2567 61.0712 28.831 60.2263C29.1876 59.8511 29.6161 59.5861 30.0472 59.3043C30.7355 58.7891 31.3136 58.1437 31.9109 57.5275C32.2738 57.1538 32.6406 56.7841 33.0077 56.4147C33.0713 56.35 33.1349 56.2853 33.2004 56.2187C33.5226 55.8936 33.8512 55.5828 34.1973 55.2833C34.6549 54.8865 35.0812 54.4636 35.5062 54.0322C35.5853 53.9525 35.6643 53.8729 35.7457 53.7908C35.9957 53.5387 36.2454 53.2864 36.4949 53.0339C36.8241 52.7008 37.1537 52.3681 37.4836 52.0356C37.5575 51.9606 37.6314 51.8856 37.7075 51.8083C38.132 51.3804 38.5677 50.9744 39.0266 50.5837C39.3566 50.2878 39.6395 49.9539 39.9246 49.615C39.9854 49.5437 40.0463 49.4724 40.109 49.3989C40.5447 48.8864 40.9697 48.3654 41.3923 47.8419C41.7036 47.4655 42.0322 47.1061 42.3605 46.7445C42.6901 46.3729 42.9998 45.9866 43.3116 45.6C43.6329 45.2093 43.9632 44.8273 44.2952 44.4458C44.7026 43.9773 45.1052 43.5067 45.4953 43.0235C45.9959 42.404 46.5171 41.8034 47.0392 41.2021C47.4466 40.7329 47.8502 40.2604 48.253 39.7872C48.4062 39.6076 48.5598 39.4283 48.7136 39.2491C48.8015 39.146 48.8015 39.146 48.8912 39.0408C49.3544 38.5024 49.8404 37.9931 50.3432 37.4918C50.4157 37.4187 50.4882 37.3456 50.5628 37.2703C50.9892 36.8435 51.4284 36.44 51.8844 36.0455C52.2246 35.7427 52.5411 35.4177 52.8592 35.0918C53.3111 34.6333 53.7657 34.1918 54.257 33.7756C54.6045 33.4619 54.9304 33.1276 55.2593 32.7944C55.7115 32.3361 56.1658 31.8943 56.657 31.4781C57.0757 31.1003 57.4658 30.693 57.8619 30.2917C58.2585 29.8914 58.66 29.5069 59.0946 29.1477C59.3099 28.9603 59.3099 28.9603 59.5242 28.6973C59.644 28.5592 59.644 28.5592 59.7663 28.4182C59.8703 28.2896 59.8703 28.2896 59.9763 28.1584C60.4731 27.8653 60.9253 27.9986 61.4777 28.09Z"
		fill="black" />
</svg>