<?xml version="1.0" encoding="UTF-8"?>
<svg id="Layer_1" xmlns="http://www.w3.org/2000/svg" version="1.1" viewBox="0 0 1500 210">
  <!-- Generator: Adobe Illustrator 29.6.1, SVG Export Plug-In . SVG Version: 2.1.1 Build 9)  -->
  <defs>
    <style>
      .st0, .st1 {
        fill: #dbceb7;
      }

      .st1 {
        fill-rule: evenodd;
      }
    </style>
  </defs>
  <g>
    <path class="st0" d="M953.9,40.1c-2.5.2-3.7.2-3.5.2l-7.1-.3c-1.6,0-2.5.1-2.8.4.2.5.2,1,.2,1.4,2.6.4,4.1,1.3,4.4,2.7.4,2,.7,3.6.8,4.7,0,.2,0,.4-.1.8-.1.4-.2.6-.2.7,0,.3,0,.8.2,1.4.1.6.2,1,.1,1.2l-.2,1.1c0,.2,0,.4.2.7.1.3.2.5.2.7,0,.3,0,1,0,2,0,.8,0,1.4,0,1.9,0,.1,0,.4.1.7,0,.3.1.5.1.6s0,.4-.2,1c-.1.6-.1,1,0,1.2.2,1.5.4,2.6.5,3.3,0,.9-.1,1.6-.2,2.1,0,.4,0,.7,0,1,0,.2,0,.4,0,.6v4.2c0,.1,0,.3.2.7.1.3.2.5.2.7s-.2.4-.7.6c-1.2-1.5-2.1-2.6-2.8-3.3,0,0-.1,0-.2.2-.1.1-.3.2-.4.2s-.3-.1-.5-.4c-.3-.9-.4-1.5-.5-1.9-.5-.8-1.6-2-3.5-3.5-.3-.5-.5-.9-.8-1.4-.6-1-1-1.4-1.4-1.4s-.3,0-.7.2c-.3.2-.5.2-.6.2-1,0-1.3-1.1-1-3.4-1.8-2.2-3.1-3.9-4-5-4.3-6-7.6-10.5-9.7-13.5-1.1-1.6-1.9-2.4-2.3-2.5-.1,0-.5,0-1.1,0s-1.1,0-2.9.2c-1.8.1-2.8.2-2.9.2s-1.2,0-3.1-.2c-2-.1-3-.2-3.1-.2-1.1,0-1.8.2-2.1.5v1.3l.2.2c3-.2,5.5.7,7.4,2.8,0,.2,0,.4,0,.7,0,.3-.1.4-.1.5,0,.7,0,2.5.3,5.6v5.4c0,1,.2,3,.5,5.9,0,.1,0,.2,0,.3,0,.4,0,.7-.2.9l-.2.2c.2.4.3.7.3.8,0,1.7-.1,2.5-.2,2.5,0,.4,0,1,.2,1.8.1.9.2,1.5.2,1.9s0,.8,0,1.5c0,.7,0,1.2,0,1.5l.2.4-.3.4c-.1.3-.1.6,0,.9.4.8.2,3.1-.4,6.9-.3,1.5-1,2.6-2.3,3.3-1.3.6-2.3,1-3,1.2-.6.3-.9.9-.9,1.8s.1.2.3.4h.6c.1,0,.6,0,1.5-.2.8-.1,1.3-.2,1.4-.2h13.6c.2-.3.2-.7.2-1.2,0,0-.1-.2-.3-.4-.1-.2-.2-.3-.3-.3-3.9-.3-5.8-3.1-5.8-8.6s0-1.4,0-3.9c0-2.5,0-3.8,0-4v-5.4c0,0,0-1-.1-3.2,0-2.2-.1-3.8-.1-4.8s0-.3.1-.6c0-.3.1-.6,0-.7-.4-2.7-.5-4-.5-4,0-.5.3-.9.8-1.2.7,1,1.2,1.7,1.6,2.2.1.3.2.6.2.8,1,1,1.8,1.7,2.3,2.1,4.3,5.5,7.6,9.7,9.9,12.5,1.1,1.5,1.9,2.7,2.3,3.5,1.9,2,3.3,3.6,4.4,4.7,1.2,1.6,2.2,2.7,2.8,3.6,3.5,4.2,6.1,7.1,7.9,8.7.3.2.9.3,2,.3-.2,0,.6-.2,2.4-.5,0,0,0,0,0,0,0,0,0,0,0-.3v-11.9c0-.1,0-.5-.2-1.1-.1-.6-.2-1.1-.2-1.3,0-.4,0-2.2.2-5.3,0-.2,0-.6,0-1,0-.4-.1-.7-.1-.8v-6.2c0-.1,0-1.3-.2-3.4-.1-2.1-.2-3.3-.2-3.4,0-1.5.2-3.4.5-5.8.2-1.4.7-2.8,1.5-4.2.6-1,1.3-1.6,2.3-1.9.9-.2,1.6-.3,2.1-.4v-1.4c-.8-.3-2-.4-3.5-.3Z"/>
    <path class="st0" d="M910.6,67.6s0,0,0,0c0,0,0,0,0,0Z"/>
    <path class="st0" d="M943,71.5c.2,0,0-.2-.4-.6l-.2.8.2.2.4-.4Z"/>
    <path class="st0" d="M883.7,44c-.4,0-.7,0-.8,0h-.7v.3c-.3.6-.5,1.1-.6,1.5v.4c0,0,.3.1.3.1,1.2.4,2.1.7,2.6.8.4.2.8.7,1.3,1.3.2.5.4.9.6,1.2.3.4.5.7.7,1,.2.6.2,1.1.3,1.4h0c.3,1.1.2,1.4.2,1.4v.2c0,0,0,.2,0,.2.4.6.5.9.5,1v3.1c.1,1.5.2,2,.2,2.1,0,1.1,0,1.6-.1,1.7h.4c0,0-.4,0-.4,0v.5h.1s0,0,0,0c0,0,0,0,0,0h0c0,0,0,.3-.2.5-.2.6-.2.7-.2.8v4.7c0,.1,0,.2,0,.4-.2.2-.2.4-.2.6s0,.3.3.9c.2.4.2.5.2.6.1,1.6.2,2.4.2,2.5,0,0,0,.3-.6,1.2v.2c-.1,0,0,.2,0,.2.2.4.2.5.2.5-.5,1.9-.6,2.2-.6,2.3l.4.2h-.5s0,.5,0,.5h.2c0,.2.2.4.4.7.5.7.6,1.1.7,1.2,0,.2,0,.6-.1,1v.2c0,0,0,.2,0,.2.3.5.3.8.3.9s0,.5-.3,1.5c-.5,0-1-.1-1.3-.2h-.4s-.5,1.7-.5,1.7c-.2.4-.7.6-1.5.8-.8.1-1.7.3-2.5.4-.4.1-.9.5-.9,1.5s.1,1.3,1.6,1.3l8.1-.2c0,0,.3,0,.6,0,.2,0,.4,0,.4,0,0,0,.3,0,.7,0,.5,0,.7,0,.8,0s.4,0,1,0c.6,0,.9,0,1,0,0,0,.5,0,1.3,0,.8,0,1.3,0,1.4,0h4.8v-.3c.4-.7.5-1.2.6-1.6v-.5s-.5,0-.5,0c-1.3,0-2.5-.3-3.8-1.1-.8-.5-1.1-.8-1.2-1-.5-1-.9-2.3-1-4-.2-1.4-.2-2.5,0-3.4v-6c0,0-.2-.9-.2-.9,0-.2.1-.5.2-.9l.2-16.4c.5-2.1.9-4.3,1-4.4.3-.6.6-1,.8-1.4.2-.5.7-.8,1.5-1l2.6-.6v-.3c.3-.7.5-1.3.6-1.7l.2-.6-20,.2c0,0-.3,0-.7,0Z"/>
  </g>
  <path class="st0" d="M1180,144.5c.5,8.5.9,13.5,1.2,15,.9,4.4,3.1,8.1,6.6,11.1,1,.9,2.4,1.3,4.1,1.2,2.1-.2,3.4-.2,4,0,1,.3,1.8,1,2.5,2.2.3.6.5,1.1.5,1.7,0,2.7-1.6,4.1-4.9,4.1s-1.3-.1-1.9-.4c-1.9-.9-4.1-1.4-6.6-1.6-1.8-.2-4.1-.2-6.9,0-3.5,0-5.7.1-6.8.1-11.3-.2-17.9-.2-19.8.2-1.9.4-4.9.7-9,1.1-3.6.3-5.9-.4-6.8-2.2-.2-.6-.1-1.3.4-2.4.5-1,1.1-1.6,1.9-1.7.2,0,3.3-.4,9.3-1,4.6-.5,7.4-4.3,8.4-11.6.2-4.8.4-12.1.7-21.8,0-.6-.1-1.5-.4-2.8-.3-1.3-.4-2.2-.4-2.8.2-6.6-.4-16-1.6-28.1v-9.5c0-.2-.3-1.6-1-4.4-.7-2.8-1.1-4.8-1.1-6-.4-5.4-.5-9.1-.4-11.1,0,0,.2-.9.7-2.4.4-1.5.7-2.8.7-3.9,0-1.7-.5-3-1.6-3.9-1.9,1.4-3.4,3.9-4.3,7.6-.7,1.1-1.6,2.7-2.7,4.8-.3,1.5-.9,3.7-1.8,6.6-.4.6-1,1.6-1.9,3-.2.9-.5,2.1-1,3.6-1.4,3-3.6,7.3-6.4,13-.2,1.1-.5,2.8-1,5.1-.7,1-1.5,2.2-2.4,3.7-.2,1.2-.6,2.8-1.3,4.8-1.4,2.5-3.5,6.3-6,11.5-.2,1.6-.8,3.9-1.7,7-.4.5-1,1.2-1.7,2.2,0,.2-.6,2-1.7,5.2-.6,1-1.4,2.5-2.3,4.5-.2,1.1-.7,2.9-1.4,5.2-.6.8-1.4,2.1-2.3,4,0,0-2.5,5.8-7.4,17.1,0,1.5-.9,3.6-2.5,6.3,0,0-1.9.2-5.4.6-2.2.2-3.9-.3-5.1-1.5-1.2-1.2-3.1-4.8-5.7-10.6-1.3-2.5-3.1-6.2-5.3-11.1-.8-2.6-2-6-3.6-10.4-.2-.6-4.6-9-13-25.5-.2-1-.7-2.5-1.3-4.5-3.9-7.6-9.6-19.5-17.1-35.8-.7-3.2-2.2-7.9-4.3-14.1-2.1-4.3-4.3-6.4-6.6-6.4-.6.6-1,2.7-1,6.4.3,1,.6,2.4,1,4.3,0,1,0,2.5-.1,4.5,0,2.3-.1,3.4-.1,3.3v11.6l-3,45.5v10c0-.7,0,.1-.2,2.5-.1,2.4-.2,6.4-.2,11.8,0,1.5.5,3.4,1.2,5.8,2,3.3,3.9,5.5,5.8,6.6,1.6.3,4.1,1.1,7.4,2.4,1.2.6,1.6,1.8,1.1,3.4-1.6,1.8-6.2,2.3-13.7,1.3h-11c-2.2,0-3.8,0-4.9.2-5.3.6-10.7.8-16.3.7-.7-.5-1.2-1.3-1.4-2.5-.2-1.4.1-2.3,1.1-2.8.4-.2,2.3-.6,5.5-1,.7-.4,1.7-1,2.9-1.7,3.9-1.9,6.5-5.4,7.8-10.7.3-1.3.8-5.5,1.4-12.5.4-1,.9-2.5,1.6-4.5.6-2.9.8-4.9.8-5.9v-9.2c0-.3.1-.8.3-1.4.2-.6.3-1,.3-1.2,0-4.9.6-12.1,1.9-21.5.2-.6.4-3.3.6-8.1.3-8.2.4-13.8.2-16.7,0-.3.1-1,.4-2.1.2-1.1.4-1.7.4-2v-16.9c0-.3.4-1.5,1.3-3.6.8-2,1.4-3.5,1.6-4.3.3-1.5.3-3.2,0-5.2-.6-1.2-1.6-3-2.8-5.4,0-1.7-1.1-3.8-3-6.4-1-.2-2.6-.4-4.6-.7-2-.3-4.7-.8-8-1.4-3.3-.6-5.1-1-5.4-1.1-2.2-.6-3.4-1.7-3.5-3.1,1.9-1.7,5.2-2.3,9.8-1.7,3.4.5,8,1.1,13.7,1.9.7,0,1.9,0,3.5-.2,2-.4,3.4-.6,4.2-.6.4,0,5,.2,13.7.7,2.4,0,4.3,2.5,5.8,7.4.6,1,1.7,3,3.1,5.9.4,1.5,1.1,3.7,2,6.6,1.4,1.2,3,3.2,4.9,5.9,0,1.5.3,3.7.6,6.6.6.9,1.4,2.1,2.3,3.7,6.4,14.6,12.5,28.8,18.2,42.8,1.4,3.4,2.8,7.3,4.3,11.9,1.5,4.5,3.7,9.6,6.6,15.1,1.2,1.3,2.7,3.3,4.6,5.9.2.3.6,2,1.1,4.9.4,1.9,1.3,2.9,2.7,3.1,1-.2,1.7-.8,2.3-1.8,2.5-4.7,5.3-11.8,8.6-21.2,3.2-9.4,6.3-17,9.4-22.8.3-1.2.9-3.1,1.7-5.5.6-1.4,1.6-3.7,3-6.6,0-.3.5-.9,1.3-1.7.8-.8,1.2-1.5,1.4-1.9.2-1.7.8-4.1,1.7-7.1l3.4-7.7c1.2-1.7,3.2-4.5,6-8.6.2-.2.7-2.2,1.3-5.8,0-.4,2.5-6.4,7.2-17.9,0-1.5.5-3.7,1.3-6.6,2.2-4.9,7-6.7,14.5-5.4.9.5,2.2,1,4.1,1.6,5.9.6,10.1.5,12.8-.1,1.6,0,3.9-.2,6.8-.5.6-.4,1.7-.9,3.3-1.6,1.5-.7,3.2-.7,4.9-.2.9.3,1.4,1,1.4,1.9.2,2.5-1,4-3.7,4.6-2.3.3-4.7.6-7,1-.6.5-1.7,1.2-3.3,2.3-1.6,1-3.7,2.9-6.4,5.5,0,.2-.8,3.1-2,8.8-1,4.7-.9,11.7.4,21,.6,4.3.9,8.3,1.1,11.9,0,3.9.1,9.8.4,17.7,0-.2-.2,4.2-.5,13.3-.2,5.1.2,10.1,1.1,15.1.9,3.2,1.8,8,2.8,14.5h0ZM1267.2,39l-7.2,1.6c-3.1.7-5,2.1-5.8,4.1-.6,1-1.4,2.3-2.4,4.1-.2.6-1.2,5.2-3.1,14l-.5,66.9c-.6,2.1-.8,3.2-.8,3.4l.8,2.5-.2,18.7c-.6,2.6-.6,6.1,0,10.6.6,5.2,1.7,9.5,3.4,12.8.6,1.1,2,2.4,4.2,3.7,4.2,2.4,8.4,3.6,12.5,3.5,0,1-.5,2.6-1.3,4.6h-14c-.2,0-1.6,0-4.2-.2-2.5-.2-3.9-.2-4-.2-.2,0-1.3,0-3.3.2-1.9.2-3,.2-3.1.2s-.9,0-2.2-.2c-1.3-.2-2.1-.2-2.4-.2s-.8,0-1.6.2c-.8.2-1.4.2-1.6.2l-25.2.6c-2.2,0-3.3-.8-3.3-2.4s.6-2.9,1.7-3.3c2.6-.5,5.1-.9,7.7-1.3,3-.6,4.9-1.7,5.8-3.3.3-1,.8-2.5,1.4-4.5,1.1,0,2.9.3,5.2.7.8-3.3,1.2-5.4,1.2-6.4s-.4-2.1-1.2-3.6c.6-1.6.8-3,.4-4.1-.3-.8-1.1-2.2-2.3-4.1-1-1.7-1.6-2.7-1.6-2.9,0,.6.7-1.9,2-7.2.2-.6,0-1.6-.7-2.8,1.4-2.3,2-3.8,2-4.6s-.2-2.8-.6-7.8c0-.4-.3-1.2-.8-2.3-.6-1.1-.8-1.8-.8-2.1s.3-.9,1-1.7c-.2.3-.2-.1-.2-1.3v-30.9c0-.2.2-1,.5-2.2.4-1.2.5-1.9.5-2.2s-.1-.5-.4-.9c-.2-.4-.4-.8-.4-1,0,.3.1-1.5.4-5.4,0-.8-.2-3.1-.5-6.8v-9.5c0-.9-.6-2.2-1.7-3.9.3-.9,0-2.5-.7-4.9,0-1.1-.4-2.8-1-5.1-.6-.7-1.4-1.8-2.4-3.1-.3-.8-.9-2-1.7-3.6-1.6-2.5-3.1-4.1-4.6-4.8-1.9-.5-4.6-1.4-8.3-2.7.2-1.1.7-2.6,1.3-4.3h1.1c.2,0,1,0,2.2.2,1.2.2,2,.2,2.2.2l60-.5c-.3,1.2-.8,2.9-1.6,5.1h0ZM1309.2,76c5.5,5.5,13.8,10.6,24.7,15.1,17.3,7.1,29.3,14.9,36,23.4,2.5,3.1,4.2,6.8,5.1,11,1,4.9,1.6,9.9,1.6,15s-.9,5.2-2.8,10.4c-1.9,5.2-3.3,8.4-4.2,9.6-3.8,4.6-7.8,8.6-12.1,12.1-2.3,1.9-5.4,3.4-9.2,4.6-9.7,3.1-18.9,4.6-27.6,4.6.2,0-1.4,0-4.6-.2-2.8-.2-4.8-.3-6.2-.2.1-.5.2-1.9.2-4.2-2-1.9-4.7-2.9-8-2.9s-2.3.5-3.4,1.6c.2.2,1.4.7,3.6,1.7-.5,1.4-1.4,2.2-2.9,2.2s-4.9-.6-10.2-1.9c-6.9-1.7-11.9-3.6-15.1-5.8-.7-.5-1.5-3.7-2.4-9.7-.6-4.7-1-10.6-1-17.5s.3-11.4,1-15.3c.4,0,1.7,0,3.9-.5.6.8.9,2.3.8,4.6,0,2.9-.1,4.3-.1,4.2.4,1.9,1,4.8,1.8,8.6,0,.6,1.2,2.3,3.3,5.3,1.2,1.9,3.4,4.6,6.5,8,2.7,2.1,6.2,3.7,10.7,4.8,2.4.7,4.8,1.5,7.2,2.3,3.1.9,5.6,1.3,7.6,1.3.8.5,1.4.7,1.8.7s.8,0,1.4-.2c.6-.2,1.1-.2,1.4-.2s1.9.3,4.6.9c2.7.6,4.1.9,4.5.9s1.1-.5,2.4-1.4c1.2-.9,2.2-1.5,2.8-1.6,2.2-.5,5.5-1.2,9.9-2,2.3-.5,4.1-2.7,5.4-6.5.6-1,1.4-2.6,2.4-4.6,0-.6,0-1.4.2-2.7.2-.6.6-1.6,1.4-3,.8-1.4,1.2-2.4,1.2-2.8,0-3-.4-5.5-1.1-7.6-.4-1.3-2-4.1-4.9-8.6-.9-.6-2.2-1.6-3.9-2.8-7-5.6-13.7-9.5-20.3-11.7-1.8-1-4.3-2.5-7.7-4.2-4-1.7-10.5-5.3-19.4-10.9-.6-.2-1.6-.6-2.8-1.2-2.4-2-4.9-4.6-7.5-7.8-3.7-4.7-5.7-7.2-6-7.5,0-1.1,0-2.8-.2-5.1-.5-.8-1.2-2.1-2-4,0-1.7-.1-4-.4-7,.5-.6.7-1.2.7-1.7-.9-2.1-1.3-3.1-1.3-3,0,.2.8-1.7,2.5-5.7.2-1.8.8-4.2,1.7-7.2.3-.7,2.5-3,6.4-6.9,1.8.9,2.7,1.3,2.5,1.3.2-1,.7-2.4,1.4-4,7.4-7.1,14.2-11.4,20.4-13,5.1-1.3,11.9-1.9,20.4-1.9s4.5.4,12.2,1.3c7.7.9,11.8,1.3,12.2,1.3s2.1-.2,5.4-.7c3.3-.4,5.1-.7,5.5-.7,2.2,0,3.4,1,3.4,2.9l-1.8,19.9v10.5c0,.2,0,1.6-.2,4.2-.2,2.7-.2,4.6-.2,5.8,0,0-.3.2-.8.5-.4.3-.9.5-1.3.5h-2.8c-.2-2.6-.8-6.2-1.6-11-2.5-9.5-7.7-15.6-15.6-18.5-4.1-1.4-11.3-2.2-21.6-2.2s-5.2.8-9.9,2.4c-4,1.4-7.8,4.9-11.5,10.5-1.3,2-1.9,4.2-1.9,6.5,0,3.8,1.2,8.3,3.7,13.6,1,1,2.5,2.3,4.3,4h0ZM1309.8,181.2c0,0,.1,0,.2,0,0,.2-.1.2-.2,0h0ZM1494.6,35v28c-.4,0-1.1.1-2.2.4-1,.2-1.8.4-2.2.4-.2-.6-.8-5.4-1.9-14.4-.6-5.1-3-9.1-7.1-11.8-1.8-1.3-5.9-1.2-12.5.2-3.3.3-8,1.1-14.2,2.3-2.2.7-3.5,2.1-4.1,4.1-1.4,5.1-1.5,12.6-.4,22.3,1.1,9.7.8,28-.9,45.1,0,0,.5,5.5,1.6,16.7-.3,3.9-.4,31.6-.2,39.3.9,4.1,2.2,10.3,3.9,18.7.8,4,3.5,6.6,8.1,7.7,3.7.9,7.4,1.7,11.1,2.5,0,1.2-.9,3-2.8,5.3h-68.4c-.6,0-1-.5-1-1.4s0-.9.1-1.9c2.5-.6,6.1-1.7,11-3.5,4.2-2.3,7.3-4.9,9.3-8.1.6-.9,1.1-4.5,1.7-10.9.3-11.1.7-44.7,1.2-56.8v-48.3h3.3c.2,0,.4-.4.8-1.1-1.1-2.7-2.5-6.5-4.1-11.5-.2-1-.8-7.1-1.9-18.5h-22.3c-2.3,0-5.2,1.3-8.7,3.9-3.5,2.6-5.3,4.7-5.7,6.3-1.7,7.2-3.3,12.1-4.9,14.8-.8,1.4-2.6,2.1-5.4,2.1,0-.3-.2-1.3-.5-3-.2-1.4-.3-2.5-.1-3.1,1-3.3,1.9-8.4,2.8-15.3,1-8.4,1.8-14,2.4-16.9l3.9-5.1c-2.4-.2,4.9-.4,22.1-.4s12.6.4,22.7,1.3c10.2.9,15,1.3,14.6,1.3h19.9c0,0,2.3-.4,7.2-1.2,5.3-.8,10.4-1.3,15.3-1.6,1.8-.2,3.7-.5,5.5-.7,2.4-.2,4,.4,4.8,1.8-.5,3.1-1,6.7-1.7,11h0Z"/>
  <g>
    <path class="st0" d="M953.4,162.4c-1-.5-1.4-1-1.6-1.2-1.4-2.2-2-6.4-2-12.3v-5.9h0c0-.5.2-1.4.3-3.1.2-2.2.3-4.2.3-5.8s0-2.5-.2-3.3c-.4-2.6-.5-3.8-.5-3.9.2-1.1.4-1.9.6-2.5,0,0,0-.2.1-.3l.4-4.2c0-.2.2-.3.3-.5.6-.9,1.1-1.4,1.5-1.7.7-.5,1.7-.9,2.7-1.1h.2c.6-.5.7-1,.7-1.3v-.4h-.4c-2.3-.4-4-.7-5.3-.9-1.2,0-3,0-5.2,0-1.8,0-2.8,0-3.3.1h-6c-.4,0-.9.3-1.5.9l-.5.5.6.3c3.6,1.9,5.5,4.1,5.7,6.5,0,.6.1,1.7.3,3.2.2,1.2.2,2.1.2,2.4,0,.6.1,1.6.4,3,.3,1.3.4,2.3.4,3,0,1.3-.3,2.3-1.1,3.2-.1,0-.2.1-1.2-.3-1.1-.5-1.2-.5-1.2-.5-1.1-.3-2-.5-2.6-.5h-15.9c-.7,0-1.7-.2-2.7-.7,0,0,0-.2-.1-.3,0-.1,0-.2,0-.3v-8.6c0-3.1.4-5.2,1.2-6.3.5-.7,1.3-1.3,2.3-1.9.9-.5,1.9-.9,2.8-1.4l.7-.4-.7-.5c-1.9-1.5-2.7-1.7-3.1-1.7s-.3,0-.9.1c-.3,0-.7.1-1,.1h-7.6c-.2,0-2.2.2-3,.2-2.1.2-3.5.3-4.5.3h-.3s-.1.2-.1.2c-.9,1.3-.9,1.4-.9,1.4l-.3.5.6.2c1.1.3,2.2,1.1,3.4,2.2,1.1,1.1,1.7,2,1.7,2.7v6.5c0,0,0,.2.2,1.5.1,1,.2,1.5.1,1.8-.1,2-.2,2.5-.2,2.5h.3c0,.1-.4.3-.4.3v.5c.1,0,.2,0,.2,0,.4.9.7,1.5.9,1.9,0,.2,0,.6-.3,1.2-.4,1-.4,1.2-.5,1.4-.3,4.1-.4,7.1-.4,9.2h0c0,.1,0,.2,0,.2.2.3.3.6.4.8.1,1.8.1,3.9,0,6.3-.2,2.3-.5,3.9-1,4.7-.7,1.1-1.7,1.9-3,2.4-1.4.6-2.1,1.2-2.2,1.9v.5s16.3.2,16.3.2c.1,0,.4,0,.9.1.5,0,.9.1,1.3.1,1.3,0,2.5-.6,3.5-1.7l.5-.6-.7-.3c-1.4-.5-1.7-.6-1.8-.7-2.6-.5-3.9-2.7-4.1-6.9,0-1.6-.3-5.9-.3-6.2.1-1.7.2-2.1.2-2.1h-.3c0-.1.4-.2.4-.2v-.5c-.1,0-.2,0-.2,0-.2-.6-.4-1.1-.6-1.5-.1-1,0-1.8.3-2.2.9-.8,1.6-1.4,2.1-1.8h9.9c0,0,.4,0,2.1.4,1.1.2,2.3.1,3.8-.2,2.4-.4,4.2-1.1,5.6-1.9.4,1.3.5,1.9.4,2.3-.1.9-.1,2,0,3.4.2,1.8.3,2.9.3,3.2v5.9c0,1-.3,2.3-.9,4-.8,2.4-1.6,3.2-2.1,3.4-1.1.5-1.9.9-2.5,1.2h-.3v.5c0,.1,0,.3.1.8,0,.4.1.5.1.6v.5h19.5l.2-.2c.4-.6.7-1,.9-1.3l.4-.7h-.8c-.6-.1-1.3-.4-2.1-.8ZM950.2,121c0-.1,0-.4.3-.8l-.3.8Z"/>
    <path class="st0" d="M999.1,151.3c-1.2-.3-2.2-.2-3,.3h-.2c0,.1,0,.4,0,.4,0,1.4-.9,2.9-2.2,4.4-1.3,1.4-2.6,2.5-4,3.1-.9.4-2.1.7-3.5.7h-6.6c-.2,0-.4,0-.5,0l-.5-.2c-.8-.1-1.8-.6-3-1.5h0c-1.5-1-1.9-1.7-2-2,0-.3-.1-.7-.1-1.1s.1-1.3.3-2.3c.2-1,.4-1.8.4-2.2,0-.8,0-1.8-.2-3.2-.2-1.6-.3-2.3-.3-2.7s.1-.9.6-2c.1-.2.4-.9,2.2-.9s1.2,0,2.2.2c1,.1,1.7.2,2.1.2h5.5c1.2,0,2.6.6,4.1,1.7.9,1,1.5,1.8,1.8,2.4v.2c.1,0,.4,0,.4,0,1.6.3,2.1-.3,2.2-.9.4-3.1.5-5.4.6-7,.1-2.4.2-4.3.3-5.8h0c0-.1,0-.2,0-.2-.2-.5-.8-1.2-2.1-1.2h-.3v.3c-.9,1.2-1.4,2.2-1.6,2.9-.2.4-.7.8-1.3,1-.4.2-.9.3-1.3.5h-14.8c-.4-.4-.4-.6-.4-.6,0-.5,0-1.3,0-2.2.1-1.2.2-2,.2-2.4,0-1.1,0-1.7,0-2,.8-2.4.8-5.2-.1-8.3,0-.2.1-.4.2-.4,1-.2,2.6-.3,4.7-.1,4,.3,6.6.2,7.8-.1.3,0,.7-.1,1.7,0h.5c.4.2.9.3,1.4.4,1.2.1,2.1.9,2.5,2.4,1.1,3.5,1.4,4.2,1.5,4.4l.2.4.4-.2c1-.5,1.3-.8,1.4-1v-.2c.6-5,.9-7.9.9-8.8,0,0,0-.3.2-.8.2-.5.3-.9.3-1.2s-.1-1-.9-1.5h-.1c0,0-.1,0-.1,0-4.9-.2-7.9-.3-9.1-.2-5,.3-7.7.5-8,.5-.7,0-1.8-.1-3.4-.3-2-.2-2.4-.3-2.5-.3h-7.7,0c-.4.2-1,.4-1.9.6-1.5,0-2.7,0-3.5,0h0s0,0,0,0c-.6,0-1.2.6-1.6,1.7l-.2.5.4.2c.8.4,1.6.7,2.4,1.1.8.4,1.4.9,1.7,1.6.3.5.4,1.2.5,2v2.7c0,1.3,0,2.2.3,2.8h0c0,.2.2.5.6,1.1.3.6.3.8.3.8-.8,3.3-.8,3.3-.8,3.4,0,.8.2,1.4.7,1.9-.2,1.5-.1,2.8.2,3.8-.6,3.4-.9,6.2-.9,8.3v12.7c0,1.1-.6,2-1.8,2.8-2.8,1.7-3.4,2.2-3.6,2.5l-.3.3,1,1h6.3c.1,0,.6,0,2.4.2,2.2.2,2.4.2,2.5.2h6.2c.2,0,1.4,0,3.6.1,2.2,0,3.4.1,3.6.1h10.2c.6,0,1.3-.5,2.1-1.5.7-.8,1-1.3,1.1-1.7.3-1,.5-1.7.6-2.2.5-1.2.9-2.2,1.2-2.9v-.2c.3-2.6.5-4.6.6-5.9v-.4s-.4-.1-.4-.1Z"/>
    <path class="st0" d="M898.1,113.9l-1.8.2c-1.6,0-3.4.3-5.1.5l-1,.2c-.6.1-1,.2-1.3.2h-6.6s0,0,0,0c-.6-.1-2-.2-4.8-.5-3.4-.3-5.9-.4-7.6-.4q-8,0-8,.6s0,0,0,0l-1,1.4v.2c-.3,1-.6,2.9-.9,5.6-.3,2.3-.6,3.9-.9,5,0,.3,0,.7,0,1.3,0,.5.1.8.2.9v.5h.5c1.1,0,1.9-.3,2.2-.9.6-1,1.1-2.6,1.7-5.1,0-.2.3-.7,1.7-1.8,1-.8,1.9-1.2,2.6-1.2h6.9c.4,3.6.5,5.4.6,5.8.5,1.4.9,2.6,1.2,3.5h-1.3v14.9c-.2,4-.3,7.9-.4,11.6-.2,2.8-.4,3.3-.5,3.4-.6,1-1.6,1.8-2.8,2.5-1.6.6-2.8,1-3.6,1.1h-.4c0,0,0,.5,0,.5,0,.4,0,.6,0,.7,0,.7.4,1,.8,1h23l.2-.2c.7-.9,1-1.6,1-2.1v-.4h-.4c-1.2-.4-2.5-.6-3.7-.9-1.3-.3-2.1-1-2.3-2.2-.6-2.8-1-4.9-1.3-6.1,0-2.5,0-4.4,0-5.8-.3-3.3-.4-4.8-.6-5.4h0c.6-5.6.7-10.2.3-13.4-.3-3.1-.3-5.6.1-7.2.1-.5.5-.8,1-1,2-.4,3.6-.6,4.7-.8,2.8-.6,3.6-.3,3.8-.2,1.2.8,1.9,2,2.1,3.6.5,3.8.6,4.6.7,4.8v.4h.5c.2,0,.5,0,.8-.1.4-.1.6-.1.6-.1h.5v-9.8c.2-1.2.3-2.2.5-3.1v-.7c.1,0,0-.2,0-.2-.3-.5-.8-1-2.1-.9Z"/>
  </g>
  <path class="st1" d="M515.5,141.6c-.3,4.5-2.7,9.2-7.1,14.2-4,4.5-8.2,7.7-12.4,9.7-3.1,1.4-6.8,2.2-11.3,2.2h-20c-.6,0-1.4-.1-2.2-.4-.4-.2-.8-.3-1.2-.5-2.7-.4-6-2-9.8-4.7-3.8-2.7-6-5.1-6.6-7-.3-1.1-.5-2.4-.5-3.7s.3-4.2,1-7.3c.7-3.1,1.1-5.2,1.1-6.3,0-2.2-.2-5.3-.7-9.3-.6-4-.8-6.8-.8-8.2s.6-3.7,1.9-6.5c1.1-2.5,3.8-3.7,8.1-3.7s3.8.2,6.9.6c3.1.4,5.1.6,6.1.6h16.6c4,0,8.5,1.9,13.4,5.6,2.7,3.1,4.5,5.7,5.5,7.6,2.9.5,4.5,0,4.8-1.3,1-9.2,1.6-16.1,1.7-20.9.3-7.2.6-13,1-17.6-.7-1.8-2.4-2.7-4.9-2.7-2.2,3.7-3.7,6.6-4.5,8.7-.9,1.7-2.5,2.9-4.7,3.7-1.4.5-2.8,1-4.2,1.4h-45.5c-1.4-1.3-2.2-2.3-2.3-3.1-.2-1.8-.2-4.1.2-7,.4-3.5.6-5.9.6-7,0-4.5,0-6.5-.2-6,2.7-7.2,2.5-15.6-.4-25,.3-1.6,1-2.5,1.9-2.8,3.3-.7,8.2-.8,14.7-.4,11.8.8,19.5.7,23-.4,1.4-.4,3.3-.3,5.8.2,1.8.4,3.7.8,5.4,1.2,4.3.5,7.3,3.3,8.9,8.3,2.5,7.8,4,12.1,4.5,12.9,2.1-1,3.3-1.8,3.5-2.3,1.6-14.9,2.5-23.6,2.5-26.3,0-.6.3-1.7.8-3,.5-1.4.8-2.4.8-3.1,0-1.3-.6-2.4-1.9-3.3-14.6-.7-23.7-1-27.1-.7-15.1,1-23.1,1.6-24.1,1.6-2.3,0-5.8-.4-10.3-1-4.5-.6-7-.8-7.3-.8h-21.3c.2,0-2.3.6-7.5,1.8-4.7.2-8.2,0-10.7-.2-1.3.2-2.5,1.6-3.6,4.2,2.4,1.1,4.8,2.2,7.2,3.3,2.7,1.4,4.7,3.2,5.9,5.6.9,1.7,1.4,3.9,1.7,6.6v8.2c0,3.6.2,6.3.7,8,0,0,.7,1.1,1.8,3.1.9,1.7,1.3,2.8,1.2,3.4-1.6,6.4-2.4,9.7-2.4,9.9,0,2.2.7,3.9,2.2,5.1-.6,4.8-.4,8.8.6,12.1-1.9,10.5-2.9,18.8-2.9,25v38.1c0,3.8-2.1,7-6.3,9.7-6.1,3.7-9.6,6.1-10.5,7.2l1.6,1.7h18.2c.6,0,3.1.2,7.5.7,4.5.4,6.9.7,7.4.7h18.6c.6,0,4.2.1,10.9.4,6.7.2,10.3.4,10.8.4h30.7c1.3,0,3-1.3,5.1-3.9,1.8-2.1,2.8-3.6,3.1-4.5.9-2.9,1.5-5.1,1.8-6.8,1.4-3.8,2.7-6.7,3.6-8.8.8-7.6,1.3-13.6,1.6-17.7-3.1-.9-5.7-.6-7.8.7Z"/>
  <path class="st1" d="M389.8,29.8h-4.3c-.4,0-4.1-.4-11.1-1.1-7-.8-10.7-1.1-11.1-1.1h-31c-.4,0-4,.8-10.7,2.5-6.8,1.7-10.3,2.5-10.7,2.5s-.8-.2-1.4-.5c-.6-.3-1.1-.5-1.4-.5s-1.3.5-2.7,1.6c-1.4,1.1-2.3,1.6-2.6,1.6s-.6,0-.7-.2c-.2-.2-.4-.2-.8-.2-1.6,0-6.1,4.1-13.6,12.4-1,1.7-1.6,3-1.9,4-.8.6-1.9,1-3.3,1s-.7-.1-.8-.4c-.2-.3-.4-.4-.7-.4-1.7,0-6.5,7.1-14.3,21.4-.3,2.2-1.3,6.4-2.9,12.7-1.4,5.1-2.1,9-2.1,11.7s.2,2.8.5,4.1c.3,1.1.3,3.1-.1,5.8-.4,3.2-.6,4.7-.6,4.5,0,2.7.5,6.1,1.4,10,1,2.4,1.9,4.2,2.5,5.4,1.1,3.7,2.1,6.5,2.8,8.3,2.3,8.4,8.6,17.1,18.8,26.2,9.8,8.7,18.8,13.8,26.9,15.4,4.1,1.2,7.2,2.2,9.3,3,5.5,1,12.3,1.6,20.6,2.1.3,0,.9.1,1.7.4.8.2,1.4.4,1.8.4,1.4,0,4-.4,7.6-1.2,2.7-.2,4.6-.3,5.9-.2,15.7-3.2,25.4-5.8,29.1-7.7-1.2-9.7-1.8-17.4-1.8-22.9s.2-7.7.5-15c.2-5.7,1-11.3,2.4-16.9.2-.6.7-1.8,1.6-3.5.7-1.4,1.1-2.3,1.1-2.5v-5.2c1.7,0-3.1-.1-14.5-.1s-3.3.2-8.2.6c-.5,0-1.2.3-2.2.7-1,.4-1.6.5-2.1.5s-3.1-.2-8.4-.7c-5.3-.4-8.1-.7-8.4-.7-4.6,0-7.9.3-9.9,1v3.1c.5.4.8.7,1.1.8,6,.2,10,.5,11.8,1,4.5,1.2,7.4,3.9,8.8,8.2.8,1.1,1.4,1.9,1.9,2.3.9,2.7,1.6,6.3,2.1,11v19.2c-.7,3.7-.7,6.2.1,7.5.5.8,1.4,1.4,2.9,1.9,1,.4,1.6,1.2,1.6,2.3l-.6,4.7c-1.8.8-3.3,1.3-4.2,1.4-2,.5-4.1.7-6.2.7-4.5,0-14.7-1.8-30.5-5.5-3.3-.8-6.6-2.2-10-4.1-7.6-4.3-13.1-9.8-16.8-16.4-.8-1.8-1.4-3.1-1.7-4.1-2.3-3.1-4.1-5.3-5.2-6.9-.5-1.7-.8-3.1-.8-4.1-1.1-2-1.9-3.2-2.4-3.6-.7-4.3-1.1-7.6-1.2-10.1-1.1-4.7-1.7-6.9-1.7-6.4v-8c0-8.8.2-15.2.6-19.1,1-9.2,4.9-18.7,11.9-28.4,2.1-1.9,3.7-3.2,4.8-3.7,9.1-8.4,21.6-12.7,37.5-12.7s9.9.2,12.8.7c4.5.8,7.1,1.4,7.8,1.7,6.2,2.7,10.1,4.8,11.8,6.4,4.3,4.3,7.3,8.2,8.9,11.7.7,2.3,1.2,4.1,1.4,5.4.2,1.1,0,4.1-.7,8.8.8,1,1.5,1.4,2.2,1.4,1.6,0,3.4-1,5.4-2.9-.5-3.8-.7-6.1-.7-6.9.4-.6.8-1.2,1-1.6-.2-.1-.5-1.4-1-3.9.3-2.6.7-4.6,1.1-6,0-1-.1-2-.1-3.1,0-2.2.4-5.5,1.1-9.9.8-4.4,1.1-7.5,1.1-9.3s0-1.5-.2-2.2h-5.8Z"/>
  <path class="st1" d="M843.9,92.5c-1.5-12.1-4.1-21.7-7.6-28.7-2.4-3.9-4.3-6.8-5.7-8.6-6.7-9.3-15.2-16.2-25.6-20.7-5.5-2.4-14.8-5.1-28.1-8.1h-30.6c-5,0-8.7.4-11.2,1.2-.4.2-.9.5-1.4,1.1-.5.6-.9.8-1,.7-3.5-.5-6.2-.9-8.1-1.2-1.7,1.9-2.9,3.5-3.6,4.7-.3,0-.6.1-.8.1-1.6-2.3-3.9-3.5-6.8-3.6-2.7,0-5.3.2-8,.2-.8.5-1.5.9-2,1.2-.4,0-1.2-.3-2.3-1.2-2.5-.5-5.1-.4-7.6.4v-1.1c-2.6-.9-6.1-1.2-10.7-.8-7.7.5-11.3.7-10.8.7l-21.9-.8c-4.8,0-7.7.4-8.6,1.1.5,1.5.6,3,.5,4.3,8,1.4,12.6,4.1,13.7,8.3,1.2,6.4,2.1,11.2,2.5,14.5,0,.5,0,1.3-.4,2.4-.3,1.1-.5,1.9-.5,2.2,0,1,.2,2.4.5,4.2.4,1.8.5,3.1.4,3.7l-.5,3.3c0,.5.3,1.2.7,2.2.4,1,.5,1.6.5,2,0,1,0,3.1-.2,6.3-.2,2.5-.2,4.5,0,5.9,0,.4.1,1.1.4,2.1.2,1,.4,1.7.4,2s-.2,1.2-.5,3c-.3,1.8-.4,3-.2,3.6.6,4.5,1.2,7.9,1.6,10.3-.2,2.8-.4,5-.7,6.5,0,1.2,0,2.2.2,3,.1.8.2,1.3.2,1.7v12.9c0,.4.2,1.1.5,2.1.3,1,.5,1.7.5,2.1s-.7,1.2-2,1.8c-3.7-4.5-6.6-7.9-8.8-10.3,0,0-.3.2-.7.5-.4.3-.8.5-1.2.5s-.9-.4-1.6-1.3c-.8-2.7-1.4-4.7-1.7-6-1.4-2.5-5.1-6.1-11-10.9-.8-1.4-1.7-2.9-2.5-4.5-1.8-3-3.2-4.5-4.2-4.5s-1.1.2-2,.7c-1,.5-1.6.7-1.9.7-3,0-4-3.5-3-10.6-5.5-6.8-9.6-12-12.3-15.4-13.4-18.6-23.5-32.6-30.1-42-3.5-4.8-5.9-7.4-7-7.8-.3-.2-1.4-.2-3.4-.2s-3.4.2-9.1.5c-5.7.3-8.7.5-9,.5s-3.6-.2-9.7-.5c-6.1-.3-9.3-.5-9.7-.5-3.5,0-5.6.5-6.5,1.6v4l.6.6c9.2-.6,16.9,2.2,23,8.7,0,.6,0,1.2-.3,2.1-.3.8-.4,1.3-.4,1.6,0,2.1.3,7.9.8,17.4v16.7c0,3.1.6,9.2,1.7,18.3.2.3.2.6,0,.8,0,1.3-.3,2.2-.6,2.7l-.6.6c.6,1.4,1,2.2,1.1,2.4-.3,5.3-.4,7.8-.5,7.7,0,1.1.2,3,.7,5.5.4,2.7.7,4.7.7,5.8s0,2.6-.2,4.8c-.2,2.2-.2,3.8-.1,4.6l.7,1.1-1,1.2c-.4.8-.3,1.8.2,2.9,1.2,2.6.8,9.7-1.3,21.4-.8,4.7-3.2,8.2-7.1,10.4-4,1.8-7.1,3-9.2,3.6-1.8,1-2.7,2.9-2.7,5.7s.4.6,1.1,1.3h1.9c.4,0,1.9-.2,4.5-.7,2.6-.4,4.1-.7,4.4-.7h42.1c.5-1,.7-2.2.6-3.6-.2-.2-.4-.6-.8-1.3-.4-.7-.7-1-.9-1-12-.9-18-9.7-18-26.5s0-4.5-.2-12.2c-.1-7.7-.2-11.8-.2-12.3v-16.9c0,.2-.1-3.1-.4-9.8-.3-6.7-.4-11.7-.4-14.9s.1-1,.4-2c.2-1,.3-1.7.2-2.2-1.1-8.3-1.7-12.4-1.7-12.3,0-1.7.8-2.9,2.5-3.7,2.2,3.1,3.9,5.3,4.8,6.9.4,1,.6,1.8.7,2.4,3.1,3,5.5,5.2,7.2,6.5,13.3,17.1,23.5,30,30.7,38.7,3.4,4.7,5.8,8.3,7.2,10.7,5.8,6.4,10.4,11.2,13.7,14.5,3.9,4.8,6.8,8.5,8.7,11.1,10.8,12.9,19,21.9,24.6,27,.8.7,2.9,1.1,6.3,1.1-.6,0,2-.5,7.6-1.4,0,0,0-.1-.2-.2-.1,0-.2-.3-.2-.8v-37c0-.3-.2-1.5-.5-3.4-.3-2-.5-3.3-.5-3.9,0-1.2.2-6.7.7-16.4,0-.7,0-1.8-.3-3.1-.3-1.4-.4-2.2-.4-2.4v-19.2c0-.4-.2-3.9-.5-10.6-.3-6.6-.5-10.1-.5-10.4,0-4.7.5-10.7,1.6-18.1.6-4.3,2.1-8.6,4.6-13,1.8-3,4.2-4.9,7.2-5.8,1.5-.3,2.8-.5,4-.7,0,.1,0,.3,0,.4,5.5.8,9.3,1.8,11.6,2.9,2.7,1.4,4.8,4.9,6.1,10.3.3,3.1.4,5.5.4,7,.2.6.5,1.3,1,2.2.5.9.7,1.5.7,1.8,0,1.4-.2,3.4-.6,6.1-.4,2.7-.6,4.7-.6,6s.2,1,.6,1.9c.4.8.6,1.4.6,1.6-.2,17.6-.3,31.1-.2,40.3v13.6c0,6.6,0,11.4-.2,14.5,0,.6-.3,1.6-.7,3-.4,1.3-.6,2.2-.5,2.7.5,1.4.9,2.4,1.2,3-.2,1.5-.4,2.7-.7,3.5.5,1.9.7,2.9.7,3,0,4.7-1.9,9.1-5.7,13-.9,1.1-1.6,2-2,2.7-1.3,0-3.6.6-7,1.8-1,.7-1.2,2.5-.6,5.3h78.5c-.4,0,5.3-.9,17.2-2.7,1.1-.4,1.9-.8,2.4-1.1,3.9-.3,8.9-2.4,15.2-6.2,5.3-3.1,9.6-6.3,13-9.4,8.7-8.1,14.7-19,18-32.7,1.5-6.2,2.7-10.9,3.5-14.1,1.3-10.4,1.7-17.6,1.2-21.7ZM837.4,94.2c-6.1.7-10.8,1.3-14.1,1.6-3.8.5-6.3.9-7.5,1.3-.6.2-.9.8-.7,1.9,1.4,1.8,2.2,3.1,2.2,4.1-.5,12-1.3,20.6-2.4,25.7-2.3,10.6-7,19.5-14.1,26.7-3.3,3.4-7.5,6.1-12.7,8.2-5.9,2.3-12.6,3.5-20.3,3.5s-11.9-.9-28.1-2.8c-1.6,0-3.2,0-4.8-.1-2.2-.2-4.1-1-5.4-2.2.4-1.3,1.5-2.3,3.4-3.1,2.6-1,3.9-1.5,4-1.6,0-.7,0-1.8-.5-3.1-.5-1.7-.7-2.8-.7-3.3-.2-2.2-.1-4.9.1-8.1,0,.6-.2-1.4-.6-6-.2-1.2-.2-3.1,0-5.5.2-2.8.4-4.2.4-4.1v-47.7c0-9.7,0-16-.2-19.2-.2-6.6.2-12.7,1.3-18.3,1.4-.2,4.1-.6,8.2-1.4,4.1-.8,6.3-1.1,6.6-1.1h12.4c-.5,0,1.9.4,7.1,1.3,11.6,2.1,19.9,5.7,25.1,10.8,5.1,5.1,9.8,12,14.1,20.7,3.1,6.6,5.4,11.7,6.9,15.2-.2,2.4,0,3.8.7,4.1,4-.2,10.9,0,20.7.7,0,.6-.4,1.2-1.1,1.8Z"/>
  <path class="st1" d="M648.8,125.6c.6,0,.2-.6-1.2-1.9l-.6,2.5.7.7,1.1-1.3Z"/>
  <g>
    <path class="st1" d="M126.6,177.7l5.8-14.6s1.4-5.5,2.7-11.1c0-1.2,0-2.4,0-3.6.3-1.1.6-2.2,1-3.4-.4-.1-.7-.2-1-.3,0-.9,0-1.8,0-2.7h-6.5c-.6.3-1.1.9-1.6,1.7-.9.3-1.6.8-2.3,1.5-1.5,1.6-3.3,4.9-5.4,9.9-2,4.6-3.7,7.4-5.1,8.4-3.8,2.7-9.2,4.6-16.3,5.8-5.8.9-11.6,1.7-17.4,2.5-1,.2-2,.2-3,0-5.9-1-10.5-1.6-13.7-2.1-2.6-.4-4.1-1.3-4.6-2.7-2.4-7.3-4.3-12.9-5.5-16.8v-32.8c0-1.8.3-4.4.8-7.5.6-3.2.8-5.7.8-7.5,0-3.7-.8-7.8-2.4-12.4,0-1,.6-30.6,1.7-44.8.6-9.3,1.8-16.8,3.5-22.4.6-1.8,2-3.5,4.3-4.9.2-.2,2.2-1.1,5.8-2.8,2.9-.7,5.8-1.4,8.8-2.2,4.2-1,6.2-2.5,6-4.5H22.7c-.6,0-1.9-.1-4-.4-2.1-.3-3.7-.4-4.9-.4-4.3,0-6.4,1.6-6.4,4.9,1.9-.6,5,.2,9.1,2.4,4.1,2.1,6.6,4.4,7.3,6.8,1.4,5.1,2.5,11.8,3.1,19.9-.7,1-1.2,1.7-1.4,2.1,1,9.9,1.4,51.3,1.4,80.2s-.3,5.9-.8,10.3c-.8,5.6-1.2,8.9-1.3,9.9-.2,1.8,0,5.1.2,10,.3,4.3.2,7.2-.2,8.9-1,4.1-3.8,7.2-8.2,9.3-3.4,1.6-6.7,2.4-10,2.3-1.6,1-2.4,2.6-2.4,4.7,1,.3,2.8.7,5.4,1.1,2.7.4,4.5.8,5.5,1.1l90.2.8c0,.3,7.4-.7,17.2-1.2l4.2-3.7Z"/>
    <path class="st1" d="M244.8,141.6c-.3,4.5-2.7,9.2-7.1,14.2-4,4.5-8.2,7.7-12.4,9.7-3.1,1.4-6.8,2.2-11.3,2.2h-20c-.6,0-1.4-.1-2.2-.4-.4-.2-.8-.3-1.2-.5-2.7-.4-6-2-9.8-4.7-3.8-2.7-6-5.1-6.6-7-.3-1.1-.5-2.4-.5-3.7s.3-4.2,1-7.3c.7-3.1,1.1-5.2,1.1-6.3,0-2.2-.2-5.3-.7-9.3-.6-4-.8-6.8-.8-8.2s.6-3.7,1.9-6.5c1.1-2.5,3.8-3.7,8.1-3.7s3.8.2,6.9.6c3.1.4,5.1.6,6.1.6h16.6c4,0,8.5,1.9,13.4,5.6,2.7,3.1,4.5,5.7,5.5,7.6,2.9.5,4.5,0,4.8-1.3,1-9.2,1.6-16.1,1.7-20.9.3-7.2.6-13,1-17.6-.7-1.8-2.4-2.7-4.9-2.7-2.2,3.7-3.7,6.6-4.5,8.7-.9,1.7-2.5,2.9-4.7,3.7-1.4.5-2.8,1-4.2,1.4h-45.5c-1.4-1.3-2.2-2.3-2.3-3.1-.2-1.8-.2-4.1.2-7,.4-3.5.6-5.9.6-7,0-4.5,0-6.5-.2-6,2.7-7.2,2.5-15.6-.4-25,.3-1.6,1-2.5,1.9-2.8,3.3-.7,8.2-.8,14.7-.4,11.8.8,19.5.7,23-.4,1.4-.4,3.3-.3,5.8.2,1.8.4,3.7.8,5.4,1.2,4.3.5,7.3,3.3,8.9,8.3,2.5,7.8,4,12.1,4.5,12.9,2.1-1,3.3-1.8,3.5-2.3,1.6-14.9,2.5-23.6,2.5-26.3,0-.6.3-1.7.8-3,.5-1.4.8-2.4.8-3.1,0-1.3-.6-2.4-1.9-3.3-14.6-.7-23.7-1-27.1-.7-15.1,1-23.1,1.6-24.1,1.6-2.3,0-5.8-.4-10.3-1-4.5-.6-7-.8-7.3-.8h-21.3c.2,0-2.3.6-7.5,1.8-4.7.2-8.2,0-10.7-.2-1.3.2-2.5,1.6-3.6,4.2,2.4,1.1,4.8,2.2,7.2,3.3,2.7,1.4,4.7,3.2,5.9,5.6.9,1.7,1.4,3.9,1.7,6.6v8.2c0,3.6.2,6.3.7,8,0,0,.7,1.1,1.8,3.1.9,1.7,1.3,2.8,1.2,3.4-1.6,6.4-2.4,9.7-2.4,9.9,0,2.2.7,3.9,2.2,5.1-.6,4.8-.4,8.8.6,12.1-1.9,10.5-2.9,18.8-2.9,25v38.1c0,1.2-.3,2.3-.7,3.4,0,2-1.9,4.9-1.9,4.9l-4.3,3s-2,3.1-3.9,4.1c-1.9,1-3.4,3-3.4,3l4.7.4c10.5-.6,12.6-.2,12.6-.2.6,0,3.1.2,7.5.7,4.5.4,6.9.7,7.4.7h18.6c.6,0,4.2.1,10.9.4,6.7.2,10.3.4,10.8.4h30.7c1.3,0,3-1.3,5.1-3.9,1.8-2.1,2.8-3.6,3.1-4.5.9-2.9,1.5-5.1,1.8-6.8,1.4-3.8,2.7-6.7,3.6-8.8.8-7.6,1.3-13.6,1.6-17.7-3.1-.9-5.7-.6-7.8.7Z"/>
  </g>
</svg>