<svg width="128" height="128" viewBox="0 0 128 128" fill="none" xmlns="http://www.w3.org/2000/svg">
<path d="M122.364 1.104C120.674 1.72017 118 2.80418 116.433 3.50023C112.618 5.20041 107.146 7.76781 107.146 7.85909C107.146 7.89332 107.951 8.30411 108.936 8.77194C109.91 9.23978 110.715 9.65056 110.726 9.68479C110.726 9.71903 108.746 9.78749 106.34 9.83313L101.942 9.92442L99.0887 11.2366C97.5221 11.9555 94.8812 13.0509 93.2139 13.6671C91.1213 14.443 89.2973 15.219 87.2943 16.1889L84.4072 17.5924L84.4744 18.1629C84.508 18.471 84.5751 18.7677 84.6199 18.8133C84.7094 18.8932 91.1325 21.0612 93.5608 21.8257L94.9148 22.2479L97.6452 20.5934C100.443 18.9046 105.691 15.9036 105.736 15.9721C105.814 16.0748 100.622 20.8558 98.2718 22.8413C95.8771 24.8723 90.752 29.6762 90.752 29.893C90.752 29.9501 91.4906 30.4293 92.4082 30.977L94.0531 31.9812L95.0491 33.6699L96.0338 35.3473L98.2382 32.7229C99.458 31.2851 101.662 28.8318 103.151 27.28C104.639 25.7167 106.732 23.4346 107.806 22.1909C108.869 20.9585 109.775 19.943 109.798 19.943C109.831 19.943 109.753 20.1141 109.63 20.3081C109.507 20.5135 108.858 21.7116 108.164 22.9782C107.291 24.5871 106.362 26.0705 105.019 27.9875C103.979 29.4822 103.117 30.7602 103.117 30.8401C103.117 31.0113 104.214 34.6056 106.329 41.3151L106.497 41.8628L108.063 41.7943L109.294 38.9417C109.965 37.367 111.241 34.4345 112.148 32.4034L113.781 28.7177L113.636 26.3786C113.558 25.1006 113.513 24.028 113.535 23.9937C113.557 23.9709 113.86 24.3589 114.195 24.8495C114.531 25.3402 114.844 25.7053 114.889 25.6711C114.923 25.6255 115.415 24.4045 115.963 22.9668C116.512 21.5176 117.91 18.1857 119.063 15.5499C122.387 7.9732 125.609 0.339482 125.609 0.0542162C125.609 -0.0713008 125.598 -0.0713003 122.364 1.104ZM4.92384 1.49196C4.95741 2.00544 5.03574 3.80832 5.09169 5.5085C5.1924 8.17859 5.29311 9.13708 5.77429 12.6972C6.08761 14.9565 6.68069 18.7334 7.1171 21.084C7.83327 25.0663 7.94517 25.557 8.77324 28.1814L9.66845 31.0113L11.6043 33.3733C12.6562 34.6855 14.5585 36.8992 15.823 38.3027C18.4751 41.2352 21.4964 43.9966 26.1851 47.7849C27.7293 49.0287 29.8107 50.7745 30.829 51.6759C31.8473 52.5774 34.1636 54.6199 35.9764 56.206C39.1432 58.9673 39.2887 59.0814 39.6692 59.0358C39.8818 59.0016 40.7658 58.9445 41.6274 58.8989L43.194 58.8304L44.2907 64.4673L46.8196 66.8749C48.2072 68.1985 50.6802 70.4008 52.314 71.7929C53.9477 73.1736 56.3984 75.296 57.7748 76.5055C59.1511 77.7264 61.613 79.8032 63.2579 81.1268C65.7533 83.1351 66.6597 83.9452 68.7858 86.1018C70.3189 87.6651 71.3708 88.6464 71.4267 88.5779C71.4827 88.5095 72.2212 87.6194 73.0605 86.5811C73.9109 85.5427 75.5335 83.7741 76.6637 82.6444L78.7227 80.5905L76.4399 77.909C75.1306 76.3686 73.1724 74.2348 71.8296 72.8883C70.5427 71.6103 68.3047 69.3168 66.8611 67.7992C65.4176 66.2815 63.0677 63.9424 61.6465 62.5959C59.7554 60.8273 58.4238 59.4352 56.7005 57.4611C54.9772 55.4757 53.6344 54.0836 51.6314 52.1894C50.1207 50.7745 47.9275 48.538 46.7189 47.203C45.1411 45.4685 43.0933 43.4375 39.3334 39.8773C36.4688 37.1844 32.8544 33.6585 31.2989 32.0496L28.4678 29.1285L26.6662 26.39C25.2787 24.2904 24.4954 22.9554 23.3204 20.6846C22.4811 19.0529 21.8097 17.7065 21.8209 17.6837C21.8433 17.6608 23.1525 18.3112 24.7415 19.1328C27.3712 20.4793 27.8971 20.7988 30.3254 22.5446L33.011 24.4616L35.719 27.6565C38.2033 30.5777 38.6397 31.0227 40.9224 33.0652C42.8471 34.7768 43.9662 35.895 45.8237 37.9604C48.0058 40.3794 48.4758 40.8358 50.9488 42.9126C53.2875 44.8752 54.0037 45.5484 56.1186 47.842C57.4726 49.2911 59.7218 51.5846 61.1094 52.9311C62.732 54.4944 64.4217 56.263 65.7757 57.8263C72.8814 66.0191 72.9374 66.0762 75.9699 68.655C77.5141 69.9558 79.8193 72.0667 81.095 73.3333C82.3706 74.5885 83.4561 75.6269 83.512 75.6269C83.5568 75.6269 84.4072 74.7482 85.392 73.6756C86.3655 72.5916 88.2343 70.7431 89.5211 69.545C90.8192 68.3583 91.8822 67.3541 91.9046 67.3085C91.9158 67.2743 90.9423 66.0876 89.7337 64.6726C88.5252 63.2577 86.4103 60.7132 85.0339 59.0244C81.923 55.179 78.3982 51.345 75.2202 48.344C72.6464 45.9136 70.2182 43.3119 65.8652 38.3141C64.4105 36.6481 62.1053 34.0807 60.729 32.6088L58.2336 29.9273L56.6446 29.3567L55.0668 28.7862L53.5449 25.4429L52.0342 22.111L50.1319 20.0571C49.0912 18.9274 47.1665 16.9762 45.8573 15.721C43.5633 13.5074 43.429 13.359 41.7281 10.9856L39.9825 8.52091L37.3304 6.92342C35.0812 5.55414 34.2755 5.14336 31.892 4.1164L29.0945 2.90688L25.066 2.80418C21.0488 2.70148 21.0264 2.70148 16.7294 2.08531C14.3571 1.74299 10.8658 1.28657 8.95228 1.05835C7.04996 0.84155 5.33787 0.636159 5.17002 0.601927L4.8567 0.544874L4.92384 1.49196ZM83.6463 38.3711C77.5813 44.5557 77.5477 44.5899 77.7715 44.8067C77.8946 44.9322 78.9241 45.7766 80.0655 46.6895L82.1357 48.344L87.9881 42.3877C93.7846 36.4884 93.8405 36.4313 93.7734 36.0434C93.6727 35.4728 93.2139 34.4801 92.7551 33.8525C92.1396 32.9853 91.2444 32.4376 90.1366 32.2208L89.7449 32.1523L83.6463 38.3711ZM103.005 58.876C103.005 58.9445 102.144 61.1582 101.081 63.794L99.1558 68.5751L95.1162 72.6715C92.9005 74.9308 86.9586 80.9556 81.9119 86.0676L72.736 95.3558L63.5041 99.2811V111.97H69.7146C74.8061 111.981 75.9251 111.947 75.9251 111.821C75.9251 111.742 76.7868 109.528 77.8275 106.915L79.7298 102.157L80.3788 101.529C80.7257 101.187 82.3371 99.612 83.9485 98.0145C85.571 96.417 86.9362 95.139 86.9922 95.1619C87.2383 95.2532 91.3451 99.11 93.9412 101.689C96.224 103.948 97.3654 104.986 99.6482 106.824C102.356 109.003 104.751 110.977 107.56 113.362L108.813 114.423L110.984 111.993C112.17 110.669 114.218 108.467 115.505 107.12L117.866 104.656L115.594 101.597C112.864 97.9346 110.312 95.0135 103.531 87.8591C100.957 85.1433 98.8649 82.884 98.8873 82.8384C98.9096 82.7927 100.588 81.0811 102.614 79.05L106.306 75.3416L110.849 73.4132L115.393 71.4962L115.471 68.2099C115.516 66.4071 115.516 63.5544 115.471 61.8656L115.393 58.7962L109.193 58.7733C104.661 58.7505 103.005 58.7733 103.005 58.876ZM35.8645 87.0147C29.6092 93.3362 20.9145 102.134 16.5168 106.561L8.53825 114.617L10.6979 116.625L12.8576 118.622L18.7436 112.677C21.9888 109.402 30.6611 100.639 38.0242 93.2106L51.4076 79.689L50.8369 78.8447C50.1095 77.7835 48.8898 76.5283 48.0282 75.9578C47.6589 75.7067 47.3232 75.5128 47.2896 75.5128C47.2561 75.5242 42.1086 80.6932 35.8645 87.0147ZM15.4314 90.6661C13.529 92.2636 11.9624 93.61 11.94 93.6443C11.9289 93.6899 12.3317 93.8953 12.8352 94.1007C13.35 94.3175 13.8088 94.5229 13.8647 94.5799C13.9207 94.6256 13.6633 95.0249 13.2605 95.47L12.5667 96.2801H8.95228L4.45385 100.764C1.99203 103.218 -0.0221955 105.26 0.000184717 105.283C0.022565 105.306 2.89843 105.568 6.38974 105.865L12.7345 106.413L20.9928 98.1857C25.5472 93.6557 29.2623 89.9244 29.2623 89.8787C29.2623 89.8445 28.5462 89.6848 27.6733 89.5136C26.7893 89.3424 24.4506 88.886 22.4811 88.4866L18.8779 87.7678L15.4314 90.6661ZM29.4078 105.637L21.3286 114.069L21.8433 120.493C22.123 124.031 22.3916 126.952 22.4252 126.998C22.4699 127.043 23.0854 126.45 23.8128 125.674L25.122 124.259L25.4465 122.102C25.7934 119.718 25.7598 119.74 26.297 121.577C26.476 122.159 26.6439 122.639 26.6886 122.639C26.7334 122.639 27.7741 121.577 29.005 120.277L31.243 117.903L31.8249 114.514C32.1382 112.654 32.3956 111.057 32.3956 110.977C32.4068 110.715 32.5858 111.137 32.6641 111.605C32.7648 112.164 33.7384 114.879 33.8391 114.868C33.9622 114.868 39.5013 107.942 39.5349 107.748C39.5796 107.542 37.6549 97.4098 37.543 97.2842C37.5095 97.2386 33.8503 100.993 29.4078 105.637ZM119.343 108.398C117.34 110.349 115.684 112.038 115.65 112.152C115.616 112.266 114.117 114.092 112.315 116.192L109.048 120.026L110.29 122.353C111.476 124.578 111.543 124.681 111.823 124.624C111.991 124.601 113.155 124.419 114.419 124.236C115.684 124.042 117.955 123.677 119.466 123.415L122.219 122.947L124.278 121.19C125.408 120.22 126.449 119.318 126.583 119.181C126.807 118.953 126.84 118.725 126.997 116.021C127.142 113.773 127.277 112.495 127.623 110.441C127.87 108.969 128.038 107.725 127.993 107.679C127.825 107.508 123.203 104.838 123.091 104.838C123.036 104.849 121.346 106.447 119.343 108.398Z" fill="#7D3B3C"/>
</svg>
