<svg width="128" height="128" viewBox="0 0 128 128" fill="none" xmlns="http://www.w3.org/2000/svg">
<path d="M94.3766 0.427696C94.4943 0.459135 94.4943 0.459135 94.6144 0.491209C95.4025 0.713494 96.0827 0.966277 96.522 1.69131C96.6751 1.98184 96.8118 2.27792 96.9444 2.57833C97.1754 3.08574 97.442 3.57555 97.7005 4.06927C97.8128 4.28717 97.925 4.50511 98.0371 4.72308C98.3147 5.25962 98.6015 5.79034 98.8934 6.31917C99.389 7.21901 99.8607 8.13056 100.33 9.04455C100.364 9.11249 100.399 9.18043 100.435 9.25043C100.924 10.203 101.405 11.1589 101.881 12.1179C101.91 12.1748 101.938 12.2318 101.967 12.2905C103.243 14.8552 104.391 17.473 105.31 20.1896C105.334 20.2586 105.358 20.3275 105.383 20.3985C105.567 20.9546 105.619 21.43 105.595 22.0126C105.591 22.1876 105.587 22.3625 105.584 22.5375C105.581 22.6291 105.579 22.7207 105.577 22.815C105.519 25.3742 105.792 27.8643 106.143 30.3953C106.158 30.5017 106.158 30.5017 106.173 30.6101C106.241 31.1015 106.312 31.5924 106.384 32.0832C106.691 34.196 106.92 36.2713 106.919 38.4091C106.92 38.4911 106.92 38.5731 106.92 38.6575C106.92 40.3268 106.915 41.8947 105.711 43.1688C105.574 43.3058 105.435 43.4411 105.293 43.574C105.234 43.6301 105.174 43.6861 105.113 43.7439C105.032 43.8153 105.032 43.8153 104.95 43.8882C104.825 44.0287 104.825 44.0287 104.872 44.2114C104.982 44.53 105.225 44.7458 105.454 44.9849C105.529 45.0649 105.529 45.0649 105.605 45.1465C105.949 45.5121 106.305 45.862 106.678 46.1971C106.792 46.3533 106.792 46.3533 106.773 46.5165C106.678 46.7854 106.538 46.9996 106.383 47.2387C106.32 47.3384 106.257 47.4381 106.193 47.5408C106.06 47.7498 105.926 47.9571 105.791 48.1642C105.333 48.8848 105.333 48.8848 105.343 49.7079C105.563 50.3439 105.999 50.7742 106.506 51.1956C107.303 51.8876 107.927 52.7435 108.016 53.8229C108.111 56.6102 107.044 58.7842 105.31 60.9197C105.255 60.9868 105.201 61.0539 105.146 61.123C104.432 61.9251 103.234 61.9476 102.229 62.1084C102.083 62.1322 101.937 62.156 101.791 62.1799C101.327 62.2556 100.863 62.3299 100.399 62.4041C100.239 62.4297 100.08 62.4553 99.9205 62.4809C94.0298 63.4253 94.0298 63.4253 92.6285 62.469C91.6462 61.6853 91.2189 60.4918 90.7252 59.3698C90.2028 58.1855 89.6258 57.2201 88.7249 56.2807C88.6533 56.2032 88.5818 56.1257 88.5081 56.0459C87.9292 55.437 87.2973 54.9676 86.5939 54.5179C86.5052 54.4606 86.4166 54.4033 86.3253 54.3443C85.0517 53.5598 83.7051 53.1076 82.2392 52.8479C82.1394 52.8298 82.0395 52.8118 81.9366 52.7932C80.6778 52.6547 79.3063 52.6596 78.0699 52.9407C77.9558 52.9645 77.8418 52.9883 77.7242 53.0128C75.6601 53.4674 73.8375 54.4564 72.2328 55.8168C72.1479 55.8876 72.063 55.9584 71.9755 56.0314C71.4037 56.5254 70.9299 57.0719 70.4724 57.6724C70.4163 57.7446 70.3601 57.8169 70.3023 57.8913C69.265 59.292 68.7705 60.8783 68.3891 62.5557C67.6903 65.5907 67.6903 65.5907 66.6737 66.3936C65.6589 66.9991 64.6012 67.3022 63.454 67.5534C63.3335 67.5812 63.3335 67.5812 63.2105 67.6095C61.5112 67.9832 59.7709 68.1226 58.0397 68.255C57.8358 68.2711 57.6319 68.2871 57.428 68.3032C56.2505 68.3949 55.0729 68.4718 53.8935 68.5333C51.4941 68.6602 48.9671 68.824 46.6728 69.5887C45.9275 69.7859 44.9962 69.3687 44.3442 69.0342C43.465 68.5096 42.9513 67.8467 42.6768 66.8575C42.5982 66.3572 42.5728 65.8497 42.5382 65.3448C42.3964 63.3429 42.0256 61.4274 41.5685 59.4766C41.4434 58.9423 41.327 58.4061 41.2118 57.8695C41.1936 57.7864 41.1755 57.7033 41.1569 57.6176C41.0307 57.0375 40.912 56.4562 40.7977 55.8736C40.6954 55.354 40.5888 54.8354 40.48 54.3171C40.0117 52.0807 39.5984 49.8366 39.2013 47.5864C39.1147 47.0983 39.0249 46.6114 38.9273 46.1254C38.5725 44.3545 38.3701 42.5648 38.1586 40.7721C38.1484 40.6859 38.1382 40.5997 38.1277 40.5108C38.003 39.4394 37.9273 38.381 37.9191 37.3026C37.9176 37.1552 37.9151 37.0078 37.9115 36.8604C37.8888 35.9023 37.9469 35.1552 38.4148 34.2921C38.4606 34.2074 38.5063 34.1228 38.5534 34.0356C38.5937 33.9614 38.6339 33.8872 38.6754 33.8108C38.8979 33.3587 39.005 33.0266 38.8781 32.5293C38.5705 31.7525 38.1413 31.0165 37.6946 30.3131C37.3923 29.7915 37.2979 29.3211 37.3957 28.7253C37.8885 27.545 38.9282 26.8483 39.9899 26.2203C39.8754 25.8635 39.6624 25.7457 39.3446 25.5703C39.0315 25.4171 38.7052 25.3129 38.3743 25.2055C37.4687 24.8969 36.749 24.5706 36.265 23.7004C34.6884 20.4679 34.4364 16.449 33.9004 12.9356C33.61 11.0512 33.1483 9.42882 32.3472 7.69378C32.1036 7.15854 31.8745 6.61723 31.6454 6.07562C31.6024 5.97502 31.5593 5.87441 31.5149 5.77076C31.2124 5.05673 30.9765 4.44422 30.9679 3.65757C30.9653 3.54718 30.9627 3.43679 30.96 3.32306C31.0027 3.02551 31.0027 3.02551 31.1561 2.81531C32.5704 1.7673 34.7938 1.78973 36.4691 1.63382C36.6057 1.62111 36.6057 1.62111 36.7451 1.60814C37.3896 1.55014 38.0346 1.50442 38.6803 1.46156C38.8913 1.44738 39.1023 1.43264 39.3133 1.41787C42.097 1.22512 44.8831 1.11887 47.6717 1.02815C47.9373 1.01946 48.2029 1.01057 48.4685 1.00163C55.5121 0.766401 62.5607 0.775878 69.6074 0.751214C70.975 0.746426 72.3427 0.741479 73.7103 0.73595C74.2435 0.73381 74.7767 0.731807 75.3099 0.730189C77.4926 0.723515 79.6752 0.708989 81.8577 0.674436C82.0762 0.671041 82.2947 0.667881 82.5133 0.664983C84.2966 0.640706 86.0332 0.489698 87.7983 0.242137C89.9704 -0.0443284 92.25 -0.178196 94.3766 0.427696Z" fill="#824F49"/>
<path d="M18.6567 2.16711C18.7377 2.16736 18.8188 2.16762 18.9022 2.16788C23.1667 2.18374 23.1667 2.18374 24.1029 3.06627C25.7238 4.77421 26.6894 7.38133 27.5745 9.51985C27.6074 9.5979 27.6403 9.67595 27.6742 9.75637C28.8085 12.486 29.3681 15.5113 29.942 18.4035C29.9866 18.6281 30.0315 18.8526 30.0764 19.0771C30.5389 21.3919 30.9944 23.7052 31.2771 26.0502C31.3261 26.4506 31.3837 26.8443 31.4662 27.2392C31.5677 27.7281 31.6254 28.2175 31.6801 28.7135C31.7811 29.5924 31.8968 30.4684 32.0216 31.3441C32.4831 34.5918 32.8417 37.8526 33.2006 41.113C33.4713 43.573 33.7568 46.0309 34.0601 48.4871C34.0701 48.5683 34.0801 48.6495 34.0905 48.7332C34.6414 53.1975 35.3036 57.6301 36.1768 62.0429C36.2628 62.4792 36.3441 62.9161 36.4229 63.3537C37.135 67.2633 38.0184 71.9307 41.3796 74.4652C42.674 75.3126 43.7152 75.5657 45.2536 75.2712C45.6212 75.1908 45.9768 75.1029 46.3307 74.9755C47.3976 74.5924 48.5744 74.5085 49.6959 74.405C52.0314 74.1878 54.3516 73.8749 56.6672 73.5026C68.9531 71.5328 68.9531 71.5328 71.7695 73.5374C72.0011 73.7348 72.2239 73.9397 72.4466 74.147C74.4768 75.9823 76.7647 76.849 79.4885 76.8195C79.5598 76.8191 79.6311 76.8186 79.7045 76.8182C80.7565 76.8107 81.7725 76.7696 82.7951 76.5064C82.8701 76.4879 82.9451 76.4695 83.0224 76.4505C85.4624 75.8409 88.2203 74.8318 89.5894 72.5825C89.6973 72.4004 89.8048 72.2181 89.9119 72.0356C90.3733 71.2638 90.8346 70.5181 91.4117 69.8263C91.4855 69.7335 91.4855 69.7335 91.5608 69.6389C92.5279 68.5386 94.1428 68.2573 95.5231 68.104C95.6239 68.0926 95.7246 68.0812 95.8284 68.0695C97.6649 67.8753 99.5168 67.8157 101.361 67.749C105.263 67.7532 105.263 67.7532 108.738 66.3007C110.784 64.0651 112.155 60.7657 113.185 57.9505C113.209 57.8862 113.232 57.8219 113.257 57.7556C113.614 56.7349 113.793 55.7447 113.787 54.6627C113.787 54.5495 113.786 54.4364 113.786 54.3199C113.768 53.3476 113.59 52.4707 113.344 51.5349C112.608 48.6105 112.608 45.6004 112.508 42.6044C112.505 42.4982 112.501 42.3921 112.497 42.2828C112.491 42.0836 112.484 41.8844 112.478 41.6852C112.463 41.2468 112.44 40.8119 112.398 40.3752C112.343 39.8051 112.323 39.2356 112.305 38.6634C112.301 38.5509 112.297 38.4384 112.293 38.3225C112.281 37.9647 112.27 37.607 112.258 37.2492C112.177 34.0859 112.177 34.0859 111.98 30.9286C111.929 30.3102 111.882 29.6935 111.861 29.0732C111.697 24.3992 111.232 19.0557 109.386 14.7155C109.343 14.612 109.343 14.612 109.298 14.5064C108.862 13.4887 108.323 12.5378 107.76 11.5857C104.631 6.29285 104.631 6.29286 104.655 3.9647C104.656 3.85778 104.657 3.75086 104.658 3.6407C104.659 3.51979 104.659 3.51979 104.661 3.39643C105.869 3.33963 106.876 3.35796 107.996 3.86032C108.085 3.89955 108.174 3.93878 108.266 3.9792C110.74 5.20379 112.114 7.9048 113.38 10.2192C113.565 10.5572 113.751 10.8945 113.938 11.2316C114.253 11.8004 114.567 12.3702 114.879 12.9406C115.011 13.1821 115.144 13.423 115.278 13.6637C117.082 16.9513 118.344 20.5363 118.744 24.2717C118.762 24.427 118.78 24.5822 118.798 24.7374C118.957 26.1499 119.03 27.5599 119.058 28.9803C119.148 33.3672 119.473 37.7518 120.032 42.1042C120.174 43.2075 120.29 44.3138 120.412 45.4196C120.559 46.7589 120.708 48.0978 120.87 49.4354C121.046 50.8928 121.187 52.3513 121.304 53.8145C121.327 54.104 121.352 54.3934 121.377 54.6827C121.551 56.6612 121.656 58.6417 121.686 60.6278C121.689 60.8539 121.695 61.08 121.702 61.3061C121.744 62.7106 121.647 63.7261 120.832 64.891C120.683 65.1045 120.541 65.3218 120.4 65.5408C120.094 66.0116 119.779 66.4753 119.462 66.9385C119.35 67.1034 119.238 67.2683 119.126 67.4333C118.814 67.8915 118.502 68.3488 118.188 68.8057C118.15 68.8619 118.111 68.9181 118.071 68.976C117.271 70.144 116.441 71.2894 115.594 72.4241C115.549 72.4841 115.505 72.544 115.459 72.6058C113.902 74.703 112.048 75.4991 109.517 75.9895C109.417 76.0092 109.317 76.0288 109.214 76.0491C108.111 76.2638 107.003 76.4537 105.894 76.6397C105.679 76.676 105.464 76.7124 105.249 76.7487C103.51 77.0418 101.768 77.3221 100.024 77.5916C99.7439 77.6351 99.4636 77.6791 99.1832 77.723C98.0358 77.9021 96.8873 78.0716 95.7372 78.2326C95.6362 78.2468 95.5352 78.261 95.4312 78.2757C95.3437 78.2879 95.2561 78.3001 95.166 78.3127C94.8815 78.3557 94.5979 78.4021 94.3142 78.4498C93.7609 78.5428 93.2068 78.6286 92.652 78.7117C92.5523 78.7266 92.4526 78.7416 92.3499 78.757C92.0275 78.8053 91.7051 78.8533 91.3827 78.9012C91.2167 78.9259 91.2167 78.9259 91.0472 78.9512C89.4903 79.1825 87.9327 79.402 86.3704 79.5937C85.6591 79.6813 84.9495 79.7761 84.2403 79.8796C82.6344 80.1138 81.0252 80.3138 79.4142 80.5096C78.737 80.5919 78.06 80.6751 77.3829 80.7582C77.3099 80.7672 77.2369 80.7762 77.1617 80.7854C76.066 80.9199 74.9712 81.0606 73.8773 81.2091C72.2866 81.4246 70.6918 81.6018 69.0966 81.78C68.0137 81.901 66.9319 82.0259 65.8513 82.1659C64.5253 82.3369 63.1965 82.4804 61.8673 82.624C60.38 82.7846 58.8935 82.9483 57.4084 83.1285C55.6846 83.3372 53.9595 83.5348 52.2341 83.7301C52.0218 83.7542 51.8094 83.7784 51.5971 83.8026C49.8019 84.0071 48.006 84.1956 46.2071 84.3653C44.7227 84.5062 43.3339 84.7877 41.9008 85.1928C40.9354 85.4624 40.0579 85.6153 39.0517 85.6277C38.9655 85.6294 38.8792 85.631 38.7903 85.6327C37.3229 85.631 36.5329 84.8411 35.5368 83.8533C35.0494 83.3628 34.5902 82.8653 34.1633 82.321C33.9871 82.0979 33.8044 81.8823 33.6182 81.6676C32.8845 80.8183 32.2231 79.9151 31.5585 79.0114C31.5067 78.9414 31.4548 78.8714 31.4014 78.7993C30.7834 77.9647 30.1942 77.1137 29.6244 76.2454C29.5682 76.1602 29.512 76.075 29.4541 75.9873C29.2869 75.7296 29.125 75.4692 28.9643 75.2074C28.8789 75.0752 28.8789 75.0752 28.7919 74.9403C28.2553 74.0459 28.109 73.1401 27.9451 72.1225C27.9146 71.9429 27.8838 71.7634 27.8529 71.5838C27.7895 71.2136 27.7274 70.8433 27.6663 70.4727C27.5779 69.9372 27.486 69.4024 27.3932 68.8677C27.1688 67.5714 26.9495 66.2747 26.7465 64.9748C26.6817 64.5618 26.6143 64.1495 26.5423 63.7376C26.2406 62.0087 26.0005 60.2729 25.7677 58.5335C25.6401 57.5821 25.5069 56.6328 25.3539 55.6851C25.2451 55.006 25.16 54.3251 25.0787 53.6421C24.9675 52.7262 24.8484 51.8121 24.7139 50.8993C24.5372 49.6954 24.3878 48.4886 24.239 47.2809C24.0816 46.0041 23.9204 44.729 23.7324 43.4562C23.5972 42.5299 23.4812 41.6013 23.365 40.6724C23.1363 38.8464 22.8842 37.0251 22.615 35.2047C22.4634 34.1784 22.3171 33.1519 22.1833 32.1232C21.9967 30.6924 21.7948 29.2626 21.5384 27.8425C21.5194 27.7369 21.5194 27.7369 21.5 27.6292C21.4792 27.5146 21.4585 27.4 21.4371 27.2819C21.3604 26.8435 21.299 26.4033 21.238 25.9624C21.1028 25.0023 20.9528 24.0452 20.7935 23.0888C20.7799 23.0067 20.7663 22.9247 20.7522 22.8401C20.4744 21.1724 20.1557 19.5138 19.8247 17.856C19.7154 17.3071 19.6123 16.7574 19.511 16.207C18.9348 13.1016 18.1053 10.6157 15.9119 8.27893C13.253 5.44426 13.253 5.44426 13.2476 3.65839C13.2583 3.37795 13.275 3.16604 13.4295 2.92782C13.6323 2.78975 13.8115 2.72217 14.0473 2.6542C14.1338 2.62765 14.2202 2.60109 14.3093 2.57374C15.7305 2.19829 17.1965 2.15802 18.6567 2.16711Z" fill="#824F49"/>
<path d="M108.085 88.6779C108.427 88.9815 108.539 89.1505 108.576 89.6107C108.549 90.0031 108.437 90.285 108.257 90.6266C108.225 90.6889 108.193 90.7512 108.16 90.8153C107.739 91.6146 107.231 92.3629 106.726 93.1109C106.548 93.3911 106.425 93.5906 106.41 93.926C106.589 94.4456 107.016 94.7873 107.446 95.1159C108.216 95.714 108.685 96.701 108.83 97.6604C108.858 98.0724 108.86 98.4827 108.859 98.8955C108.861 99.0031 108.862 99.1107 108.864 99.2215C108.864 99.922 108.773 100.522 108.552 101.186C108.522 101.285 108.522 101.285 108.491 101.385C107.934 103.143 106.937 104.37 105.325 105.27C105.095 105.374 104.883 105.421 104.635 105.468C104.482 105.498 104.482 105.498 104.325 105.528C104.21 105.55 104.096 105.571 103.977 105.593C103.853 105.617 103.728 105.64 103.603 105.664C103.237 105.733 102.871 105.802 102.505 105.87C102.236 105.921 101.966 105.972 101.697 106.022C99.0228 106.526 96.3461 107.006 93.6631 107.458C92.7517 107.611 91.8412 107.77 90.9309 107.93C90.8543 107.943 90.7776 107.957 90.6987 107.971C89.9486 108.102 89.1988 108.235 88.4495 108.371C87.3981 108.562 86.3484 108.747 85.2888 108.888C84.9181 108.937 84.5528 108.996 84.1865 109.072C83.7343 109.165 83.2813 109.231 82.8238 109.293C82.046 109.4 81.2739 109.529 80.5011 109.668C79.8128 109.789 79.123 109.892 78.4308 109.988C77.1558 110.168 75.884 110.365 74.6125 110.568C74.3849 110.605 74.1573 110.641 73.9297 110.677C73.5731 110.734 73.2166 110.79 72.86 110.847C72.015 110.982 71.1698 111.115 70.3245 111.249C66.3164 111.881 62.3094 112.523 58.3145 113.235C58.142 113.266 57.9695 113.296 57.797 113.326C56.4105 113.569 55.2377 113.987 53.9707 114.606C53.2552 114.943 52.8169 115.01 52.0605 114.74C51.8505 114.657 51.6411 114.573 51.4322 114.488C51.264 114.421 51.264 114.421 51.0924 114.352C50.2036 113.992 49.325 113.61 48.4499 113.218C48.3893 113.191 48.3287 113.165 48.2663 113.137C47.7086 112.889 47.1528 112.633 46.624 112.327C46.5586 112.29 46.4932 112.252 46.4258 112.214C46.2062 111.935 46.2559 111.635 46.29 111.299C46.331 111.047 46.3764 110.804 46.4319 110.556C46.4462 110.488 46.4606 110.421 46.4755 110.351C46.521 110.137 46.5675 109.924 46.6143 109.71C46.6609 109.496 46.7073 109.282 46.753 109.067C46.7814 108.934 46.8102 108.802 46.8397 108.669C46.918 108.303 46.9669 107.962 46.9385 107.588C46.788 107.414 46.788 107.414 46.5737 107.286C45.6242 106.602 45.0603 105.731 44.5296 104.712C44.4708 104.606 44.4708 104.606 44.4109 104.499C43.8548 103.41 43.6791 101.787 43.9853 100.612C44.3666 99.5126 45.0218 98.7174 46.0532 98.188C46.9853 97.7515 48.035 97.64 49.0406 97.469C49.2646 97.4295 49.4886 97.3897 49.7125 97.3498C50.2624 97.2523 50.8126 97.1571 51.363 97.0627C51.7206 97.0012 52.078 96.9384 52.4353 96.8754C53.5662 96.676 54.697 96.4816 55.8343 96.3222C56.287 96.2576 56.7386 96.1862 57.1903 96.1151C57.2783 96.1012 57.3663 96.0874 57.4569 96.0732C57.8217 96.0158 58.1865 95.9583 58.5512 95.9005C60.313 95.6218 60.313 95.6218 61.1816 95.5178C61.6534 95.4611 62.117 95.3892 62.5836 95.2999C63.3008 95.1724 64.0239 95.0779 64.7451 94.9756C64.8324 94.9632 64.9196 94.9507 65.0095 94.9379C66.0483 94.7897 67.0872 94.6475 68.1291 94.523C69.2233 94.3892 70.313 94.2218 71.4035 94.0604C72.3235 93.9243 73.2436 93.7914 74.1655 93.6684C74.69 93.598 75.213 93.5198 75.7359 93.439C76.412 93.3347 77.0889 93.2501 77.7685 93.1722C78.7047 93.0638 79.6345 92.927 80.5649 92.7771C81.3361 92.6529 82.1077 92.5353 82.8817 92.43C84.944 92.1484 86.982 91.8021 89.0216 91.386C89.5488 91.2785 90.0769 91.1776 90.6059 91.0796C91.5165 90.9102 92.4193 90.7153 93.3212 90.5047C106.154 87.5108 106.154 87.5108 108.085 88.6779Z" fill="#824F49"/>
<path d="M120.133 83.3721C120.485 83.4914 120.69 83.618 120.932 83.8998C120.985 83.9594 121.038 84.0191 121.092 84.0806C121.497 84.6609 121.592 85.2402 121.674 85.9293C121.685 86.024 121.697 86.1188 121.709 86.2164C121.822 87.1854 121.865 88.1498 121.894 89.1244C121.896 89.1844 121.897 89.2445 121.899 89.3063C121.971 91.6749 122.001 94.0416 121.998 96.4112C121.998 96.8455 121.998 97.2798 121.999 97.714C122.008 106.442 122.008 106.442 120.967 107.866C120.903 107.956 120.903 107.956 120.837 108.048C120.24 108.884 119.583 109.669 118.909 110.443C118.667 110.721 118.436 111.006 118.205 111.293C117.928 111.635 117.64 111.951 117.324 112.256C117.155 112.425 117 112.602 116.844 112.783C116.636 113.025 116.423 113.255 116.196 113.479C115.98 113.691 115.778 113.909 115.582 114.14C115.266 114.506 114.931 114.851 114.592 115.195C114.538 115.25 114.485 115.305 114.43 115.361C114.296 115.495 114.158 115.624 114.018 115.752C113.957 115.752 113.896 115.752 113.833 115.752C113.803 115.827 113.803 115.827 113.772 115.904C113.604 116.2 113.378 116.425 113.138 116.662C113.089 116.712 113.039 116.761 112.988 116.812C112.154 117.623 111.24 118.268 110.064 118.375C109.988 118.383 109.911 118.392 109.832 118.4C109.667 118.418 109.502 118.435 109.337 118.451C108.892 118.496 108.448 118.545 108.004 118.594C107.912 118.604 107.821 118.614 107.726 118.625C106.725 118.736 105.727 118.874 104.73 119.017C104.648 119.028 104.565 119.04 104.48 119.052C104.167 119.097 103.854 119.141 103.541 119.186C102.966 119.269 102.391 119.346 101.814 119.419C101.49 119.466 101.171 119.527 100.85 119.591C100.17 119.725 99.4862 119.818 98.7991 119.909C97.4226 120.096 96.0527 120.316 94.683 120.547C94.5018 120.578 94.3207 120.608 94.1396 120.639C92.2675 120.953 90.3988 121.285 88.5313 121.625C87.3594 121.838 86.1862 122.044 85.0124 122.247C83.6747 122.477 82.339 122.717 81.0045 122.966C78.4769 123.437 75.9428 123.866 73.4074 124.291C72.3436 124.47 71.2802 124.651 70.217 124.833C69.6979 124.921 69.1788 125.01 68.6597 125.098C68.225 125.172 67.7903 125.246 67.3557 125.321C66.1391 125.531 64.9241 125.727 63.6972 125.866C63.6144 125.876 63.5316 125.885 63.4462 125.895C63.3756 125.903 63.305 125.91 63.2322 125.918C62.9961 125.953 62.7658 125.998 62.5321 126.047C62.0592 126.143 61.5864 126.209 61.1075 126.267C61.0203 126.278 60.933 126.288 60.8431 126.3C60.559 126.335 60.2748 126.37 59.9906 126.404C59.6879 126.441 59.3853 126.479 59.0827 126.516C58.8784 126.541 58.6741 126.566 58.4698 126.591C57.8657 126.665 57.2621 126.743 56.6587 126.823C45.457 128.311 45.457 128.311 40.7306 127.257C40.63 127.235 40.5295 127.213 40.4259 127.19C37.2083 126.464 34.3233 124.962 31.836 122.803C31.7873 122.762 31.7386 122.72 31.6885 122.677C31.5338 122.545 31.3807 122.41 31.2279 122.276C31.1361 122.195 31.0443 122.114 30.9496 122.031C30.5521 121.593 30.5104 121.102 30.4527 120.528C30.4458 120.461 30.4388 120.394 30.4316 120.325C30.4167 120.181 30.4021 120.036 30.3877 119.892C30.349 119.504 30.3081 119.117 30.2674 118.729C30.2592 118.65 30.2509 118.571 30.2425 118.49C30.1639 117.74 30.0749 116.993 29.9829 116.245C29.9676 116.119 29.9522 115.993 29.9369 115.867C29.8751 115.361 29.8131 114.855 29.7498 114.349C28.4909 104.272 28.4909 104.272 29.8671 101.615C30.7825 100.545 32.0479 100.054 33.4111 99.794C33.5517 99.7656 33.5517 99.7656 33.6952 99.7367C34.9045 99.5198 36.5063 99.3634 37.5804 100.072C39.4784 101.868 39.2086 105.434 39.2926 107.84C39.3798 110.335 39.3798 110.335 39.5214 112.827C39.5312 112.979 39.5312 112.979 39.5413 113.135C39.6658 115.077 39.6658 115.077 40.6379 116.68C42.4138 118.21 44.8237 119.26 47.0077 120.066C47.0927 120.098 47.1777 120.129 47.2653 120.161C48.775 120.701 50.0673 120.515 51.5186 119.901C52.7386 119.389 54.0004 119.252 55.3059 119.1C55.8372 119.038 56.3608 118.958 56.8865 118.859C57.2597 118.79 57.6347 118.735 58.0102 118.68C59.7782 118.421 61.5409 118.127 63.304 117.837C63.5026 117.804 63.7011 117.772 63.8997 117.739C63.967 117.728 64.0343 117.717 64.1036 117.705C64.3836 117.659 64.6635 117.613 64.9434 117.567C65.0876 117.543 65.2318 117.519 65.376 117.496C66.3763 117.331 67.3767 117.167 68.3771 117.003C68.9398 116.911 69.5025 116.819 70.0653 116.726C70.4514 116.663 70.8376 116.6 71.2239 116.537C73.0124 116.245 74.7978 115.939 76.581 115.616C77.8235 115.391 79.0676 115.176 80.3129 114.967C80.8959 114.869 81.4788 114.771 82.0617 114.672C82.1746 114.653 82.2875 114.634 82.4038 114.614C83.303 114.462 84.2014 114.306 85.0993 114.146C85.1607 114.135 85.222 114.124 85.2853 114.113C85.5777 114.061 85.8701 114.009 86.1625 113.956C87.1701 113.778 88.1785 113.603 89.1875 113.432C89.2788 113.417 89.3701 113.401 89.4641 113.386C91.9705 112.963 94.4926 112.617 97.0166 112.319C99.6079 112.012 102.194 111.669 104.755 111.166C105.132 111.094 105.511 111.031 105.89 110.968C108.385 110.55 109.759 109.689 111.289 107.672C111.425 107.493 111.563 107.315 111.7 107.137C112.312 106.338 112.894 105.521 113.41 104.657C113.555 104.433 113.555 104.433 113.738 104.212C114.504 103.197 114.407 102.089 114.406 100.864C114.408 100.631 114.411 100.397 114.415 100.164C114.421 99.6109 114.425 99.0581 114.427 98.5052C114.429 97.8324 114.437 97.1596 114.444 96.4867C114.446 96.246 114.448 96.0054 114.451 95.7647C114.456 95.2884 114.461 94.8121 114.466 94.3358C114.468 94.1019 114.471 93.8679 114.473 93.634C114.474 93.52 114.475 93.406 114.477 93.2886C114.482 92.631 114.479 91.9742 114.468 91.3167C114.461 90.9214 114.46 90.5261 114.458 90.1308C114.457 89.9497 114.453 89.7685 114.447 89.5875C114.399 88.1586 114.399 88.1586 114.833 87.6853C115.126 87.4161 115.445 87.2055 115.779 86.9905C115.948 86.8553 116.117 86.7184 116.282 86.5787C116.365 86.5119 116.447 86.445 116.531 86.3762C116.84 86.1209 117.143 85.8603 117.446 85.5988C117.995 85.1256 118.552 84.6638 119.114 84.2071C119.305 84.0507 119.496 83.894 119.687 83.7374C119.836 83.6156 119.985 83.4938 120.133 83.3721Z" fill="#824F49"/>
<path d="M9.78505 24.272C9.94685 24.5683 10.0395 24.8602 10.1278 25.1856C10.1573 25.2926 10.1868 25.3995 10.2172 25.5097C10.2485 25.6237 10.2798 25.7376 10.312 25.855C10.5487 26.7013 10.8015 27.5311 11.1146 28.3519C11.7711 30.074 12.4179 31.8624 12.7014 33.6901C12.7131 33.7651 12.7248 33.84 12.7369 33.9173C12.8876 34.9194 12.9817 35.9279 13.08 36.9363C13.0994 37.1324 13.1189 37.3285 13.1384 37.5245C13.1673 37.8146 13.1962 38.1047 13.2248 38.3948C13.272 38.874 13.3206 39.3529 13.3721 39.8317C13.5277 41.2773 13.6586 42.7253 13.7923 44.1731C13.7993 44.2489 13.8063 44.3248 13.8135 44.4029C14.096 47.4598 14.3472 50.5187 14.585 53.5794C14.6449 54.3496 14.7066 55.1196 14.7714 55.8894C14.7778 55.9648 14.7841 56.0403 14.7906 56.1181C14.8212 56.4809 14.852 56.8436 14.8831 57.2063C14.9449 57.9314 14.9972 58.6558 15.0257 59.3831C15.0537 60.0917 15.1116 60.7932 15.1837 61.4987C15.2467 62.1281 15.2862 62.7566 15.3125 63.3886C15.3288 63.762 15.3627 64.1259 15.4122 64.4968C15.4794 65.1164 15.5002 65.7418 15.5341 66.3641C15.5775 67.1544 15.6343 67.9418 15.7094 68.7298C15.8445 70.1595 15.9262 71.593 16.0159 73.0262C16.0966 74.3102 16.1782 75.5931 16.3033 76.8736C16.351 77.3639 16.3836 77.8527 16.4039 78.3448C16.4409 79.1688 16.5173 79.9883 16.595 80.8092C16.6741 81.6457 16.7498 82.4801 16.7803 83.3201C16.8117 84.1712 16.8835 85.0177 16.9598 85.8657C16.9659 85.9341 16.9721 86.0026 16.9784 86.0731C17.0295 86.6399 17.0817 87.2067 17.134 87.7734C17.2265 88.7785 17.3047 89.7804 17.3453 90.7891C17.3701 91.3639 17.4154 91.9346 17.4694 92.5074C17.5799 93.7325 17.6445 94.959 17.7068 96.1874C17.7188 96.4177 17.7308 96.6479 17.7428 96.8782C17.7665 97.3331 17.7901 97.788 17.8135 98.2429C17.8557 99.0616 17.8998 99.8802 17.9442 100.699C17.9479 100.766 17.9515 100.834 17.9553 100.903C17.9698 101.169 17.9842 101.436 17.9987 101.702C18.0212 102.116 18.0434 102.53 18.0654 102.944C18.1421 104.384 18.2212 105.823 18.3371 107.261C18.3771 107.766 18.4084 108.272 18.431 108.778C18.4815 109.899 18.5787 111.012 18.6854 112.128C18.7114 112.402 18.7373 112.676 18.7629 112.95C18.7786 113.118 18.7946 113.286 18.8108 113.455C18.8452 113.82 18.875 114.179 18.8649 114.546C16.5133 114.631 16.5133 114.631 15.5121 113.798C14.4855 112.81 13.9404 111.452 13.5838 110.093C13.5413 109.945 13.5413 109.945 13.498 109.794C13.0347 108.09 12.8491 106.327 12.692 104.572C12.6817 104.459 12.6715 104.345 12.6609 104.229C12.625 103.802 12.594 103.376 12.5646 102.949C12.5571 102.842 12.5496 102.735 12.5419 102.626C12.3877 100.378 12.3446 98.1345 12.329 95.8819C12.3241 95.179 12.3182 94.4761 12.3116 93.7733C12.3095 93.5303 12.308 93.2874 12.3065 93.0444C12.3053 92.8974 12.304 92.7504 12.3027 92.6034C12.3025 92.5366 12.3023 92.4699 12.302 92.4011C12.2991 92.1185 12.284 91.8999 12.194 91.6296C12.108 91.6985 12.108 91.6985 12.0203 91.7688C11.8234 91.9079 11.8234 91.9079 11.6381 91.9079C11.6127 91.9596 11.5872 92.0113 11.561 92.0645C11.4883 92.2087 11.4132 92.3518 11.3359 92.4936C10.9785 93.1681 10.7251 93.8505 10.4996 94.5793C10.2736 95.2737 9.87723 96.0096 9.21756 96.3787C8.76391 96.5071 8.31946 96.5047 7.86252 96.3903C7.18098 95.9922 6.86361 95.3295 6.64321 94.5964C6.43532 93.7155 6.35613 92.8207 6.28676 91.9201C6.27144 91.7221 6.25533 91.5242 6.23854 91.3264C5.93721 87.7305 5.88049 83.9876 6.30857 80.3988C6.37481 79.8144 6.40406 79.2275 6.43909 78.6405C6.53042 77.1592 6.65378 75.6815 6.78496 74.2033C6.80943 73.9269 6.83361 73.6505 6.85781 73.374C7.00724 71.6669 7.16147 69.9603 7.31803 68.2538C7.52096 66.04 7.52096 66.04 7.70601 63.8246C7.71718 63.6843 7.72855 63.5441 7.74016 63.4039C7.99295 60.3321 7.94666 57.2457 7.94393 54.1663C7.94358 53.7289 7.9437 53.2915 7.94409 52.8541C7.94748 49.3019 7.94748 49.3019 7.87959 45.7506C7.82813 43.9893 7.82099 42.2284 7.82186 40.4664C7.82199 40.2019 7.82198 39.9374 7.82197 39.6729C7.8226 37.1978 7.847 34.7299 8.01206 32.2594C8.02877 32.0022 8.04335 31.745 8.05787 31.4877C8.12718 30.2632 8.2246 29.0415 8.34316 27.8208C8.35336 27.7109 8.36356 27.601 8.37408 27.4877C8.48767 26.384 8.74122 25.2987 9.5071 24.4575C9.59882 24.3963 9.69055 24.3351 9.78505 24.272Z" fill="#824F49"/>
<path d="M82.7564 59.441C83.8451 60.1263 84.5877 60.9977 85.2039 62.1259C85.243 62.1953 85.282 62.2646 85.3223 62.3361C85.9338 63.547 86.0679 65.2323 85.6646 66.5133C85.0395 68.258 84.1458 69.6585 82.4244 70.476C81.1736 71.035 79.6671 71.0316 78.3763 70.5992C77.4829 70.2401 76.66 69.8248 75.9387 69.1771C75.8684 69.1142 75.798 69.0513 75.7255 68.9865C74.9517 68.2545 74.4206 67.4046 74.0857 66.3937C74.0526 66.2968 74.0195 66.2 73.9854 66.1002C73.699 64.9018 73.7896 63.4894 74.3738 62.3977C74.5104 62.1959 74.6605 62.0259 74.8269 61.8475C74.8687 61.802 74.9105 61.7565 74.9535 61.7096C77.1093 59.3841 79.6784 57.6267 82.7564 59.441Z" fill="#824F49"/>
</svg>
