<svg width="128" height="128" viewBox="0 0 128 128" fill="none" xmlns="http://www.w3.org/2000/svg">
	<path
		d="M117.807 97.6583C117.735 97.6671 117.667 97.676 117.599 97.6848L112.703 97.6055L112.114 97.5702L111.861 97.6055L107.695 97.8962C104.964 98.1867 102.285 98.9177 99.5961 99.2435L95.6228 99.7896L95.297 99.8336L89.9943 100.978C89.4876 101.049 84.8673 101.665 84.8673 101.665L84.5513 101.709L84.4806 101.727L73.8628 104.219L73.6157 104.272C72.996 104.492 72.3728 104.695 71.7522 104.915L70.5013 102.238L64.2329 99.992L58.2125 102.493L57.049 105.003C56.1557 104.712 55.2985 104.413 54.5331 104.122L54.1536 104.07L49.0424 103.321C48.7458 103.233 43.9807 101.815 43.9807 101.815L43.8439 101.771L43.4696 101.709L38.1987 100.89L32.9957 99.7191L32.8959 99.7015L32.4651 99.6575C32.4651 99.6575 28.2368 99.27 27.4802 99.1994L21.835 98.4156L21.5463 98.3453H20.8904C17.4865 98.3628 14.3245 97.8344 10.8138 97.6143C11.1607 93.7746 11.4688 89.891 11.55 86.0864C11.9181 81.1637 12.476 73.449 12.318 69.7768L12.8909 64.3783L13.7454 59.0152L13.801 58.6717L13.8037 58.5396C13.8231 53.7048 14.2433 47.1264 14.6767 42.3091L15.4836 36.9548L15.518 36.7257L15.5206 36.6729C15.6725 32.7012 16.0839 28.3067 16.3795 24.3614C16.3795 24.3614 19.0958 22.5824 19.1249 22.5824C19.2891 22.6001 20.6309 22.7145 21.8968 22.8203L21.8112 25.7087L21.2303 30.9663L20.6768 36.215L20.1375 41.4725L19.9485 46.7564L19.5028 52.014L18.7957 57.2627L18.567 62.5378L18.4284 67.8218L17.4724 73.0527L17.5598 78.3544L16.534 83.5766L16.4317 88.8695L21.8588 88.614L27.2984 88.1825L32.7361 88.614L38.1818 88.887L43.5879 89.6003L48.9303 90.6748L54.0379 92.5417L59.2983 93.9508L64.1331 96.5134L69.0863 94.2062L74.3404 92.8147L79.4983 91.2032L84.7543 89.8733L90.0888 88.8254L95.5124 88.3411L100.953 87.927L106.427 88.209L111.861 88.887L111.358 83.6118L111.075 78.3367L110.277 73.0968L110.35 67.7953L109.664 62.5554L108.999 57.3067L108.696 52.0316L108.38 46.7652L107.994 41.499L107.731 36.2238L107.039 30.9751L106.836 25.6912L106.633 22.9699L109.122 22.6705C109.198 22.6705 112.451 25.9729 112.451 25.9729L112.957 31.2833L113.239 36.6201C113.24 36.6466 113.267 42.0273 113.267 42.0449L113.283 42.2475L113.623 46.4569C113.8 49.2222 114.463 51.926 114.638 54.6648C114.638 54.6648 114.903 57.9584 114.942 58.4339C114.94 58.5484 114.866 63.9116 114.866 63.9116L114.864 64.0878C116.806 74.7525 116.515 86.1745 117.814 96.945L117.807 97.6583ZM127.605 96.6015L127.585 96.2052L127.563 96.0643C126.661 91.4321 125.902 84.5893 125.342 79.8515C124.637 74.3827 123.934 68.7465 122.615 63.3568C122.579 62.617 122.373 58.2667 122.373 58.2667L122.361 57.9935L122.352 57.932L121.756 53.7488C121.415 50.9923 120.575 48.3328 120.24 45.6115C120.24 45.6115 119.676 41.6398 119.671 41.6046L119.316 36.2766L118.679 30.7109L117.803 25.154C117.57 24.2028 116.981 21.5521 116.534 19.597C116.272 18.4433 115.188 17.6507 113.978 17.7213L108.895 18.0295L108.683 18.047L108.613 18.0558L106.318 18.461L106.102 15.0793L100.575 15L95.2935 15.8894L89.9325 16.0833L84.764 17.4483L79.6025 18.7252L74.4534 20.1343L69.6045 22.3359L68.1258 23.4103C66.3603 24.696 65.2904 26.6775 65.2145 28.8087L65.1598 30.3409L64.7652 35.2816L65.2904 40.222L65.3443 45.1624L64.8049 50.1117L64.6451 55.0523L64.6884 59.9927L64.6213 77.7379L63.6732 77.7202L63.3616 58.7686L63.4207 53.2204L63.1144 47.6635L63.4834 42.0977L63.2212 36.5496L63.1506 30.9927L63.1462 28.9408C63.1418 26.6334 61.973 24.4846 60.0142 23.1636L58.7245 22.2919L53.8852 20.0197L48.8208 18.2849L43.564 17.2192L43.0317 17.1048L43.1394 20.3632L42.7969 25.7L42.8993 31.0544L42.608 36.3912L42.3644 41.7279L42.3697 47.0734L41.9345 52.4103L42.292 57.7646L41.6034 63.0838L41.8232 68.4382L41.388 73.775L41.6149 79.2966L38.2604 76.2231L34.9704 73.2378L31.2063 75.7124L28.0169 78.2926L28.1811 73.1145L28.506 67.7337L28.8502 62.3528L29.3976 56.9897L29.7092 51.6088L29.8072 46.2192L30.245 40.856L30.5584 35.4752L30.7835 30.0945L31.073 24.7225L31.4085 19.3417L31.5109 15.5196L27.6365 15.4403L22.1281 15.0793L22.0363 18.1704C20.7898 17.9942 19.5381 17.8093 19.5381 17.8093C18.4196 17.7476 15.9885 17.5804 14.0262 17.4483C12.7082 17.369 11.5553 18.3025 11.4132 19.5794C11.2375 21.1646 11.038 22.9964 10.9277 23.8594C10.4881 27.2058 9.53203 33.6611 9.36694 35.9068L8.20259 41.4109L7.41255 47.0206L6.74518 52.604L6.31967 57.8263L5.13855 63.1806L4.21166 68.7288C3.96627 71.5469 3.80912 74.4002 3.46222 77.1743C3.20533 79.825 2.78955 82.5991 2.42408 85.3379C2.13895 88.0591 1.96593 90.8069 1.49012 93.4576C0.952531 96.7864 0.439645 100.714 0.0159394 104.343C-0.148284 105.752 0.977229 106.984 2.43468 107.002C8.65104 107.064 15.1711 107.152 21.2736 106.632C22.294 106.773 26.0343 107.293 26.0343 107.293L26.4818 107.354H26.5807C26.5807 107.354 31.7166 107.416 31.9284 107.416C32.6443 107.522 37.0219 108.156 37.0219 108.156L42.4164 108.64C43.0361 108.79 47.3607 109.829 47.3607 109.829L47.6732 109.899L47.8259 109.917C47.8259 109.917 52.4666 110.437 52.9813 110.498C55.4768 111.308 58.5444 112.198 61.3383 112.982C62.2997 113.255 64.4271 110.384 64.4271 110.384C64.4271 110.384 66.4954 113.158 67.8266 112.832C69.3202 112.471 69.9567 112.312 70.2532 112.233C71.9835 111.687 73.7101 111.124 75.4474 110.586C78.0409 110.067 82.9649 109.151 85.6776 108.684C85.8153 108.675 91.0545 108.332 91.0545 108.332L91.3476 108.297C91.3476 108.297 95.847 107.68 96.4164 107.601C100.366 107.486 104.799 106.958 108.678 106.694C108.678 106.694 111.187 106.579 112.055 106.544L117.251 107.196L117.482 107.222C119.164 107.143 121.504 107.134 123.159 107.029L125.689 106.879C127.034 106.791 128.063 105.681 127.997 104.369C127.865 101.771 127.692 98.4509 127.605 96.6015Z"
		fill="#111" />
</svg>