<svg width="128" height="128" viewBox="0 0 128 128" fill="none" xmlns="http://www.w3.org/2000/svg">
<path d="M64.3701 5.91943C64.8429 6.16824 65.2797 6.43335 65.72 6.73504C65.8862 6.84811 66.0524 6.96118 66.2237 7.07768C66.4888 7.26034 66.4888 7.26034 66.7592 7.4467C68.3259 8.5285 68.3259 8.5285 69.9264 9.55971C72.2401 11.0134 74.0908 12.8066 75.98 14.751C76.7734 15.5664 77.5978 16.3172 78.4672 17.0509C80.4627 18.824 82.3633 20.6507 84.0891 22.6863C84.9874 23.7322 85.9511 24.651 87.0759 25.4575C88.8212 26.7485 89.928 28.4184 91.1449 30.1848C92.0427 31.4739 92.966 32.5994 94.1044 33.6889C94.4875 34.0631 94.834 34.4429 95.1776 34.852C96.2551 36.0994 97.5334 37.1757 98.7731 38.2608C99.7407 39.1122 100.659 39.9922 101.557 40.9157C103.192 42.5938 104.874 44.044 106.806 45.3746C107.951 46.1707 109.016 47.0416 109.866 48.1501C109.99 48.3093 110.115 48.4684 110.243 48.6324C110.373 48.7983 110.502 48.9642 110.634 49.1352C111.537 50.2643 112.449 51.3426 113.493 52.3454C113.847 52.6957 114.168 53.0601 114.49 53.4389C115.86 55.0034 117.486 56.2381 119.17 57.4485C120.637 58.526 121.226 59.7773 121.869 61.4365C121.977 61.699 121.977 61.699 122.087 61.9668C122.187 62.2213 122.187 62.2213 122.288 62.4809C122.379 62.7104 122.379 62.7104 122.471 62.9445C122.58 63.5291 122.441 63.8058 122.177 64.333C122.113 64.4661 122.048 64.5992 121.982 64.7363C120.824 66.953 119.555 68.9123 117.895 70.7914C117.682 71.0344 117.476 71.2834 117.272 71.5339C116.142 72.9073 114.685 73.9895 113.296 75.0937C111.702 76.3629 110.269 77.7414 108.94 79.2816C108.315 79.9876 107.665 80.6705 107.017 81.3556C106.495 81.9092 105.984 82.4686 105.486 83.0437C104.674 83.9691 103.807 84.8414 102.934 85.7105C102.654 85.9898 102.376 86.2712 102.099 86.5526C100.864 87.7901 99.5731 88.8321 98.146 89.8503C96.3679 91.1997 94.8835 92.6381 93.4813 94.3695C92.8728 95.1185 92.2454 95.8512 91.6194 96.5859C91.2234 97.0715 90.862 97.5678 90.5022 98.0799C89.3946 99.6237 87.9955 100.584 86.4106 101.615C84.26 103.014 82.523 104.649 80.8524 106.581C80.1301 107.398 79.3458 108.141 78.5145 108.848C76.8591 110.278 75.4476 111.769 74.1763 113.539C73.2717 114.787 72.2238 115.812 71.0167 116.775C70.8552 116.905 70.6937 117.034 70.5274 117.168C70.3376 117.317 70.1478 117.466 69.9523 117.619C69.8282 117.718 69.7041 117.818 69.5763 117.92C68.5158 118.757 67.4216 119.503 66.2625 120.199C66.095 120.308 65.9274 120.418 65.7547 120.53C64.5436 121.25 64.5436 121.25 63.8356 121.076C63.3818 120.832 62.9848 120.554 62.5727 120.246C62.2801 120.06 61.9864 119.876 61.6917 119.693C61.2197 119.388 60.7494 119.08 60.2795 118.771C59.5016 118.262 58.7253 117.763 57.914 117.308C55.8537 116.128 54.6629 114.731 53.3729 112.763C52.3754 111.245 51.3402 109.977 49.8862 108.865C49.2592 108.372 48.6797 107.843 48.0975 107.3C47.1784 106.445 46.228 105.647 45.2451 104.864C44.7291 104.438 44.2614 103.984 43.7969 103.504C43.4715 103.182 43.1345 102.888 42.7838 102.593C41.6529 101.619 40.6185 100.549 39.5678 99.4912C38.7399 98.6627 37.9024 97.8655 37.0097 97.1061C36.3862 96.5631 35.8032 95.9808 35.2187 95.3971C35.0324 95.2118 35.0324 95.2118 34.8424 95.0229C34.1247 94.3047 33.4345 93.573 32.7722 92.804C31.7289 91.6087 30.5655 90.6245 29.2889 89.6852C27.9429 88.6748 27.0415 87.4332 26.148 86.0274C26.0558 85.8865 25.9636 85.7456 25.8686 85.6004C25.5024 85.0393 25.1479 84.4878 24.8405 83.8924C24.103 82.5067 22.7189 81.9555 21.3635 81.2686C19.975 80.5457 19.2272 79.6204 18.3309 78.3699C18.0928 78.0461 17.8544 77.7226 17.6154 77.3995C17.5024 77.2468 17.3895 77.094 17.2732 76.9367C16.423 75.7896 15.6099 74.924 14.4172 74.1341C10.816 71.7446 6.7055 68.1629 5.61768 63.7701C5.80701 63.0984 6.15205 62.5433 6.52608 61.9561C6.63183 61.7901 6.73758 61.624 6.84654 61.4529C6.96007 61.2772 7.0736 61.1015 7.19056 60.9205C7.36616 60.6481 7.36616 60.6481 7.5453 60.3701C8.32906 59.165 9.13739 57.9805 9.98155 56.8162C10.0805 56.6791 10.1795 56.542 10.2815 56.4008C11.2805 55.0441 12.4195 54.0953 13.7896 53.1223C15.8298 51.6485 17.5809 50.0605 19.2755 48.2124C20.2624 47.1379 21.2989 46.1378 22.4094 45.1899C22.9302 44.7387 23.4396 44.2756 23.9483 43.8112C24.6549 43.1668 25.3632 42.5246 26.077 41.8881C26.23 41.7517 26.3829 41.6152 26.5405 41.4747C26.8476 41.2021 27.1556 40.9304 27.4644 40.6597C29.0464 39.2664 30.5572 37.8167 31.9303 36.2189C32.4114 35.6881 32.9211 35.1894 33.4329 34.6879C34.6589 33.4821 35.77 32.2323 36.8271 30.8767C36.9091 30.7718 36.9912 30.6668 37.0758 30.5587C37.4504 30.0748 37.8037 29.593 38.1361 29.0788C39.1403 27.5423 40.4298 26.7037 41.9566 25.7345C42.6686 25.2715 43.3421 24.757 44.0218 24.2489C44.4077 23.9931 44.4077 23.9931 44.7861 23.9931C44.8332 23.869 44.8803 23.7449 44.9288 23.6171C46.1068 20.8086 47.6654 19.211 50.2085 17.5379C51.3411 16.7732 52.3915 15.9609 53.301 14.9401C53.4603 14.7623 53.6195 14.5845 53.7836 14.4014C54.2155 13.8981 54.628 13.3842 55.0394 12.8644C56.1513 11.4967 57.4693 10.3372 58.7884 9.17053C58.8922 9.07623 58.996 8.98194 59.103 8.88478C60.0077 8.08286 60.9937 7.44975 62.0287 6.82519C62.1953 6.71973 62.3619 6.61428 62.5336 6.50563C62.6953 6.40792 62.857 6.31021 63.0236 6.20953C63.2414 6.07584 63.2414 6.07584 63.4635 5.93945C63.8973 5.79323 63.8973 5.79323 64.3701 5.91943Z" fill="#FEFEFE"/>
<path d="M68.9979 30.5073C69.7612 30.547 70.5185 30.563 71.2827 30.5528C73.7851 30.5691 75.8352 31.3927 78.0887 32.3895C78.2388 32.4558 78.389 32.5222 78.5437 32.5905C78.9773 32.7847 79.4085 32.9831 79.839 33.184C79.9673 33.2427 80.0956 33.3013 80.2279 33.3618C81.6542 34.047 82.6733 35.0339 83.6115 36.2828C85.0847 38.1906 86.6748 39.9934 88.3021 41.7731C88.8794 42.4063 89.4463 43.0484 90.0095 43.694C90.1 43.7832 90.1905 43.8723 90.2837 43.9641C91.1549 44.8672 91.4127 45.6946 91.6415 46.9072C91.6805 47.0929 91.7196 47.2786 91.7597 47.47C91.9733 48.5337 92.1279 49.5917 92.238 50.6707C92.6163 54.2964 93.6053 56.85 95.7718 59.789C95.8764 59.931 95.9809 60.073 96.0886 60.2194C96.2858 60.4814 96.4882 60.7397 96.6969 60.993C97.4682 61.9811 97.5086 62.7352 97.3891 63.9578C97.3732 64.141 97.3574 64.3242 97.3411 64.5129C97.283 65.1149 97.2138 65.7145 97.1407 66.3149C97.1151 66.5295 97.0895 66.7441 97.0631 66.9653C96.8848 68.4188 96.6749 69.8605 96.3905 71.2973C96.2956 71.8031 96.218 72.292 96.1584 72.8012C95.917 74.6932 95.2663 76.1979 93.7939 77.467C92.7807 78.2127 91.6949 78.842 90.608 79.4748C89.9141 79.888 89.2669 80.3542 88.6229 80.8391C88.2432 81.1248 87.8617 81.3961 87.4698 81.6644C85.6701 82.9321 84.6037 84.363 83.576 86.2855C83.4834 86.447 83.3908 86.6086 83.2953 86.7751C82.7194 87.827 82.3319 88.8341 82.0837 90.0043C81.1455 94.3843 81.1455 94.3843 79.8951 95.3158C79.1511 95.7419 78.3761 96.0364 77.5559 96.2855C77 96.4628 76.5061 96.7254 75.9954 97.0037C75.2993 97.3555 75.2993 97.3555 74.8719 97.3555C74.2163 95.1265 74.2163 95.1265 73.5474 92.8524C72.3631 92.9867 72.3631 92.9867 71.2413 93.2394C70.6333 93.3877 70.1885 93.4311 69.5738 93.4153C69.5438 93.5452 69.5138 93.6751 69.4829 93.8089C68.8159 96.5824 67.7953 99.2148 66.7355 101.859C63.0759 102.082 63.0759 102.082 61.2481 102.046C60.81 101.075 60.4565 100.099 60.135 99.0844C60.0859 98.9307 60.0367 98.777 59.9861 98.6186C59.883 98.2956 59.7803 97.9725 59.6779 97.6493C59.5217 97.1566 59.3639 96.6644 59.2059 96.1722C59.1055 95.8569 59.0053 95.5417 58.9051 95.2264C58.8582 95.0803 58.8113 94.9343 58.7629 94.7839C58.5215 94.0177 58.3307 93.2753 58.2206 92.4772C58.0553 92.4496 58.0553 92.4496 57.8865 92.4215C56.565 92.1825 55.323 91.7955 54.0578 91.3514C54.0529 91.4547 54.048 91.558 54.043 91.6644C53.9107 93.588 53.4931 95.4684 53.1117 97.3555C52.8623 97.2457 52.613 97.1357 52.3637 97.0257C52.2045 96.9555 52.0452 96.8852 51.8811 96.8129C51.5326 96.6577 51.1849 96.5008 50.838 96.3421C50.1002 96.0049 49.3818 95.6849 48.6103 95.4294C47.8491 95.158 47.2672 94.9258 46.8665 94.1937C46.3322 92.9235 46.0441 91.5775 45.7661 90.2337C45.2628 87.9198 44.2104 85.958 43.0903 83.8794C42.8939 83.4711 42.8939 83.4711 42.8939 83.0958C42.7697 83.0566 42.6455 83.0174 42.5176 82.9771C41.7324 82.6236 41.0878 82.1279 40.3985 81.6182C39.0492 80.6342 37.6784 79.6943 36.274 78.7893C33.5177 76.9995 32.3334 74.9233 31.6589 71.7795C31.595 71.4968 31.5311 71.2142 31.4671 70.9315C31.0062 68.8441 30.6753 66.7503 30.6103 64.6105C30.5993 64.2843 30.5775 63.9585 30.5478 63.6335C30.4558 62.1729 30.8865 61.4096 31.7772 60.2756C31.8965 60.1127 32.0157 59.9497 32.1386 59.7819C32.6962 59.0233 33.2703 58.29 33.8919 57.5821C35.9311 55.1718 36.1504 52.3469 36.4604 49.3229C36.4841 49.0968 36.5079 48.8708 36.5324 48.6379C36.6556 47.4288 36.7576 46.2199 36.8388 45.0074C36.9637 45.0074 37.0886 45.0074 37.2173 45.0074C37.2639 44.9013 37.3104 44.7951 37.3584 44.6857C37.6365 44.1833 37.9699 43.8197 38.3644 43.4009C38.9683 42.7488 39.5455 42.0872 40.1029 41.3956C40.9835 40.3155 41.9333 39.3084 42.8909 38.2961C43.3339 37.8274 43.7688 37.3532 44.1947 36.8691C44.2873 36.7641 44.3799 36.6591 44.4753 36.5509C44.6764 36.3166 44.8721 36.0776 45.0608 35.8333C45.9436 34.7332 46.9148 34.1773 48.1802 33.5739C48.5715 33.3825 48.9625 33.1905 49.3532 32.9978C49.5433 32.9042 49.7334 32.8105 49.9293 32.714C50.404 32.4669 50.8476 32.2034 51.2942 31.9102C53.1502 30.6991 54.4874 30.6143 56.6732 30.8873C58.1399 31.0585 59.5596 30.9762 61.0072 30.7239C63.6786 30.2669 66.3041 30.364 68.9979 30.5073Z" fill="#3D315D"/>
<path d="M65.0327 0.163846C65.3874 0.359077 65.3874 0.359077 65.7224 0.602132C65.8488 0.692453 65.9752 0.782773 66.1055 0.875831C66.3062 1.0226 66.3062 1.0226 66.511 1.17234C66.8004 1.37944 67.0899 1.58636 67.3795 1.79313C67.5253 1.89782 67.6712 2.00252 67.8214 2.11039C68.4544 2.56142 69.0962 2.99927 69.7396 3.4356C69.8611 3.51835 69.9827 3.60109 70.1079 3.68635C70.8059 4.16109 71.5056 4.63333 72.2061 5.10446C72.4434 5.26447 72.4434 5.26447 72.6855 5.42772C72.9894 5.63255 73.2936 5.83691 73.5982 6.04072C74.0259 6.3292 74.45 6.62203 74.8722 6.91843C75.0038 7.0107 75.1354 7.10298 75.271 7.19804C76.6602 8.2191 77.8393 9.4503 79.0468 10.671C80.3322 11.9664 81.6073 13.2498 83.0086 14.4235C84.1485 15.4196 85.2646 16.4194 86.246 17.5722C87.821 19.405 89.5022 21.1023 91.369 22.6454C92.8631 23.8872 93.9285 25.4035 95.0122 26.9946C95.8476 28.214 96.7239 29.3175 97.7677 30.3719C97.8874 30.4932 98.0072 30.6145 98.1305 30.7394C99.4348 32.0571 100.736 33.3669 102.146 34.5736C102.655 35.0088 103.151 35.456 103.645 35.9069C103.749 36.0012 103.853 36.0956 103.96 36.1928C104.532 36.7179 105.088 37.2536 105.628 37.8117C107.122 39.3533 108.669 40.64 110.446 41.8538C111.571 42.6279 112.48 43.4314 113.307 44.526C113.49 44.7616 113.674 44.9969 113.858 45.2318C113.951 45.3509 114.044 45.47 114.14 45.5927C116.554 48.6454 119.272 51.4879 122.47 53.7351C124.752 55.3552 125.635 57.2387 126.622 59.7891C126.802 60.2544 126.987 60.7176 127.173 61.1809C127.29 61.4778 127.406 61.7749 127.522 62.0721C127.577 62.2097 127.632 62.3473 127.689 62.4891C127.976 63.2422 128.133 63.7524 127.854 64.5201C127.696 64.8604 127.524 65.195 127.344 65.5242C127.239 65.715 127.135 65.9058 127.027 66.1024C126.917 66.3 126.808 66.4976 126.695 66.7012C126.589 66.8945 126.484 67.0877 126.375 67.2868C125.337 69.1732 124.235 70.9643 122.839 72.6115C122.622 72.8705 122.405 73.1298 122.189 73.3891C122.087 73.5105 121.986 73.6318 121.881 73.7568C121.554 74.1573 121.25 74.5731 120.947 74.992C119.962 76.2619 118.611 77.2236 117.352 78.2137C116.07 79.2334 114.89 80.3198 113.733 81.4769C113.567 81.6399 113.401 81.8029 113.23 81.9709C112.242 82.9536 111.336 83.9721 110.461 85.0544C109.909 85.727 109.321 86.36 108.719 86.9884C108.598 87.1147 108.477 87.2409 108.353 87.3709C108.103 87.6319 107.852 87.8924 107.6 88.1524C107.358 88.403 107.116 88.6544 106.875 88.9064C105.219 90.635 103.468 92.1097 101.535 93.525C100.105 94.5742 98.8865 95.6453 97.7869 97.0419C97.4303 97.4908 97.0591 97.9091 96.6679 98.3282C95.8543 99.2224 95.1382 100.184 94.4184 101.153C94.2345 101.4 94.0494 101.646 93.863 101.892C93.6377 102.19 93.4172 102.491 93.1976 102.793C92.4582 103.658 91.4462 104.243 90.5064 104.872C89.9387 105.256 89.3711 105.641 88.8036 106.026C88.511 106.223 88.2172 106.419 87.9207 106.61C87.1709 107.107 86.6272 107.673 86.0479 108.357C85.3042 109.202 84.4916 109.984 83.6903 110.775C83.3869 111.075 83.0846 111.376 82.7824 111.677C81.1676 113.279 81.1676 113.279 80.3824 113.914C79.6878 114.486 79.1899 115.169 78.6684 115.895C78.4703 116.162 78.2717 116.43 78.0726 116.697C77.9778 116.824 77.883 116.951 77.7853 117.082C76.8197 118.358 75.7456 119.379 74.4826 120.364C74.0119 120.74 73.5691 121.133 73.1244 121.538C71.4822 123.004 69.5724 123.986 67.6376 125.021C67.1527 125.29 66.6865 125.575 66.2205 125.874C66.0863 125.958 65.9521 126.042 65.8139 126.128C65.5695 126.282 65.3284 126.441 65.0916 126.606C64.7622 126.808 64.7622 126.808 64.0866 127C63.4477 126.795 62.934 126.437 62.3837 126.062C62.0664 125.861 61.749 125.661 61.4317 125.46C61.0864 125.235 60.7415 125.01 60.3969 124.784C59.1855 123.994 57.9726 123.207 56.7492 122.435C56.5387 122.303 56.3282 122.17 56.1113 122.033C55.7063 121.778 55.3011 121.523 54.8955 121.269C53.185 120.191 51.7898 119.289 50.6639 117.595C50.4675 117.311 50.2709 117.027 50.0741 116.743C49.9318 116.535 49.9318 116.535 49.7867 116.323C48.6015 114.597 47.3405 113.16 45.7323 111.802C45.4917 111.591 45.2512 111.38 45.011 111.169C44.5486 110.77 44.0832 110.374 43.6162 109.98C41.4836 108.18 39.4344 106.323 37.4632 104.35C36.7628 103.651 36.0509 102.982 35.2913 102.346C34.72 101.848 34.196 101.303 33.6622 100.765C33.2905 100.402 32.91 100.068 32.5106 99.7354C31.3243 98.7254 30.2723 97.5342 29.2725 96.3442C28.5302 95.4662 27.7325 94.758 26.8222 94.0597C26.7063 93.9704 26.5904 93.8811 26.4709 93.7891C25.9924 93.4222 25.5129 93.0589 25.0232 92.7067C23.6469 91.6341 22.8089 90.136 21.8937 88.6822C21.7958 88.5289 21.6979 88.3756 21.5971 88.2177C21.4288 87.9524 21.2635 87.6852 21.1037 87.4149C20.4588 86.3979 19.5804 85.9528 18.532 85.3936C16.9632 84.5052 15.9094 83.6548 14.8896 82.157C14.6063 81.7684 14.3194 81.3828 14.0307 80.9981C13.8368 80.7392 13.6449 80.4787 13.4556 80.2165C12.5942 79.0467 11.6032 78.2184 10.39 77.4165C6.40545 74.7253 3.68667 71.4798 1.71738 67.1497C1.47766 66.6328 1.22246 66.1307 0.952373 65.629C0.878207 65.4905 0.804042 65.352 0.727628 65.2093C0.595353 64.9636 0.462066 64.7184 0.327477 64.4739C-0.0388721 63.7668 -0.0877506 63.4008 0.130451 62.6438C0.359075 62.212 0.359075 62.212 0.648587 61.7679C0.755788 61.6021 0.862989 61.4363 0.973438 61.2654C1.08942 61.0895 1.2054 60.9136 1.3249 60.7323C1.44454 60.5487 1.56418 60.365 1.68745 60.1758C2.04964 59.6213 2.41415 59.0684 2.77952 58.516C2.88011 58.3634 2.98069 58.2108 3.08433 58.0536C3.54254 57.36 4.00543 56.67 4.47585 55.9845C4.88167 55.393 5.27063 54.7934 5.65403 54.1874C7.09543 51.9623 8.6465 50.5031 10.8652 49.048C12.1849 48.1605 13.3492 47.1542 14.4638 46.027C14.5836 45.9082 14.7034 45.7893 14.8267 45.6668C15.3589 45.1342 15.8739 44.5984 16.3531 44.0181C16.7015 43.6017 17.0273 43.2632 17.444 42.9194C18.1547 42.3188 18.8416 41.6968 19.5254 41.0666C20.1806 40.464 20.8361 39.8637 21.5123 39.2842C23.472 37.5912 25.3261 35.8033 27.1652 33.9837C27.2685 33.8818 27.3717 33.7799 27.4781 33.6749C28.5148 32.6507 29.538 31.6247 30.4866 30.5184C30.7937 30.1734 31.1178 29.8567 31.4522 29.5378C32.1801 28.8269 32.7545 28.0341 33.3385 27.2057C33.5549 26.9056 33.7715 26.6056 33.9882 26.3056C34.3103 25.8567 34.6284 25.4063 34.9417 24.9512C35.8779 23.6464 37.1471 22.9322 38.5009 22.0954C40.0587 21.1172 41.0881 20.2539 41.9775 18.621C42.8478 17.0431 43.7007 16.0014 45.2002 14.9747C45.3598 14.8613 45.5194 14.7479 45.6838 14.6311C46.3483 14.16 47.0182 13.6975 47.6948 13.2435C48.7948 12.4916 49.5891 11.6976 50.4096 10.6519C51.0981 9.78454 51.8508 8.98095 52.6168 8.18135C52.9458 7.83205 53.2644 7.47465 53.5842 7.11705C55.6848 4.83784 58.0888 3.35058 60.7778 1.84947C61.2433 1.58963 61.7013 1.32013 62.1572 1.04417C62.3352 0.938273 62.3352 0.938273 62.5167 0.830233C62.8477 0.633037 63.1772 0.433528 63.5067 0.233885C64.1514 -0.0525546 64.3801 -0.0758805 65.0327 0.163846ZM62.5374 6.55491C62.3467 6.67324 62.3467 6.67324 62.1521 6.79397C61.8995 6.95133 61.6475 7.10969 61.3962 7.26914C61.1253 7.43964 60.8504 7.60374 60.5743 7.76569C59.4308 8.45763 58.5497 9.37215 57.6236 10.3192C57.208 10.7422 56.7778 11.1289 56.3168 11.5036C55.1103 12.5205 54.1321 13.8106 53.1496 15.0363C52.0289 16.393 50.5517 17.493 49.0378 18.393C46.9837 19.6508 45.7939 21.4537 44.7863 23.6173C44.7863 23.7411 44.7863 23.8649 44.7863 23.9925C44.6284 24.066 44.6284 24.066 44.4673 24.141C43.9779 24.3944 43.5343 24.6853 43.0781 24.9937C42.8064 25.1773 42.8064 25.1773 42.5293 25.3646C42.3414 25.4923 42.1534 25.62 41.9598 25.7515C41.7726 25.8778 41.5854 26.004 41.3925 26.1341C39.7198 27.2024 39.7198 27.2024 38.3912 28.6378C38.3006 28.7697 38.2099 28.9016 38.1165 29.0375C38.0228 29.176 37.929 29.3145 37.8324 29.4572C36.9509 30.7272 36.0187 31.8795 34.9468 32.9986C34.6703 33.3069 34.3944 33.6158 34.119 33.9251C33.4936 34.6156 32.8452 35.2782 32.1795 35.9303C31.6014 36.4972 31.0389 37.0636 30.512 37.6776C29.2764 39.1089 27.8992 40.4392 26.4541 41.661C25.9406 42.1017 25.4413 42.5571 24.9419 43.0133C23.7744 44.0782 22.5991 45.1341 21.4125 46.178C20.0783 47.3562 18.781 48.5584 17.6214 49.9086C16.3358 51.3881 14.7403 52.4917 13.1493 53.6237C11.7989 54.595 10.7998 55.6129 9.8516 56.9681C9.70505 57.1757 9.70505 57.1757 9.55553 57.3876C8.60428 58.7448 7.68453 60.124 6.80201 61.5262C6.63578 61.7825 6.46124 62.0336 6.28073 62.2802C5.72414 63.0349 5.72414 63.0349 5.69173 63.9337C5.79222 64.1272 5.89272 64.3207 5.99626 64.5201C6.05589 64.6545 6.11553 64.789 6.17697 64.9276C8.04323 69.0855 11.2195 72.077 14.9864 74.5728C16.1765 75.3709 16.9411 76.4003 17.7515 77.5602C19.2114 79.6294 20.3747 80.9731 22.7636 81.9929C24.484 82.82 25.2395 84.4811 26.1795 86.0529C27.2946 87.9065 28.6243 89.197 30.2941 90.5446C31.6984 91.6811 33.028 92.899 34.2018 94.2707C34.8839 95.0563 35.6164 95.7886 36.3542 96.5223C36.4716 96.6396 36.5891 96.7569 36.7101 96.8778C37.2943 97.4552 37.8871 98.0118 38.5132 98.5444C39.6291 99.5002 40.6448 100.558 41.6789 101.598C42.6199 102.54 43.5815 103.435 44.597 104.297C44.9012 104.57 45.2049 104.843 45.5077 105.118C46.1547 105.698 46.8146 106.253 47.4945 106.795C48.7251 107.783 49.8843 108.844 51.0305 109.926C51.1878 110.073 51.3451 110.221 51.5072 110.373C52.0854 110.978 52.5787 111.624 53.0764 112.295C53.1678 112.416 53.2591 112.538 53.3532 112.663C53.4465 112.788 53.5398 112.912 53.636 113.041C53.734 113.171 53.832 113.301 53.933 113.435C54.1575 113.743 54.3733 114.057 54.5829 114.376C55.5038 115.737 56.4634 116.505 57.8897 117.314C58.2942 117.55 58.6982 117.787 59.1019 118.024C59.4037 118.201 59.4037 118.201 59.7117 118.381C60.2832 118.733 60.8211 119.108 61.3607 119.506C62.8984 120.743 62.8984 120.743 64.7393 121.137C65.3576 120.842 65.8273 120.489 66.3573 120.058C66.7575 119.828 67.1597 119.601 67.5636 119.378C68.8755 118.563 70.0187 117.592 71.1679 116.567C71.4267 116.34 71.6931 116.121 71.9607 115.904C73.1512 114.921 74.0322 113.776 74.9598 112.557C76.4412 110.636 78.1821 108.95 80.0395 107.386C80.9885 106.571 81.827 105.657 82.6361 104.708C83.6946 103.541 84.7831 102.626 86.1071 101.764C88.6854 100.086 88.6854 100.086 90.7193 97.8239C91.7643 96.3857 92.8942 95.0484 94.0829 93.7256C94.3379 93.4413 94.5902 93.1548 94.8422 92.8679C94.9842 92.7078 95.1261 92.5477 95.2724 92.3827C95.3907 92.2492 95.509 92.1157 95.6309 91.9782C96.5438 91.0529 97.5304 90.2447 98.5959 89.4997C100.372 88.2398 101.906 86.7579 103.444 85.2294C103.554 85.1213 103.663 85.0131 103.776 84.9017C105.005 83.6821 106.163 82.4434 107.248 81.0943C107.692 80.5521 108.164 80.0733 108.671 79.5889C109.271 79.0072 109.852 78.4253 110.398 77.7947C111.762 76.2217 113.32 74.9463 114.962 73.6654C116.107 72.7617 117.094 71.8396 118.014 70.7118C118.103 70.6045 118.193 70.4972 118.285 70.3866C119.549 68.8574 120.695 67.2703 121.704 65.5637C121.798 65.413 121.893 65.2622 121.99 65.1069C122.344 64.4812 122.584 64.0239 122.502 63.2976C122.36 62.8127 122.185 62.3586 121.988 61.8933C121.89 61.6152 121.793 61.337 121.696 61.0585C121.096 59.4833 120.592 58.3506 119.15 57.3902C118.653 57.035 118.162 56.6734 117.671 56.3114C117.539 56.2148 117.408 56.1183 117.272 56.0189C115.68 54.8374 114.332 53.4488 113.043 51.9498C112.675 51.5264 112.293 51.1172 111.912 50.706C111.219 49.9486 110.587 49.1595 109.961 48.3489C108.931 47.0321 107.864 46.0638 106.484 45.1049C104.153 43.4842 102.192 41.5368 100.199 39.5305C99.2949 38.6239 98.3645 37.7691 97.3893 36.9388C95.9087 35.6371 94.5263 34.293 93.2264 32.811C93.1052 32.6836 92.984 32.5561 92.8591 32.4248C91.8158 31.3192 90.9752 30.0993 90.1258 28.8459C89.961 28.604 89.7961 28.3622 89.6313 28.1203C89.5524 28.0028 89.4735 27.8853 89.3922 27.7642C88.9028 27.0549 88.4092 26.5266 87.7154 25.9978C86.2243 24.8261 84.7937 23.6099 83.5644 22.1654C81.9434 20.289 80.2207 18.4805 78.335 16.8649C77.8053 16.4056 77.2832 15.9385 76.7644 15.4672C76.6079 15.3254 76.6079 15.3254 76.4484 15.1808C75.856 14.6377 75.2845 14.0816 74.728 13.5023C73.1112 11.8249 71.4717 10.5293 69.4946 9.2963C68.3364 8.55157 67.219 7.74421 66.0952 6.94958C65.9187 6.82635 65.7423 6.70312 65.5605 6.57616C65.3255 6.41048 65.3255 6.41048 65.0857 6.24145C64.0265 5.60021 63.5261 5.92647 62.5374 6.55491Z" fill="#AFA6B9"/>
<path d="M44.5968 59.2671C46.454 59.435 48.2874 59.7024 50.1264 60.0071C50.5091 60.069 50.8922 60.1276 51.2758 60.1832C54.436 60.6431 54.436 60.6431 55.2735 61.3347C55.5743 61.8222 55.7569 62.2938 55.9499 62.832C56.1801 63.2623 56.4146 63.6872 56.6551 64.1117C56.7779 64.3378 56.9001 64.5643 57.0217 64.7911C57.27 65.2536 57.5188 65.7159 57.7682 66.1778C58.3767 67.3064 58.976 68.4379 59.5451 69.5866C59.3961 69.723 59.247 69.8594 59.0935 70C58.9951 70.0901 58.8966 70.1802 58.7952 70.273C58.5756 70.474 58.356 70.6749 58.1364 70.8758C57.5568 71.4058 56.978 71.9366 56.4008 72.4692C56.2915 72.5698 56.1821 72.6705 56.0694 72.7743C55.86 72.9671 55.6509 73.1602 55.442 73.3536C55.1723 73.6017 54.899 73.8458 54.6254 74.0897C54.4384 74.2663 54.4384 74.2663 54.2477 74.4466C53.6927 74.7481 53.341 74.6011 52.7332 74.4649C52.2499 74.2608 52.2499 74.2608 51.7701 74.0068C51.5919 73.9139 51.4137 73.8209 51.2302 73.7251C50.8449 73.5185 50.46 73.311 50.0756 73.1027C48.8553 72.4368 48.8553 72.4368 47.5644 71.9283C45.5448 71.1914 44.8451 69.6965 43.9345 67.8862C43.8384 67.6964 43.8384 67.6964 43.7404 67.5027C42.9719 65.9568 42.5282 64.9268 43.0716 63.2077C43.142 63.0259 43.2123 62.8441 43.2848 62.6568C43.361 62.4579 43.4372 62.259 43.5158 62.054C43.5954 61.8502 43.6751 61.6465 43.7571 61.4365C43.8375 61.2277 43.9178 61.0188 44.0007 60.8037C44.1981 60.291 44.3969 59.7788 44.5968 59.2671Z" fill="#FDFDFE"/>
<path d="M83.5758 59.2673C83.9001 60.0511 84.2175 60.8374 84.5337 61.6244C84.6255 61.8461 84.7174 62.0678 84.812 62.2961C84.898 62.512 84.984 62.7279 85.0725 62.9503C85.1528 63.1478 85.2331 63.3453 85.3158 63.5487C85.8413 65.6097 84.2558 68.0478 83.239 69.8134C82.3369 71.2761 81.1069 71.8223 79.5377 72.3908C78.9738 72.6128 78.4488 72.878 77.9125 73.1591C77.7252 73.2573 77.5378 73.3555 77.3448 73.4566C76.9807 73.6482 76.6165 73.8399 76.2524 74.0317C76.086 74.1155 75.9197 74.1993 75.7483 74.2856C75.6017 74.3611 75.4552 74.4366 75.3042 74.5144C74.7643 74.6872 74.4619 74.6362 73.9256 74.4652C73.4311 74.0415 73.4311 74.0415 72.9204 73.5036C72.2094 72.7694 71.4879 72.069 70.7074 71.4074C70.2611 71.0291 69.8227 70.6426 69.3843 70.2553C69.2399 70.1278 69.0955 70.0004 68.9467 69.869C68.8414 69.7759 68.736 69.6828 68.6274 69.5869C69.5171 67.7746 70.4525 65.9895 71.4184 64.216C71.5234 64.0227 71.6283 63.8293 71.7364 63.6301C71.8373 63.4456 71.9383 63.2612 72.0423 63.0712C72.1317 62.9075 72.2212 62.7439 72.3133 62.5753C72.4083 62.4124 72.5032 62.2496 72.6011 62.0818C72.7119 61.8825 72.8228 61.6833 72.9371 61.4781C73.4652 60.8229 73.7712 60.7607 74.5952 60.6196C74.8403 60.5752 75.0853 60.5309 75.3378 60.4852C75.6003 60.4426 75.8628 60.4002 76.1253 60.3579C76.392 60.3115 76.6587 60.2647 76.9253 60.2175C77.4508 60.1253 77.9766 60.0359 78.5031 59.9492C79.1147 59.8482 79.7251 59.743 80.3354 59.6345C82.5103 59.2545 82.5103 59.2545 83.5758 59.2673Z" fill="#FDFDFE"/>
<path d="M63.8974 72.0254C64.0223 72.0254 64.1472 72.0254 64.2759 72.0254C64.553 72.4239 64.553 72.4239 64.8723 72.9775C64.9881 73.1764 65.1038 73.3753 65.2231 73.5803C65.3437 73.7908 65.4643 74.0014 65.5886 74.2183C65.8268 74.6295 66.065 75.0406 66.3033 75.4518C66.4089 75.6355 66.5145 75.8193 66.6233 76.0086C66.917 76.5308 66.917 76.5308 67.2598 77.012C67.4926 77.4666 67.4926 77.4666 67.4534 77.8833C67.4017 78.0247 67.35 78.166 67.2967 78.3116C67.2396 78.4747 67.1825 78.6377 67.1237 78.8057C67.0581 78.983 66.9925 79.1602 66.9249 79.3429C66.791 79.7393 66.6572 80.1358 66.5236 80.5324C66.378 80.9452 66.2319 81.3578 66.0853 81.7703C66.0129 81.9808 65.9406 82.1914 65.8661 82.4083C65.7943 82.6096 65.7224 82.811 65.6484 83.0185C65.5847 83.2001 65.5209 83.3817 65.4552 83.5688C65.1939 84.0895 64.9706 84.3084 64.4651 84.5964C63.876 84.5818 63.6004 84.475 63.1449 84.1046C62.6809 83.5636 62.4543 83.0058 62.2196 82.3456C62.1735 82.2198 62.1275 82.094 62.0801 81.9644C61.9839 81.6994 61.8889 81.4339 61.7949 81.1682C61.6506 80.7623 61.5007 80.3588 61.3503 79.9552C61.2574 79.6967 61.1647 79.4381 61.0724 79.1794C61.0273 79.0594 60.9822 78.9394 60.9357 78.8157C60.7476 78.2695 60.6608 77.9169 60.8103 77.3527C60.8924 77.2045 60.9745 77.0564 61.0591 76.9037C61.1458 76.7408 61.2325 76.5779 61.3219 76.41C61.4699 76.1515 61.4699 76.1515 61.6209 75.8879C61.7289 75.6987 61.837 75.5096 61.9483 75.3147C62.0608 75.1193 62.1732 74.9239 62.289 74.7225C62.4015 74.5257 62.5139 74.3288 62.6298 74.1259C63.4619 72.6732 63.4619 72.6732 63.8974 72.0254Z" fill="#FCFCFD"/>
</svg>
