<svg width="128" height="128" viewBox="0 0 128 128" fill="none" xmlns="http://www.w3.org/2000/svg">
	<path
		d="M19.5124 94.032L26.3133 96.7785L33.4352 98.6839L38.4891 100.777L57.1537 93.1643L52.2603 90.6594L45.2633 88.4229L38.4356 85.748L31.7772 82.6169L24.7624 80.4073L17.9437 77.6787L13.6474 79.5841L11.2764 86.8751L12.7204 91.2678L19.5124 94.032Z"
		fill="white" />
	<path
		d="M113.531 115.154L106.739 112.389L99.84 109.911L93.0747 107.075L86.3451 104.15L84.7585 104.069L76.9504 106.467L74.6952 106.1L86.4966 102.038L93.1905 99.0059L100.179 96.7603L106.775 93.4772L113.567 90.7217L115.59 86.7318L112.925 79.5571L108.441 77.3832L101.712 80.3534L94.7237 82.6346L88.1277 85.9088L81.202 88.3243L74.3655 90.9812L67.6269 93.8976L60.7903 96.5457L53.7844 98.7553L47.0548 101.69L40.1469 104.132L33.1855 106.458L26.6252 109.831L19.5123 111.745L12.7024 114.473L11 119.018L13.7453 126.166L17.7475 127.606L24.8871 125.701L31.8039 123.241L38.3463 119.823L45.486 117.962L52.0463 114.563L59.0967 112.47L63.6426 110.671L67.6536 111.825L74.2674 115.055L81.0861 117.748L87.994 120.226L94.9732 122.525L101.667 125.567L108.593 128L113.13 126.309L116 119.215L113.531 115.154Z"
		fill="white" />
	<path
		d="M35.3156 68.5537L40.5745 71.9979L45.5304 75.9162L51.6449 79.2889L58.0448 82.1964L63.9543 85.6406L70.2294 82.9032L76.2816 79.3784L81.4692 75.9431L86.3627 72.141L92.0673 66.9076L96.5864 60.6184L99.7774 50.8047L100.071 45.1061L99.0732 39.4701L94.8571 32.9037L89.001 27.7686L83.4569 24.6197L77.8325 21.6942L72.4399 18.7153L68.42 14.1975C68.42 14.1975 66.3521 7.76527 65.3092 5.77915C64.4803 4.21359 61.2001 3.31215e-05 61.2001 3.31215e-05C61.2001 3.31215e-05 61.004 6.28918 60.2464 8.22149C59.4887 10.1807 55.2994 15.0294 55.2994 15.0294L50.9586 23.9934L52.777 33.4493L59.8096 39.0228C59.8096 39.0228 65.844 42.4401 66.8958 44.3993C67.6802 45.8665 67.3237 51.0641 67.3237 51.0641L62.3589 55.4208L55.7897 55.2777C55.7897 55.2777 51.8678 51.8513 51.1013 50.3305C50.0673 48.2551 49.5324 41.1788 49.5324 41.1788L45.6997 35.3727L38.9701 33.1541C38.9701 33.1541 39.1216 39.3179 38.364 41.1788C37.4905 43.3078 32.4454 48.1834 32.4454 48.1834L29.6377 54.6426L31.7146 63.3828L35.3156 68.5537Z"
		fill="white" />
	<path
		d="M40.5031 23.0804L43.293 16.6482L42.3303 15.1274L38.5243 12.2199L37.0803 14.3849L35.2353 17.2566L35.1372 28.0991L37.2497 25.5317L40.5031 23.0804Z"
		fill="white" />
	<path
		d="M77.5919 10.9321L81.0414 9.70642L81.0593 7.0406L81.6386 4.32096L76.9145 1.2704L74.4366 5.07247L74.2939 6.62003L75.5151 7.69355L77.5919 10.9321Z"
		fill="white" />
</svg>