<svg width="128" height="128" viewBox="0 0 128 128" fill="none" xmlns="http://www.w3.org/2000/svg">
<path d="M61.9157 10.8187C59.666 13.9076 57.0982 17.7629 53.8001 23.0582L51.8919 26.1122L52.0332 26.9251C52.4455 29.2012 52.4337 30.2114 51.9861 30.6992C51.6799 31.0243 50.5491 31.5701 49.3594 31.9649C48.7587 32.1623 48.1933 32.3249 48.1109 32.3249C48.0166 32.3249 46.8858 33.6139 45.5784 35.1932C43.3522 37.8989 43.093 38.2472 41.3615 41.1503C40.3485 42.8457 38.5935 45.6095 37.4745 47.2933L35.425 50.359L36.4026 50.2893C36.9444 50.2429 38.3579 50.1848 39.5594 50.1383L41.7385 50.0687L47.8635 51.7409L49.1945 53.0298C49.9248 53.7498 50.9967 54.8298 51.5739 55.4452L52.6222 56.5484L53.1522 59.5676C53.4467 61.2282 53.6941 62.7146 53.6941 62.8656C53.7058 63.0281 53.4467 64.5842 53.1404 66.3261L52.5751 69.4846L50.0426 71.9813L47.5101 74.4664L44.5418 76.0921C41.7149 77.6482 41.4322 77.7643 38.5346 78.7862C36.862 79.3668 35.4839 79.8545 35.4721 79.8661C35.4603 79.8661 35.3896 82.1422 35.3072 84.9059C35.2247 87.6581 35.1305 89.9225 35.0952 89.9225C35.0598 89.9225 33.5403 89.04 31.7382 87.9484L28.4518 85.9859L25.7309 83.2221C23.434 80.888 22.6448 79.9939 20.7013 77.4972L18.3927 74.536L16.9321 71.1336C15.9544 68.8576 15.4244 67.7544 15.3301 67.8008C15.1299 67.8705 15.1299 67.8473 15.3537 63.0978C15.5186 59.7186 15.6128 58.6619 16.1311 55.0156C16.4491 52.7047 16.7083 50.6841 16.7083 50.5332C16.7083 50.359 15.8602 49.1513 14.27 47.0611C9.75871 41.1619 8.19211 38.9788 6.30749 35.9596C5.00003 33.8461 3.79858 32.1159 2.24376 30.0953C1.03053 28.516 0.0293252 27.2503 0.00576741 27.2619C-0.0884639 27.3548 0.995196 34.868 1.56058 38.073C2.10241 41.1039 2.24376 42.2071 2.45578 45.0405C2.69136 48.2107 2.76203 48.652 3.51588 52.4724C3.96348 54.702 4.58776 58.0464 4.91757 59.9044L5.49474 63.272L5.56541 66.8718L5.62431 70.4717L6.34282 73.9554C6.73153 75.8831 7.28514 79.1229 7.57961 81.2132C7.87408 83.2918 8.39235 86.4736 8.74572 88.2968L9.38178 91.6063L10.9248 94.7416L12.4561 97.877L14.7294 100.618L17.0027 103.37L19.8768 105.611L22.7508 107.84L35.5074 114.065L39.5122 115.052C41.7031 115.586 44.9894 116.352 46.8034 116.736C49.9719 117.397 50.396 117.467 57.3809 118.21L64.6602 119L66.2739 118.176L67.8876 117.363L69.6309 117.792L71.386 118.234L75.2259 117.734C81.8457 116.863 85.2262 116.271 89.0661 115.284L92.5056 114.413L95.8979 112.892L99.2902 111.382L102.329 109.338C103.99 108.2 106.723 106.47 108.395 105.483L111.446 103.683L113.178 101.709C116.57 97.8538 116.111 98.5621 117.63 94.881L118.973 91.6063L119.621 88.3548C119.962 86.5665 120.516 83.3266 120.846 81.1551C121.164 78.9836 121.682 75.5812 122.012 73.607C122.53 70.402 122.612 69.6124 122.777 66.4654C122.895 64.2358 123.119 61.6346 123.378 59.4399C123.779 56.2 123.861 55.7007 124.721 52.2983L125.64 48.6403L126.04 41.5568L127.642 34.2409L127.842 31.0708C127.948 29.3173 128.019 27.8773 127.995 27.8541C127.937 27.8077 119.88 38.642 117.606 41.8239C116.546 43.3102 114.626 45.8069 113.331 47.3746C111.623 49.4532 111.01 50.2893 111.034 50.4751C111.057 50.6145 111.387 52.5537 111.776 54.7949L112.494 58.8593L112.706 63.3881C112.895 67.4525 112.942 67.975 113.166 68.4511C113.696 69.6124 113.931 71.1336 113.602 71.2613C113.519 71.2962 113.236 71.273 112.989 71.2149C112.176 71.0291 112.153 71.0523 111.635 72.0626C110.61 74.0715 110.033 74.9192 107.747 77.7991C105.462 80.6558 105.286 80.8532 102.541 83.3615L99.6907 85.9743L96.4515 87.9484C94.6729 89.0283 93.177 89.9225 93.1299 89.9225C93.0827 89.9225 93.071 89.5393 93.0945 89.0864C93.1887 87.8439 93.5068 80.9809 93.5068 80.261V79.6455L90.1969 78.5539L86.887 77.4508L83.9423 75.767L80.9976 74.0715L76.074 69.3105L75.3084 66.1519L74.5545 62.9933L73.9184 62.1456C72.7641 60.6244 72.5168 59.8579 73.035 59.3818C73.1764 59.2541 73.6711 59.0335 74.1187 58.8941C74.5781 58.7548 75.0021 58.6038 75.061 58.5457C75.1199 58.4993 75.2377 57.9883 75.3201 57.4077L75.4615 56.351L77.8408 53.924C79.1483 52.577 80.2673 51.4854 80.3144 51.4854C80.3497 51.4854 81.7985 51.1951 83.5065 50.8351L86.6161 50.1848L92.7058 50.3474L92.3171 49.79C92.1051 49.4764 91.1746 48.1526 90.2676 46.8404C89.3488 45.5282 87.7233 43.0432 86.6515 41.3245C85.3558 39.2227 83.9894 37.2369 82.5406 35.2861C80.9387 33.161 79.8432 31.5352 78.418 29.1895C76.9692 26.809 75.9209 25.2645 74.2954 23.093C72.2458 20.3757 70.3023 17.4842 66.1208 10.958C65.1667 9.46004 64.3186 8.13622 64.248 8.03171C64.1302 7.86914 63.7886 8.26396 61.9157 10.8187ZM69.0538 85.0104L73.4826 93.1624L69.0655 100.676C66.6391 104.81 64.6131 108.235 64.5542 108.293C64.46 108.386 55.5787 93.4295 55.5787 93.1624C55.5787 93.0927 55.932 92.3843 56.3561 91.5831L57.1335 90.1431L57.5811 90.2128C58.0051 90.2825 58.0287 90.2709 58.1111 89.9225C58.1583 89.7251 58.1583 89.3187 58.1111 89.0167C58.0523 88.5522 58.0758 88.4129 58.3114 88.1226C58.6765 87.6465 59.0417 87.3678 59.8073 86.9613C60.679 86.4968 60.785 86.2762 60.7261 84.9872C60.7025 84.4066 60.7261 83.7911 60.7732 83.6053C60.9263 83.0596 64.4482 76.6727 64.5424 76.7656C64.5895 76.8237 66.6155 80.5281 69.0538 85.0104Z" fill="#5C5C92"/>
<path d="M24.4355 18.75C24.0704 20.0041 20.0066 34.9261 20.0066 35.0074C20.0066 35.1351 26.9798 42.3697 27.0975 42.3697C27.1564 42.3697 28.7584 39.8381 30.6665 36.7492L34.1295 31.1288L33.5877 30.3624C31.9033 28.0399 24.8007 18.3203 24.7182 18.2274C24.6593 18.1694 24.5415 18.4016 24.4355 18.75ZM97.9241 24.742C95.0736 28.098 92.7061 30.9082 92.659 30.9779C92.5765 31.1288 100.928 42.2535 101.128 42.2535C101.199 42.2535 102.647 40.9529 104.355 39.3504C106.063 37.7595 107.724 36.2035 108.054 35.9131L108.631 35.3674L105.934 26.9948C104.438 22.3847 103.201 18.6223 103.166 18.6223C103.13 18.6223 100.775 21.3744 97.9241 24.742Z" fill="#5C5C92"/>
</svg>
