<svg width="128" height="128" viewBox="0 0 128 128" fill="none" xmlns="http://www.w3.org/2000/svg">
<path d="M64.0779 0.0113908C64.4569 0.175212 64.7442 0.381974 65.0699 0.636715C65.2678 0.789964 65.2678 0.789964 65.4697 0.946309C65.6107 1.05703 65.7518 1.16775 65.8972 1.28183C66.1978 1.51477 66.4987 1.74751 66.7996 1.98004C67.0269 2.15586 67.0269 2.15586 67.2587 2.33524C67.8988 2.82637 68.5481 3.30427 69.1991 3.78081C70.2597 4.55911 71.3092 5.35073 72.3531 6.15139C73.4211 6.97004 74.4936 7.78181 75.5761 8.58123C75.7435 8.70499 75.7435 8.70499 75.9143 8.83125C76.1457 9.00153 76.3779 9.17065 76.6108 9.33878C76.8936 9.5463 77.1723 9.75953 77.4481 9.97633C79.1901 11.3203 81.1514 12.2165 83.1261 13.1643C83.4974 13.3445 83.8687 13.5248 84.2399 13.7053C84.9894 14.0695 85.7395 14.4327 86.49 14.795C87.9225 15.4867 89.3513 16.1861 90.78 16.8857C91.1758 17.0794 91.5719 17.2727 91.968 17.4659C92.0908 17.5258 92.2136 17.5857 92.3401 17.6474C92.5769 17.7629 92.8139 17.8783 93.0509 17.9934C93.5853 18.2537 94.1165 18.518 94.6423 18.7953C95.7423 19.3731 96.7657 19.785 97.9894 20.0094C98.1444 20.0406 98.2994 20.0717 98.459 20.1039C98.9294 20.1977 99.4005 20.2869 99.872 20.3748C100.145 20.4266 100.419 20.4785 100.692 20.5304C101.093 20.6063 101.493 20.6819 101.894 20.7565C103.19 21.0005 104.474 21.2914 105.76 21.5829C107.138 21.893 108.52 22.1757 109.906 22.4491C111.564 22.7764 113.213 23.1259 114.854 23.5356C114.862 24.4663 114.863 25.3965 114.854 26.3272C114.849 27.0896 114.868 27.8451 114.907 28.6064C115.001 31.423 114.278 32.9919 112.501 35.1448C112.016 35.7387 111.575 36.3594 111.138 36.9886C111.027 37.1387 111.027 37.1387 110.913 37.2919C110.526 37.8253 110.526 37.8253 110.473 38.462C110.601 38.8843 110.753 39.1478 111.016 39.4993C111.104 39.6177 111.192 39.7361 111.283 39.8581C111.378 39.9836 111.473 40.109 111.571 40.2383C111.669 40.3693 111.767 40.5004 111.868 40.6354C112.736 41.7917 113.622 42.9344 114.514 44.0726C114.595 44.181 114.677 44.2895 114.761 44.4012C115.003 44.717 115.003 44.717 115.291 44.9755C115.772 45.4682 115.946 45.8255 116 46.5198C115.982 47.2914 115.888 48.0556 115.8 48.8217C115.762 49.1824 115.725 49.5432 115.687 49.9039C115.567 51.0434 115.437 52.1816 115.305 53.3197C115.243 53.8514 115.183 54.3831 115.122 54.9149C115.026 55.7549 114.93 56.5947 114.832 57.4346C114.749 58.1595 114.666 58.8846 114.586 59.6099C114.27 62.4531 113.904 65.2897 113.517 68.124C113.416 68.8699 113.316 69.616 113.22 70.3626C112.811 73.5384 112.399 76.5162 111.112 79.4729C110.754 80.3323 110.452 81.2126 110.143 82.0907C109.953 82.6294 109.76 83.1668 109.566 83.7044C109.331 84.361 109.095 85.0178 108.863 85.6755C108.029 88.031 107.21 90.32 105.865 92.4403C105.677 92.7567 105.49 93.0733 105.303 93.3904C105.122 93.6896 104.942 93.9886 104.761 94.2874C104.1 95.3831 103.444 96.4808 102.801 97.5864C102.742 97.687 102.683 97.7875 102.623 97.8911C102.34 98.3773 102.058 98.8638 101.776 99.3509C100.749 101.118 99.717 102.888 98.3936 104.451C98.2168 104.665 98.0402 104.878 97.8638 105.092C97.7773 105.196 97.6908 105.301 97.6017 105.408C97.2138 105.88 96.8372 106.36 96.4617 106.842C96.3913 106.932 96.3209 107.022 96.2483 107.115C96.1072 107.296 95.9661 107.476 95.8251 107.657C94.7784 109 93.7283 110.34 92.661 111.667C92.3145 112.098 91.9732 112.53 91.6426 112.973C90.5362 114.445 89.0496 115.282 87.4727 116.186C87.1397 116.378 86.8069 116.571 86.4742 116.764C86.2964 116.867 86.1186 116.97 85.9354 117.076C84.9927 117.625 84.057 118.186 83.1204 118.745C82.7897 118.942 82.4586 119.139 82.1274 119.335C80.8327 120.102 80.8327 120.102 79.5513 120.891C77.2619 122.311 74.7634 123.336 72.3054 124.422C71.2769 124.877 70.252 125.34 69.2286 125.806C68.9384 125.938 68.6482 126.07 68.358 126.202C67.9384 126.393 67.5189 126.584 67.0997 126.776C66.7134 126.952 66.3266 127.128 65.9397 127.303C65.7689 127.382 65.7689 127.382 65.5946 127.462C64.1592 128.109 64.1592 128.109 63.2643 127.794C63.001 127.689 62.7387 127.583 62.477 127.474C62.3327 127.416 62.1884 127.358 62.0397 127.299C61.5604 127.106 61.0824 126.911 60.6043 126.715C60.0965 126.509 59.5885 126.303 59.0804 126.098C58.7243 125.954 58.3683 125.809 58.0124 125.665C56.6984 125.133 55.3772 124.622 54.0523 124.118C53.4886 123.902 52.9251 123.685 52.3616 123.468C51.9989 123.329 51.6355 123.192 51.2716 123.056C49.2098 122.285 47.5837 121.596 46.0958 119.939C45.8948 119.755 45.6917 119.573 45.4847 119.396C45.3867 119.31 45.2887 119.225 45.1878 119.137C44.9034 118.892 44.6183 118.648 44.3327 118.405C43.3432 117.56 42.3683 116.706 41.4159 115.819C40.9208 115.361 40.4119 114.929 39.8863 114.506C39.0917 113.866 38.3512 113.18 37.6108 112.479C37.0618 111.962 36.5007 111.482 35.9043 111.02C34.9338 110.241 34.1795 109.31 33.3905 108.355C33.054 107.955 32.7005 107.571 32.3462 107.187C31.8431 106.638 31.3632 106.079 30.8973 105.498C30.2874 104.74 29.6396 104.029 28.976 103.319C28.4844 102.79 28.0176 102.25 27.5658 101.686C26.9615 100.931 26.3214 100.22 25.6614 99.515C25.5132 99.3565 25.3663 99.1967 25.221 99.0354C24.9679 98.758 24.9679 98.758 24.6845 98.514C23.6862 97.5543 23.6714 96.5933 23.6252 95.2585C23.6138 95.0424 23.602 94.8265 23.5897 94.6105C23.5587 94.0454 23.5336 93.4801 23.51 92.9146C23.4711 92.0081 23.4226 91.102 23.3751 90.1959C23.3593 89.8807 23.3459 89.5654 23.3326 89.2502C23.3236 89.0581 23.3146 88.8661 23.3052 88.6683C23.2981 88.4998 23.2909 88.3313 23.2835 88.1577C23.1928 87.3943 22.953 86.8875 22.4097 86.3521C22.3104 86.2533 22.2112 86.1545 22.1089 86.0528C22.0036 85.9507 21.8984 85.8486 21.79 85.7434C21.629 85.5847 21.629 85.5847 21.4647 85.4227C20.9379 84.9063 20.4062 84.399 19.8483 83.9161C19.7546 83.834 19.6609 83.7519 19.5643 83.6673C19.3696 83.5025 19.1689 83.3445 18.9643 83.192C17.7299 82.1638 17.4764 80.6562 17.0787 79.1651C17.014 78.9298 16.9492 78.6946 16.884 78.4595C16.7884 78.1137 16.6931 77.7678 16.5992 77.4215C16.3446 76.4893 16.0555 75.5704 15.7579 74.6511C15.2819 73.1791 14.8551 71.6963 14.4465 70.2041C14.3818 69.9681 14.3818 69.9681 14.3158 69.7272C14.2783 69.5888 14.2407 69.4504 14.202 69.3078C14.0857 68.8851 14.0857 68.8851 13.9202 68.4532C13.7635 67.9328 13.7245 67.5164 13.7192 66.9745C13.7165 66.7849 13.7139 66.5953 13.7112 66.4C13.7099 66.1958 13.7086 65.9916 13.7072 65.7812C13.7047 65.5653 13.7021 65.3494 13.6994 65.1334C13.6938 64.6754 13.6891 64.2174 13.6851 63.7594C13.6785 63.0391 13.669 62.3188 13.6589 61.5986C13.6082 57.9081 13.6082 57.9081 13.6047 56.2026C13.5931 51.8702 13.0686 47.5879 12.5476 43.2927C12.4781 42.7127 12.4124 42.1325 12.3476 41.552C12.3338 41.4335 12.3201 41.3151 12.3058 41.1931C12.0392 38.8722 11.9903 36.5791 12.0014 34.2446C12.002 33.8737 12.0025 33.5029 12.0028 33.132C12.004 32.1679 12.0071 31.2038 12.0106 30.2397C12.0138 29.2511 12.0153 28.2625 12.0168 27.2739C12.0202 25.343 12.0256 23.412 12.0322 21.4811C12.534 21.4052 13.0359 21.3295 13.5377 21.2538C13.6786 21.2325 13.8194 21.2112 13.9645 21.1893C15.1127 21.0163 16.262 20.8584 17.4138 20.7107C17.6166 20.6835 17.8194 20.6564 18.0283 20.6285C19.098 20.4871 20.1663 20.3629 21.2414 20.2711C24.9328 19.9555 28.1487 19.251 31.5864 17.8677C32.6714 17.4334 33.7688 17.0433 34.8725 16.6597C38.4559 15.4039 41.6762 14.1728 44.7094 11.852C45.4366 11.3112 46.2043 10.8378 46.973 10.3592C48.0085 9.7056 49.0334 9.03953 50.0482 8.35405C52.6041 6.63428 55.2519 5.06251 57.9027 3.49541C58.9382 2.88295 59.9703 2.26645 60.9936 1.63371C61.1766 1.5212 61.3596 1.40871 61.5427 1.29626C61.882 1.08721 62.2203 0.876613 62.5576 0.664263C62.7074 0.572258 62.8573 0.480252 63.0117 0.385459C63.1415 0.304428 63.2712 0.223398 63.4049 0.139913C63.7583 -0.0121066 63.7583 -0.0121066 64.0779 0.0113908Z" fill="#954431"/>
</svg>
