<svg width="128" height="128" viewBox="0 0 128 128" fill="none" xmlns="http://www.w3.org/2000/svg">
<path d="M97.2232 3.93666L94.583 7.87332L91.1589 10.1885C87.933 12.3775 79.3997 17.9177 78.814 18.2149C78.6698 18.287 76.6784 19.1338 74.3986 20.1067L70.2536 21.8633L65.4779 22.8542L60.7021 23.8362L56.3318 25.9982L51.9616 28.1512L47.9968 30.8447C44.4105 33.2859 43.6896 33.8174 40.4277 36.4569C37.2558 39.0153 36.3908 39.781 33.246 42.7537L29.6687 46.1409L24.2802 54.0863L22.7753 58.2842L21.2795 62.4821L20 71.2923L20.3244 75.7514L20.6578 80.2106L23.7215 88.5433L25.6498 97.3265L28.281 101.38C29.7227 103.605 32.1196 107.227 33.6064 109.416L36.3097 113.406L38.3552 117.839L40.3916 122.28L42.5272 123.901C43.6986 124.793 45.3926 126.081 46.2847 126.766L47.9157 128L48.6546 127.667L49.3935 127.324L44.4375 118.965L41.8063 109.488L38.3822 100.57L36.3457 91.0206L35.3185 81.2916L36.7602 71.7427L34.6877 68.0943L32.6062 64.4459L31.4889 60.3021C30.8851 58.0229 30.3895 56.1132 30.3985 56.0591C30.4166 56.0051 31.8042 56.987 33.4893 58.2391L36.553 60.5183L38.7877 63.0676C40.0222 64.4729 41.0584 65.626 41.0945 65.644C41.1305 65.653 42.0496 63.7973 43.1399 61.5092C44.6628 58.2932 45.1764 57.3023 45.3836 57.1311C45.5368 57.023 46.492 56.3474 47.5102 55.6357L49.3664 54.3475L47.9247 51.3387L46.492 48.3209L46.7443 45.6815C46.8884 44.2311 47.0236 42.997 47.0597 42.9429C47.0957 42.8889 48.7717 44.2491 51.0695 46.195C53.2501 48.0327 55.0703 49.519 55.1334 49.501C55.1875 49.474 56.9536 47.9966 59.0531 46.213C62.6755 43.1321 63.063 42.8258 66.9647 40.0693L71.0646 37.1595L74.9844 35.9704C78.7689 34.8264 85.7614 32.6283 85.9236 32.5383C86.257 32.3311 85.2838 33.2859 80.6162 37.7361L75.2997 42.7988L73.4525 44.051C71.6233 45.2851 71.5782 45.3211 68.2713 48.4561C66.2168 50.4109 63.3874 52.9602 60.9004 55.1042L56.8545 58.5905L54.1963 63.0316C52.7365 65.4819 51.5561 67.4907 51.5741 67.5178C51.5921 67.5358 53.2952 68.1574 55.3497 68.9141L59.0802 70.2743L62.7926 70.6887C64.8291 70.9229 66.5231 71.1301 66.5502 71.1572C66.5772 71.1932 64.4416 71.6706 61.8014 72.2201C57.0347 73.2291 56.9626 73.2471 51.9616 74.7515C48.0148 75.9406 46.9065 76.3099 46.8524 76.4361C46.8164 76.5352 46.3838 78.5711 45.8882 80.9763L44.9962 85.3454L44.888 89.6964C44.825 92.0926 44.7979 94.0655 44.816 94.0925C44.843 94.1105 45.0502 94.1015 45.2935 94.0745C45.699 94.0114 45.708 94.0024 45.5098 93.8943C45.3025 93.7772 45.3115 93.7772 45.654 93.7772C45.8522 93.7772 47.2399 93.9123 48.7357 94.0655L51.466 94.3627L57.296 92.525C62.7656 90.8134 63.4414 90.6243 67.9829 89.5342L72.8308 88.3632L76.7235 85.4985C79.3366 83.5797 81.8506 81.6339 84.3196 79.607L88.0051 76.5802L91.249 73.166L94.4929 69.7428L96.9709 65.7972C98.3315 63.6352 99.4579 61.8065 99.4759 61.7434C99.4939 61.6894 98.71 60.3201 97.7458 58.7076C96.7726 57.0951 95.9617 55.7168 95.9346 55.6447C95.8896 55.5366 96.3672 55.4916 99.0794 55.3835C100.837 55.3114 102.296 55.2303 102.332 55.1943C102.359 55.1673 102.774 52.654 103.242 49.6181L104.098 44.087L107 32.9166L106.585 27.1062C106.18 21.494 106.162 21.1156 106.117 16.0439L106.063 10.792L104.937 5.50412C104.315 2.60342 103.801 0.207193 103.783 0.198185C103.765 0.180168 103.269 0.144134 102.684 0.126117C102.089 0.0990923 101.215 0.0630588 100.737 0.0360336L99.8544 0L97.2232 3.93666Z" fill="#4C7F61"/>
</svg>
