<svg width="128" height="128" viewBox="0 0 128 128" fill="none" xmlns="http://www.w3.org/2000/svg">
	<path
		d="M61.9711 0.00387687C62.0772 0.0025975 62.1832 0.00131813 62.2924 0C62.5952 0.0187651 62.8498 0.08016 63.1407 0.158841C63.5986 0.250465 64.0705 0.236907 64.536 0.246357C67.0769 0.325736 69.3663 0.901849 71.2341 2.72755C72.3985 3.96261 73.2258 5.4954 74.0424 6.96814C74.1034 7.07779 74.1034 7.07779 74.1657 7.18965C74.9385 8.5871 75.7393 10.0477 75.9989 11.6382C76.0532 11.9368 76.0936 12.0838 76.3305 12.2823C76.5898 12.386 76.8115 12.4369 77.0885 12.4719C77.192 12.4861 77.2955 12.5003 77.4021 12.5149C77.5776 12.5383 77.5776 12.5383 77.7566 12.5621C81.0572 13.0309 84.074 14.0255 86.544 16.3516C86.62 16.4204 86.696 16.4893 86.7744 16.5602C88.029 17.7415 88.9844 19.2153 89.874 20.6787C89.9727 20.8403 90.0738 21.0002 90.1754 21.1599C91.0174 22.5167 91.3467 23.9094 91.4416 25.4869C91.4556 25.7111 91.4698 25.9352 91.4844 26.1593C91.4904 26.2577 91.4963 26.356 91.5025 26.4573C91.5244 26.7042 91.5669 26.9362 91.6171 27.1786C91.63 27.4205 91.6379 27.6586 91.6397 27.9004C91.6425 27.995 91.6425 27.995 91.6454 28.0914C91.6485 28.5002 91.6082 28.7564 91.3453 29.0733C91.1579 29.217 90.9796 29.3405 90.7791 29.4624C90.6299 29.5568 90.6299 29.5568 90.4776 29.6531C90.3446 29.7314 90.211 29.8087 90.077 29.8854C89.9804 29.9409 89.8838 29.9964 89.7842 30.0536C88.8839 30.558 87.961 30.8933 86.9819 31.2125C85.663 31.6456 84.4988 32.2137 83.3676 33.0263C83.2912 33.0805 83.2148 33.1347 83.136 33.1905C82.196 33.8615 81.293 34.5595 80.4468 35.3454C80.2574 35.5193 80.0658 35.6877 79.8708 35.8551C79.4821 36.1934 79.1122 36.5477 78.7454 36.9092C78.6782 36.9754 78.611 37.0416 78.5417 37.1098C78.4004 37.2493 78.2593 37.3889 78.1183 37.5286C77.9761 37.6692 77.8334 37.8094 77.6904 37.9492C76.5616 39.0524 75.5734 40.1229 74.92 41.5752C74.8826 41.6559 74.8452 41.7366 74.8066 41.8198C74.5255 42.4327 74.2581 43.0508 74.0424 43.6898C73.9963 43.8237 73.9963 43.8237 73.9492 43.9602C73.8245 44.4013 73.8249 44.8438 73.818 45.2994C73.8166 45.3933 73.8151 45.4871 73.8136 45.5837C73.8111 45.782 73.8092 45.9803 73.8077 46.1786C73.8057 46.3789 73.802 46.5792 73.7966 46.7794C73.7611 48.1026 73.8521 49.0668 74.586 50.1861C74.6498 50.2883 74.7134 50.3906 74.7768 50.4931C75.3965 51.4739 76.1305 52.3395 77.0319 53.0733C77.104 53.1425 77.104 53.1425 77.1776 53.213C77.7307 53.6999 78.2808 53.7089 78.9966 53.733C79.214 53.7438 79.4314 53.7547 79.6488 53.7658C79.792 53.7713 79.792 53.7713 79.9382 53.7769C80.1854 53.7939 80.4132 53.8358 80.6556 53.8853C83.291 54.0727 85.2777 53.2392 87.2687 51.5394C87.3603 51.4581 87.4517 51.3766 87.543 51.2949C88.181 50.7288 88.8427 50.2435 89.5561 49.7744C90.298 49.2825 90.8918 48.8206 91.4359 48.1109C91.5166 48.0084 91.5974 47.9061 91.6783 47.8039C91.8062 47.6419 91.9338 47.4798 92.0603 47.3167C92.3937 46.8887 92.7522 46.4897 93.1221 46.0924C93.4049 45.7823 93.6673 45.4579 93.9311 45.1317C94.0909 44.9386 94.2521 44.7499 94.4187 44.5628C96.962 41.7082 96.962 41.7082 98.4387 38.2517C98.5642 37.7643 98.7988 37.3721 99.1284 36.9955C99.8535 36.5732 100.96 36.7183 101.763 36.8327C102.452 37.0195 103.054 37.3787 103.666 37.735C103.841 37.8319 104.017 37.9283 104.193 38.0243C104.716 38.3119 105.233 38.6089 105.749 38.9079C105.897 38.9923 106.044 39.0766 106.191 39.161C106.325 39.2382 106.459 39.3155 106.593 39.3929C106.651 39.4261 106.709 39.4593 106.768 39.4935C107.657 40.0135 108.396 40.6048 109.113 41.344C109.587 41.8285 110.06 42.3015 110.576 42.7419C111.209 43.2939 111.74 43.9719 112.181 44.6823C112.24 44.7766 112.299 44.871 112.359 44.9682C112.926 45.9494 113.142 47.0073 113.39 48.1028C113.558 48.8386 113.783 49.5484 114.021 50.264C114.127 50.5892 114.221 50.9178 114.316 51.2462C114.371 51.4325 114.426 51.6186 114.482 51.8047C114.519 51.931 114.556 52.0575 114.591 52.1842C114.645 52.3721 114.701 52.5592 114.757 52.7462C114.805 52.9092 114.805 52.9092 114.853 53.0754C115.028 53.4203 115.172 53.4865 115.533 53.6146C115.725 53.6523 115.917 53.6838 116.111 53.7105C119.674 54.3348 124.223 57.1047 126.391 60.0496C127.764 62.0622 128.233 64.6631 127.895 67.0466C127.533 68.3813 126.652 69.6206 125.77 70.6672C125.725 70.7207 125.681 70.7743 125.635 70.8294C123.811 73.0074 121.196 75.3045 118.251 75.7198C117.863 75.7462 117.474 75.7596 117.085 75.7745C117.006 75.7778 116.927 75.7812 116.846 75.7847C116.774 75.7874 116.703 75.7901 116.629 75.793C116.422 75.8043 116.422 75.8043 116.167 75.9003C116.172 75.9867 116.176 76.0731 116.18 76.1621C116.212 77.1218 116.069 77.9579 115.805 78.8777C115.783 78.9548 115.761 79.0319 115.739 79.1113C114.922 81.9586 114.017 85.0002 111.91 87.1784C111.807 87.2963 111.705 87.4147 111.604 87.5337C109.818 89.555 107.485 91.1172 104.843 91.7799C104.736 91.8094 104.629 91.8388 104.518 91.8691C103.154 92.236 101.306 92.6868 99.9515 92.1408C99.0252 91.5258 98.7943 90.4483 98.553 89.4341C98.3697 88.6709 98.1829 87.9806 97.6471 87.3836C97.3735 87.0621 97.2406 86.7142 97.0979 86.3213C97.0575 86.2147 97.0575 86.2147 97.0163 86.106C96.8908 85.7722 96.7705 85.437 96.6555 85.0994C96.3671 84.1424 96.3671 84.1424 95.6841 83.4637C95.6144 83.4297 95.5447 83.3958 95.4729 83.3608C94.959 83.1006 94.7695 82.7154 94.516 82.2161C94.1736 81.555 93.9331 81.1096 93.281 80.7203C92.8774 80.4514 92.5541 80.0971 92.2173 79.7518C91.7833 79.3091 91.347 78.8791 90.8743 78.4773C90.7595 78.3781 90.6474 78.276 90.5372 78.1718C90.2529 77.9037 90.069 77.8005 89.6715 77.7742C89.4493 77.7804 89.2271 77.7924 89.0055 77.8112C88.7182 77.795 88.7182 77.795 88.5094 77.6354C88.3422 77.4163 88.2276 77.2031 88.1131 76.9544C87.8576 76.63 87.517 76.5414 87.1204 76.485C86.9982 76.4757 86.8758 76.4669 86.7535 76.4585C85.919 76.3834 85.1607 76.1437 84.3736 75.8671C82.4041 75.2595 79.3477 75.7591 77.5132 76.6672C76.6524 77.184 75.3695 78.0039 75.029 78.9877C75.0098 79.0854 74.9907 79.1831 74.971 79.2837C74.9509 79.3814 74.9308 79.4791 74.9101 79.5798C74.8928 79.6756 74.8755 79.7715 74.8577 79.8702C74.8409 79.9504 74.8241 80.0307 74.8068 80.1134C74.6341 81.4123 74.726 82.7529 75.0389 84.0206C75.0677 84.1441 75.0963 84.2677 75.1249 84.3913C75.2558 84.9444 75.4034 85.4861 75.5938 86.0224C75.7608 86.4963 75.8362 86.9588 75.8914 87.4572C75.977 87.8781 76.1762 88.1552 76.494 88.436C76.8024 88.7328 77.0477 89.0624 77.2924 89.4115C77.9774 90.3868 78.7477 91.2772 79.5685 92.1408C79.6128 92.1881 79.6572 92.2353 79.7028 92.284C80.9342 93.5886 82.3578 94.5967 83.9168 95.4792C83.9843 95.5174 84.0517 95.5556 84.1212 95.595C86.0614 96.6814 88.1519 97.4154 90.2371 98.17C92.0062 98.8111 92.0062 98.8111 92.6136 99.3589C92.6958 99.4277 92.778 99.4966 92.8627 99.5675C93.381 100.184 93.4949 100.829 93.5195 101.614C93.5245 101.701 93.5245 101.701 93.5295 101.79C93.5922 102.914 93.4151 103.885 93.0666 104.953C93.0467 105.015 93.0268 105.077 93.0064 105.141C92.3769 107.065 91.298 108.882 89.899 110.35C89.7036 110.553 89.7036 110.553 89.5013 110.814C89.264 111.1 88.9886 111.317 88.6842 111.528C88.6287 111.567 88.5731 111.606 88.5159 111.646C87.7591 112.163 86.9484 112.565 86.1204 112.955C86.0296 112.998 85.9388 113.041 85.8452 113.085C85.6673 113.169 85.4891 113.251 85.3104 113.333C84.8649 113.54 84.4747 113.757 84.0775 114.047C83.518 114.41 82.9783 114.418 82.331 114.407C82.0007 114.402 81.6706 114.407 81.3403 114.411C81.2743 114.412 81.2083 114.413 81.1403 114.413C80.2661 114.425 79.4063 114.543 78.5418 114.665C78.3108 114.696 78.0802 114.72 77.8483 114.742C77.7464 114.752 77.7464 114.752 77.6424 114.763C77.4666 114.78 77.2906 114.796 77.1147 114.812C76.8475 114.854 76.8475 114.854 76.7006 115.031C76.5532 115.282 76.5443 115.44 76.5422 115.729C76.5402 115.825 76.5382 115.921 76.5361 116.019C76.5353 116.119 76.5345 116.219 76.5337 116.321C76.5062 119.576 74.4722 122.436 72.2279 124.651C70.0958 126.704 67.244 128.032 64.2759 127.999C63.6854 127.975 63.2828 127.849 62.7772 127.537C62.4667 127.384 62.2459 127.388 61.9032 127.419C61.781 127.476 61.6601 127.536 61.5408 127.599C61.063 127.656 60.6118 127.672 60.1706 127.47C60.0121 127.329 59.8546 127.187 59.6989 127.043C59.2051 126.59 58.8171 126.272 58.1553 126.1C58.0786 126.079 58.0019 126.059 57.9228 126.037C57.8529 126.021 57.7829 126.005 57.7109 125.988C55.6928 125.149 54.2545 122.675 53.297 120.832C53.2637 120.77 53.2303 120.707 53.196 120.643C52.6668 119.641 52.2742 118.592 51.8929 117.528C51.8686 117.461 51.8444 117.394 51.8194 117.325C51.5695 116.631 51.3536 115.98 51.304 115.239C51.1416 114.944 51.0837 114.895 50.7605 114.787C50.6165 114.773 50.4721 114.763 50.3277 114.755C45.8076 114.473 41.269 113.258 38.0607 109.893C37.1863 108.898 36.5448 107.774 35.9941 106.577C35.9664 106.518 35.9388 106.459 35.9103 106.399C35.3835 105.268 35.0853 104.092 34.8164 102.878C34.8 102.805 34.7837 102.733 34.7668 102.659C34.6009 101.912 34.5199 101.184 34.5107 100.419C34.5094 100.347 34.5081 100.275 34.5068 100.201C34.5112 99.6827 34.6172 99.3898 34.9799 99.005C35.1935 98.8172 35.4106 98.6355 35.6317 98.4566C35.7137 98.389 35.7957 98.3215 35.8802 98.2518C36.5493 97.7438 37.2168 97.4721 38.0235 97.2359C38.8739 96.9843 39.4742 96.6234 40.1244 96.0253C40.5159 95.6928 40.9593 95.4457 41.4013 95.1859C41.6098 95.0606 41.8182 94.9351 42.0262 94.8088C42.0802 94.7761 42.1342 94.7433 42.1899 94.7095C42.8469 94.3087 43.489 93.8857 44.1303 93.4604C44.1862 93.4236 44.2421 93.3868 44.2996 93.3488C47.0454 91.5763 47.0454 91.5763 48.9495 89.0287C49.1669 88.5815 49.4512 88.2491 49.7979 87.8946C51.5591 86.0861 52.4359 83.5505 52.9856 81.1221C52.9998 81.0597 53.0139 80.9974 53.0285 80.9331C53.197 80.1151 53.0837 79.4172 52.912 78.6127C52.8934 78.5195 52.8749 78.4262 52.8557 78.3302C52.6218 77.2154 52.2533 76.3327 51.2761 75.6895C49.6583 74.6933 48.1258 74.6322 46.2762 74.8401C46.1669 74.8522 46.0575 74.8644 45.9449 74.8768C43.2112 75.1104 43.2112 75.1104 40.7954 76.2612C40.6974 76.3869 40.6023 76.515 40.5095 76.6446C40.1753 77.0801 39.8018 77.3728 39.3516 77.6822C39.1987 77.791 39.0459 77.9 38.8934 78.0093C38.8174 78.0636 38.7414 78.1179 38.6631 78.1739C38.0861 78.5943 37.5364 79.0498 36.9906 79.5093C36.9425 79.5497 36.8944 79.5902 36.8449 79.6319C36.213 80.1687 35.6855 80.7501 35.1788 81.404C35.1051 81.4972 35.0314 81.5903 34.9555 81.6863C34.5807 82.1627 34.2227 82.6449 33.8822 83.1465C33.5624 83.6138 33.2183 84.0522 32.8574 84.4886C31.7619 85.8186 31.0102 87.1974 30.3265 88.7743C28.7926 92.3044 28.7926 92.3044 27.2068 92.9529C25.2052 93.1958 23.3132 92.2326 21.5901 91.3288C21.5248 91.2948 21.4595 91.2609 21.3922 91.2259C19.5318 90.252 17.1389 88.9477 16.3528 86.9078C16.1077 86.3139 15.9063 85.9791 15.3584 85.6224C13.7178 84.3262 12.8978 80.7477 12.5851 78.7589C12.4622 78.0041 12.3046 77.4127 11.7157 76.8928C11.3741 76.6497 11.1197 76.6177 10.7135 76.6108C7.92815 76.4387 4.50537 73.774 2.56595 71.9304C2.48374 71.8541 2.40153 71.7778 2.31683 71.6992C1.44855 70.7623 1.00119 69.6437 0.595595 68.4511C0.557332 68.3394 0.557332 68.3394 0.518297 68.2254C0.15513 67.1194 -0.015405 66.0681 0.00109068 64.9041C0.0020468 64.7857 0.00300291 64.6673 0.003988 64.5454C0.0153803 63.7171 0.0495791 62.9097 0.210583 62.0958C0.228216 62.0066 0.24585 61.9174 0.264017 61.8255C0.377153 61.3661 0.480592 61.1674 0.879754 60.8922C1.16831 60.5965 1.28501 60.1886 1.43427 59.8102C1.73467 59.0748 2.05439 58.5831 2.6339 58.03C2.69532 57.9697 2.75675 57.9094 2.82003 57.8473C5.0959 55.6302 7.92995 54.3277 10.9003 53.2537C10.9976 53.2185 11.0949 53.1832 11.1951 53.1469C11.5508 53.0416 11.9093 53.005 12.2769 52.9612C12.5822 52.879 12.6978 52.7763 12.8933 52.5319C13.3347 51.6601 13.4245 50.5589 13.5619 49.6039C13.7096 48.5871 13.8756 47.6283 14.2522 46.6673C14.2794 46.5973 14.3066 46.5273 14.3346 46.4552C15.1713 44.3382 16.2838 42.2591 17.7853 40.532C17.8319 40.478 17.8785 40.424 17.9265 40.3684C19.6939 38.4721 22.9837 36.9747 25.5653 36.8168C25.8558 36.8108 26.1462 36.807 26.4367 36.8045C26.5377 36.8019 26.6388 36.7993 26.7428 36.7966C27.3043 36.7923 27.6816 36.7948 28.1127 37.1936C28.3686 37.4884 28.5455 37.7617 28.6973 38.1202C28.7377 38.2138 28.7781 38.3074 28.8197 38.4038C28.8629 38.5051 28.9061 38.6063 28.9506 38.7105C31.5827 44.7265 34.6589 49.8609 40.9719 52.3361C41.0299 52.3588 41.088 52.3814 41.1477 52.4048C41.7545 52.6421 42.3565 52.8864 42.9528 53.1491C44.1939 53.6957 45.3052 54.0527 46.6839 53.9755C46.8454 53.9696 46.8454 53.9696 47.0101 53.9635C47.6907 53.9296 48.3035 53.8319 48.9486 53.6146C49.0324 53.5865 49.0324 53.5865 49.1179 53.5578C50.7875 52.9889 52.1768 52.139 53.0252 50.547C53.096 50.4153 53.096 50.4153 53.1682 50.2809C53.8855 48.8431 54.1335 47.3718 54.135 45.7819C54.1351 45.7149 54.1352 45.6478 54.1353 45.5787C54.1344 44.5952 54.1026 43.6517 53.8406 42.6974C53.8171 42.6103 53.7935 42.5233 53.7693 42.4337C53.5656 41.7231 53.2866 41.1014 52.9233 40.4586C52.8714 40.3654 52.8195 40.2722 52.7659 40.1762C52.6125 39.9028 52.457 39.6307 52.3005 39.359C52.2362 39.2464 52.2362 39.2464 52.1706 39.1316C51.6178 38.1733 51.0614 37.4728 50.0924 36.906C49.604 36.6109 49.279 36.2477 48.9298 35.8058C48.5667 35.3466 48.2779 35.0678 47.7154 34.8968C46.8605 34.6041 46.1371 34.0288 45.3986 33.5226C43.4217 32.1687 43.4217 32.1687 41.271 31.1203C41.198 31.0907 41.1249 31.0611 41.0496 31.0305C40.8446 30.9482 40.639 30.8676 40.4331 30.7876C40.2973 30.7335 40.2973 30.7335 40.1588 30.6784C39.5456 30.4542 38.9146 30.3346 38.2759 30.2068C35.4354 29.6372 35.4354 29.6372 34.8164 28.7124C34.5025 27.0956 34.7294 25.7496 35.4506 24.2914C35.4908 24.2061 35.5311 24.1207 35.5726 24.0328C36.1127 22.8909 36.7017 21.9112 37.5826 21.001C37.7749 20.8008 37.9567 20.5918 38.14 20.3835C38.2698 20.2422 38.4 20.1012 38.5307 19.9606C38.5936 19.8909 38.6565 19.8213 38.7214 19.7495C40.9264 17.4173 45.5734 14.356 48.8411 14.1411C49.2869 14.1101 49.589 14.0041 49.9451 13.735C50.0345 13.6704 50.1238 13.6057 50.2159 13.5391C50.9091 13.0232 50.9091 13.0232 51.2778 12.2678C51.3061 12.0011 51.3165 11.7353 51.3254 11.4673C51.3277 11.4006 51.33 11.3339 51.3323 11.2651C51.3345 11.1982 51.3367 11.1312 51.339 11.0622C51.3723 10.437 51.5935 10.0142 51.9382 9.49445C52.3149 8.86837 52.4396 8.33521 52.5266 7.6117C52.6263 6.99464 53.0542 6.66896 53.4817 6.25268C53.8375 5.87861 54.0663 5.49126 54.2199 5.0001C54.9306 3.03353 58.3042 1.34383 60.0866 0.476282C60.7292 0.183378 61.2629 0.00772713 61.9711 0.00387687Z"
		fill="rgb(239, 230, 216)" />
</svg>