<svg width="128" height="129" viewBox="0 0 128 129" fill="none" xmlns="http://www.w3.org/2000/svg">
	<path
		d="M113.728 0C113.766 0.0752024 113.803 0.150405 113.842 0.227886C113.737 0.510463 113.737 0.510463 113.57 0.867925C113.509 0.999429 113.448 1.13093 113.385 1.26642C113.317 1.40928 113.249 1.5521 113.181 1.6949C113.113 1.8412 113.044 1.98751 112.975 2.13384C112.773 2.56277 112.569 2.99063 112.365 3.41829C112.313 3.5277 112.26 3.63711 112.207 3.74983C111.515 5.19149 110.746 6.5848 109.95 7.97106C109.748 8.32369 109.547 8.67701 109.346 9.03043C108.525 10.4703 107.681 11.8945 106.819 13.3097C106.326 14.1197 105.84 14.9337 105.362 15.7526C104.648 16.9723 103.901 18.1704 103.149 19.3671C102.935 19.7085 102.722 20.0504 102.51 20.3927C100.919 22.9551 99.2907 25.4926 97.6375 28.015C97.4615 28.2836 97.2857 28.5522 97.1099 28.8208C95.4481 31.3591 93.7776 33.8906 92.0714 36.3991C91.793 36.8086 91.5155 37.2186 91.2381 37.6288C91.1924 37.6964 91.1467 37.764 91.0996 37.8337C91.0079 37.9693 90.9163 38.1048 90.8247 38.2403C88.9157 41.0631 87.0025 43.883 85.0811 46.6974C84.3994 47.6962 83.7193 48.6962 83.0398 49.6965C82.8961 49.908 82.7523 50.1194 82.6085 50.3308C81.5404 51.9014 80.4774 53.4754 79.4164 55.0508C79.2724 55.2645 79.1284 55.4782 78.9844 55.6918C78.1342 56.9524 77.295 58.219 76.4747 59.4994C76.1536 59.9996 75.8284 60.4971 75.5039 60.9951C75.0396 61.7084 74.5756 62.422 74.1133 63.1367C71.4325 67.2795 68.7397 71.4145 65.8409 75.4085C65.6531 75.6679 65.4665 75.9282 65.2802 76.1887C64.6066 77.13 63.9224 78.0589 63.2134 78.9738C62.8614 79.4308 62.5143 79.8915 62.1659 80.3512C61.0202 81.8609 59.8576 83.3572 58.6871 84.8475C58.4856 85.104 58.2847 85.361 58.0843 85.6184C57.4681 86.4088 56.8429 87.1909 56.21 87.9679C55.8097 88.4603 55.4168 88.9579 55.0281 89.4595C54.5469 90.0794 54.0447 90.678 53.5319 91.2717C53.133 91.7343 52.7491 92.2065 52.3709 92.6864C52.0406 93.0982 51.6988 93.4998 51.3573 93.9022C51.028 94.2907 50.7036 94.6825 50.3832 95.0783C49.8266 95.7636 49.2523 96.433 48.677 97.1024C48.3905 97.4361 48.1049 97.7706 47.8193 98.105C47.7055 98.238 47.5917 98.3711 47.4779 98.5042C47.252 98.7685 47.0262 99.0329 46.8005 99.2973C44.5104 101.981 44.5104 101.981 43.4101 103.185C43.1243 103.5 42.8451 103.82 42.5667 104.141C42.2449 104.509 41.9168 104.871 41.5897 105.234C41.3771 105.472 41.1671 105.712 40.9585 105.953C40.5709 106.399 40.172 106.835 39.7725 107.27C39.4411 107.631 39.112 107.994 38.7852 108.36C38.2029 109.01 37.6139 109.654 37.0238 110.297C36.9701 110.355 36.9163 110.414 36.8609 110.474C36.0049 111.407 35.1438 112.335 34.2802 113.261C34.0604 113.497 33.8409 113.733 33.6214 113.969C32.9779 114.66 32.3354 115.349 31.6619 116.011C31.4671 116.21 31.2873 116.415 31.1076 116.628C30.4941 117.335 29.8187 117.982 29.1532 118.64C28.6396 119.151 28.1443 119.666 27.6739 120.216C27.23 120.719 26.7418 121.18 26.2643 121.651C25.8775 122.034 25.5017 122.42 25.1475 122.834C24.7295 123.321 24.2748 123.76 23.8065 124.198C23.6793 124.317 23.6793 124.317 23.5495 124.439C22.9495 124.997 22.3471 125.539 21.6829 126.021C21.6179 126.071 21.5528 126.121 21.4858 126.172C20.8905 126.577 20.2188 126.568 19.5238 126.591C19.3798 123.236 22.8969 118.361 24.5394 115.489C25.0228 114.642 25.4865 113.786 25.9443 112.925C25.9801 112.857 26.016 112.79 26.0529 112.72C26.2319 112.384 26.4108 112.048 26.5896 111.711C27.4971 110.006 28.4226 108.312 29.3751 106.632C29.6975 106.063 30.0163 105.492 30.3341 104.92C31.1529 103.449 31.9886 101.987 32.8312 100.529C33.1187 100.031 33.4052 99.5321 33.6917 99.0332C35.0826 96.6125 36.491 94.202 37.9008 91.7922C38.1921 91.2943 38.4831 90.7962 38.7741 90.2981C39.4955 89.0631 40.2173 87.8284 40.9443 86.5967C41.8392 85.0803 42.7273 83.5598 43.6147 82.039C43.6852 81.9182 43.7558 81.7973 43.8284 81.6728C44.7177 80.1484 45.6011 78.6205 46.4801 77.09C46.7648 76.5943 47.0504 76.0991 47.3368 75.6043C48.1373 74.2199 48.9248 72.8292 49.6968 71.4285C50.0798 70.7337 50.4668 70.0415 50.8599 69.3524C51.6261 68.0078 52.3526 66.6438 53.07 65.2726C53.1511 65.1178 53.2322 64.963 53.3133 64.8082C53.3755 64.6895 53.3755 64.6895 53.439 64.5684C53.671 64.1272 53.9067 63.6885 54.1474 63.2521C55.0514 61.6118 55.899 59.9463 56.7324 58.2692C56.921 57.8898 57.1103 57.5108 57.2999 57.1319C58.3061 55.12 59.2711 53.093 60.2056 51.0465C60.2946 50.8528 60.3837 50.6591 60.4728 50.4655C60.659 50.0609 60.8445 49.6559 61.0294 49.2506C61.1029 49.0895 61.1765 48.9285 61.2502 48.7676C61.6361 47.9249 62.0178 47.0816 62.3758 46.2266C62.4276 46.1034 62.4793 45.9802 62.5327 45.8533C62.6263 45.6284 62.7184 45.4029 62.8087 45.1767C62.8491 45.0795 62.8895 44.9822 62.9311 44.882C62.9648 44.7982 62.9984 44.7144 63.0331 44.628C63.1602 44.4378 63.1602 44.4378 63.4018 44.353C63.4721 44.3434 63.5423 44.3338 63.6147 44.3238C64.6183 45.4656 64.1086 48.5274 64.1235 49.9694C64.1279 50.3848 64.1338 50.8002 64.1399 51.2156C64.1413 51.4082 64.1413 51.4082 64.1428 51.6047C64.1446 51.7227 64.1465 51.8408 64.1485 51.9624C64.1497 52.0664 64.1508 52.1703 64.152 52.2775C64.1599 52.5513 64.1599 52.5513 64.4102 52.7556C65.0026 52.0573 65.5944 51.3588 66.1715 50.6477C66.5974 50.123 67.0318 49.6062 67.4686 49.0908C67.798 48.7015 68.1229 48.309 68.4443 47.913C68.8179 47.4527 69.1974 46.998 69.5806 46.5457C70.0409 46.0023 70.4947 45.4543 70.9438 44.9016C71.8315 43.8101 72.7238 42.7227 73.6338 41.6498C74.0386 41.1718 74.4344 40.6869 74.8292 40.2005C75.1742 39.7798 75.5257 39.3649 75.8777 38.9501C76.2086 38.5594 76.5326 38.1641 76.8534 37.765C77.2677 37.2539 77.704 36.7696 78.1512 36.2879C78.4842 35.927 78.7989 35.5569 79.1048 35.1728C79.6563 34.4853 80.2582 33.8497 80.8613 33.2082C81.1957 32.852 81.5202 32.4887 81.8387 32.1181C82.2342 31.6607 82.642 31.214 83.0466 30.7646C83.217 30.5747 83.3875 30.3848 83.5579 30.1949C84.5806 29.0555 84.5806 29.0555 84.8372 28.7697C85.0048 28.5829 85.1723 28.396 85.3397 28.2089C85.957 27.5194 86.5801 26.8354 87.2053 26.1531C87.3617 25.9823 87.518 25.8113 87.6741 25.6403C88.9269 24.2683 90.1869 22.9035 91.4575 21.5481C91.6879 21.302 91.9178 21.0555 92.1477 20.8088C92.9353 19.9651 93.7281 19.1306 94.5527 18.323C94.7895 18.0802 95.0107 17.8365 95.2309 17.5793C95.6295 17.1209 96.0473 16.6872 96.4767 16.258C96.5541 16.1802 96.6314 16.1025 96.7111 16.0224C96.9641 15.7682 97.2174 15.5145 97.4708 15.2608C97.6484 15.0827 97.826 14.9045 98.0036 14.7263C98.3746 14.3541 98.7459 13.982 99.1174 13.6101C99.5916 13.1352 100.065 12.6598 100.539 12.1842C100.905 11.8165 101.272 11.4491 101.638 11.0818C101.813 10.9067 101.988 10.7315 102.162 10.5562C102.407 10.3106 102.652 10.0654 102.897 9.82021C102.968 9.74887 103.039 9.67752 103.112 9.60401C103.537 9.17984 103.975 8.77752 104.431 8.3861C104.762 8.0943 105.068 7.77927 105.376 7.46327C105.844 6.98863 106.317 6.5325 106.824 6.1004C107.033 5.91713 107.227 5.72468 107.422 5.52624C107.754 5.18776 108.102 4.87593 108.461 4.56618C108.73 4.32821 108.993 4.08428 109.255 3.83854C109.862 3.27073 110.479 2.72734 111.126 2.20587C111.586 1.83032 112.035 1.44218 112.485 1.05375C112.896 0.698342 113.31 0.347465 113.728 0Z"
		fill="#efe6d8" />
	<path
		d="M116.682 25.4087C116.98 25.7068 116.945 25.8355 116.949 26.2521C116.932 27.3051 116.715 28.3183 116.505 29.3468C116.463 29.5559 116.421 29.7649 116.379 29.9739C115.844 32.6232 115.17 35.213 114.342 37.7861C114.227 38.1427 114.114 38.4996 114.001 38.8567C111.065 48.1444 107.235 57.0877 103.328 65.9985C102.144 68.7 100.98 71.4098 99.8196 74.1216C99.7309 74.3288 99.6422 74.5359 99.5535 74.743C99.4393 75.0099 99.3251 75.2769 99.2109 75.5438C99.0991 75.8054 98.9871 76.0668 98.8749 76.3282C98.6009 76.9683 98.3335 77.6101 98.078 78.2579C98.0285 78.382 97.9789 78.5061 97.9279 78.634C97.8355 78.8663 97.7448 79.0993 97.6561 79.3331C97.3702 80.0485 97.0313 80.507 96.455 81.0129C96.325 81.1558 96.1967 81.3002 96.0715 81.4473C95.3427 82.2933 94.5892 83.1169 93.8345 83.9395C93.5553 84.2445 93.2798 84.5519 93.0104 84.8656C92.5539 85.3939 92.0742 85.9005 91.5976 86.4104C91.2239 86.8105 90.8532 87.2127 90.4891 87.6216C89.8685 88.3174 89.2306 88.9969 88.5943 89.6781C88.3274 89.9641 88.061 90.2505 87.7946 90.537C87.5306 90.8208 87.2664 91.1044 87.0021 91.388C86.7869 91.6193 86.5719 91.8508 86.3569 92.0823C85.6574 92.8342 84.9572 93.5815 84.2213 94.2979C84.003 94.5227 83.7998 94.7508 83.5963 94.9887C83.0093 95.6671 82.3635 96.2869 81.7258 96.9168C81.6294 97.0126 81.533 97.1084 81.4337 97.207C81.3477 97.2919 81.2617 97.3768 81.1731 97.4643C80.9489 97.6979 80.7378 97.9339 80.5274 98.1796C80.1008 98.6698 79.6508 99.1319 79.1914 99.5912C79.1052 99.6778 79.019 99.7645 78.9301 99.8538C78.6476 100.138 78.3648 100.421 78.0819 100.704C77.8839 100.903 77.6859 101.101 77.488 101.3C77.0741 101.715 76.66 102.13 76.2458 102.545C75.7165 103.075 75.1877 103.606 74.659 104.136C74.2506 104.546 73.842 104.956 73.4333 105.365C73.2382 105.561 73.0433 105.756 72.8484 105.952C72.5755 106.226 72.3022 106.5 72.0287 106.773C71.9493 106.853 71.8699 106.933 71.7881 107.015C71.3401 107.463 70.8805 107.889 70.4007 108.302C70.1389 108.531 69.8944 108.774 69.651 109.022C69.5555 109.118 69.46 109.215 69.3616 109.314C69.2166 109.462 69.2166 109.462 69.0686 109.613C68.4718 110.22 67.8741 110.814 67.2282 111.369C66.9174 111.643 66.6298 111.937 66.3414 112.233C65.9753 112.605 65.61 112.97 65.2121 113.309C64.7891 113.669 64.4017 114.06 64.0118 114.455C63.5562 114.917 63.0961 115.36 62.6016 115.78C62.2195 116.123 61.8641 116.492 61.5039 116.858C61.1179 117.248 60.72 117.615 60.3026 117.971C60.0706 118.177 59.854 118.393 59.6368 118.614C59.2886 118.968 58.928 119.296 58.5519 119.62C58.1742 119.955 57.8092 120.304 57.4422 120.651C56.8517 121.208 56.2489 121.737 55.6151 122.244C55.2977 122.505 54.9957 122.779 54.6936 123.058C54.088 123.615 53.4585 124.136 52.8186 124.653C52.6775 124.769 52.5365 124.886 52.3956 125.002C48.5751 128.156 48.5751 128.156 47.0232 128.185C46.9482 128.148 46.8732 128.11 46.7959 128.071C46.8446 127.428 47.0262 127.012 47.3956 126.481C47.4454 126.408 47.4952 126.334 47.5464 126.257C47.7092 126.016 47.874 125.776 48.0388 125.536C48.1529 125.368 48.2668 125.199 48.3806 125.031C48.6118 124.689 48.8437 124.347 49.0761 124.006C49.3789 123.56 49.6778 123.112 49.9746 122.662C50.0181 122.596 50.0617 122.53 50.1065 122.462C50.1921 122.333 50.2776 122.203 50.3632 122.073C51.1778 120.84 52.012 119.622 52.8646 118.415C53.0421 118.164 53.2188 117.912 53.3952 117.66C54.665 115.848 55.9649 114.058 57.2775 112.277C57.476 112.008 57.674 111.738 57.8719 111.468C58.6211 110.445 59.3759 109.428 60.1364 108.414C60.6156 107.774 61.0898 107.131 61.5615 106.486C62.1239 105.718 62.6956 104.957 63.2732 104.2C64.0535 103.178 64.819 102.145 65.578 101.106C65.9073 100.655 66.2381 100.206 66.5686 99.7565C66.7011 99.5763 66.8335 99.396 66.9659 99.2157C67.2323 98.8532 67.4989 98.4909 67.7658 98.1288C69.0738 96.3532 70.3625 94.5647 71.6288 92.7589C71.7934 92.5247 71.9588 92.2909 72.1244 92.0573C73.9148 89.5297 75.6511 86.9593 77.3145 84.3457C77.4255 84.1713 77.5368 83.9972 77.6484 83.8232C79.4599 80.9913 80.9352 77.9909 82.3766 74.9587C82.5302 74.6355 82.6842 74.3125 82.8382 73.9894C83.0752 73.4917 83.0752 73.4917 83.3121 72.994C83.7029 72.1743 84.0998 71.3583 84.5116 70.549C84.6007 70.3735 84.6891 70.1977 84.7771 70.0216C86.0656 67.447 87.584 65.0156 89.1288 62.5895C89.302 62.3166 89.4737 62.0429 89.6452 61.769C91.3194 59.1024 93.0756 56.4851 94.8641 53.8944C94.9346 53.7921 95.0051 53.6897 95.0777 53.5843C96.0356 52.1941 97.0062 50.8146 97.997 49.4479C98.2403 49.1109 98.4804 48.7715 98.7206 48.4323C99.3631 47.5272 100.023 46.6348 100.682 45.7415C100.881 45.4705 101.08 45.1989 101.278 44.9272C102.197 43.6703 103.133 42.4274 104.078 41.1901C104.285 40.9187 104.492 40.647 104.699 40.3753C105.057 39.9059 105.415 39.4368 105.773 38.9679C105.822 38.904 105.871 38.8402 105.921 38.7744C107.136 37.185 108.364 35.6059 109.6 34.0325C109.806 33.7696 110.012 33.5065 110.218 33.2433C110.323 33.1098 110.428 32.9763 110.532 32.8429C110.79 32.5138 111.048 32.1844 111.305 31.8545C111.859 31.1434 112.42 30.438 112.989 29.7385C113.455 29.1652 113.918 28.5897 114.374 28.008C114.424 27.9437 114.475 27.8794 114.527 27.8132C114.785 27.4834 115.039 27.1513 115.288 26.8152C115.338 26.7476 115.389 26.6801 115.441 26.6105C115.579 26.4249 115.717 26.2384 115.854 26.0518C116.111 25.7541 116.335 25.5875 116.682 25.4087Z"
		fill="#efe6d8" />
	<path
		d="M74.9773 0.455566C74.9126 2.27103 73.8759 3.97167 73.0987 5.56609C72.726 6.3308 72.3697 7.10255 72.0156 7.87611C71.1651 9.72664 70.2677 11.554 69.3735 13.3836C69.0766 13.9913 68.7815 14.5998 68.4885 15.2094C67.6381 16.9776 66.7752 18.739 65.9006 20.4953C65.8514 20.5943 65.8021 20.6933 65.7514 20.7952C65.19 21.9239 64.6186 23.0464 64.0303 24.1613C63.717 24.755 63.4081 25.3509 63.1032 25.949C63.0623 26.0291 63.0215 26.1092 62.9794 26.1917C62.8968 26.3537 62.8143 26.5157 62.7317 26.6777C62.0645 27.9862 61.3898 29.2889 60.6811 30.5754C60.2854 31.2947 59.9056 32.0213 59.5298 32.7513C59.0093 33.7609 58.4616 34.7519 57.8994 35.7387C57.5181 36.41 57.1502 37.0862 56.7955 37.7719C56.2671 38.7916 55.7053 39.7906 55.1384 40.7892C54.8092 41.3692 54.4843 41.9515 54.1604 42.5345C53.447 43.8184 52.7171 45.0916 51.9757 46.3595C51.4715 47.2221 50.9747 48.089 50.4787 48.9563C50.0721 49.6653 49.6574 50.3688 49.2367 51.0695C48.9292 51.5818 48.6241 52.0955 48.3207 52.6103C47.3557 54.2466 46.3841 55.8772 45.3787 57.489C45.1332 57.8835 44.8898 58.2793 44.6463 58.6751C43.949 59.8076 43.2433 60.9345 42.5328 62.0587C42.3612 62.3305 42.1901 62.6027 42.0192 62.875C41.3822 63.8894 40.7405 64.9004 40.089 65.9055C39.8673 66.2475 39.6457 66.5897 39.4243 66.932C38.555 68.275 37.6812 69.6151 36.8032 70.9525C36.6596 71.1714 36.5161 71.3905 36.3727 71.6096C34.9201 73.829 34.9201 73.829 34.2492 74.7276C34.0468 75.0034 33.8581 75.2864 33.6705 75.5725C33.1378 76.3816 32.5832 77.175 32.0302 77.9701C31.5801 78.6173 31.132 79.2656 30.6875 79.9166C29.6803 81.3892 28.6448 82.8412 27.6002 84.2874C27.3396 84.6484 27.0809 85.0107 26.8234 85.374C24.3712 88.8349 21.8008 92.2182 19.1223 95.5059C18.9738 95.6883 18.8257 95.871 18.6776 96.0538C17.7734 97.1675 16.854 98.2661 15.8908 99.3292C15.6829 99.5597 15.4785 99.7927 15.2756 100.028C14.489 100.93 13.6794 101.809 12.8395 102.662C12.7497 102.755 12.7497 102.755 12.6581 102.849C12.2867 103.222 11.9154 103.54 11.4545 103.802C11.3045 103.802 11.1545 103.802 11 103.802C11.057 102.895 11.2431 102.045 11.4687 101.167C11.5041 101.028 11.5395 100.888 11.5759 100.745C12.0532 98.8845 12.5822 97.042 13.2077 95.2264C13.3798 94.7233 13.5379 94.2183 13.6841 93.7069C14.0623 92.3867 14.5054 91.0909 14.956 89.794C14.9979 89.673 15.0399 89.5519 15.0831 89.4272C17.3151 82.9984 19.8897 76.6938 22.7311 70.5124C22.9146 70.113 23.0958 69.7125 23.2767 69.3119C24.1658 67.3583 25.119 65.4365 26.0752 63.5153C26.1828 63.2989 26.2903 63.0824 26.3978 62.8659C27.2462 61.158 28.1194 59.4672 29.0409 57.7976C29.2328 57.4482 29.4203 57.0966 29.6071 56.7443C30.3684 55.31 31.158 53.8969 31.981 52.4973C32.2854 51.9795 32.5836 51.4585 32.8789 50.9354C33.599 49.6599 34.35 48.4051 35.1173 47.1575C35.3078 46.8473 35.497 46.5362 35.6862 46.2251C36.6333 44.6772 37.631 43.1642 38.6349 41.6531C38.7023 41.5515 38.7697 41.4499 38.8392 41.3453C39.7285 40.0063 40.6359 38.6824 41.5682 37.3731C41.6393 37.2727 41.7105 37.1722 41.7838 37.0687C42.7793 35.6651 43.8173 34.2951 44.8636 32.9293C44.9717 32.7878 45.0797 32.6463 45.1877 32.5047C45.4573 32.1516 45.7283 31.7996 46 31.4481C46.0471 31.387 46.0943 31.326 46.1429 31.2631C47.278 29.7961 48.4561 28.3645 49.6559 26.9504C49.9715 26.578 50.2813 26.2017 50.5881 25.8221C51.4064 24.8148 52.259 23.835 53.1307 22.8739C53.4807 22.4876 53.8126 22.0909 54.1392 21.6846C54.4871 21.2534 54.8461 20.8554 55.2432 20.4699C55.4368 20.2767 55.6156 20.076 55.794 19.8686C56.3201 19.2574 56.8705 18.6689 57.4177 18.0768C57.6801 17.792 57.9409 17.5057 58.2017 17.2194C60.2221 15.0089 60.2221 15.0089 61.1306 14.1155C61.3292 13.9128 61.5131 13.7039 61.6965 13.4874C62.2626 12.8343 62.8822 12.2361 63.4969 11.6295C63.5882 11.5389 63.6794 11.4483 63.7734 11.3549C63.8953 11.2347 63.8953 11.2347 64.0196 11.1121C64.2295 10.8932 64.4247 10.6732 64.6204 10.4421C65.299 9.65933 66.0457 8.93915 66.7773 8.20681C66.9421 8.04143 67.1069 7.87604 67.2718 7.71063C67.6161 7.3652 67.9606 7.01997 68.3053 6.67489C68.7452 6.23446 69.1846 5.79352 69.6238 5.35243C69.9638 5.01116 70.304 4.67016 70.6443 4.32925C70.8063 4.16684 70.9683 4.00436 71.1301 3.84178C72.6602 2.30563 72.6602 2.30563 73.3292 1.74197C73.7087 1.4154 74.0425 1.04008 74.3865 0.676776C74.6364 0.455566 74.6364 0.455566 74.9773 0.455566Z"
		fill="#efe6d8" />
</svg>
