<svg width="128" height="128" viewBox="0 0 128 128" fill="none" xmlns="http://www.w3.org/2000/svg">
<path d="M65.2154 7.98001C65.4112 8.08614 65.4112 8.08614 65.6012 8.21977C65.6738 8.27023 65.7465 8.32069 65.8213 8.37267C65.8993 8.4281 65.9773 8.48352 66.0577 8.54063C66.1408 8.59865 66.224 8.65668 66.3096 8.71646C66.489 8.84179 66.6681 8.96749 66.847 9.09352C67.2221 9.35766 67.5984 9.61992 67.9747 9.88221C68.1689 10.0175 68.3629 10.153 68.5569 10.2885C69.3118 10.8155 70.0707 11.3363 70.8328 11.8527C71.0053 11.97 71.1773 12.0881 71.3488 12.2068C71.5737 12.3608 71.7999 12.5107 72.0284 12.6591C73.2956 13.4988 74.3239 14.5329 75.3797 15.6208C75.6394 15.8861 75.8995 16.151 76.1598 16.4157C76.3199 16.5789 76.4797 16.7424 76.639 16.9064C77.0493 17.3267 77.469 17.7262 77.9141 18.1094C78.1194 18.2863 78.3171 18.47 78.5132 18.6569C78.5842 18.7242 78.6551 18.7915 78.7281 18.8608C78.8719 18.9979 79.0157 19.1349 79.1595 19.2719C79.9829 20.0544 79.9829 20.0544 80.861 20.7734C81.1473 21.0161 81.3774 21.2865 81.6204 21.5718C81.8101 21.7874 82.0079 21.9893 82.2125 22.1907C82.5291 22.5038 82.8237 22.8281 83.1137 23.1659C83.4251 23.5215 83.747 23.8671 84.0683 24.2136C84.3809 24.5513 84.6875 24.8933 84.9909 25.2394C85.5904 25.9083 86.2598 26.4851 86.9584 27.0473C88.2725 28.1264 89.2748 29.1924 90.2023 30.6228C90.4478 30.9914 90.7132 31.3438 90.9813 31.696C91.3188 32.1396 91.649 32.5859 91.9669 33.0438C92.3337 33.5715 92.7079 34.0565 93.1791 34.4967C93.3549 34.6672 93.5109 34.8409 93.6678 35.0286C94.1672 35.6057 94.7097 36.1401 95.2494 36.679C95.4314 36.8608 95.6128 37.0431 95.7942 37.2256C96.3236 37.7564 96.8525 38.2813 97.423 38.7683C97.7387 39.04 98.0393 39.3279 98.3421 39.6139C98.749 39.9977 99.1589 40.3766 99.5773 40.7477C100.222 41.3271 100.827 41.9449 101.435 42.5618C102.366 43.5108 102.366 43.5108 103.351 44.4025C103.555 44.5829 103.742 44.7747 103.931 44.9704C104.331 45.376 104.763 45.7082 105.225 46.0389C105.307 46.0989 105.389 46.1588 105.474 46.2206C105.9 46.5316 106.328 46.8379 106.76 47.1409C107.748 47.8407 108.54 48.5351 109.267 49.5034C109.401 49.6717 109.535 49.8397 109.669 50.0073C109.733 50.0874 109.796 50.1674 109.861 50.2498C110.157 50.6174 110.463 50.9764 110.769 51.3356C111.048 51.6638 111.317 51.9972 111.58 52.338C111.955 52.8127 112.373 53.2326 112.806 53.6521C113.017 53.8656 113.213 54.0786 113.408 54.306C113.827 54.7911 114.273 55.2479 114.725 55.7025C114.867 55.8453 115.007 55.9891 115.147 56.133C115.792 56.7826 116.471 57.3339 117.212 57.8685C117.365 57.9836 117.517 58.0991 117.669 58.2154C117.737 58.2674 117.805 58.3195 117.876 58.3731C118.09 58.538 118.305 58.7036 118.519 58.8693C118.756 59.0524 118.994 59.2309 119.237 59.4063C119.324 59.4705 119.411 59.5347 119.501 59.6008C119.573 59.6521 119.645 59.7034 119.719 59.7563C120.403 60.5046 120.711 61.652 121.076 62.5858C121.173 62.8336 121.272 63.0805 121.372 63.3275C121.434 63.4862 121.496 63.645 121.558 63.8038C121.603 63.9135 121.603 63.9135 121.648 64.0253C121.819 64.4689 121.875 64.7682 121.738 65.2258C121.621 65.4817 121.621 65.4817 121.474 65.7353C121.42 65.8297 121.366 65.924 121.311 66.0213C121.224 66.1701 121.224 66.1701 121.135 66.3219C121.014 66.5306 120.894 66.7394 120.773 66.9482C120.714 67.0501 120.655 67.1519 120.595 67.2568C120.455 67.5018 120.32 67.7482 120.189 67.9978C119.73 68.8666 119.192 69.6068 118.56 70.3576C118.207 70.7767 117.88 71.2124 117.552 71.6509C116.786 72.6639 115.99 73.5787 114.988 74.3693C114.667 74.6235 114.355 74.8871 114.044 75.1532C113.64 75.4983 113.232 75.8385 112.819 76.1736C111.535 77.2245 110.304 78.3786 109.234 79.6495C109.02 79.8916 108.792 80.1165 108.563 80.3436C108.206 80.6975 107.867 81.0582 107.541 81.4404C107.321 81.6947 107.093 81.9416 106.866 82.1892C106.541 82.5457 106.23 82.9077 105.929 83.2852C104.963 84.4789 103.868 85.5615 102.786 86.6489C102.693 86.7425 102.601 86.836 102.505 86.9323C102.046 87.3915 101.581 87.8373 101.089 88.2606C100.878 88.442 100.676 88.6322 100.473 88.8221C99.9636 89.2834 99.4232 89.6962 98.8757 90.1104C98.2879 90.5559 97.7135 91.0158 97.1445 91.4852C96.8088 91.7617 96.4701 92.0263 96.1169 92.2803C95.5414 92.7246 95.1001 93.3031 94.6396 93.8613C94.434 94.1088 94.2241 94.3526 94.014 94.5964C92.9234 95.8619 91.8845 97.168 90.8697 98.4951C90.785 98.6057 90.7 98.7161 90.6146 98.8261C90.4303 99.0641 90.2506 99.3026 90.0805 99.551C89.501 100.364 88.7088 100.876 87.8973 101.434C87.6398 101.612 87.3838 101.791 87.1281 101.971C85.7574 102.935 85.7574 102.935 85.2309 103.294C84.2241 103.987 83.4026 104.787 82.6097 105.718C82.2962 106.078 81.9698 106.426 81.6442 106.775C81.4024 107.036 81.1672 107.298 80.9427 107.574C80.743 107.811 80.5511 108.007 80.3142 108.204C80.047 108.432 79.7929 108.665 79.5473 108.916C79.2417 109.228 78.9189 109.513 78.5887 109.798C78.3362 110.023 78.1017 110.263 77.8654 110.504C77.6807 110.686 77.4881 110.853 77.2906 111.02C76.4641 111.741 75.8319 112.609 75.1825 113.486C74.8844 113.888 74.581 114.285 74.2734 114.68C74.2295 114.737 74.1857 114.793 74.1405 114.852C73.3167 115.904 72.2518 116.78 71.2149 117.615C70.8712 117.899 70.5457 118.201 70.2217 118.507C69.4276 119.177 68.5418 119.692 67.6418 120.204C67.4199 120.331 67.1981 120.458 66.9762 120.585C66.868 120.646 66.7598 120.708 66.6483 120.771C66.4261 120.9 66.206 121.032 65.9881 121.168C65.8822 121.233 65.7763 121.299 65.6672 121.366C65.5729 121.426 65.4787 121.486 65.3815 121.547C65.061 121.689 64.939 121.681 64.612 121.565C64.3696 121.432 64.3696 121.432 64.1169 121.263C64.023 121.201 63.9291 121.139 63.8324 121.075C63.7328 121.008 63.6333 120.941 63.5308 120.872C63.3205 120.732 63.1102 120.593 62.8998 120.453C62.7968 120.385 62.6938 120.316 62.5876 120.245C62.2124 119.995 61.8349 119.749 61.4564 119.505C61.3908 119.462 61.3251 119.42 61.2575 119.376C60.8282 119.098 60.3978 118.822 59.9671 118.546C59.857 118.475 59.7469 118.405 59.6335 118.332C59.4183 118.194 59.203 118.057 58.9877 117.919C58.4619 117.583 57.9378 117.244 57.4165 116.901C57.3197 116.837 57.2228 116.774 57.123 116.708C56.3367 116.146 55.8364 115.265 55.2911 114.482C54.9435 113.984 54.5871 113.493 54.2276 113.004C54.1683 112.923 54.109 112.843 54.0478 112.759C53.6688 112.246 53.2805 111.745 52.8707 111.256C52.7442 111.083 52.7442 111.083 52.7442 110.881C52.6883 110.858 52.6324 110.834 52.5748 110.809C52.2852 110.648 52.074 110.448 51.8327 110.22C51.4615 109.874 51.0843 109.543 50.6887 109.225C50.2324 108.856 49.8015 108.468 49.3727 108.068C49.0498 107.768 48.7185 107.485 48.3754 107.209C47.8947 106.822 47.4443 106.41 46.9947 105.987C46.6611 105.675 46.3198 105.382 45.9617 105.099C45.4403 104.68 44.9742 104.219 44.5092 103.739C44.2271 103.45 43.9418 103.173 43.6339 102.911C42.9346 102.306 42.2997 101.63 41.6508 100.972C40.7633 100.072 40.7633 100.072 39.826 99.224C39.5648 98.9997 39.3298 98.7515 39.0912 98.5038C38.9003 98.3178 38.7057 98.1447 38.5038 97.9711C37.9781 97.5133 37.4892 97.0202 36.998 96.5259C36.9067 96.4348 36.8155 96.3438 36.7216 96.2501C36.2679 95.7948 35.8276 95.3344 35.4094 94.8462C34.2537 93.5091 33.0194 92.2112 31.6235 91.1276C31.4387 90.9769 31.2543 90.8257 31.0703 90.674C30.6962 90.3624 30.6962 90.3624 30.3022 90.0773C29.4635 89.4841 28.9773 88.6864 28.4362 87.8317C28.2704 87.5706 28.1016 87.3115 27.9321 87.0528C27.024 85.6606 27.024 85.6606 26.6561 84.9446C25.8447 83.4027 24.5243 82.843 23.0081 82.1235C22.2768 81.7712 21.7147 81.3851 21.2455 80.7152C21.1699 80.61 21.0943 80.5048 21.0164 80.3963C20.9759 80.3394 20.9353 80.2825 20.8935 80.2238C20.6468 79.8827 20.3891 79.55 20.1329 79.216C19.7863 78.7634 19.4403 78.3104 19.0973 77.8551C19.0391 77.7781 18.9809 77.7012 18.921 77.6219C18.8101 77.4751 18.6994 77.3282 18.5892 77.181C18.1146 76.5544 17.6009 76.0582 16.9648 75.6004C16.8997 75.5529 16.8346 75.5054 16.7676 75.4565C16.4143 75.1997 16.0581 74.9478 15.6985 74.7C15.6256 74.6494 15.5526 74.5988 15.4775 74.5467C15.3398 74.4516 15.2016 74.3572 15.0628 74.2638C14.4533 73.8424 13.9192 73.3444 13.3814 72.8372C13.2179 72.6835 13.0533 72.531 12.8885 72.3787C11.4085 71.0044 10.1929 69.7166 9.34231 67.8546C9.18083 67.5131 9.00475 67.1824 8.82451 66.8506C8.76258 66.736 8.70066 66.6213 8.63686 66.5032C8.51741 66.2823 8.39751 66.0617 8.27709 65.8413C8.22463 65.7418 8.17217 65.6422 8.11813 65.5396C8.07115 65.4521 8.02416 65.3646 7.97576 65.2744C7.86859 64.9693 7.88806 64.8256 7.98848 64.5203C8.11 64.29 8.11 64.29 8.26388 64.0534C8.32087 63.9649 8.37786 63.8763 8.43657 63.785C8.49821 63.6909 8.55985 63.5968 8.62336 63.4999C8.7528 63.2997 8.88218 63.0994 9.01151 62.8991C9.07653 62.7989 9.14155 62.6986 9.20854 62.5953C9.37912 62.3301 9.54664 62.0634 9.71239 61.7952C10.2483 60.9281 10.8036 60.0841 11.4095 59.2642C11.7001 58.8705 11.9788 58.4739 12.2429 58.0618C12.9927 56.9049 13.7777 56.094 14.9056 55.3049C15.257 55.0574 15.5978 54.7962 15.9402 54.5363C16.0716 54.4376 16.203 54.3389 16.3346 54.2403C16.4003 54.1911 16.4659 54.1418 16.5336 54.0911C16.6744 53.9858 16.8155 53.8808 16.9567 53.7761C18.0398 52.9724 19.0038 52.1544 19.8908 51.1333C20.2518 50.7179 20.6237 50.314 21.0003 49.9128C21.0662 49.8426 21.1322 49.7723 21.2001 49.6999C21.8579 49.0009 22.5189 48.3159 23.2467 47.6897C23.5423 47.4304 23.8301 47.1632 24.1181 46.8956C24.587 46.4602 25.0591 46.029 25.5352 45.6015C25.8273 45.3377 26.1168 45.0711 26.4062 44.8043C26.7318 44.5042 27.0586 44.2062 27.3931 43.9161C27.8027 43.5603 28.1998 43.1914 28.5968 42.8215C28.9222 42.5187 29.2514 42.2209 29.5833 41.9252C30.1044 41.456 30.6032 40.9666 31.0974 40.4691C31.2406 40.3251 31.3844 40.1816 31.5282 40.0381C31.9923 39.5724 32.4416 39.1016 32.869 38.6019C33.143 38.2902 33.4395 38.002 33.7356 37.7116C34.1701 37.2811 34.5906 36.8477 34.9857 36.3801C35.2268 36.1048 35.4895 35.8523 35.7498 35.5955C36.0064 35.3343 36.243 35.0583 36.4809 34.7801C36.6419 34.5988 36.8098 34.4329 36.9854 34.266C37.7502 33.508 38.355 32.5878 38.9717 31.7086C39.0231 31.6356 39.0745 31.5627 39.1274 31.4875C39.3543 31.1652 39.5799 30.8423 39.8007 30.5157C40.3548 29.7244 40.9987 29.1843 41.7815 28.6409C41.8437 28.5974 41.9058 28.554 41.9699 28.5092C42.3016 28.2777 42.6348 28.0486 42.9692 27.8209C43.4083 27.5213 43.8431 27.2158 44.277 26.9087C44.3431 26.8621 44.4091 26.8154 44.4771 26.7674C44.6114 26.6722 44.7451 26.5762 44.8781 26.4792C45.038 26.3668 45.2021 26.2604 45.3686 26.158C46.2142 25.6107 46.6037 24.9351 47.0428 24.0615C47.1757 23.805 47.3097 23.5492 47.444 23.2934C47.4761 23.232 47.5083 23.1706 47.5415 23.1073C48.0175 22.2048 48.45 21.5939 49.2932 21.0128C49.4635 20.8913 49.6337 20.7698 49.8039 20.6482C49.8908 20.5869 49.9778 20.5256 50.0673 20.4625C50.4926 20.1606 50.911 19.8496 51.3298 19.5388C52.215 18.8823 52.215 18.8823 52.5941 18.6136C53.3109 18.0974 53.8866 17.5258 54.4539 16.8491C54.5281 16.7609 54.6022 16.6727 54.6786 16.5818C55.0114 16.1792 55.3363 15.7712 55.6545 15.357C55.7046 15.2921 55.7548 15.2272 55.8064 15.1603C55.905 15.0322 56.003 14.9038 56.1004 14.7748C56.2175 14.6227 56.3409 14.4755 56.4654 14.3295C56.5318 14.3295 56.5982 14.3295 56.6666 14.3295C56.6891 14.274 56.7117 14.2185 56.7349 14.1614C56.909 13.8532 57.1315 13.6393 57.3832 13.3909C57.4332 13.3414 57.4833 13.2918 57.5349 13.2408C57.8609 12.9209 58.1975 12.6197 58.5464 12.3256C58.7383 12.1493 58.913 11.9704 59.0894 11.7791C59.9979 10.8043 60.9594 10.1269 62.109 9.46172C62.4205 9.27772 62.7258 9.08567 63.031 8.89141C63.1876 8.79262 63.1876 8.79262 63.3473 8.69183C63.5498 8.56392 63.7518 8.43513 63.9531 8.30537C64.091 8.21954 64.091 8.21954 64.2317 8.13198C64.3529 8.05503 64.3529 8.05503 64.4766 7.97652C64.7735 7.8541 64.9133 7.88011 65.2154 7.98001Z" fill="#FEFEFE"/>
<path d="M64.4433 1C65.0327 1.2752 65.5567 1.66106 66.0944 2.02291C66.164 2.06977 66.2336 2.11663 66.3054 2.16491C67.3905 2.8962 68.4688 3.63706 69.5453 4.38073C70.4101 4.97767 71.2789 5.56843 72.1494 6.15697C72.7255 6.54657 73.3009 6.93707 73.8763 7.32768C74.1863 7.53813 74.4967 7.74799 74.8074 7.95741C74.9516 8.0549 75.0958 8.1524 75.2399 8.2499C75.3034 8.29244 75.3668 8.33498 75.4321 8.37881C75.6234 8.50843 75.8124 8.64071 76.001 8.77414C76.0661 8.81907 76.1313 8.864 76.1984 8.9103C77.0615 9.53711 77.7875 10.3221 78.5357 11.0757C78.7489 11.2899 78.9623 11.504 79.1761 11.7177C79.3081 11.8499 79.4399 11.9822 79.5713 12.115C79.9579 12.5025 80.3579 12.8676 80.7751 13.2225C81.0008 13.4174 81.2104 13.6247 81.4187 13.8376C81.7577 14.1776 82.1057 14.497 82.4716 14.8081C82.7796 15.0756 83.0793 15.3515 83.3794 15.6277C83.7467 15.9657 84.1151 16.301 84.4952 16.625C85.1108 17.1545 85.6679 17.7298 86.1987 18.342C86.5076 18.6882 86.8269 19.0243 87.146 19.3613C87.5285 19.7653 87.9098 20.1689 88.2747 20.5888C88.7562 21.1396 89.2618 21.6277 89.8355 22.0848C90.3725 22.5131 90.8775 22.9684 91.3783 23.4377C91.6825 23.7224 91.9881 23.991 92.3186 24.2457C92.9248 24.765 93.341 25.4776 93.7895 26.1282C94.1224 26.6059 94.4683 27.0744 94.8137 27.5432C95.0607 27.8794 95.3052 28.215 95.5325 28.5647C96.2476 29.6362 97.1657 30.4981 98.0898 31.3901C98.3666 31.6579 98.6355 31.9207 98.8758 32.2212C99.136 32.5288 99.4176 32.776 99.7248 33.036C100.155 33.4036 100.562 33.7958 100.974 34.1827C101.54 34.7125 102.111 35.2371 102.728 35.7087C102.796 35.7657 102.864 35.8227 102.935 35.8813C102.935 35.9489 102.935 36.0164 102.935 36.0859C102.996 36.1134 103.058 36.1409 103.121 36.1692C103.349 36.2912 103.492 36.4112 103.671 36.5947C103.732 36.6563 103.793 36.7178 103.855 36.7813C103.92 36.848 103.985 36.9147 104.052 36.9834C104.194 37.1263 104.335 37.2692 104.477 37.4121C104.697 37.6356 104.917 37.8595 105.137 38.084C106.127 39.0943 107.138 39.9817 108.301 40.7913C108.395 40.8588 108.49 40.9263 108.588 40.9958C108.743 41.1061 108.898 41.216 109.054 41.3251C110.362 42.2426 111.412 43.2518 112.429 44.4738C112.506 44.5665 112.583 44.6592 112.663 44.7547C112.949 45.1006 113.234 45.4477 113.518 45.7953C114.327 46.7842 115.148 47.7509 116.04 48.6678C116.124 48.7546 116.208 48.8414 116.294 48.9309C117.496 50.1732 118.704 51.3021 120.137 52.2857C120.555 52.5795 120.958 52.8933 121.361 53.2069C121.439 53.2669 121.516 53.3269 121.595 53.3887C121.742 53.5024 121.888 53.6162 122.034 53.7302C122.211 53.8681 122.389 54.0052 122.567 54.1419C122.658 54.2131 122.75 54.2843 122.845 54.3577C122.92 54.416 122.996 54.4743 123.073 54.5343C123.458 54.8742 123.619 55.1951 123.767 55.6811C123.902 56.1035 124.053 56.5016 124.244 56.9022C124.428 57.2887 124.577 57.6715 124.709 58.0786C124.837 58.4748 124.98 58.8472 125.16 59.2229C125.388 59.7016 125.568 60.1872 125.741 60.687C125.978 61.3724 126.255 62.0254 126.566 62.6817C126.648 62.8598 126.727 63.0388 126.805 63.2187C126.855 63.3334 126.855 63.3334 126.907 63.4505C127.046 63.9396 127.043 64.3439 126.808 64.7962C126.726 64.9361 126.644 65.0751 126.56 65.2134C126.464 65.3765 126.369 65.5396 126.274 65.7029C126.222 65.7917 126.17 65.8806 126.116 65.9722C125.868 66.3979 125.629 66.8282 125.389 67.2584C125.191 67.6139 124.991 67.9686 124.792 68.3233C124.54 68.7707 124.291 69.2195 124.045 69.6698C123.435 70.7766 122.797 71.7793 121.968 72.7366C121.718 73.0288 121.482 73.3312 121.245 73.6332C121.152 73.7511 121.058 73.869 120.965 73.9869C120.774 74.2289 120.583 74.4717 120.393 74.7149C119.452 75.9184 118.471 76.9623 117.279 77.9231C117.135 78.04 117.135 78.04 116.988 78.1592C116.804 78.3084 116.619 78.4575 116.435 78.6063C116.106 78.8747 115.779 79.1462 115.453 79.4191C115.401 79.4632 115.348 79.5073 115.294 79.5527C115.129 79.6909 114.966 79.8299 114.802 79.9689C114.742 80.0192 114.682 80.0696 114.62 80.1215C114.032 80.6199 113.485 81.1564 112.94 81.6992C112.784 81.8546 112.627 82.0095 112.47 82.1644C111.975 82.6546 111.491 83.1498 111.035 83.677C110.801 83.9476 110.557 84.2079 110.313 84.4697C109.79 85.0335 109.274 85.6017 108.781 86.1918C107.969 87.1569 107.093 88.0479 106.194 88.9322C105.951 89.1703 105.71 89.4093 105.469 89.6484C105.313 89.8028 105.156 89.9571 105 90.1113C104.929 90.1815 104.858 90.2516 104.785 90.3238C104.322 90.7787 103.843 91.2098 103.347 91.6301C103.251 91.7128 103.154 91.7955 103.054 91.8806C102.486 92.3554 101.906 92.8085 101.309 93.2476C99.9819 94.2291 98.7587 95.1786 97.7163 96.4631C97.5198 96.7016 97.3151 96.9325 97.1103 97.164C96.5422 97.8084 96.0116 98.4761 95.4909 99.1585C95.0151 99.782 94.526 100.394 94.0305 101.002C93.8573 101.215 93.6872 101.429 93.5186 101.645C93.4504 101.733 93.3821 101.82 93.3118 101.91C93.228 102.02 93.228 102.02 93.1425 102.131C92.5681 102.764 91.8883 103.25 91.177 103.72C91.0039 103.836 90.8308 103.952 90.6578 104.068C90.5712 104.126 90.4846 104.184 90.3954 104.243C89.7834 104.656 89.1798 105.08 88.5781 105.507C88.4008 105.632 88.2222 105.756 88.0433 105.879C87.2192 106.461 86.5691 107.143 85.9076 107.894C85.835 107.975 85.7624 108.056 85.6875 108.14C85.4284 108.43 85.1773 108.723 84.9337 109.026C84.6644 109.332 84.379 109.584 84.0679 109.846C83.7531 110.122 83.4621 110.418 83.1698 110.717C82.8914 110.986 82.6015 111.238 82.3081 111.49C81.2542 112.401 80.3123 113.302 79.5096 114.441C79.3379 114.669 79.1628 114.894 78.9872 115.119C78.9222 115.202 78.9222 115.202 78.8559 115.287C78.73 115.449 78.6039 115.61 78.4777 115.771C78.404 115.865 78.3303 115.96 78.2543 116.057C77.6036 116.879 76.9067 117.538 76.0861 118.193C75.8093 118.419 75.5432 118.651 75.2786 118.891C74.8431 119.284 74.3948 119.656 73.9359 120.022C73.7373 120.183 73.541 120.346 73.3476 120.513C72.6226 121.136 71.8787 121.623 71.0348 122.081C70.9084 122.151 70.782 122.221 70.6557 122.291C70.3971 122.435 70.1382 122.578 69.8791 122.721C69.2949 123.044 68.7173 123.378 68.1389 123.711C67.2234 124.236 66.3058 124.756 65.3849 125.271C65.2757 125.333 65.1664 125.394 65.0539 125.458C64.9527 125.514 64.8515 125.57 64.7472 125.628C64.6584 125.678 64.5695 125.728 64.478 125.779C64.2528 125.89 64.0734 125.97 63.8241 126C63.5775 125.865 63.3616 125.727 63.134 125.565C62.9943 125.469 62.8546 125.374 62.7148 125.278C62.6424 125.228 62.57 125.178 62.4955 125.127C62.1456 124.888 61.7886 124.661 61.4313 124.434C61.2836 124.339 61.1359 124.245 60.9883 124.15C60.9127 124.102 60.8371 124.054 60.7592 124.004C60.3355 123.732 59.9128 123.46 59.4899 123.187C58.1445 122.32 56.7976 121.455 55.446 120.598C55.3372 120.529 55.2283 120.46 55.1161 120.388C54.5689 120.041 54.0211 119.695 53.472 119.351C53.3689 119.287 53.2658 119.222 53.1595 119.155C52.9649 119.033 52.77 118.912 52.5751 118.79C51.8838 118.357 51.3495 117.976 50.8797 117.299C50.7891 117.17 50.6984 117.041 50.6076 116.913C50.5349 116.81 50.5349 116.81 50.4607 116.704C50.123 116.231 49.7729 115.766 49.4241 115.3C49.1097 114.88 48.7987 114.458 48.4945 114.03C47.7736 113.024 47.0369 112.158 46.0747 111.372C45.928 111.252 45.928 111.252 45.7784 111.129C45.5916 110.978 45.4042 110.828 45.2161 110.678C44.8267 110.359 44.4587 110.019 44.0874 109.681C43.8147 109.438 43.5354 109.209 43.2498 108.981C42.6887 108.533 42.1633 108.052 41.6366 107.565C41.3977 107.344 41.1556 107.128 40.9086 106.916C39.8069 105.965 38.7702 104.959 37.7442 103.929C37.2584 103.443 36.7683 102.97 36.2434 102.525C35.9809 102.298 35.7406 102.055 35.4973 101.808C35.1102 101.419 34.7124 101.049 34.2928 100.694C34.038 100.472 33.8031 100.232 33.5652 99.992C33.375 99.8068 33.1777 99.6341 32.9755 99.4618C32.327 98.9058 31.7438 98.3025 31.1853 97.6585C31.0125 97.4653 30.833 97.2836 30.6472 97.1027C30.4066 96.8684 30.1818 96.6286 29.9635 96.3739C29.1078 95.3971 28.1808 94.5381 27.1446 93.7539C26.7572 93.4594 26.3859 93.1481 26.0163 92.832C25.96 92.7838 25.9036 92.7356 25.8455 92.686C25.7332 92.5896 25.6213 92.4927 25.5099 92.3953C25.3871 92.2904 25.2615 92.1886 25.1339 92.0894C24.5157 91.5946 24.1376 91.0132 23.7267 90.3451C23.6178 90.1744 23.5088 90.0037 23.3996 89.8331C23.0859 89.3423 22.7818 88.8466 22.4848 88.3456C21.6436 86.9724 20.7902 86.2787 19.3172 85.6195C18.5182 85.2567 17.8374 84.9339 17.3287 84.2076C17.2824 84.1456 17.2361 84.0835 17.1884 84.0196C17.0932 83.8919 16.9987 83.7635 16.905 83.6346C16.6917 83.3431 16.468 83.0599 16.2452 82.7755C16.16 82.6657 16.075 82.5558 15.99 82.4459C15.8195 82.2254 15.6489 82.0051 15.4781 81.785C15.4142 81.7026 15.4142 81.7026 15.3491 81.6185C15.2627 81.5075 15.176 81.3967 15.0891 81.2861C14.8743 81.0122 14.6693 80.7375 14.4711 80.4512C13.8982 79.6333 13.2428 79.0982 12.406 78.5516C12.3298 78.5013 12.2536 78.451 12.1751 78.3992C11.9925 78.2792 11.8085 78.1612 11.6237 78.0445C10.3051 77.1694 9.19039 76.0531 8.06702 74.9502C7.98563 74.8706 7.98563 74.8706 7.90259 74.7893C6.22236 73.1427 4.89596 71.5658 4.01247 69.3673C3.79631 68.8522 3.52313 68.3749 3.2427 67.8921C2.81012 67.1252 2.40147 66.3498 2.0148 65.5592C1.89362 65.3128 1.77013 65.0675 1.64681 64.8222C1.55951 64.6458 1.47231 64.4693 1.3852 64.2928C1.34322 64.2098 1.30123 64.1269 1.25797 64.0414C1.22001 63.9635 1.18205 63.8856 1.14294 63.8053C1.10874 63.7364 1.07455 63.6675 1.03931 63.5966C0.943105 63.28 1.03596 63.0786 1.18289 62.7916C1.22438 62.723 1.26587 62.6544 1.30861 62.5838C1.35618 62.5049 1.40374 62.426 1.45275 62.3448C1.53105 62.2172 1.53105 62.2172 1.61094 62.0871C1.69274 61.9528 1.69274 61.9528 1.77619 61.8158C2.26661 61.0172 2.78108 60.235 3.29966 59.4542C3.70093 58.8488 4.09057 58.2384 4.46813 57.6182C5.26377 56.3149 6.13074 55.0723 7.03508 53.8411C7.42317 53.3119 7.80263 52.7768 8.17964 52.2398C8.32315 52.0367 8.46879 51.8353 8.61524 51.6342C8.69684 51.5197 8.69684 51.5197 8.78008 51.403C9.20449 50.8306 9.65986 50.4321 10.247 50.0295C10.421 49.9064 10.5949 49.7831 10.7686 49.6595C10.8565 49.5973 10.9444 49.5351 11.035 49.471C11.5358 49.1106 12.0204 48.7297 12.5068 48.3506C12.8331 48.0968 13.1588 47.8441 13.4964 47.6053C14.6576 46.7805 15.6427 45.7591 16.5612 44.6784C16.6959 44.5222 16.8314 44.3667 16.9675 44.2117C17.028 44.1419 17.0886 44.0722 17.1509 44.0003C17.4173 43.7264 17.7013 43.4817 17.9916 43.2332C18.3492 42.923 18.6929 42.5984 19.0378 42.2745C19.5145 41.827 19.9965 41.3888 20.4922 40.9621C20.7868 40.7063 21.0733 40.4422 21.3597 40.1776C21.7812 39.7899 22.2063 39.4082 22.6412 39.0352C22.9731 38.7456 23.2977 38.4481 23.6231 38.1514C23.9549 37.849 24.2881 37.5483 24.6232 37.2495C24.7068 37.1749 24.7903 37.1002 24.8764 37.0233C25.0419 36.8767 25.2085 36.7312 25.3762 36.587C25.92 36.1149 26.4144 35.617 26.8988 35.0866C27.3198 34.6277 27.7579 34.1885 28.2028 33.7524C28.647 33.3165 29.0778 32.8795 29.481 32.4054C29.7377 32.1201 30.0118 31.8537 30.286 31.5851C30.6876 31.1913 31.0752 30.794 31.4401 30.366C31.5809 30.2061 31.7273 30.051 31.8762 29.8985C32.6033 29.1487 33.1824 28.3417 33.7652 27.4783C34.0887 27.0003 34.427 26.5349 34.775 26.0742C34.8245 26.0079 34.874 25.9417 34.9251 25.8735C35.3905 25.2613 35.9071 24.7767 36.5357 24.3288C36.6017 24.2813 36.6678 24.2338 36.7358 24.1848C37.2157 23.841 37.6994 23.5024 38.1843 23.1655C38.363 23.0412 38.5413 22.9163 38.7192 22.7908C39.4487 22.2792 39.4487 22.2792 39.8492 22.0744C40.9604 21.4646 41.3796 20.4303 41.9272 19.3357C42.375 18.4496 42.796 17.7574 43.6238 17.1876C43.7306 17.1112 43.7306 17.1112 43.8395 17.0332C43.9905 16.9253 44.142 16.8181 44.294 16.7115C44.6051 16.4934 44.9136 16.2719 45.2223 16.0505C45.3778 15.9391 45.5333 15.8279 45.689 15.7168C46.223 15.3357 46.7536 14.9503 47.2808 14.56C47.3463 14.5117 47.4118 14.4635 47.4793 14.4137C48.1154 13.9407 48.7139 13.4684 49.2092 12.8466C49.2877 12.7493 49.3662 12.652 49.4471 12.5517C49.5261 12.4528 49.6051 12.3539 49.6865 12.252C49.8408 12.062 49.9956 11.8723 50.1509 11.6831C50.2179 11.6006 50.285 11.5182 50.354 11.4333C51.0751 10.5873 51.8425 9.79185 52.634 9.01069C52.7262 8.91885 52.8185 8.82701 52.9135 8.73238C53.3716 8.27899 53.8346 7.84134 54.3282 7.42637C54.5692 7.21059 54.7852 6.97738 55.007 6.7423C55.6344 6.11502 56.3544 5.70963 57.1229 5.27706C57.2702 5.19255 57.4175 5.10787 57.5646 5.02303C57.8603 4.85258 58.1565 4.68282 58.4529 4.51352C59.04 4.17725 59.6195 3.82879 60.1994 3.48056C61.2201 2.87064 62.2498 2.27725 63.2839 1.68997C63.3906 1.62934 63.4973 1.56872 63.6072 1.50626C63.7488 1.4261 63.7488 1.4261 63.8932 1.34431C64.0803 1.23561 64.2628 1.11924 64.4433 1ZM63.3049 9.46381C63.2355 9.50491 63.1661 9.54601 63.0946 9.58835C62.9475 9.6759 62.8007 9.76417 62.6544 9.85309C62.4354 9.98615 62.2153 10.1172 61.9948 10.2478C61.6356 10.4617 61.2795 10.6801 60.9251 10.9017C60.7466 11.0131 60.5669 11.1228 60.3871 11.2323C59.4057 11.8617 58.6101 12.6596 57.7934 13.4824C57.5551 13.7224 57.3152 13.9607 57.075 14.1988C56.2857 14.9849 55.5338 15.7747 54.8462 16.6506C54.6067 16.9378 54.3632 17.2217 54.1189 17.5048C53.9205 17.7347 53.7236 17.9643 53.5365 18.2033C52.9365 18.9518 52.1139 19.4727 51.3376 20.0262C51.1799 20.139 51.0221 20.2518 50.8644 20.3646C50.7859 20.4207 50.7074 20.4767 50.6266 20.5345C50.3163 20.7562 50.0063 20.9783 49.6966 21.2008C49.5573 21.3007 49.4177 21.4001 49.2777 21.4991C49.0947 21.6289 48.9132 21.7607 48.732 21.893C48.6314 21.9653 48.5308 22.0375 48.4272 22.112C47.7771 22.7132 47.4234 23.48 47.0407 24.2638C46.3996 25.5495 45.8132 26.3408 44.5593 27.0465C44.1177 27.3054 43.7057 27.6073 43.2885 27.9026C42.7906 28.2517 42.2925 28.5981 41.7793 28.9247C40.6836 29.6325 39.9881 30.4114 39.2639 31.4828C39.0526 31.7865 38.8392 32.0887 38.6254 32.3906C38.5738 32.4639 38.5223 32.5372 38.4692 32.6127C38.0532 33.1982 37.5934 33.7247 37.0968 34.2447C36.9758 34.3827 36.8554 34.5212 36.7356 34.6602C36.3985 35.0447 36.0363 35.3999 35.6706 35.7575C35.4702 35.959 35.2826 36.1648 35.0974 36.38C34.7163 36.8211 34.3005 37.2245 33.8817 37.6299C33.6626 37.8465 33.4593 38.0725 33.2579 38.3053C32.8813 38.7335 32.4851 39.1377 32.0794 39.5387C31.9705 39.6468 31.9705 39.6468 31.8594 39.757C31.707 39.9082 31.5544 40.0592 31.4018 40.2101C31.1702 40.4391 30.9392 40.6686 30.7083 40.8982C30.5591 41.046 30.4099 41.1938 30.2606 41.3415C30.1926 41.4091 30.1247 41.4767 30.0547 41.5463C29.6563 41.9392 29.247 42.3139 28.8211 42.6773C28.5289 42.9282 28.2469 43.1897 27.9641 43.4509C27.5426 43.8386 27.1175 44.2203 26.6827 44.5933C26.3507 44.8828 26.0262 45.1804 25.7007 45.4771C25.1207 46.0058 24.5342 46.5272 23.9476 47.0487C23.7772 47.2004 23.6069 47.3524 23.4369 47.5046C23.247 47.6744 23.0564 47.8435 22.8653 48.0121C22.1809 48.6198 21.5513 49.2589 20.9391 49.9377C20.6776 50.2263 20.4124 50.5114 20.1472 50.7967C20.0986 50.8494 20.0499 50.902 19.9998 50.9563C19.8523 51.1152 19.7035 51.2727 19.5538 51.4296C19.4991 51.4874 19.4444 51.5452 19.3881 51.6048C18.9374 52.0678 18.4496 52.4439 17.9221 52.8169C17.009 53.4729 16.1141 54.1491 15.2299 54.8429C15.0804 54.9581 14.9288 55.0706 14.7756 55.181C14.218 55.5884 13.8267 56.0091 13.4396 56.5762C13.3242 56.74 13.2088 56.9038 13.0933 57.0676C13.0354 57.1507 12.9775 57.2337 12.9178 57.3193C12.7493 57.5582 12.577 57.7936 12.4024 58.0282C11.6606 59.0251 10.9782 60.0475 10.3213 61.101C10.1548 61.3652 9.98486 61.627 9.81407 61.8885C9.75701 61.9763 9.69995 62.0642 9.64116 62.1547C9.53174 62.3229 9.42177 62.4908 9.31117 62.6583C9.26203 62.7343 9.21288 62.8103 9.16225 62.8886C9.11879 62.955 9.07534 63.0214 9.03056 63.0898C8.89792 63.3477 8.83606 63.5148 8.82163 63.8069C8.93233 64.0847 9.04765 64.3315 9.18885 64.5932C9.22827 64.6688 9.26769 64.7444 9.3083 64.8223C9.39222 64.9826 9.47684 65.1425 9.5621 65.302C9.68999 65.5414 9.8158 65.7818 9.94124 66.0225C10.1813 66.4806 10.429 66.9343 10.6791 67.3871C10.7433 67.5055 10.8075 67.6238 10.8736 67.7458C11.3843 68.6328 12.0403 69.32 12.7719 70.0284C12.9681 70.2187 13.1621 70.4111 13.3559 70.6039C14.3819 71.6156 15.4748 72.4816 16.6773 73.2816C16.8179 73.3773 16.9584 73.4731 17.0989 73.5689C17.3315 73.7264 17.5649 73.8781 17.8035 74.0268C18.6375 74.5688 19.1484 75.2861 19.7158 76.0818C19.9337 76.3839 20.1623 76.6773 20.3923 76.9705C20.5164 77.1297 20.5164 77.1297 20.643 77.2921C20.6842 77.345 20.7254 77.3978 20.7679 77.4522C20.9015 77.6241 21.0343 77.7965 21.167 77.969C21.2122 78.0277 21.2575 78.0863 21.304 78.1468C21.4286 78.3084 21.553 78.4702 21.6774 78.6319C21.7598 78.7356 21.8423 78.8392 21.9273 78.946C21.9711 79.0026 22.0149 79.0592 22.06 79.1176C22.4299 79.5744 22.7935 79.8464 23.3184 80.1088C23.3901 80.1461 23.4618 80.1834 23.5356 80.2219C23.762 80.3394 23.9894 80.4546 24.2169 80.5699C24.3706 80.6494 24.5243 80.729 24.6778 80.8088C25.4007 81.1955 25.4007 81.1955 26.1582 81.5033C26.2313 81.672 26.2992 81.8429 26.3646 82.0147C26.5034 82.2377 26.6445 82.4547 26.7927 82.6712C26.856 82.7649 26.856 82.7649 26.9206 82.8605C27.0573 83.0626 27.1946 83.2643 27.3321 83.466C27.4736 83.6745 27.6151 83.8831 27.7566 84.0917C27.8501 84.2297 27.9438 84.3676 28.0375 84.5055C28.2988 84.8904 28.5571 85.277 28.8115 85.6664C29.5858 86.8508 30.4009 87.6903 31.5243 88.5614C32.8624 89.624 34.1276 90.7429 35.2535 92.0273C35.5719 92.386 35.9018 92.7338 36.2326 93.0814C36.304 93.1564 36.3754 93.2315 36.449 93.3089C37.2929 94.1924 38.1391 95.0762 39.0756 95.8644C39.3501 96.1039 39.6034 96.3626 39.8573 96.6232C40.0553 96.814 40.2574 96.9917 40.4668 97.1698C41.0574 97.6783 41.5981 98.2354 42.1465 98.7877C42.5856 99.2272 43.0314 99.6475 43.5049 100.05C43.8384 100.343 44.1452 100.661 44.4558 100.977C44.9821 101.506 45.5189 101.995 46.1082 102.455C46.4184 102.705 46.7114 102.97 47.0035 103.24C47.3887 103.596 47.7799 103.936 48.1902 104.263C48.6565 104.635 49.0962 105.027 49.534 105.431C49.8653 105.735 50.2052 106.022 50.5572 106.303C51.6886 107.212 52.6544 108.148 53.5047 109.327C53.6096 109.471 53.7145 109.615 53.8195 109.759C53.9884 109.991 54.1572 110.223 54.3258 110.455C54.7323 111.015 55.1434 111.57 55.5621 112.12C55.6157 112.192 55.6693 112.263 55.7245 112.337C56.3089 113.099 57.0085 113.561 57.8195 114.064C58.0235 114.191 58.2275 114.319 58.4314 114.447C58.5904 114.546 58.5904 114.546 58.7526 114.647C59.29 114.983 59.8253 115.323 60.3606 115.662C60.4672 115.729 60.5738 115.797 60.6836 115.866C61.2362 116.215 61.7839 116.57 62.3262 116.935C62.4337 117.007 62.5413 117.079 62.6521 117.153C62.8569 117.29 63.0607 117.428 63.2634 117.568C63.77 117.916 63.77 117.916 64.3582 118.038C64.7344 117.884 65.0785 117.696 65.4236 117.484C65.5786 117.391 65.7337 117.298 65.8888 117.205C65.9714 117.155 66.0541 117.105 66.1392 117.053C66.4184 116.887 66.7005 116.728 66.9836 116.568C67.9214 116.038 68.7955 115.535 69.5671 114.78C69.8168 114.536 70.0775 114.32 70.3511 114.102C70.821 113.725 71.2848 113.341 71.7442 112.951C71.8076 112.898 71.871 112.845 71.9362 112.791C72.7338 112.11 73.3538 111.307 73.9758 110.471C74.2377 110.123 74.5002 109.776 74.7627 109.429C74.8071 109.37 74.8516 109.311 74.8974 109.25C75.5501 108.39 76.3363 107.679 77.1355 106.957C77.3307 106.78 77.5247 106.602 77.7182 106.424C78.1843 105.994 78.6507 105.567 79.1355 105.158C79.4733 104.869 79.7598 104.553 80.0481 104.216C80.2386 104 80.4385 103.799 80.6447 103.598C80.907 103.342 81.1582 103.082 81.3993 102.805C81.4596 102.737 81.5199 102.669 81.582 102.599C81.7226 102.437 81.8596 102.271 81.9939 102.104C82.8432 101.101 83.9043 100.426 84.9957 99.7019C85.4892 99.3725 85.9746 99.0318 86.4586 98.6889C86.7554 98.4788 87.0514 98.2736 87.3592 98.0793C88.1904 97.5401 88.6907 96.8294 89.2584 96.0392C89.5128 95.6923 89.783 95.3585 90.0548 95.0249C90.1067 94.961 90.1586 94.8971 90.2122 94.8313C90.3129 94.7076 90.4139 94.584 90.5149 94.4605C90.6408 94.3065 90.7662 94.1521 90.8916 93.9976C91.3844 93.3941 91.8924 92.8047 92.4078 92.2202C92.6902 91.8999 92.9698 91.5782 93.2425 91.2497C93.902 90.4591 94.5782 89.8036 95.4015 89.1751C95.5088 89.0924 95.6162 89.0098 95.7268 88.9246C95.9496 88.7537 96.1732 88.5837 96.3972 88.4143C96.7549 88.1436 97.1107 87.8706 97.4654 87.596C97.625 87.4728 97.625 87.4728 97.7879 87.3471C97.9215 87.2407 98.0547 87.134 98.1877 87.027C98.2794 86.9539 98.371 86.8809 98.4654 86.8056C99.4227 86.0297 100.295 85.1739 101.167 84.3054C101.413 84.0602 101.66 83.8162 101.908 83.5723C102.637 82.8493 103.35 82.1309 103.988 81.326C104.259 80.9862 104.556 80.6728 104.857 80.3589C104.972 80.2368 105.088 80.1147 105.204 79.9925C105.258 79.9354 105.312 79.8784 105.367 79.8196C105.552 79.6218 105.731 79.4191 105.908 79.2145C106.201 78.8772 106.514 78.5647 106.837 78.2555C107.027 78.0611 107.205 77.8629 107.383 77.6574C107.847 77.1288 108.343 76.6346 108.843 76.1394C108.933 76.0483 109.024 75.9573 109.117 75.8635C109.741 75.2433 110.395 74.6831 111.087 74.1383C111.236 74.0174 111.386 73.8962 111.534 73.7747C111.603 73.7188 111.672 73.663 111.742 73.6055C111.964 73.4247 112.185 73.2433 112.406 73.0618C112.672 72.8431 112.941 72.6272 113.212 72.4145C113.988 71.7992 114.583 71.1271 115.174 70.3377C115.372 70.0785 115.578 69.8269 115.785 69.575C116.045 69.2574 116.301 68.936 116.556 68.6146C116.639 68.512 116.721 68.4094 116.806 68.3037C117.768 67.0418 118.492 65.61 119.239 64.216C119.283 64.1501 119.326 64.0842 119.371 64.0163C119.584 63.422 119.233 62.7442 119.012 62.1886C118.979 62.1045 118.946 62.0205 118.912 61.9339C118.842 61.7572 118.772 61.5806 118.702 61.4042C118.595 61.1352 118.49 60.8654 118.385 60.5955C118.317 60.4232 118.249 60.251 118.18 60.0788C118.149 59.9987 118.118 59.9186 118.086 59.836C117.891 59.3538 117.683 59.0399 117.279 58.6923C117.203 58.626 117.127 58.5597 117.049 58.4913C116.6 58.1255 116.147 57.7719 115.677 57.4332C115.594 57.373 115.51 57.3128 115.424 57.2508C115.26 57.1335 115.096 57.0168 114.931 56.901C113.771 56.0714 112.765 55.0554 111.756 54.055C111.583 53.8842 111.41 53.7142 111.236 53.5442C110.632 52.9484 110.066 52.3419 109.534 51.68C109.259 51.3374 108.967 51.01 108.675 50.6816C108.233 50.1816 107.808 49.6728 107.398 49.1472C106.589 48.1202 105.783 47.3007 104.697 46.5641C104.29 46.2851 103.889 45.9967 103.489 45.7077C103.373 45.6254 103.373 45.6254 103.255 45.5414C101.933 44.586 100.806 43.3977 99.6583 42.249C99.3796 41.97 99.1006 41.6914 98.8214 41.4131C98.7596 41.3509 98.6978 41.2888 98.6341 41.2248C98.2521 40.844 97.8571 40.4844 97.4467 40.1341C97.1585 39.8868 96.88 39.6295 96.6011 39.372C96.16 38.9648 96.16 38.9648 95.7113 38.5658C94.8605 37.8216 94.0552 37.0317 93.2501 36.2395C93.0817 36.0743 92.9127 35.9096 92.7432 35.7455C91.668 34.7043 90.7142 33.6494 89.8725 32.4133C89.614 32.0355 89.3468 31.6637 89.0809 31.291C88.9791 31.148 88.8774 31.0049 88.7757 30.8619C88.045 29.8395 87.2844 28.9361 86.3591 28.0816C86.2955 28.0229 86.232 27.9641 86.1665 27.9036C85.7963 27.5645 85.4192 27.2415 85.024 26.9309C84.1394 26.2275 83.3393 25.4131 82.6058 24.5566C82.3043 24.2152 81.99 23.886 81.6767 23.5552C81.2962 23.1534 80.9169 22.7522 80.5544 22.3341C80.0217 21.7227 79.4389 21.171 78.8215 20.6447C78.4567 20.3273 78.1021 19.999 77.747 19.6709C77.4569 19.4037 77.1633 19.143 76.862 18.8882C76.2122 18.3273 75.6172 17.7079 75.0122 17.1004C74.4503 16.5368 73.8885 15.9813 73.2796 15.4668C73.0564 15.2728 72.8598 15.0586 72.6601 14.8413C72.0072 14.1862 71.2371 13.7184 70.4588 13.2227C70.0957 12.989 69.7396 12.7457 69.3837 12.5014C69.247 12.4079 69.1104 12.3144 68.9737 12.2209C68.9068 12.175 68.8399 12.1292 68.7709 12.0819C68.5757 11.9483 68.3801 11.8152 68.1845 11.6823C68.0876 11.6164 68.0876 11.6164 67.9887 11.5492C67.8566 11.4594 67.7245 11.3697 67.5923 11.2801C67.1609 10.9868 66.7329 10.6891 66.3064 10.3888C66.1999 10.3143 66.0934 10.2397 65.9837 10.1629C65.7726 10.015 65.5619 9.86641 65.3518 9.71706C65.2549 9.64931 65.1579 9.58156 65.058 9.51176C64.9718 9.45089 64.8855 9.39002 64.7967 9.3273C64.1917 8.97918 63.8734 9.11456 63.3049 9.46381Z" fill="#C3C1CC"/>
<path d="M67.4362 32.9149C67.6991 32.9145 67.9619 32.9142 68.2247 32.914C68.2985 32.9138 68.3723 32.9137 68.4483 32.9136C69.0404 32.9132 69.6309 32.9273 70.2225 32.9525C70.3219 32.9566 70.4214 32.9606 70.5238 32.9648C70.7319 32.9734 70.94 32.9822 71.148 32.9911C71.4575 33.0043 71.7669 33.0166 72.0763 33.0288C72.5939 33.0497 73.1109 33.0768 73.628 33.1051C73.933 33.1193 74.2373 33.1259 74.5425 33.1315C76.3001 33.1883 77.7174 33.773 79.3036 34.4877C79.5536 34.597 79.8038 34.7059 80.0541 34.8145C81.9406 35.6374 83.3134 36.3163 84.5781 37.9568C84.8705 38.334 85.1801 38.6939 85.4952 39.0524C85.9064 39.5211 86.2998 39.9987 86.6819 40.4909C87.1588 41.1033 87.6731 41.6711 88.2077 42.2342C88.4908 42.5335 88.764 42.8392 89.0348 43.1493C89.4792 43.6546 89.9358 44.1495 90.3901 44.6461C90.4711 44.7348 90.5521 44.8236 90.6356 44.915C90.7086 44.9948 90.7816 45.0745 90.8569 45.1567C90.9264 45.2352 90.996 45.3137 91.0677 45.3945C91.136 45.4676 91.2044 45.5406 91.2748 45.6159C91.5201 45.9618 91.6012 46.2853 91.6796 46.6927C91.6956 46.7706 91.7117 46.8485 91.7282 46.9288C91.7806 47.1864 91.8305 47.4444 91.8803 47.7024C91.9167 47.8837 91.953 48.065 91.9894 48.2463C92.1828 49.2312 92.3425 50.2158 92.4644 51.2119C92.4769 51.3117 92.4894 51.4114 92.5022 51.5142C92.5618 51.9963 92.6171 52.4782 92.6653 52.9615C92.7945 54.1287 93.0954 54.9779 93.7416 55.9614C93.8998 56.2059 94.0393 56.4594 94.1792 56.7145C94.808 57.8287 95.4804 58.8747 96.2588 59.891C96.3919 60.0657 96.5225 60.2419 96.6531 60.4185C96.73 60.5195 96.8068 60.6205 96.8861 60.7246C97.1975 61.3226 97.0482 62.0154 96.951 62.6625C96.935 62.7735 96.935 62.7735 96.9188 62.8867C96.8845 63.1253 96.8494 63.3638 96.8143 63.6023C96.7663 63.9341 96.7187 64.2659 96.6712 64.5977C96.6595 64.6794 96.6477 64.7612 96.6356 64.8454C96.5375 65.5318 96.4516 66.2193 96.3693 66.9076C96.2759 67.6784 96.1529 68.4306 95.9888 69.19C95.9154 69.5471 95.8593 69.9033 95.8082 70.2641C95.7911 70.381 95.7741 70.498 95.7566 70.6185C95.7267 70.8493 95.7029 71.0809 95.6856 71.313C95.5949 72.2655 95.2161 72.7312 94.5763 73.4223C94.4554 73.5925 94.335 73.763 94.2151 73.9338C93.6245 74.6641 92.795 75.0947 91.9964 75.5704C90.8065 76.2837 89.6526 76.9922 88.5781 77.869C88.1849 78.1868 87.7846 78.4957 87.3849 78.8054C87.3045 78.8685 87.2241 78.9316 87.1412 78.9966C87.0659 79.0551 86.9905 79.1135 86.9129 79.1738C86.8459 79.2261 86.7789 79.2784 86.7099 79.3323C86.5271 79.4575 86.5271 79.4575 86.2176 79.5598C86.1435 79.7281 86.076 79.8992 86.0112 80.0712C85.8684 80.3186 85.7231 80.5621 85.573 80.8049C85.4857 80.9482 85.3984 81.0915 85.3112 81.2348C85.1746 81.4583 85.0377 81.6817 84.9002 81.9047C84.1994 83.0302 84.1994 83.0302 83.7409 84.2652C83.6798 84.4593 83.6179 84.6532 83.5555 84.847C83.4882 85.0622 83.421 85.2774 83.3539 85.4927C83.2998 85.6645 83.2998 85.6645 83.2445 85.8398C83.0573 86.4398 82.8826 87.0396 82.7299 87.6492C82.6854 87.8226 82.6854 87.8226 82.6399 87.9994C82.584 88.2199 82.5308 88.441 82.4805 88.6627C82.4548 88.7629 82.4291 88.863 82.4026 88.9662C82.3716 89.0975 82.3716 89.0975 82.3399 89.2314C81.9733 89.8567 81.0768 90.1528 80.4435 90.465C80.3162 90.5283 80.3162 90.5283 80.1863 90.5928C80.0084 90.681 79.8305 90.769 79.6524 90.8568C79.38 90.9913 79.1079 91.1267 78.836 91.2622C78.6624 91.3481 78.4888 91.434 78.3151 91.5199C78.1936 91.5805 78.1936 91.5805 78.0695 91.6422C77.9937 91.6795 77.9179 91.7168 77.8398 91.7551C77.7404 91.8043 77.7404 91.8043 77.639 91.8544C77.4393 91.9399 77.2454 91.9929 77.0333 92.0393C76.5889 90.6833 76.1672 89.325 75.795 87.9477C75.0578 88.0214 74.3674 88.1937 73.6533 88.3846C73.186 88.5055 72.7742 88.5923 72.2864 88.5614C72.2649 88.662 72.2435 88.7626 72.2215 88.8663C71.6736 91.3524 70.6724 93.6803 69.7065 96.0287C69.541 96.0316 69.3754 96.0335 69.2099 96.0351C69.0716 96.0369 69.0716 96.0369 68.9305 96.0387C68.6113 96.0298 68.2992 96.0064 67.9814 95.9769C67.8792 95.9675 67.7771 95.9581 67.6719 95.9484C67.5941 95.9412 67.5164 95.9339 67.4362 95.9264C67.4145 93.9631 67.3982 91.9999 67.3881 90.0365C67.3833 89.1249 67.3768 88.2133 67.3662 87.3017C67.3569 86.5071 67.3509 85.7126 67.3488 84.918C67.3476 84.4972 67.3448 84.0766 67.338 83.6559C67.3317 83.2597 67.3298 82.8637 67.3312 82.4675C67.3309 82.3223 67.3291 82.177 67.3255 82.0318C67.3155 81.6019 67.3177 81.2025 67.4362 80.7873C67.6573 80.5616 67.8544 80.4364 68.1409 80.3033C68.5699 80.0549 68.6628 79.5834 68.806 79.1354C68.8406 79.0361 68.8752 78.9367 68.9108 78.8343C69.02 78.5187 69.1247 78.2019 69.2292 77.8848C69.3016 77.6726 69.3743 77.4606 69.4473 77.2486C69.6111 76.7721 69.7716 76.2946 69.9303 75.8164C70.0125 75.5807 70.1048 75.3512 70.1997 75.1203C70.3255 74.7526 70.3386 74.6854 70.2225 74.3429C70.1494 74.1969 70.0709 74.0534 69.9887 73.9122C69.9156 73.786 69.9156 73.786 69.8411 73.6572C69.7882 73.567 69.7352 73.4769 69.6807 73.384C69.6263 73.2905 69.5719 73.197 69.5159 73.1007C68.5127 71.3468 68.5127 71.3468 67.4362 69.6375C67.4106 69.364 67.4106 69.364 67.4108 69.0263C67.4102 68.8335 67.4102 68.8335 67.4096 68.6368C67.4102 68.4934 67.4108 68.3499 67.4114 68.2065C67.4113 68.0548 67.4111 67.903 67.4109 67.7513C67.4104 67.3333 67.4112 66.9153 67.4123 66.4973C67.4132 66.0469 67.4129 65.5965 67.4127 65.1462C67.4126 64.3655 67.4133 63.5849 67.4144 62.8042C67.4161 61.6755 67.4166 60.5468 67.4169 59.4181C67.4173 57.587 67.4187 55.7559 67.4207 53.9248C67.4226 52.1458 67.424 50.3667 67.4249 48.5877C67.4249 48.4781 67.425 48.3685 67.4251 48.2555C67.4253 47.7057 67.4256 47.1558 67.4258 46.6059C67.428 42.0423 67.4316 37.4786 67.4362 32.9149Z" fill="#383257"/>
<path d="M60.315 20.4346C61.1323 20.4346 61.9496 20.4346 62.7916 20.4346C62.7967 26.2486 62.794 32.0626 62.7734 37.8766C62.7727 38.0869 62.7719 38.2972 62.7712 38.5076C62.7654 40.137 62.7595 41.7664 62.7534 43.3958C62.7413 46.6582 62.7298 49.9206 62.7188 53.183C62.7179 53.4552 62.7169 53.7273 62.716 53.9994C62.6941 60.4775 62.6783 66.9557 62.6646 73.4339C62.662 74.6868 62.6593 75.9397 62.6566 77.1925C62.6541 78.3157 62.6517 79.4388 62.6493 80.5619C62.649 80.6852 62.6488 80.8085 62.6485 80.9355C62.6421 83.9109 62.6361 86.8863 62.6306 89.8616C62.6269 91.8643 62.6228 93.867 62.6184 95.8697C62.6158 97.0749 62.6135 98.2801 62.6116 99.4852C62.6103 100.295 62.6087 101.106 62.6067 101.916C62.6056 102.38 62.6046 102.845 62.6041 103.309C62.6037 103.731 62.6028 104.154 62.6015 104.576C62.6011 104.729 62.6009 104.882 62.6008 105.035C62.6008 105.242 62.6 105.448 62.5993 105.654C62.599 105.769 62.5988 105.884 62.5986 106.002C62.5852 106.257 62.5852 106.257 62.482 106.359C62.336 106.368 62.1894 106.37 62.0431 106.369C61.9549 106.369 61.8668 106.369 61.776 106.368C61.6834 106.367 61.5907 106.367 61.4953 106.366C61.4022 106.365 61.3092 106.365 61.2133 106.364C60.9826 106.363 60.752 106.361 60.5214 106.359C60.4271 106.1 60.3328 105.84 60.2385 105.58C60.1548 105.35 60.071 105.119 59.9871 104.889C59.7803 104.32 59.5742 103.752 59.3713 103.181C57.9223 99.1215 56.1905 95.1995 54.2742 91.3359C53.6067 89.9897 52.9697 88.6311 52.3755 87.2514C52.3064 87.092 52.2362 86.933 52.1651 86.7743C51.2969 84.8344 51.2969 84.8344 51.5435 83.8552C51.7257 83.5712 51.944 83.4295 52.2336 83.2606C52.3839 83.1617 52.534 83.0625 52.6838 82.9629C52.7653 82.9106 52.8468 82.8582 52.9308 82.8043C53.4281 82.4714 53.8954 82.0983 54.3684 81.7326C54.5537 81.5898 54.7393 81.4475 54.9255 81.3059C55.0047 81.2451 55.0839 81.1844 55.1655 81.1218C55.3617 80.991 55.3617 80.991 55.568 80.991C55.4744 80.2413 55.2821 79.6013 54.7425 79.0475C53.8248 78.4518 52.6847 78.1573 51.6596 77.7931C50.8696 77.5063 50.162 77.1369 49.4409 76.7076C49.3408 76.648 49.2407 76.5884 49.1376 76.5271C48.7185 76.2739 48.3017 76.0187 47.8923 75.7503C46.9617 75.1527 46.0394 74.816 44.9772 74.5138C42.9379 73.9278 41.1801 73.117 39.4271 71.9219C38.6758 71.4304 37.8773 71.2495 37.0124 71.056C34.0131 70.3643 34.0131 70.3643 33.0911 69.5856C33.0115 69.5229 32.932 69.4602 32.85 69.3956C32.4787 69.1022 32.1226 68.8033 31.7842 68.4731C30.5303 67.3154 28.905 67.245 27.2743 67.0304C26.4845 66.9237 25.8029 66.7989 25.1 66.4209C24.9597 66.3485 24.8195 66.2762 24.6791 66.2039C24.6035 66.1645 24.5279 66.1251 24.45 66.0845C23.9561 65.8301 23.4569 65.5864 22.9587 65.3405C22.6182 65.1717 22.2776 65.0029 21.9268 64.829C21.9268 63.9851 21.9268 63.1412 21.9268 62.2717C22.2153 62.1921 22.5038 62.1124 22.8011 62.0304C25.0975 61.379 27.2177 60.6106 29.3177 59.4758C29.4369 59.4114 29.4369 59.4114 29.5585 59.3457C29.7045 59.2661 29.85 59.1856 29.9948 59.1039C30.63 58.7523 31.2972 58.5294 32.0043 58.3631C32.0865 58.3433 32.1687 58.3235 32.2534 58.3031C32.4173 58.2645 32.5813 58.2258 32.7452 58.1873C34.345 57.8022 35.8767 57.2913 37.4059 56.6905C37.5007 56.6534 37.5955 56.6163 37.6931 56.5781C39.8567 55.7277 41.9388 54.7283 44.0103 53.6793C44.1191 53.6242 44.1191 53.6242 44.23 53.5681C44.9976 53.1792 45.7623 52.785 46.5256 52.3878C46.9004 52.1933 47.2766 52.0015 47.6543 51.8124C47.7561 51.7613 47.8579 51.7101 47.9627 51.6574C48.2413 51.5311 48.2413 51.5311 48.543 51.4666C48.9711 51.2777 49.084 51.0015 49.2639 50.5961C49.3158 50.4859 49.3158 50.4859 49.3686 50.3734C49.4415 50.2173 49.5133 50.0608 49.5842 49.9039C49.6905 49.6685 49.7997 49.4346 49.9095 49.2008C50.4878 47.9585 50.9915 46.7076 51.2919 45.3681C51.3108 45.2875 51.3296 45.2069 51.349 45.1239C51.4462 44.7051 51.5403 44.2862 51.6245 43.8646C51.877 42.6304 52.2641 41.4695 52.7109 40.2919C52.7646 40.1488 52.7646 40.1488 52.8194 40.0029C53.5065 38.1819 54.3467 36.5123 55.3488 34.8419C55.8056 34.0516 56.0424 33.3215 56.2066 32.4282C56.3021 31.9421 56.3991 31.4563 56.4968 30.9706C56.5096 30.9035 56.5223 30.8365 56.5355 30.7674C56.7745 29.5301 57.2228 28.4703 57.7867 27.3456C57.9432 27.0285 58.0988 26.711 58.2543 26.3934C58.3096 26.281 58.3096 26.281 58.366 26.1663C58.7403 25.401 59.0654 24.6449 59.2701 23.8166C59.5661 22.6734 59.9386 21.5538 60.315 20.4346Z" fill="#D29641"/>
<path d="M84.6696 58.3856C84.9039 58.9839 85.1371 59.5827 85.3694 60.1818C85.4485 60.3854 85.5279 60.5889 85.6075 60.7923C85.7222 61.0853 85.8359 61.3787 85.9495 61.6721C85.9851 61.7624 86.0206 61.8527 86.0573 61.9457C86.3327 62.662 86.5315 63.191 86.2299 63.9324C86.1351 64.1396 86.0378 64.3456 85.9386 64.5507C85.8858 64.6607 85.8331 64.7708 85.7787 64.8842C85.6659 65.117 85.5521 65.3492 85.4372 65.5809C85.2653 65.9314 85.1019 66.285 84.9385 66.6394C84.2516 68.0686 83.657 68.8436 82.1644 69.4208C81.6345 69.6368 81.1317 69.9084 80.6229 70.1687C80.4056 70.2771 80.1881 70.3852 79.9705 70.4929C79.5238 70.7143 79.0775 70.9363 78.6314 71.1586C78.4159 71.2656 78.2005 71.3724 77.985 71.4793C77.8849 71.5293 77.7848 71.5792 77.6817 71.6307C77.5889 71.6765 77.4961 71.7224 77.4005 71.7696C77.3193 71.8099 77.2382 71.8502 77.1546 71.8917C76.9368 71.9874 76.7542 72.0649 76.5173 72.0926C76.2979 71.9112 76.1156 71.7371 75.9239 71.53C75.8124 71.4145 75.7008 71.2992 75.5889 71.184C75.5352 71.1282 75.4815 71.0724 75.4261 71.0149C75.2539 70.8397 75.0737 70.6781 74.8855 70.5199C74.4108 70.1188 73.9584 69.6947 73.5041 69.2711C73.184 68.9731 72.8626 68.6773 72.5338 68.3886C72.4767 68.338 72.4195 68.2875 72.3606 68.2354C72.2055 68.0989 72.0496 67.9632 71.8937 67.8276C71.6586 67.5829 71.5927 67.51 71.564 67.1827C71.6731 66.9106 71.6731 66.9106 71.8453 66.5989C71.9086 66.483 71.9719 66.3672 72.0371 66.2478C72.1072 66.1226 72.1774 65.9973 72.2476 65.872C72.319 65.7427 72.3902 65.6133 72.4614 65.4839C72.9566 64.5858 73.4567 63.6896 73.9763 62.8053C74.2497 62.3382 74.5005 61.874 74.7203 61.3796C74.7646 61.2857 74.8089 61.1917 74.8546 61.0949C74.9361 60.9204 75.0122 60.7433 75.0809 60.5635C75.2201 60.2745 75.334 60.1203 75.5885 59.92C76.1339 59.7338 76.6817 59.6428 77.2508 59.5569C77.5629 59.5087 77.8731 59.454 78.1838 59.3976C78.8659 59.2737 79.549 59.1555 80.2323 59.0377C80.5828 58.977 80.9334 58.9161 81.2839 58.8553C81.4997 58.8178 81.7156 58.7805 81.9314 58.7432C82.0303 58.7261 82.1293 58.709 82.2313 58.6914C82.3274 58.6749 82.4236 58.6584 82.5226 58.6414C82.7198 58.6065 82.9167 58.5699 83.1133 58.5318C83.6429 58.43 84.1301 58.3618 84.6696 58.3856Z" fill="#FEFEFE"/>
</svg>
