<svg width="128" height="128" viewBox="0 0 128 128" fill="none" xmlns="http://www.w3.org/2000/svg">
<path d="M64.4993 9.08565C64.6898 9.18835 64.6898 9.18835 64.8747 9.31767C64.9453 9.3665 65.016 9.41532 65.0888 9.46563C65.1648 9.51927 65.2407 9.57291 65.3189 9.62817C65.3997 9.68432 65.4806 9.74047 65.564 9.79832C65.7385 9.9196 65.9128 10.0412 66.0869 10.1632C66.4518 10.4188 66.818 10.6726 67.1841 10.9264C67.3731 11.0574 67.5619 11.1885 67.7507 11.3196C68.4851 11.8296 69.2235 12.3336 69.9651 12.8333C70.133 12.9468 70.3003 13.0611 70.4672 13.176C70.6861 13.325 70.9061 13.4701 71.1285 13.6137C72.3615 14.4262 73.3621 15.4269 74.3894 16.4797C74.642 16.7365 74.8951 16.9928 75.1484 17.249C75.3042 17.4069 75.4597 17.5651 75.6147 17.7238C76.0139 18.1306 76.4223 18.5172 76.8554 18.888C77.0551 19.0592 77.2475 19.2369 77.4383 19.4178C77.5074 19.483 77.5764 19.5481 77.6475 19.6152C77.7874 19.7478 77.9273 19.8803 78.0672 20.0129C78.8684 20.7702 78.8684 20.7702 79.7228 21.466C80.0013 21.7009 80.2252 21.9625 80.4617 22.2386C80.6463 22.4473 80.8388 22.6426 81.0378 22.8375C81.3459 23.1405 81.6325 23.4544 81.9147 23.7812C82.2177 24.1253 82.5309 24.4598 82.8435 24.7952C83.1477 25.1219 83.446 25.4529 83.7412 25.7878C84.3246 26.4351 84.9759 26.9933 85.6556 27.5373C86.9343 28.5816 87.9096 29.6132 88.812 30.9974C89.0509 31.3541 89.3091 31.6951 89.5701 32.0359C89.8984 32.4652 90.2197 32.8971 90.529 33.3402C90.8859 33.8509 91.25 34.3202 91.7086 34.7462C91.8795 34.9112 92.0314 35.0793 92.184 35.2609C92.67 35.8194 93.1979 36.3365 93.723 36.858C93.9 37.034 94.0766 37.2104 94.2531 37.3869C94.7682 37.9006 95.2828 38.4086 95.8379 38.8799C96.1451 39.1428 96.4376 39.4215 96.7323 39.6982C97.1281 40.0696 97.527 40.4362 97.9341 40.7954C98.5612 41.3561 99.1496 41.954 99.7415 42.5509C100.647 43.4693 100.647 43.4693 101.606 44.3322C101.804 44.5068 101.987 44.6924 102.171 44.8818C102.56 45.2742 102.98 45.5957 103.43 45.9158C103.509 45.9738 103.589 46.0318 103.671 46.0916C104.086 46.3926 104.503 46.689 104.923 46.9821C105.884 47.6594 106.655 48.3313 107.362 49.2684C107.492 49.4313 107.623 49.5939 107.754 49.756C107.815 49.8335 107.877 49.9109 107.94 49.9907C108.229 50.3464 108.526 50.6938 108.824 51.0414C109.095 51.359 109.357 51.6816 109.613 52.0114C109.978 52.4708 110.385 52.8772 110.806 53.2832C111.012 53.4898 111.202 53.6959 111.392 53.916C111.8 54.3854 112.234 54.8274 112.673 55.2674C112.811 55.4055 112.947 55.5447 113.084 55.6839C113.711 56.3125 114.372 56.8461 115.093 57.3634C115.242 57.4748 115.39 57.5866 115.538 57.6991C115.604 57.7495 115.67 57.7998 115.739 57.8517C115.948 58.0113 116.156 58.1716 116.365 58.3319C116.596 58.5091 116.827 58.6818 117.064 58.8516C117.148 58.9137 117.233 58.9758 117.32 59.0398C117.39 59.0894 117.46 59.1391 117.532 59.1902C118.198 59.9144 118.498 61.0247 118.853 61.9284C118.947 62.1682 119.044 62.4071 119.141 62.6461C119.201 62.7997 119.262 62.9534 119.322 63.1071C119.366 63.2132 119.366 63.2132 119.41 63.3214C119.575 63.7507 119.63 64.0404 119.497 64.4832C119.383 64.7308 119.383 64.7308 119.24 64.9762C119.188 65.0675 119.135 65.1589 119.081 65.2529C118.996 65.3969 118.996 65.3969 118.91 65.5439C118.793 65.7459 118.676 65.9479 118.558 66.15C118.501 66.2485 118.444 66.3471 118.384 66.4486C118.248 66.6857 118.117 66.9241 117.99 67.1657C117.543 68.0065 117.02 68.7227 116.405 69.4493C116.062 69.8548 115.743 70.2765 115.424 70.7008C114.678 71.6811 113.904 72.5664 112.929 73.3315C112.617 73.5774 112.314 73.8325 112.011 74.09C111.617 74.424 111.22 74.7532 110.818 75.0775C109.57 76.0945 108.371 77.2113 107.33 78.4412C107.122 78.6754 106.901 78.8931 106.677 79.1128C106.33 79.4553 106 79.8043 105.683 80.1742C105.469 80.4203 105.247 80.6592 105.026 80.8989C104.71 81.2439 104.407 81.5941 104.115 81.9595C103.174 83.1146 102.109 84.1622 101.057 85.2146C100.966 85.3051 100.876 85.3956 100.783 85.4888C100.336 85.9332 99.8839 86.3646 99.4047 86.7742C99.1997 86.9498 99.0032 87.1338 98.8057 87.3176C98.31 87.764 97.7842 88.1635 97.2514 88.5643C96.6795 88.9955 96.1207 89.4405 95.567 89.8947C95.2403 90.1623 94.9108 90.4184 94.5671 90.6642C94.0071 91.0942 93.5777 91.6539 93.1297 92.1941C92.9296 92.4337 92.7254 92.6696 92.5209 92.9054C91.4597 94.1301 90.4489 95.3941 89.4615 96.6784C89.379 96.7854 89.2963 96.8921 89.2132 96.9987C89.0339 97.2289 88.859 97.4598 88.6935 97.7001C88.1297 98.4866 87.3589 98.9827 86.5693 99.5227C86.3187 99.6943 86.0696 99.8678 85.8208 100.042C84.4871 100.975 84.4871 100.975 83.9748 101.322C82.9951 101.993 82.1958 102.767 81.4243 103.668C81.1192 104.016 80.8016 104.353 80.4849 104.691C80.2496 104.943 80.0208 105.197 79.8023 105.464C79.608 105.694 79.4213 105.883 79.1907 106.074C78.9308 106.295 78.6835 106.52 78.4445 106.763C78.1472 107.065 77.8331 107.34 77.5117 107.616C77.2661 107.834 77.0379 108.066 76.808 108.3C76.6282 108.475 76.4409 108.637 76.2487 108.799C75.4445 109.496 74.8294 110.337 74.1975 111.185C73.9074 111.574 73.6122 111.959 73.3129 112.34C73.2702 112.395 73.2275 112.45 73.1836 112.507C72.382 113.525 71.3458 114.373 70.3369 115.181C70.0024 115.456 69.6857 115.748 69.3705 116.044C68.5979 116.692 67.7359 117.191 66.8602 117.686C66.6443 117.809 66.4284 117.932 66.2126 118.055C66.1073 118.114 66.002 118.174 65.8935 118.235C65.6773 118.359 65.4632 118.488 65.2511 118.619C65.1481 118.682 65.045 118.746 64.9389 118.811C64.8472 118.869 64.7554 118.927 64.6609 118.986C64.3491 119.124 64.2303 119.115 63.9121 119.003C63.6763 118.875 63.6763 118.875 63.4304 118.711C63.3391 118.651 63.2477 118.591 63.1535 118.529C63.0567 118.464 62.9599 118.399 62.8601 118.332C62.6555 118.197 62.4508 118.062 62.2462 117.927C62.1459 117.861 62.0457 117.794 61.9424 117.726C61.5773 117.484 61.2099 117.246 60.8417 117.01C60.7778 116.968 60.7139 116.927 60.6481 116.885C60.2304 116.616 59.8116 116.348 59.3925 116.082C59.2854 116.013 59.1783 115.945 59.0679 115.875C58.8586 115.742 58.6491 115.609 58.4396 115.476C57.928 115.15 57.418 114.822 56.9108 114.49C56.8166 114.428 56.7223 114.367 56.6252 114.303C55.8601 113.759 55.3733 112.907 54.8427 112.149C54.5045 111.667 54.1577 111.192 53.8079 110.719C53.7502 110.641 53.6925 110.563 53.633 110.482C53.2642 109.986 52.8863 109.5 52.4876 109.027C52.3645 108.86 52.3645 108.86 52.3645 108.665C52.3101 108.642 52.2557 108.619 52.1997 108.595C51.9179 108.439 51.7124 108.245 51.4776 108.025C51.1164 107.69 50.7494 107.37 50.3644 107.062C49.9205 106.705 49.5012 106.329 49.084 105.942C48.7698 105.652 48.4475 105.378 48.1136 105.111C47.6459 104.736 47.2076 104.337 46.7702 103.928C46.4456 103.627 46.1135 103.343 45.765 103.069C45.2577 102.664 44.8042 102.217 44.3517 101.753C44.0772 101.473 43.7996 101.205 43.5 100.951C42.8196 100.366 42.2018 99.7118 41.5704 99.0754C40.7069 98.204 40.7069 98.204 39.7949 97.3837C39.5407 97.1666 39.3121 96.9264 39.0798 96.6867C38.8941 96.5067 38.7048 96.3392 38.5083 96.1712C37.9968 95.7282 37.5211 95.251 37.0431 94.7726C36.9544 94.6846 36.8656 94.5965 36.7742 94.5058C36.3327 94.0652 35.9043 93.6197 35.4974 93.1472C34.3729 91.8533 33.1718 90.5973 31.8136 89.5486C31.6338 89.4029 31.4544 89.2566 31.2754 89.1098C30.9114 88.8082 30.9114 88.8082 30.528 88.5323C29.7119 87.9583 29.2389 87.1863 28.7123 86.3592C28.551 86.1065 28.3868 85.8558 28.2219 85.6054C27.3382 84.2582 27.3382 84.2582 26.9802 83.5654C26.1907 82.0732 24.906 81.5315 23.4307 80.8353C22.7191 80.4944 22.1721 80.1207 21.7156 79.4725C21.6421 79.3706 21.5685 79.2688 21.4927 79.1639C21.4533 79.1088 21.4138 79.0537 21.3731 78.9969C21.1331 78.6668 20.8823 78.3448 20.633 78.0217C20.2958 77.5837 19.9592 77.1453 19.6253 76.7047C19.5687 76.6302 19.5121 76.5557 19.4538 76.479C19.3459 76.337 19.2383 76.1948 19.131 76.0524C18.6692 75.446 18.1693 74.9658 17.5504 74.5228C17.4871 74.4768 17.4238 74.4309 17.3586 74.3835C17.0148 74.1351 16.6682 73.8913 16.3183 73.6515C16.2473 73.6025 16.1763 73.5536 16.1032 73.5031C15.9693 73.411 15.8348 73.3197 15.6997 73.2293C15.1067 72.8216 14.587 72.3396 14.0637 71.8488C13.9046 71.7001 13.7445 71.5525 13.5841 71.4051C12.1441 70.0752 10.9612 68.829 10.1336 67.0271C9.97645 66.6967 9.80513 66.3766 9.62974 66.0555C9.56949 65.9446 9.50924 65.8336 9.44716 65.7193C9.33093 65.5056 9.21427 65.2921 9.0971 65.0788C9.04606 64.9825 8.99501 64.8861 8.94242 64.7868C8.89671 64.7021 8.851 64.6174 8.8039 64.5302C8.69962 64.2349 8.71856 64.0959 8.81627 63.8005C8.93451 63.5776 8.93451 63.5776 9.08424 63.3486C9.13969 63.2629 9.19515 63.1772 9.25228 63.0889C9.31225 62.9979 9.37223 62.9068 9.43402 62.813C9.55997 62.6192 9.68587 62.4254 9.8117 62.2316C9.87497 62.1346 9.93823 62.0376 10.0034 61.9376C10.1694 61.681 10.3324 61.4229 10.4937 61.1633C11.0151 60.3242 11.5555 59.5075 12.145 58.714C12.4278 58.3331 12.699 57.9493 12.9559 57.5505C13.6855 56.4309 14.4493 55.6462 15.5468 54.8826C15.8887 54.6431 16.2203 54.3903 16.5534 54.1388C16.6813 54.0432 16.8092 53.9477 16.9372 53.8523C17.0011 53.8047 17.065 53.757 17.1308 53.7079C17.2679 53.6061 17.4051 53.5045 17.5425 53.4032C18.5964 52.6254 19.5345 51.8338 20.3975 50.8456C20.7488 50.4437 21.1106 50.0528 21.4771 49.6646C21.5412 49.5966 21.6054 49.5286 21.6715 49.4585C22.3115 48.7821 22.9546 48.1192 23.6629 47.5132C23.9505 47.2623 24.2305 47.0038 24.5108 46.7448C24.9669 46.3234 25.4264 45.9061 25.8896 45.4925C26.1738 45.2372 26.4555 44.9792 26.7371 44.721C27.0539 44.4306 27.3719 44.1422 27.6974 43.8615C28.0959 43.5172 28.4824 43.1602 28.8686 42.8022C29.1853 42.5092 29.5056 42.221 29.8285 41.9349C30.3356 41.4808 30.8209 41.0072 31.3018 40.5258C31.4411 40.3864 31.581 40.2475 31.7209 40.1087C32.1725 39.658 32.6096 39.2024 33.0256 38.7189C33.2922 38.4173 33.5806 38.1383 33.8687 37.8573C34.2916 37.4407 34.7007 37.0213 35.0851 36.5688C35.3197 36.3024 35.5753 36.0581 35.8286 35.8095C36.0783 35.5567 36.3085 35.2897 36.54 35.0205C36.6967 34.845 36.86 34.6845 37.0309 34.5229C37.7751 33.7895 38.3636 32.8989 38.9636 32.0481C39.0136 31.9775 39.0636 31.9069 39.1151 31.8342C39.3359 31.5222 39.5554 31.2098 39.7702 30.8937C40.3094 30.128 40.9359 29.6053 41.6976 29.0795C41.7581 29.0374 41.8186 28.9953 41.8809 28.952C42.2036 28.728 42.5279 28.5063 42.8532 28.2859C43.2805 27.996 43.7036 27.7004 44.1258 27.4032C44.19 27.3581 44.2543 27.3129 44.3205 27.2664C44.4512 27.1744 44.5812 27.0814 44.7106 26.9876C44.8662 26.8788 45.026 26.7758 45.188 26.6768C46.0107 26.1471 46.3897 25.4933 46.817 24.6479C46.9462 24.3997 47.0767 24.1521 47.2073 23.9046C47.2386 23.8452 47.2699 23.7858 47.3022 23.7246C47.7654 22.8512 48.1862 22.26 49.0066 21.6976C49.1723 21.5801 49.338 21.4625 49.5036 21.3448C49.5882 21.2855 49.6727 21.2262 49.7599 21.1651C50.1737 20.873 50.5808 20.572 50.9883 20.2712C51.8496 19.636 51.8496 19.636 52.2185 19.3759C52.9159 18.8764 53.4761 18.3232 54.0281 17.6684C54.1003 17.583 54.1724 17.4976 54.2468 17.4097C54.5705 17.0201 54.8867 16.6252 55.1963 16.2245C55.2451 16.1616 55.2939 16.0988 55.3441 16.0341C55.44 15.9102 55.5354 15.7858 55.6302 15.6611C55.7441 15.5138 55.8642 15.3715 55.9853 15.2301C56.0499 15.2301 56.1145 15.2301 56.1811 15.2301C56.203 15.1764 56.225 15.1227 56.2476 15.0674C56.417 14.7692 56.6334 14.5622 56.8783 14.3218C56.9271 14.2739 56.9758 14.226 57.026 14.1766C57.3432 13.867 57.6707 13.5755 58.0102 13.2909C58.1969 13.1203 58.3669 12.9472 58.5385 12.7621C59.4226 11.8188 60.3581 11.1632 61.4767 10.5195C61.7797 10.3415 62.0769 10.1556 62.3738 9.96762C62.5262 9.87202 62.5262 9.87202 62.6816 9.77449C62.8786 9.65071 63.0751 9.52607 63.271 9.40051C63.4052 9.31745 63.4052 9.31745 63.5421 9.23271C63.66 9.15824 63.66 9.15824 63.7804 9.08227C64.0693 8.9638 64.2053 8.98898 64.4993 9.08565Z" fill="#FEFEFE"/>
<path d="M64.6053 1.01192C64.9191 1.13869 65.1847 1.33848 65.4594 1.5326C65.527 1.57966 65.5946 1.62672 65.6642 1.67521C65.8144 1.7798 65.9645 1.88464 66.1144 1.98968C66.4615 2.23259 66.8101 2.47351 67.1585 2.71464C67.8357 3.18342 68.512 3.65339 69.1884 4.12327C70.2907 4.88871 71.3962 5.6492 72.5059 6.40396C72.9087 6.67827 73.3107 6.95379 73.7125 7.22968C74.0362 7.45193 74.3604 7.6733 74.6858 7.89306C74.7529 7.93856 74.82 7.98406 74.8891 8.03093C75.0133 8.11509 75.1376 8.19898 75.2622 8.28247C76.3328 9.00996 77.297 9.79997 78.2046 10.723C78.3018 10.8206 78.399 10.9182 78.4963 11.0157C78.7488 11.2689 79.0003 11.5229 79.2517 11.7772C79.6552 12.1852 80.06 12.5919 80.4648 12.9986C80.6043 13.1389 80.7433 13.2796 80.8824 13.4204C81.374 13.9158 81.8761 14.3873 82.4077 14.8395C82.6009 15.0125 82.7916 15.1881 82.9826 15.3637C83.3362 15.6886 83.6923 16.0098 84.053 16.3268C84.9261 17.1083 85.7799 17.937 86.5381 18.8306C86.831 19.1689 87.1383 19.4939 87.4434 19.8212C87.7435 20.1436 88.0375 20.4702 88.3283 20.801C88.8293 21.3584 89.3822 21.853 89.943 22.3494C90.0406 22.4359 90.0406 22.4359 90.1402 22.5242C90.447 22.7934 90.757 23.0584 91.0692 23.3212C92.2562 24.3252 93.1594 25.3712 94.0272 26.6586C94.3914 27.1977 94.7748 27.7209 95.1648 28.2416C95.3348 28.4692 95.4983 28.6995 95.6572 28.935C96.3531 29.9499 97.2032 30.7839 98.0857 31.6392C98.3587 31.9042 98.6192 32.1692 98.8617 32.4621C99.1212 32.7738 99.412 33.0305 99.7209 33.2928C100.069 33.5915 100.399 33.9087 100.732 34.2237C101.221 34.684 101.71 35.1433 102.206 35.5953C102.293 35.6744 102.38 35.7534 102.469 35.8349C102.653 36.0023 102.838 36.1687 103.024 36.3345C103.576 36.8311 104.109 37.3404 104.629 37.8709C106.45 39.7321 106.45 39.7321 108.513 41.3173C108.926 41.5958 109.327 41.891 109.729 42.1847C109.804 42.2381 109.879 42.2916 109.957 42.3466C110.663 42.8582 111.264 43.4488 111.809 44.1292C111.92 44.2663 111.92 44.2663 112.032 44.4062C112.143 44.5437 112.143 44.5437 112.255 44.6839C112.769 45.3154 113.29 45.9406 113.82 46.5594C114.089 46.8754 114.349 47.1966 114.604 47.5245C114.935 47.9419 115.301 48.3156 115.682 48.687C115.93 48.9292 116.166 49.174 116.39 49.4386C117.321 50.5171 118.347 51.4534 119.497 52.2913C119.701 52.4472 119.905 52.6037 120.109 52.7607C120.467 53.0356 120.825 53.3095 121.185 53.5825C121.257 53.6373 121.329 53.692 121.403 53.7485C121.542 53.854 121.681 53.9594 121.82 54.0647C121.955 54.167 122.088 54.2708 122.22 54.3759C122.43 54.5398 122.43 54.5398 122.669 54.6671C123.687 55.3058 123.956 56.5194 124.347 57.5885C124.431 57.8105 124.515 58.0325 124.599 58.2543C124.728 58.5944 124.857 58.9346 124.984 59.2753C125.268 60.0318 125.565 60.782 125.872 61.5293C125.951 61.7223 126.03 61.9153 126.109 62.1083C126.221 62.3826 126.334 62.6566 126.448 62.93C126.552 63.1804 126.655 63.4315 126.756 63.683C126.803 63.7924 126.803 63.7924 126.851 63.904C126.982 64.2325 127.041 64.442 126.97 64.7919C126.837 65.067 126.702 65.3358 126.551 65.6016C126.465 65.7553 126.465 65.7553 126.377 65.9121C126.315 66.0217 126.252 66.1314 126.188 66.2444C126.089 66.4199 125.991 66.5955 125.892 66.7711C125.823 66.8933 125.754 67.0155 125.686 67.1376C125.439 67.5758 125.194 68.0153 124.951 68.4556C124.917 68.5176 124.882 68.5796 124.847 68.6436C124.714 68.885 124.581 69.1265 124.447 69.368C124.234 69.7558 124.019 70.1429 123.803 70.5296C123.77 70.5885 123.738 70.6473 123.705 70.7079C123.321 71.4027 122.932 72.0614 122.408 72.6631C122.298 72.7947 122.187 72.9265 122.077 73.0586C122.022 73.1242 121.967 73.1898 121.91 73.2573C121.65 73.5756 121.405 73.9053 121.161 74.2358C120.609 74.9782 120.031 75.6971 119.44 76.4087C119.35 76.5174 119.261 76.6268 119.173 76.7369C118.914 77.0563 118.646 77.3165 118.323 77.5701C117.909 77.8995 117.502 78.2339 117.099 78.5759C116.713 78.9031 116.325 79.2267 115.931 79.5451C114.647 80.5905 113.408 81.6548 112.331 82.9168C112.119 83.154 111.895 83.3756 111.668 83.5988C111.323 83.9392 110.995 84.286 110.68 84.6537C110.493 84.8674 110.301 85.0756 110.108 85.2834C109.726 85.6931 109.357 86.1051 109.008 86.543C108.053 87.7185 106.964 88.7831 105.894 89.8529C105.809 89.9384 105.724 90.0239 105.636 90.1119C105.204 90.5416 104.764 90.955 104.301 91.3514C104.08 91.5455 103.877 91.7549 103.674 91.9681C103.171 92.4749 102.621 92.8984 102.05 93.3233C101.764 93.5378 101.484 93.7588 101.203 93.9797C100.853 94.2553 100.502 94.5302 100.148 94.8011C99.2182 95.5154 98.4409 96.2579 97.7038 97.1742C97.4796 97.4465 97.2462 97.7067 97.0073 97.9663C96.7682 98.2266 96.5483 98.4786 96.359 98.777C96.3086 98.8534 96.2581 98.9299 96.2061 99.0086C96.1415 99.0086 96.0769 99.0086 96.0104 99.0086C95.9692 99.095 95.9692 99.095 95.9272 99.1832C95.8239 99.381 95.714 99.5489 95.5799 99.7268C95.5336 99.7884 95.4873 99.8501 95.4396 99.9136C95.3898 99.9791 95.34 100.045 95.2887 100.112C95.2368 100.18 95.185 100.249 95.1316 100.319C94.6755 100.919 94.2075 101.509 93.7305 102.092C93.5732 102.285 93.4286 102.477 93.2871 102.682C92.6976 103.524 91.821 104.031 90.9781 104.594C90.6003 104.847 90.2288 105.11 89.8574 105.373C89.7222 105.468 89.587 105.563 89.4518 105.659C89.3546 105.727 89.3546 105.727 89.2554 105.797C89.0646 105.932 88.8733 106.065 88.6819 106.199C87.9264 106.728 87.1942 107.252 86.5897 107.954C85.6803 108.999 84.708 109.989 83.7288 110.968C83.6575 111.04 83.5862 111.111 83.5127 111.185C83.119 111.576 82.7151 111.948 82.2941 112.31C82.037 112.535 81.798 112.774 81.5575 113.017C81.4703 113.104 81.3832 113.192 81.2934 113.282C81.209 113.368 81.1246 113.453 81.0376 113.541C80.9534 113.624 80.8691 113.708 80.7823 113.794C80.201 114.376 79.688 114.998 79.1966 115.656C79.1465 115.723 79.0965 115.79 79.0449 115.859C78.9432 115.995 78.8416 116.131 78.74 116.267C78.6663 116.366 78.6663 116.366 78.5911 116.467C78.5216 116.56 78.5216 116.56 78.4506 116.655C77.6281 117.751 76.6937 118.609 75.6243 119.469C75.3669 119.681 75.119 119.9 74.8724 120.124C74.4202 120.534 73.9533 120.923 73.4755 121.303C73.3414 121.412 73.2094 121.524 73.0782 121.637C72.4072 122.206 71.7097 122.646 70.9396 123.068C70.7571 123.17 70.5749 123.272 70.3926 123.374C70.2696 123.443 70.1466 123.512 70.0235 123.58C69.4473 123.901 68.8783 124.234 68.3096 124.568C67.4492 125.071 66.582 125.56 65.7101 126.043C65.5981 126.105 65.4861 126.167 65.3706 126.231C64.8885 126.497 64.406 126.757 63.9119 127C63.8075 126.93 63.703 126.86 63.5954 126.789C62.5499 126.091 61.4981 125.404 60.4423 124.723C60.1092 124.507 59.7765 124.292 59.4438 124.076C58.622 123.543 57.7994 123.012 56.976 122.481C56.7088 122.309 56.4417 122.137 56.1748 121.964C55.4802 121.515 54.7841 121.068 54.0848 120.626C53.8966 120.507 53.7086 120.388 53.521 120.267C52.9713 119.915 52.9713 119.915 52.406 119.588C51.4916 119.062 50.9746 118.247 50.3858 117.398C50.1072 117.001 49.8165 116.612 49.5263 116.223C49.1781 115.755 48.8324 115.285 48.4954 114.809C47.811 113.849 47.1122 113.022 46.1991 112.273C46.06 112.158 46.06 112.158 45.9181 112.041C45.7409 111.897 45.5632 111.753 45.3848 111.611C45.0155 111.307 44.6666 110.983 44.3145 110.66C44.0559 110.428 43.791 110.21 43.5201 109.993C43.0503 109.616 42.6094 109.215 42.1697 108.804C41.8535 108.51 41.5308 108.235 41.1898 107.969C40.5818 107.485 40.0441 106.932 39.4999 106.378C39.1717 106.045 38.844 105.719 38.4875 105.416C37.8733 104.89 37.3158 104.303 36.7474 103.729C36.2147 103.192 35.6825 102.661 35.1056 102.17C34.8223 101.926 34.5663 101.657 34.3059 101.389C34.1108 101.2 33.9132 101.023 33.7068 100.846C33.2146 100.42 32.7563 99.9626 32.2967 99.5024C32.2126 99.419 32.1285 99.3356 32.0419 99.2496C31.614 98.8225 31.2006 98.3895 30.806 97.9318C30.5012 97.5828 30.1811 97.248 29.8624 96.9117C29.7973 96.8427 29.7323 96.7737 29.6653 96.7026C28.7884 95.7614 28.7884 95.7614 27.8195 94.9184C27.3873 94.5812 26.9606 94.2389 26.5393 93.8883C26.3182 93.7109 26.0983 93.5455 25.8673 93.3823C25.0844 92.8144 24.5183 92.2308 24.009 91.4073C23.9534 91.3178 23.8978 91.2283 23.8404 91.1361C23.5865 90.7204 23.338 90.3026 23.1031 89.8759C22.0937 88.0499 21.1311 86.971 19.1849 86.1276C18.1979 85.6964 17.66 85.2662 17.0364 84.379C16.9342 84.2463 16.8317 84.1138 16.7287 83.9816C16.6414 83.8644 16.5543 83.7469 16.4676 83.6292C16.3688 83.4966 16.2699 83.364 16.171 83.2315C16.1208 83.1642 16.0706 83.0968 16.0188 83.0275C15.7471 82.6652 15.4713 82.306 15.1954 81.9468C15.1153 81.8423 15.1153 81.8423 15.0335 81.7357C14.6975 81.2981 14.3575 80.864 14.01 80.4355C13.9049 80.2827 13.9049 80.2827 13.9049 80.0876C13.848 80.0608 13.791 80.0339 13.7324 80.0063C13.5198 79.8959 13.3351 79.7743 13.1415 79.6339C13.0699 79.5822 12.9983 79.5304 12.9245 79.4771C12.8504 79.4231 12.7763 79.3691 12.7 79.3135C12.63 79.2629 12.5601 79.2123 12.488 79.1601C12.3325 79.0475 12.1775 78.9342 12.0229 78.8204C11.833 78.6833 11.6405 78.5498 11.4462 78.419C10.284 77.6257 9.28725 76.6517 8.2888 75.6678C8.08774 75.47 7.88481 75.2745 7.67975 75.0808C6.19953 73.6811 5.21432 72.3025 4.36453 70.452C4.14113 69.98 3.88676 69.527 3.62945 69.0727C2.96228 67.8687 2.35034 66.637 1.7419 65.4027C1.62964 65.1783 1.5146 64.9554 1.3969 64.7339C1.34218 64.6301 1.28746 64.5264 1.23109 64.4195C1.15708 64.2823 1.15708 64.2823 1.08157 64.1423C0.974406 63.8643 0.97005 63.7775 1.08506 63.5074C1.17281 63.3484 1.2666 63.1927 1.36412 63.0395C1.45167 62.9011 1.45167 62.9011 1.54099 62.7598C1.60448 62.6605 1.66797 62.5612 1.73339 62.4589C1.86784 62.2467 2.00227 62.0345 2.13669 61.8223C2.2058 61.7136 2.27491 61.6048 2.34612 61.4928C2.66806 60.9852 2.9865 60.4754 3.30529 59.9658C4.79347 57.5924 6.32043 55.2653 7.97796 53.0052C8.19915 52.7033 8.41544 52.4033 8.61693 52.0879C9.15933 51.2519 9.92541 50.7198 10.7183 50.1361C10.9758 49.9456 11.2309 49.7522 11.4855 49.5578C11.6149 49.459 11.6149 49.459 11.7468 49.3582C11.8765 49.2592 11.8765 49.2592 12.0088 49.1582C12.4852 48.7947 12.9614 48.4321 13.4507 48.0861C14.4448 47.3786 15.248 46.568 16.0578 45.6592C16.6684 44.9828 17.2912 44.3227 17.9355 43.6781C18.0315 43.5819 18.0315 43.5819 18.1293 43.4836C18.5071 43.1083 18.896 42.7514 19.2997 42.404C19.5573 42.1815 19.8073 41.9518 20.0579 41.7214C20.4973 41.3183 20.9398 40.9188 21.3844 40.5213C21.6696 40.2647 21.9525 40.0057 22.2353 39.7464C22.5521 39.4561 22.8701 39.1676 23.1956 38.8869C23.6 38.5375 23.9917 38.1748 24.384 37.812C24.7042 37.5161 25.0275 37.2246 25.3546 36.9363C25.7471 36.5854 26.1248 36.2219 26.4984 35.8513C26.5751 35.7755 26.5751 35.7755 26.6534 35.6982C26.9286 35.4228 27.1908 35.1405 27.4453 34.8459C27.8858 34.3389 28.3668 33.8747 28.8467 33.405C29.2422 33.0151 29.6191 32.6172 29.982 32.197C30.2673 31.8705 30.567 31.5575 30.8654 31.2429C30.9949 31.1055 31.1244 30.9679 31.2538 30.8303C31.4671 30.6038 31.6811 30.378 31.896 30.153C32.4722 29.5397 32.9649 28.8858 33.4429 28.1963C33.8286 27.6409 34.221 27.0904 34.6137 26.54C34.736 26.3669 34.8557 26.1924 34.9748 26.017C35.5136 25.2509 36.1405 24.7283 36.9022 24.2024C36.9627 24.1604 37.0232 24.1183 37.0855 24.075C37.4077 23.8513 37.7315 23.6299 38.0563 23.41C38.4926 23.1141 38.9241 22.8116 39.3549 22.5078C39.4224 22.4603 39.4899 22.4127 39.5595 22.3637C39.6891 22.2723 39.8182 22.1802 39.9469 22.0875C40.1317 21.9592 40.1317 21.9592 40.3099 21.8565C40.9058 21.4965 41.1472 20.9432 41.4528 20.3378C42.3783 18.5447 43.3029 17.5118 44.9364 16.3516C45.6529 15.8426 46.3603 15.3215 47.0663 14.7982C47.2543 14.66 47.4437 14.5244 47.6341 14.3895C48.4622 13.7938 49.0902 13.0947 49.7221 12.3037C49.7935 12.2147 49.8649 12.1256 49.9384 12.0339C50.0608 11.8806 50.183 11.7272 50.305 11.5736C51.1465 10.5416 52.1048 9.60859 53.0439 8.66626C53.2183 8.4909 53.3921 8.31502 53.5654 8.1386C54.5654 7.12065 55.5292 6.19425 56.7681 5.47651C56.8878 5.40475 57.0074 5.33284 57.127 5.26078C57.4821 5.04826 57.8403 4.84137 58.1993 4.6353C58.4372 4.49813 58.6749 4.36068 58.9126 4.22308C58.9708 4.18943 59.029 4.15578 59.089 4.1211C59.4795 3.89444 59.8652 3.66103 60.2494 3.42379C60.8815 3.03362 61.5235 2.66249 62.1688 2.29456C62.3843 2.17146 62.5998 2.04828 62.8152 1.92501C62.9687 1.83765 62.9687 1.83765 63.1254 1.74852C63.488 1.53716 63.8416 1.31272 64.193 1.08328C64.4012 0.990086 64.4012 0.990086 64.6053 1.01192ZM63.4306 9.31259C63.347 9.36338 63.347 9.36338 63.2617 9.41519C63.0803 9.52571 62.8997 9.63753 62.7192 9.74958C62.5939 9.8269 62.4686 9.9042 62.3433 9.98148C62.1564 10.0969 61.9696 10.2124 61.7831 10.3284C61.4541 10.5329 61.1233 10.7327 60.7876 10.926C59.7412 11.5416 58.9329 12.3412 58.0949 13.2134C57.7559 13.5657 57.4048 13.8927 57.0326 14.2098C56.8395 14.3743 56.6552 14.5457 56.4745 14.7237C56.3897 14.8061 56.3897 14.8061 56.3032 14.8901C56.1598 15.0279 56.1598 15.0279 56.1809 15.2296C56.1163 15.2296 56.0517 15.2296 55.9852 15.2296C55.822 15.4057 55.822 15.4057 55.6488 15.638C55.2851 16.103 54.9086 16.5537 54.5244 17.0017C54.248 17.3252 53.9825 17.6544 53.7221 17.9909C53.0891 18.7808 52.3087 19.3506 51.4847 19.9271C50.9552 20.2982 50.433 20.6796 49.9151 21.0667C49.5752 21.3206 49.239 21.5705 48.8761 21.7908C47.6849 22.5631 47.193 23.8626 46.5837 25.0973C46.0832 26.0947 45.3799 26.59 44.464 27.1787C44.1056 27.4122 43.7584 27.6608 43.41 27.9086C43.2727 28.0055 43.1353 28.1022 42.9979 28.1989C42.9295 28.2471 42.861 28.2953 42.7904 28.3449C42.57 28.4995 42.349 28.6533 42.1279 28.807C42.0538 28.8586 41.9797 28.9103 41.9033 28.9635C41.7629 29.0614 41.6224 29.1589 41.4816 29.2561C40.7516 29.766 40.1779 30.2644 39.6791 31.0052C39.5769 31.1526 39.4747 31.2999 39.3725 31.4472C39.3203 31.5228 39.2682 31.5985 39.2145 31.6765C38.4596 32.7705 37.6946 33.8133 36.7665 34.7676C36.5344 35.0076 36.3066 35.2515 36.0783 35.4951C35.8924 35.6935 35.7061 35.8913 35.5196 36.089C35.2654 36.3587 35.0119 36.629 34.7589 36.8997C34.1332 37.5686 33.5043 38.2305 32.8471 38.8686C32.6534 39.0664 32.4732 39.2653 32.2932 39.4748C31.865 39.9669 31.4038 40.4253 30.941 40.8847C30.7923 41.0324 30.6441 41.1806 30.496 41.3288C30.0277 41.7959 29.5546 42.2527 29.0511 42.6823C28.7786 42.9156 28.5166 43.1599 28.2538 43.4038C27.716 43.9007 27.1732 44.3915 26.6268 44.879C26.0516 45.393 25.4794 45.9101 24.9105 46.4311C24.6034 46.712 24.2948 46.991 23.9846 47.2685C22.8913 48.248 21.8051 49.2218 20.8391 50.3294C20.5423 50.6663 20.2365 50.9945 19.9294 51.3221C19.8691 51.3873 19.8087 51.4525 19.7465 51.5197C19.178 52.1264 18.5709 52.6718 17.8988 53.163C17.2384 53.6506 16.5842 54.146 15.9328 54.6454C15.1859 55.2166 15.1859 55.2166 14.825 55.4546C13.9989 56.0111 13.5164 56.7146 12.9761 57.5324C12.7827 57.8214 12.5808 58.1038 12.3781 58.3864C11.4147 59.7297 10.5157 61.1108 9.63812 62.5109C9.51068 62.7121 9.38062 62.9111 9.2492 63.1096C9.19312 63.1959 9.19312 63.1959 9.13591 63.2839C9.03767 63.4349 8.93821 63.5851 8.83865 63.7352C8.68985 64.0563 8.71938 64.1463 8.81609 64.4827C8.92615 64.722 9.03969 64.9536 9.16205 65.1864C9.19698 65.2539 9.23191 65.3214 9.2679 65.3909C9.34206 65.534 9.41652 65.6769 9.49125 65.8196C9.60296 66.033 9.71373 66.2469 9.82433 66.4609C10.0056 66.8108 10.1906 67.1585 10.3768 67.5058C10.4714 67.6854 10.5614 67.8673 10.651 68.0495C11.1665 69.045 11.8914 69.7795 12.6883 70.5585C12.9121 70.7777 13.133 70.9996 13.3536 71.222C14.3147 72.1794 15.3265 72.9879 16.4493 73.7481C16.6223 73.8688 16.7953 73.9897 16.968 74.1108C17.1665 74.2483 17.3652 74.3853 17.5645 74.5215C18.6512 75.2762 19.404 76.3654 20.1864 77.4132C20.5817 77.9419 20.9847 78.4642 21.3913 78.9843C21.4487 79.0579 21.5062 79.1314 21.5654 79.2072C21.7191 79.4034 21.8728 79.5995 22.0273 79.7951C22.0855 79.8761 22.1437 79.9571 22.2037 80.0405C22.4544 80.3228 22.6905 80.4593 23.0255 80.6332C23.0836 80.6638 23.1418 80.6945 23.2018 80.726C23.3867 80.8231 23.5725 80.9187 23.7583 81.0142C23.8811 81.0782 24.0039 81.1423 24.1266 81.2066C24.1865 81.2379 24.2463 81.2692 24.308 81.3014C24.4271 81.3637 24.546 81.4261 24.665 81.4885C24.9164 81.6204 25.1681 81.7501 25.4241 81.873C25.9887 82.154 26.2563 82.4628 26.5718 83.0014C26.6791 83.1737 26.7868 83.3457 26.8948 83.5176C26.9891 83.6693 26.9891 83.6693 27.0854 83.8241C27.5221 84.5214 27.9738 85.209 28.4272 85.8956C28.5389 86.0656 28.6499 86.236 28.7602 86.4068C29.3944 87.3896 29.9635 88.188 30.9327 88.8654C31.1131 89.0105 31.2927 89.1567 31.4709 89.3043C31.7311 89.5176 31.9914 89.7295 32.2577 89.9352C32.8587 90.4057 33.4015 90.9181 33.9419 91.4561C34.0113 91.5252 34.0807 91.5943 34.1522 91.6654C34.5393 92.0553 34.9094 92.455 35.269 92.87C36.081 93.7998 36.9531 94.6797 37.8258 95.5524C37.9333 95.6602 37.9333 95.6602 38.0431 95.7703C38.4418 96.1665 38.8508 96.5442 39.2773 96.9106C39.5355 97.1354 39.7714 97.3793 40.0093 97.6249C40.1893 97.7993 40.3718 97.9599 40.5629 98.1217C41.2477 98.7145 41.8724 99.3728 42.5097 100.015C43.3723 100.886 43.3723 100.886 44.2835 101.705C44.4876 101.88 44.6735 102.07 44.8596 102.264C45.2518 102.66 45.6701 103.006 46.1058 103.354C46.4252 103.618 46.7283 103.895 47.0309 104.178C47.4968 104.613 47.9767 105.02 48.4747 105.419C48.7692 105.662 49.0507 105.917 49.3306 106.177C49.7784 106.592 50.2413 106.981 50.7186 107.362C51.0887 107.67 51.4402 107.996 51.7886 108.327C52.0343 108.587 52.0343 108.587 52.3643 108.664C52.3859 108.714 52.4074 108.764 52.4297 108.816C52.6137 109.152 52.8464 109.445 53.0799 109.749C53.518 110.325 53.9477 110.906 54.3705 111.493C54.5298 111.713 54.6894 111.932 54.8489 112.152C54.9539 112.298 55.0585 112.443 55.1627 112.589C55.9766 113.735 55.9766 113.735 57.0616 114.614C57.123 114.652 57.1843 114.69 57.2474 114.729C57.6214 114.959 57.9972 115.187 58.374 115.413C58.7612 115.647 59.1395 115.891 59.5143 116.144C60.2811 116.66 61.0605 117.157 61.8417 117.652C62.2917 117.937 62.7411 118.222 63.1822 118.521C63.245 118.563 63.3078 118.605 63.3725 118.649C63.5311 118.755 63.6887 118.864 63.8462 118.972C64.1665 119.129 64.2597 119.099 64.597 119.002C64.7835 118.911 64.9665 118.812 65.1463 118.707C65.3041 118.616 65.3041 118.616 65.4652 118.523C65.5763 118.458 65.6874 118.393 65.8019 118.326C65.9173 118.258 66.0328 118.191 66.1483 118.124C66.3765 117.99 66.6043 117.857 66.8318 117.722C67.0174 117.613 67.2033 117.504 67.3897 117.395C68.3489 116.839 69.1732 116.199 69.9956 115.457C70.2898 115.193 70.5902 114.937 70.8906 114.681C70.9476 114.632 71.0045 114.583 71.0632 114.532C71.3843 114.257 71.7127 114 72.0527 113.748C72.6237 113.298 73.0364 112.734 73.4682 112.156C73.6741 111.882 73.8852 111.611 74.0956 111.34C74.3414 111.022 74.5857 110.704 74.8265 110.382C75.4834 109.509 76.204 108.758 77.0353 108.048C77.2787 107.833 77.504 107.603 77.7318 107.372C77.9143 107.193 78.1037 107.026 78.2975 106.86C78.6749 106.535 79.0253 106.19 79.374 105.836C79.6154 105.594 79.8575 105.354 80.1011 105.115C80.5286 104.693 80.942 104.268 81.3339 103.814C82.3964 102.597 83.482 101.628 84.8213 100.724C85.4827 100.275 86.1367 99.8162 86.7898 99.3556C86.9755 99.2258 87.1627 99.0989 87.3512 98.9732C88.1878 98.3937 88.7551 97.67 89.3558 96.863C89.4548 96.7307 89.5538 96.5985 89.6528 96.4664C89.8009 96.2686 89.9488 96.0709 90.0964 95.8728C90.5327 95.2908 90.9974 94.7372 91.4741 94.1879C91.6977 93.9292 91.9179 93.6678 92.1388 93.4067C92.6621 92.7896 93.1886 92.1751 93.7184 91.5634C93.8144 91.4515 93.9092 91.3385 94.0029 91.2248C94.3094 90.8565 94.6189 90.5597 95.0073 90.2735C95.1191 90.19 95.2309 90.1065 95.3426 90.0228C95.4324 89.956 95.4324 89.956 95.524 89.8879C95.9598 89.5609 96.3884 89.2245 96.8184 88.8901C96.8927 88.8323 96.9671 88.7745 97.0437 88.7149C97.1168 88.6581 97.19 88.6012 97.2653 88.5426C97.4631 88.3895 97.6618 88.2377 97.861 88.0863C98.4771 87.6154 99.0486 87.1353 99.5846 86.5719C99.7751 86.3814 99.966 86.2083 100.171 86.034C100.692 85.5837 101.178 85.0985 101.666 84.6126C101.826 84.4533 101.987 84.2948 102.148 84.1363C102.716 83.5725 103.247 82.9972 103.747 82.371C103.994 82.0651 104.259 81.7799 104.53 81.4957C104.95 81.0505 105.344 80.5945 105.717 80.109C105.924 79.8563 106.149 79.6331 106.384 79.4049C106.608 79.1838 106.832 78.9621 107.056 78.7405C107.114 78.6841 107.171 78.6277 107.23 78.5696C107.529 78.2733 107.817 77.9719 108.092 77.6539C108.445 77.2478 108.816 76.8644 109.197 76.4851C109.266 76.4168 109.334 76.3485 109.405 76.2782C109.857 75.8333 110.317 75.4209 110.816 75.0294C111.123 74.7881 111.42 74.5372 111.717 74.2846C112.111 73.9506 112.508 73.6214 112.91 73.2971C113.083 73.1551 113.257 73.0129 113.43 72.8704C113.511 72.8038 113.592 72.7373 113.676 72.6688C114.328 72.1131 114.834 71.4848 115.348 70.8061C115.527 70.5716 115.71 70.3404 115.894 70.1094C116.03 69.9375 116.165 69.7648 116.3 69.592C116.462 69.3849 116.628 69.1838 116.798 68.9832C117.607 68.007 118.158 66.8898 118.74 65.7696C118.967 65.3531 119.22 64.9542 119.478 64.5564C119.729 63.9803 119.394 63.3856 119.18 62.8338C119.149 62.7516 119.117 62.6694 119.085 62.5847C119.018 62.4115 118.951 62.2383 118.884 62.0653C118.782 61.8018 118.681 61.5378 118.581 61.2737C118.515 61.1049 118.45 60.9361 118.385 60.7674C118.355 60.689 118.325 60.6107 118.295 60.53C118.07 59.9554 117.819 59.4195 117.32 59.0313C117.231 58.9616 117.231 58.9616 117.141 58.8906C117.048 58.8194 117.048 58.8194 116.953 58.7467C116.888 58.6959 116.823 58.6451 116.755 58.5928C116.081 58.069 115.397 57.5579 114.707 57.0554C113.937 56.4828 113.251 55.8592 112.578 55.176C112.413 55.0088 112.247 54.8426 112.081 54.6767C111.58 54.1734 111.09 53.6664 110.627 53.1272C110.464 52.9395 110.289 52.7671 110.108 52.5961C109.755 52.2486 109.449 51.8781 109.143 51.4886C108.899 51.1815 108.645 50.8829 108.39 50.5845C108.07 50.2107 107.755 49.8348 107.448 49.4507C107.385 49.3725 107.321 49.2943 107.256 49.2138C107.13 49.0537 107.008 48.8905 106.89 48.7246C106.198 47.7948 105.269 47.1967 104.329 46.537C103.309 45.8184 102.344 45.1086 101.486 44.1997C101.285 43.988 101.076 43.7964 100.853 43.6077C100.17 43.0211 99.5501 42.3651 98.9168 41.7267C98.0633 40.8643 98.0633 40.8643 97.1619 40.0524C96.8543 39.79 96.5619 39.5111 96.2673 39.2344C95.8714 38.8629 95.4727 38.4962 95.0658 38.1368C94.4976 37.6286 93.9579 37.0938 93.4192 36.5549C93.2515 36.3873 93.0832 36.2201 92.9149 36.053C92.3601 35.5004 91.8191 34.9437 91.313 34.3457C91.2628 34.2889 91.2126 34.2321 91.1609 34.1735C90.8039 33.7686 90.4889 33.3442 90.1815 32.901C90.079 32.7547 89.9765 32.6086 89.8738 32.4625C89.8211 32.3874 89.7684 32.3124 89.7142 32.2351C89.3895 31.7755 89.0588 31.3203 88.7269 30.866C88.5046 30.5615 88.2846 30.2572 88.0733 29.945C87.4085 28.9715 86.5168 28.2148 85.6004 27.4819C85.129 27.1048 84.6843 26.704 84.2426 26.2933C84.1778 26.2334 84.1131 26.1736 84.0463 26.112C83.6611 25.7507 83.3053 25.3746 82.9608 24.9746C82.7222 24.6986 82.4733 24.4325 82.2242 24.1659C80.892 22.7329 80.892 22.7329 80.5472 22.2937C80.3696 22.0775 80.194 21.9061 79.9795 21.7276C79.7177 21.5048 79.4681 21.2778 79.2272 21.0327C78.9411 20.743 78.6414 20.4763 78.3327 20.2109C77.9921 19.9125 77.6603 19.6047 77.3282 19.2969C77.2528 19.2271 77.2528 19.2271 77.1759 19.156C77.1213 19.1054 77.0666 19.0547 77.0103 19.0026C76.8855 18.8891 76.7592 18.7772 76.6317 18.6667C76.0764 18.1819 75.5566 17.6696 75.0398 17.1444C74.9662 17.0698 74.8925 16.9952 74.8166 16.9183C74.5095 16.6069 74.2025 16.2956 73.8975 15.9822C72.9756 15.0363 72.0653 14.1952 70.9431 13.4918C70.6159 13.2833 70.2983 13.0608 69.9793 12.8401C69.9062 12.7899 69.833 12.7398 69.7576 12.6881C69.7007 12.6492 69.6438 12.6102 69.5852 12.57C69.3333 12.3973 69.0812 12.2249 68.8291 12.0526C67.8541 11.3861 66.883 10.7139 65.9127 10.0406C65.8243 9.97961 65.7359 9.91857 65.6448 9.85568C65.4645 9.72953 65.2855 9.6013 65.108 9.47127C64.9788 9.37745 64.9788 9.37745 64.847 9.28174C64.7705 9.22519 64.694 9.16865 64.6153 9.11039C64.1465 8.84152 63.8445 9.05887 63.4306 9.31259Z" fill="#E6C592"/>
<path d="M62.7388 20.7881C63.5785 20.7881 64.4181 20.7881 65.2832 20.7881C65.6128 21.6641 65.6128 21.6641 65.7133 22.088C65.7357 22.1811 65.7582 22.2741 65.7813 22.37C65.8047 22.4676 65.828 22.5651 65.852 22.6656C65.9303 22.9797 66.0093 23.2937 66.0884 23.6077C66.136 23.7976 66.183 23.9878 66.2292 24.1781C66.5634 25.5381 67.14 26.561 67.9254 27.7128C70.0404 30.8199 71.3484 34.3606 72.769 37.819C73.1458 38.7361 73.529 39.6498 73.9261 40.5584C74.0033 40.7353 74.0802 40.9123 74.157 41.0894C74.3854 41.6138 74.6187 42.1348 74.8637 42.6518C74.9285 42.7922 74.9285 42.7922 74.9947 42.9354C75.0735 43.1054 75.1545 43.2744 75.2383 43.4419C75.4242 43.8475 75.4971 44.1055 75.3598 44.538C75.2971 44.6845 75.2328 44.8305 75.1672 44.9757C75.1323 45.0878 75.1323 45.0878 75.0968 45.2022C74.8508 45.9228 74.3544 46.1813 73.7054 46.5301C73.6086 46.585 73.5117 46.6399 73.412 46.6964C72.9933 46.9313 72.5829 47.1458 72.1335 47.3165C72.1471 48.0564 72.1884 48.8308 72.736 49.3821C73.2673 49.79 73.8468 50.1129 74.4353 50.431C74.691 50.5755 74.9233 50.7379 75.1579 50.9144C76.3636 51.809 77.5357 52.1212 78.996 52.4125C80.4409 52.7092 81.7124 53.0187 82.9961 53.7535C83.1925 53.8576 83.3893 53.9609 83.5867 54.0633C83.6815 54.1128 83.7764 54.1623 83.8741 54.2133C85.2227 54.9084 86.6058 55.4781 88.0176 56.0333C89.9284 56.7852 91.7458 57.6269 93.5385 58.6269C94.5599 59.1962 95.6088 59.6468 96.6966 60.0747C96.9381 60.1707 97.1794 60.2669 97.4207 60.363C97.5691 60.4221 97.7176 60.4809 97.8661 60.5396C98.1846 60.6654 98.5002 60.794 98.8144 60.9305C99.1176 61.0576 99.4157 61.1601 99.7307 61.2535C99.8409 61.2865 99.951 61.3196 100.064 61.3536C100.18 61.3882 100.296 61.4228 100.415 61.4585C100.657 61.5326 100.898 61.6071 101.14 61.6817C101.261 61.7192 101.382 61.7567 101.507 61.7953C101.69 61.8518 101.69 61.8518 101.877 61.9095C101.94 61.9288 102.002 61.9481 102.066 61.9679C102.251 62.0249 102.435 62.0819 102.62 62.1389C102.728 62.1722 102.835 62.2054 102.946 62.2397C103.245 62.3338 103.543 62.4325 103.84 62.5313C103.776 63.4003 103.711 64.2693 103.645 65.1646C102.568 65.5506 101.5 65.9192 100.393 66.2076C99.0751 66.5629 97.8164 67.1546 96.5682 67.7004C96.4967 67.7317 96.4251 67.763 96.3514 67.7952C95.3654 68.2281 94.4021 68.6877 93.455 69.2C93.3499 69.2566 93.2448 69.3133 93.1366 69.3716C92.7174 69.601 92.3053 69.8308 91.9121 70.1025C90.8161 70.8404 89.5646 70.994 88.2836 71.2123C86.4339 71.5271 86.4339 71.5271 84.782 72.3819C84.6994 72.4372 84.6167 72.4925 84.5316 72.5494C84.1289 72.8188 83.7342 73.0969 83.3439 73.3839C82.0076 74.3343 80.5694 74.6178 78.9838 74.9177C78.7172 74.9688 78.4508 75.0201 78.1848 75.0741C78.0435 75.1026 77.9017 75.129 77.7595 75.1526C77.2844 75.2454 77.0186 75.4458 76.6802 75.7717C76.5372 75.893 76.5372 75.893 76.3415 75.893C76.3199 75.9875 76.3199 75.9875 76.2979 76.0839C76.1291 76.7908 75.9226 77.48 75.6977 78.171C75.5579 78.6025 75.4275 79.035 75.305 79.4717C75.0006 80.5441 74.5975 81.5705 74.1824 82.6044C73.557 84.159 73.557 84.159 73.0142 85.7437C72.9931 85.8113 72.9719 85.879 72.9501 85.9487C72.8946 86.1298 72.8412 86.3116 72.7879 86.4934C72.768 86.5614 72.748 86.6294 72.7275 86.6995C72.5149 87.4286 72.3114 88.1603 72.107 88.8917C71.8787 89.7066 71.6452 90.5198 71.4028 91.3306C71.2711 91.7728 71.1443 92.2133 71.0398 92.6626C70.7172 93.999 70.1364 95.1832 69.5175 96.4042C68.9046 97.6143 68.3823 98.8296 67.9866 100.129C67.9274 100.317 67.868 100.504 67.8085 100.691C67.7226 100.962 67.6373 101.233 67.5551 101.505C66.938 103.539 65.9425 105.405 64.9896 107.298C64.3114 107.298 63.6333 107.298 62.9345 107.298C62.8752 107.125 62.8159 106.953 62.7549 106.775C62.49 106.006 62.2235 105.238 61.9559 104.47C61.9157 104.354 61.8755 104.239 61.834 104.119C60.3719 99.9367 58.5937 95.9226 56.64 91.9462C56.2158 91.0827 55.8034 90.2162 55.4212 89.3334C55.3015 89.0599 55.1786 88.788 55.0553 88.5161C54.9348 88.2488 54.8166 87.9805 54.6989 87.7119C54.6409 87.5807 54.582 87.4499 54.5223 87.3195C54.1308 86.4625 53.8218 85.6225 54.0292 84.6708C54.2131 84.3758 54.4373 84.2268 54.7325 84.0491C54.8841 83.9464 55.0354 83.8435 55.1867 83.7405C55.268 83.6871 55.3493 83.6338 55.4331 83.5788C55.9085 83.2569 56.3579 82.9004 56.8121 82.5495C56.9871 82.4156 57.1623 82.282 57.3377 82.1487C57.4122 82.0919 57.4867 82.0351 57.5634 81.9766C57.7479 81.8424 57.7479 81.8424 57.9436 81.7449C57.8751 81.3312 57.7486 80.9585 57.595 80.5684C57.5504 80.4506 57.5059 80.3328 57.46 80.2114C57.1983 79.7962 56.9174 79.6746 56.4757 79.5017C56.3623 79.4559 56.2489 79.4101 56.132 79.363C55.8628 79.2548 55.5931 79.1479 55.3232 79.0414C53.7028 78.4004 52.2152 77.6878 50.7864 76.6809C49.5682 75.8551 48.2685 75.4655 46.8735 75.0391C45.3259 74.5632 44.028 73.9676 42.6773 73.0646C41.4415 72.2534 40.2039 71.9096 38.7656 71.5746C38.3923 71.4859 38.0245 71.3848 37.6558 71.2786C37.511 71.2369 37.511 71.2369 37.3633 71.1944C37.2326 71.1546 37.2326 71.1546 37.0992 71.114C37.0113 71.0937 36.9233 71.0733 36.8327 71.0523C36.3352 70.8455 35.9429 70.5119 35.5212 70.1814C35.3377 70.0398 35.1542 69.8982 34.9707 69.7566C34.8825 69.6882 34.7943 69.6197 34.7035 69.5492C34.3912 69.3076 34.0761 69.0704 33.7597 68.8342C33.6291 68.7366 33.6291 68.7366 33.4959 68.6369C33.1901 68.413 32.9706 68.2642 32.5961 68.2089C32.5171 68.1967 32.4381 68.1845 32.3567 68.172C32.2284 68.153 32.2285 68.153 32.0976 68.1336C31.9138 68.1045 31.73 68.0752 31.5463 68.0456C31.4502 68.0302 31.3541 68.0148 31.2551 67.9989C29.5898 67.7266 28.1435 67.4198 26.6715 66.5664C26.2493 66.3301 25.8078 66.1342 25.3681 65.9327C24.5885 65.5703 24.5885 65.5703 24.4751 65.4572C24.4665 65.2693 24.4646 65.0811 24.4655 64.893C24.4659 64.7789 24.4662 64.6648 24.4665 64.5473C24.4673 64.4271 24.4681 64.307 24.469 64.1832C24.4694 64.0627 24.4699 63.9422 24.4703 63.8181C24.4715 63.5192 24.4731 63.2203 24.4751 62.9214C24.9589 62.7371 25.4414 62.5666 25.9369 62.4155C26.0025 62.3949 26.0681 62.3744 26.1357 62.3532C26.5478 62.2242 26.9611 62.1019 27.3765 61.9842C29.1509 61.4674 30.7289 60.6694 32.3307 59.7582C33.3357 59.2014 34.3953 58.9569 35.5116 58.7021C37.0374 58.3451 38.4839 57.8404 39.9372 57.2585C40.0317 57.2209 40.1262 57.1832 40.2236 57.1444C42.3011 56.3133 44.3045 55.3511 46.2981 54.3387C46.433 54.2705 46.568 54.2023 46.7029 54.1342C48.0749 53.443 48.0749 53.443 49.4178 52.6982C49.4893 52.6567 49.5608 52.6152 49.6344 52.5724C49.7595 52.4987 49.8838 52.4236 50.0069 52.3465C50.4609 52.076 50.8721 52.0299 51.3869 51.998C51.4038 51.9437 51.4206 51.8894 51.4379 51.8334C51.6055 51.311 51.8081 50.8275 52.0559 50.3384C52.1284 50.1919 52.2008 50.0454 52.2731 49.8987C52.3103 49.8234 52.3475 49.7482 52.3858 49.6706C53.0505 48.3168 53.5775 47.053 53.8334 45.5609C54.4952 41.9778 55.8802 38.4789 57.7629 35.3596C58.1549 34.7059 58.4552 34.1081 58.5919 33.3513C58.6207 33.2157 58.6207 33.2157 58.6499 33.0774C58.7533 32.5864 58.8424 32.0939 58.926 31.5992C59.2257 29.9473 59.829 28.5662 60.5782 27.0747C61.1173 26.0001 61.5147 24.9048 61.8519 23.7506C61.901 23.5852 61.95 23.4199 61.9991 23.2546C62.0362 23.1288 62.0362 23.1288 62.0741 23.0005C62.2084 22.547 62.3453 22.0943 62.4819 21.6415C62.5667 21.3599 62.6515 21.0782 62.7388 20.7881Z" fill="#D29641"/>
</svg>
