<svg width="128" height="128" viewBox="0 0 128 128" fill="none" xmlns="http://www.w3.org/2000/svg">
	<path
		d="M61.1225 0C61.4967 0.0496938 61.7558 0.19261 62.0771 0.388655C62.1273 0.419211 62.1774 0.449767 62.2291 0.481249C62.335 0.545991 62.4407 0.611051 62.5462 0.67641C62.7053 0.774796 62.8652 0.871782 63.0253 0.968649C63.5853 1.31091 64.1028 1.66623 64.5762 2.12598C64.6294 2.17571 64.6825 2.22543 64.7372 2.27667C64.9021 2.43098 65.0657 2.58659 65.2291 2.74251C65.6323 3.12581 66.0366 3.50776 66.4452 3.88523C66.5249 3.95889 66.6046 4.03256 66.6867 4.10845C66.8641 4.27183 67.0418 4.43476 67.2198 4.59743C67.3161 4.686 67.4124 4.77458 67.5087 4.86318C67.5521 4.90255 67.5955 4.94193 67.6402 4.98249C68.2212 5.51858 68.6801 6.09368 69.0723 6.78187C69.16 6.9324 69.2477 7.08288 69.3356 7.23331C69.3826 7.3142 69.4296 7.39508 69.4781 7.47842C69.6998 7.85714 69.926 8.23311 70.1527 8.60886C70.2758 8.81296 70.398 9.01757 70.5195 9.22262C70.7998 9.69403 71.0844 10.1583 71.3984 10.608C72.2011 11.7812 72.4726 12.9095 72.6631 14.2946C72.7625 15.0143 72.8934 15.7279 73.0233 16.4426C73.0621 16.6573 73.1003 16.872 73.1382 17.0869C73.1618 17.2208 73.1855 17.3546 73.2091 17.4885C73.2203 17.5519 73.2315 17.6154 73.2431 17.6807C73.303 18.0176 73.3677 18.3529 73.4381 18.6877C73.5697 19.3661 73.4515 19.7383 73.1367 20.3403C73.0984 20.4156 73.0601 20.4908 73.0206 20.5684C72.9026 20.7995 72.7831 21.0298 72.6629 21.2598C72.6292 21.3244 72.5954 21.389 72.5607 21.4556C72.4961 21.5791 72.4315 21.7025 72.3668 21.826C72.2246 22.0976 72.0832 22.3696 71.9421 22.6418C71.8577 22.8041 71.7728 22.9661 71.6875 23.1278C70.6335 25.1354 69.7995 27.2299 68.9718 29.3408C68.8714 29.5959 68.7699 29.8504 68.6682 30.105C68.2867 31.066 67.9515 32.0229 67.6824 33.0218C67.6474 33.1489 67.6122 33.276 67.577 33.4031C67.3351 34.2784 67.0997 35.1558 66.8711 36.0348C66.7554 36.4774 66.6294 36.9078 66.4674 37.3356C66.4208 37.5402 66.4399 37.6468 66.5137 37.8424C66.616 37.9994 66.616 37.9994 66.7473 38.15C66.7954 38.208 66.8436 38.266 66.8932 38.3258C66.9452 38.3873 66.9971 38.4487 67.0507 38.5121C67.1592 38.6428 67.2677 38.7736 67.3761 38.9044C67.43 38.9694 67.4839 39.0343 67.5395 39.1013C67.7519 39.3598 67.9574 39.6234 68.1615 39.8887C68.4105 40.2122 68.6624 40.5327 68.9203 40.849C68.971 40.9112 69.0216 40.9734 69.0738 41.0375C69.173 41.159 69.2725 41.2802 69.3724 41.4011C69.4171 41.4558 69.4617 41.5105 69.5077 41.5669C69.5476 41.6154 69.5876 41.6639 69.6288 41.7139C69.7146 41.8393 69.7146 41.8393 69.7146 42.0093C70.0012 42.0042 70.2878 41.999 70.5744 41.9937C70.6637 41.9921 70.753 41.9905 70.845 41.9888C71.3356 41.9798 71.8261 41.9699 72.3166 41.9585C72.5135 41.9539 72.7105 41.9494 72.9074 41.9449C73.0527 41.9416 73.0527 41.9416 73.2009 41.9382C73.7224 41.9272 74.2424 41.9242 74.7639 41.9356C75.8317 41.9795 75.8317 41.9795 76.7631 41.5289C76.9412 41.3533 77.0986 41.1661 77.2539 40.9699C77.4841 40.6944 77.7534 40.4602 78.0172 40.2182C78.1229 40.1176 78.2285 40.017 78.3341 39.9162C78.5328 39.7287 78.7352 39.5491 78.9454 39.3748C78.9923 39.3348 79.0392 39.2949 79.0876 39.2537C79.2136 39.1471 79.3415 39.0428 79.4696 38.9386C79.7368 38.5835 79.7277 38.2786 79.7388 37.8424C79.7427 37.7547 79.7465 37.6669 79.7506 37.5765C79.7628 37.2878 79.7722 36.9992 79.7809 36.7103C79.7983 36.1366 79.819 35.5651 79.8661 34.9929C79.9043 34.5227 79.9186 34.0548 79.9274 33.5831C79.9833 30.8816 79.9833 30.8816 80.4969 30.1039C80.7194 30.0267 80.7194 30.0267 80.999 29.9643C81.0996 29.9418 81.2001 29.9192 81.3037 29.8959C81.4093 29.8733 81.5148 29.8507 81.6235 29.8275C81.7284 29.8036 81.8333 29.7797 81.9414 29.7551C82.8506 29.5553 82.8506 29.5553 83.1082 29.6787C83.2687 29.8617 83.2687 29.8617 83.431 30.0985C83.4899 30.1838 83.5489 30.2691 83.6096 30.357C83.6665 30.4418 83.7234 30.5267 83.7821 30.6141C83.8287 30.6832 83.8754 30.7522 83.9234 30.8234C84.0654 31.0362 84.2056 31.2502 84.3454 31.4645C84.846 32.2273 85.3506 32.9872 85.859 33.7447C86.1265 34.1435 86.3927 34.5431 86.6563 34.9446C87.3216 35.9562 87.3216 35.9562 88.0564 36.9163C89.1438 38.2728 89.431 39.713 89.6997 41.3981C89.7087 41.4545 89.7178 41.5109 89.7271 41.569C89.9224 42.7997 90.1028 43.9982 89.9314 45.2408C89.9167 45.358 89.9022 45.4751 89.8878 45.5923C89.8405 45.9613 89.7863 46.3292 89.7313 46.6971C89.7045 46.8798 89.6778 47.0624 89.6513 47.2451C89.633 47.3701 89.6144 47.495 89.5956 47.6198C89.5436 47.9679 89.4985 48.3156 89.4615 48.6657C89.3354 49.8093 89.0512 50.8167 88.6467 51.8898C88.5918 52.0396 88.5371 52.1895 88.4826 52.3394C88.3746 52.6353 88.2653 52.9306 88.1549 53.2256C88.0471 53.5144 87.9422 53.8041 87.8398 54.095C87.5719 54.8534 87.2859 55.5685 86.8883 56.2693C86.7932 56.4415 86.6981 56.6137 86.603 56.7859C86.5548 56.8725 86.5065 56.9592 86.4568 57.0484C86.3057 57.3228 86.1587 57.599 86.0127 57.8761C85.9645 57.9675 85.9162 58.0589 85.8665 58.1531C85.7748 58.3271 85.6834 58.5012 85.5923 58.6756C85.1661 59.478 84.7351 60.0625 84.0085 60.6063C83.9422 60.6571 83.8759 60.7079 83.8076 60.7603C83.6702 60.8655 83.5326 60.9703 83.3946 61.0748C83.1442 61.2648 82.8958 61.4572 82.6473 61.6497C82.2269 61.9755 81.8053 62.2998 81.382 62.6217C80.7947 63.0695 80.2217 63.5187 79.6818 64.0248C79.4001 64.2835 79.1038 64.5228 78.8066 64.763C78.5668 64.9534 78.5668 64.9534 78.4122 65.1363C78.0462 65.5251 77.7768 65.6957 77.2408 65.7312C77.0217 65.733 76.8044 65.7312 76.5855 65.7263C76.4658 65.7262 76.3461 65.7264 76.2263 65.727C75.9722 65.7276 75.7182 65.7263 75.4641 65.7233C74.8655 65.7165 74.267 65.7201 73.6685 65.7228C73.4672 65.7236 73.2659 65.7241 73.0647 65.7245C71.868 65.7286 70.6772 65.7829 69.483 65.8628C69.3962 65.8685 69.3095 65.8741 69.2201 65.8799C68.5681 65.9227 67.9168 65.9658 67.267 66.035C66.888 66.0741 66.5115 66.0934 66.1306 66.1023C66.0638 66.1041 65.9969 66.1059 65.9281 66.1077C65.7091 66.1133 65.4901 66.1183 65.2712 66.1233C65.1954 66.125 65.1197 66.1268 65.0416 66.1286C63.7669 66.1579 62.4923 66.1695 61.2173 66.1711C61.094 66.1714 61.094 66.1714 60.9683 66.1718C60.2054 66.1734 59.4505 66.1723 58.6907 66.0959C58.2077 66.0584 57.7233 66.0584 57.239 66.0512C56.7005 66.0429 56.1623 66.0248 55.624 66.0068C55.1946 65.9934 54.7688 65.9935 54.3392 66.006C51.9279 66.0036 48.7534 64.3323 46.9083 62.8077C46.8004 62.6978 46.701 62.5796 46.6023 62.4613C46.5263 62.3726 46.4502 62.284 46.3739 62.1955C46.315 62.126 46.315 62.126 46.2549 62.055C46.0235 61.7868 45.7803 61.5296 45.5388 61.2707C45.1028 60.8004 44.6691 60.3281 44.2397 59.8516C44.0984 59.6959 43.9554 59.5417 43.8107 59.3892C43.2594 58.8012 42.8185 58.1676 42.3744 57.497C42.172 57.1944 41.9627 56.8967 41.7534 56.5989C41.7119 56.5394 41.6703 56.4799 41.6274 56.4186C41.4096 56.1072 41.1903 55.797 40.969 55.488C40.924 55.4248 40.8791 55.3616 40.8328 55.2965C40.748 55.1774 40.6628 55.0586 40.577 54.9403C40.049 54.1961 39.721 53.3746 39.407 52.5206C39.3706 52.4228 39.3342 52.325 39.2967 52.2242C39.1816 51.9145 39.0671 51.6045 38.9526 51.2946C38.8371 50.9831 38.7214 50.6717 38.6058 50.3603C38.5341 50.1673 38.4626 49.9742 38.3912 49.7811C38.3588 49.6937 38.3265 49.6062 38.2931 49.5161C38.2648 49.4395 38.2365 49.363 38.2074 49.2841C38.152 49.1366 38.0941 48.99 38.0341 48.8443C37.9338 48.5798 37.9091 48.3299 37.8792 48.0484C37.8729 47.9906 37.8666 47.9328 37.8601 47.8732C37.8465 47.7484 37.8332 47.6235 37.8201 47.4987C37.7922 47.232 37.7629 46.9655 37.7337 46.699C37.7185 46.5608 37.7035 46.4226 37.6885 46.2844C37.6126 45.5869 37.5306 44.8903 37.4469 44.1938C37.4399 44.1355 37.4329 44.0772 37.4258 44.0171C37.3576 43.4464 37.2875 42.8763 37.2063 42.3073C37.1944 42.2236 37.1826 42.14 37.1703 42.0538C37.1488 41.9052 37.1267 41.7567 37.1036 41.6083C37.0736 41.402 37.0505 41.1965 37.0309 40.9889C37.0224 40.9035 37.0139 40.818 37.0051 40.73C36.962 39.9466 37.1956 39.4584 37.5837 38.7938C38.1229 37.8229 38.47 36.8614 38.7397 35.7813C38.8333 35.4162 38.943 35.0564 39.0526 34.696C39.1913 34.2339 39.3271 33.7712 39.459 33.3071C39.4982 33.1697 39.4982 33.1697 39.5381 33.0296C39.5887 32.8518 39.6389 32.674 39.6888 32.4961C40.0319 31.2915 40.0319 31.2915 40.4952 30.8054C40.7655 30.5141 41.0222 30.2191 41.2691 29.9072C41.597 29.4976 41.9448 29.1128 42.3011 28.7288C42.5587 28.4497 42.8026 28.1649 43.0381 27.8663C43.9443 26.7325 44.9822 25.7288 46.0442 24.7464C46.1841 24.6161 46.3239 24.4856 46.4637 24.3552C46.5524 24.2725 46.6412 24.1899 46.7302 24.1075C46.9697 23.8856 47.2065 23.6615 47.4407 23.4339C48.0666 22.8285 48.7109 22.2857 49.4107 21.7697C49.7584 21.5122 50.0918 21.239 50.4245 20.9621C50.8686 20.5931 51.32 20.2385 51.7828 19.8938C52.2707 19.53 52.7353 19.1477 53.192 18.7449C53.5232 18.4539 53.8624 18.177 54.2099 17.9061C54.7518 17.4828 55.2692 17.0342 55.7841 16.578C55.8788 16.4944 55.9735 16.411 56.0684 16.3275C56.1156 16.2856 56.1628 16.2437 56.2115 16.2005C56.5544 15.9023 56.5544 15.9023 56.7422 15.9023C56.7604 15.8355 56.7785 15.7686 56.7972 15.6997C56.9485 15.2898 57.1616 14.9296 57.3793 14.5523C57.9205 13.601 58.4324 12.6358 58.9396 11.6657C58.9687 11.6103 58.9977 11.5548 59.0276 11.4977C59.0846 11.3884 59.1414 11.279 59.198 11.1694C59.3209 10.932 59.4471 10.6997 59.5862 10.4715C59.972 9.83228 60.0562 9.22458 60.1222 8.48797C60.1349 8.3634 60.1477 8.23884 60.1606 8.1143C60.188 7.84797 60.2141 7.58154 60.2393 7.31499C60.2819 6.86514 60.3287 6.41577 60.3756 5.96636C60.4072 5.66066 60.4385 5.35494 60.4697 5.0492C60.4772 4.97579 60.4847 4.90237 60.4925 4.82673C60.5138 4.61635 60.5346 4.40593 60.5553 4.19549C60.5647 4.10291 60.5647 4.10291 60.5743 4.00846C60.6788 3.22619 60.6788 3.22619 60.4852 2.49138C60.4582 2.44139 60.4312 2.39141 60.4034 2.33991C60.3749 2.29036 60.3464 2.24081 60.317 2.18976C60.0209 1.66734 60.0209 1.66734 60.049 1.44562C60.1165 1.26253 60.1923 1.15274 60.3197 1.00652C60.3608 0.958504 60.402 0.91049 60.4444 0.861021C60.4875 0.811911 60.5306 0.762801 60.575 0.712203C60.8801 0.378232 60.8801 0.378232 61.1225 0Z"
		fill="#984029" />
	<path
		d="M50.9048 73.3705C51.0658 73.3711 51.2268 73.3716 51.3877 73.3722C53.5779 73.3831 55.7676 73.4427 57.957 73.4976C58.5559 73.5126 59.1547 73.527 59.7536 73.5414C63.4619 73.6307 63.4619 73.6308 64.8631 73.6708C66.5421 73.7185 68.2196 73.7426 69.8993 73.74C70.2212 73.7395 70.5431 73.7398 70.865 73.7403C71.1198 73.7406 71.3745 73.7405 71.6293 73.7403C71.7481 73.7402 71.867 73.7403 71.9858 73.7405C72.6063 73.7413 73.2161 73.7217 73.8338 73.6639C74.3587 73.6237 74.8848 73.6234 75.411 73.623C75.4736 73.6228 75.5363 73.6227 75.6009 73.6226C77.1925 73.6234 78.7741 73.7469 80.3597 73.8754C80.7434 73.9063 81.1272 73.9357 81.511 73.9653C83.8109 74.1436 83.8109 74.1436 84.7089 74.2392C85.0882 75.3945 85.0108 76.0713 84.6635 77.2202C84.5 77.7681 84.3619 78.3226 84.223 78.8773C84.1173 79.2948 84.0026 79.7069 83.8741 80.1178C83.6656 80.7931 83.4975 81.4773 83.3295 82.1637C83.2961 82.2994 83.2627 82.435 83.2292 82.5706C83.0122 83.454 82.8055 84.3393 82.6061 85.2268C82.4399 85.9624 82.2567 86.6927 82.057 87.4198C82.0271 87.5364 82.001 87.6542 81.9782 87.7725C81.8937 88.1938 81.7842 88.3861 81.4447 88.6427C81.3609 88.707 81.2771 88.7714 81.1907 88.8376C81.1008 88.9031 81.0109 88.9685 80.9182 89.036C80.8301 89.1005 80.7419 89.1651 80.6511 89.2316C80.4578 89.372 80.2636 89.511 80.069 89.6495C79.6974 89.9148 79.3311 90.1874 78.965 90.4604C78.8977 90.5105 78.8304 90.5607 78.7611 90.6123C78.5535 90.7671 78.346 90.922 78.1385 91.0769C75.8239 92.8047 75.8239 92.8047 75.1059 93.2879C75.0471 93.5294 75.0471 93.5294 75.0253 93.8224C75.0168 93.9068 75.0168 93.9068 75.008 93.9929C74.9955 94.1178 74.9835 94.2427 74.9719 94.3677C74.9528 94.5742 74.932 94.7806 74.9109 94.9869C74.8433 95.6515 74.7798 96.3165 74.7181 96.9816C74.458 99.782 74.0806 102.531 73.5613 105.295C73.29 106.739 73.0938 108.174 72.9474 109.637C72.9201 109.906 72.8926 110.176 72.865 110.445C72.848 110.611 72.8312 110.777 72.8146 110.943C72.807 111.018 72.7994 111.093 72.7915 111.171C72.7817 111.269 72.7817 111.269 72.7717 111.369C72.7539 111.517 72.7299 111.665 72.7025 111.812C72.6577 112.118 72.6568 112.407 72.6615 112.717C72.6632 112.845 72.6649 112.973 72.6665 113.1C72.6681 113.201 72.6681 113.201 72.6696 113.304C72.6748 113.668 72.6773 114.031 72.6804 114.394C72.6844 114.853 72.689 115.312 72.6966 115.771C72.7254 117.581 72.6732 119.25 72.222 121.011C72.1177 121.424 72.0306 121.842 71.9418 122.26C71.9078 122.416 71.8736 122.572 71.8395 122.728C71.7621 123.091 71.6923 123.454 71.6256 123.819C71.5979 123.97 71.5979 123.97 71.5697 124.124C71.5343 124.319 71.4996 124.514 71.4658 124.709C71.4498 124.797 71.4338 124.885 71.4173 124.976C71.3969 125.093 71.3969 125.093 71.376 125.213C71.2426 125.697 70.9318 126.015 70.5835 126.358C70.5388 126.402 70.4942 126.447 70.4482 126.492C70.1033 126.834 69.7465 127.159 69.3779 127.474C69.3501 127.502 69.3223 127.53 69.2936 127.559C69.1484 127.576 69.0026 127.588 68.8567 127.598C68.7633 127.605 68.6699 127.611 68.5736 127.618C68.4717 127.625 68.3697 127.631 68.2647 127.638C68.108 127.649 68.108 127.649 67.9482 127.66C67.6692 127.68 67.3902 127.699 67.1112 127.717C66.7209 127.744 66.3307 127.77 65.9405 127.797C65.7329 127.811 65.5252 127.826 65.3175 127.84C64.8212 127.873 64.3265 127.912 63.832 127.967C63.5118 127.997 63.1921 128 62.8706 128C62.7982 128 62.7258 128 62.6513 128C62.0527 127.994 61.4624 127.947 60.8671 127.887C60.1565 127.815 59.4451 127.765 58.7325 127.718C58.6465 127.712 58.6465 127.712 58.5588 127.707C58.2342 127.685 57.9095 127.664 57.5848 127.644C57.3881 127.065 57.192 126.486 56.9961 125.907C56.9296 125.71 56.8631 125.514 56.7964 125.317C56.5787 124.677 56.3638 124.035 56.1528 123.392C56.1297 123.322 56.1065 123.252 56.0827 123.18C55.8009 122.316 55.641 121.47 55.5441 120.567C55.5199 120.342 55.4941 120.117 55.4681 119.893C55.3879 119.195 55.3134 118.498 55.2444 117.8C55.2076 117.428 55.1699 117.056 55.1314 116.684C55.1236 116.609 55.1158 116.534 55.1078 116.456C54.8242 113.77 54.3676 111.082 53.8674 108.429C53.806 108.089 53.7712 107.762 53.7652 107.416C53.7628 107.31 53.7605 107.203 53.7581 107.094C53.7571 107.038 53.7562 106.981 53.7552 106.923C53.7495 106.601 53.7404 106.278 53.732 105.955C53.7302 105.886 53.7285 105.817 53.7266 105.745C53.6957 104.534 53.6501 103.324 53.5869 102.114C53.5552 101.481 53.5331 100.847 53.5168 100.213C53.4973 99.4525 53.4701 98.6929 53.4362 97.9332C53.4173 97.504 53.402 97.0754 53.395 96.6458C53.4365 94.8749 53.4365 94.8749 52.8377 93.2745C52.3673 92.8464 51.84 92.5898 51.2525 92.3624C50.947 92.2406 50.6962 92.0845 50.4221 91.9027C50.3443 91.8549 50.2664 91.8072 50.1862 91.7579C49.3334 91.231 48.5513 90.6659 47.7917 90.0108C47.6045 89.8521 47.4126 89.7006 47.2184 89.5508C47.1278 89.4809 47.0378 89.41 46.9485 89.3383C46.7257 89.1608 46.5108 89.0152 46.2593 88.8812C45.7107 88.5591 45.4613 88.2842 45.2728 87.6611C45.1354 87.1262 45.0285 86.586 44.9271 86.0432C44.8339 85.5564 44.7202 85.075 44.6071 84.5927C44.5662 84.4131 44.5254 84.2335 44.4847 84.0539C44.1625 82.6245 44.1625 82.6245 43.8067 81.2035C43.7474 80.943 43.754 80.681 43.7542 80.4151C43.7542 80.35 43.7543 80.2848 43.7543 80.2177C43.7612 79.4519 43.8185 78.6893 43.8725 77.9257C43.9252 77.179 43.967 76.433 43.9939 75.6849C44.0105 75.2551 44.0483 74.8354 44.107 74.4092C44.6229 74.291 45.1399 74.1819 45.6591 74.0797C45.7689 74.058 45.7689 74.058 45.8809 74.0359C46.0347 74.0055 46.1885 73.9753 46.3424 73.945C46.5747 73.8993 46.807 73.8533 47.0393 73.8073C47.1899 73.7776 47.3406 73.7479 47.4912 73.7183C47.5592 73.7048 47.6271 73.6913 47.6972 73.6775C47.8332 73.6508 47.9694 73.6247 48.1057 73.5992C48.2508 73.5717 48.3955 73.5425 48.5399 73.5117C49.328 73.3567 50.1054 73.3649 50.9048 73.3705Z"
		fill="#95806E" />
	<path
		d="M56.995 37.417C57.1894 37.596 57.3005 37.7536 57.4049 37.9968C57.433 38.0617 57.4612 38.1265 57.4902 38.1933C57.5199 38.2635 57.5497 38.3336 57.5803 38.4059C57.612 38.4793 57.6437 38.5527 57.6764 38.6283C57.778 38.8639 57.8788 39.0998 57.9795 39.3357C58.0785 39.566 58.1776 39.7962 58.2769 40.0264C58.3428 40.1798 58.4083 40.3333 58.4735 40.4869C58.6266 40.8466 58.7831 41.2028 58.9547 41.5539C59.4092 42.4955 59.582 43.3623 59.68 44.4008C59.6965 44.555 59.7131 44.7092 59.73 44.8634C59.8264 45.7624 59.9034 46.663 59.9721 47.5645C60.1168 49.4597 60.1168 49.4597 61.1068 51.0233C61.2499 51.1399 61.396 51.2528 61.5437 51.3634C61.5918 51.3997 61.6399 51.4361 61.6895 51.4735C62.6067 52.1613 63.5691 52.778 64.5509 53.3671C64.7447 53.4894 64.7447 53.4894 64.9052 53.616C65.2563 53.8837 65.5133 53.9367 65.9539 53.929C66.0588 53.9273 66.1638 53.9257 66.2719 53.924C66.7902 53.909 67.308 53.8895 67.8259 53.8648C67.9393 53.8594 68.0527 53.8541 68.1661 53.8488C68.4014 53.8377 68.6367 53.8264 68.872 53.8149C69.1712 53.8004 69.4704 53.7867 69.7696 53.7732C70.0029 53.7626 70.2362 53.7513 70.4695 53.7399C70.6327 53.7321 70.7959 53.7249 70.9591 53.7176C71.7296 53.6786 72.4622 53.6238 73.1601 53.2682C73.2437 53.2265 73.3272 53.1848 73.4133 53.1419C73.4975 53.0987 73.5817 53.0555 73.6685 53.011C73.8393 52.9245 74.0103 52.8383 74.1815 52.7526C74.256 52.7145 74.3304 52.6764 74.4072 52.6371C74.6004 52.554 74.6004 52.554 74.8531 52.554C75.1444 53.5353 75.0357 54.7244 75.0321 55.7429C75.0319 55.842 75.0319 55.842 75.0317 55.9432C75.0297 56.7874 75.021 57.6311 74.9899 58.4748C74.9861 58.5923 74.9861 58.5923 74.9821 58.7122C74.9351 59.7706 74.6237 60.5732 74.1476 61.5043C74.0866 61.6253 74.0257 61.7464 73.9648 61.8675C73.016 63.7477 73.016 63.7477 72.5168 64.5916C72.4004 64.8006 72.4004 64.8006 72.3431 65.0521C72.2388 65.3708 72.1623 65.5181 71.9048 65.735C71.2377 65.9335 70.5092 65.9021 69.8199 65.9157C69.6264 65.9226 69.433 65.9299 69.2395 65.9377C68.8821 65.9517 68.5248 65.9629 68.1672 65.9719C67.7914 65.9832 67.4216 66.0147 67.048 66.0556C66.7425 66.0859 66.4374 66.0949 66.1307 66.1021C66.0638 66.1039 65.9969 66.1056 65.9279 66.1075C65.709 66.1131 65.4901 66.1181 65.2712 66.123C65.1958 66.1248 65.1203 66.1266 65.0426 66.1285C63.1745 66.1724 61.3063 66.1686 59.4378 66.1602C59.4378 66.1322 59.4378 66.1041 59.4378 66.0752C59.7992 66.0471 60.1606 66.0191 60.5329 65.9901C59.6005 65.4044 58.6655 64.8232 57.7259 64.2493C56.311 63.3847 54.912 62.5011 53.5403 61.5678C53.2107 61.3442 52.8787 61.1248 52.5447 60.9081C52.3126 60.7572 52.0812 60.6052 51.8499 60.4531C51.7359 60.3785 51.6215 60.3044 51.5067 60.2309C51.3449 60.1271 51.1844 60.0215 51.0241 59.9155C50.9308 59.8549 50.8375 59.7944 50.7414 59.732C50.3178 59.359 50.2266 58.8675 50.1142 58.3293C50.1024 58.2736 50.0906 58.2179 50.0784 58.1605C50.0406 57.9819 50.0035 57.8032 49.9665 57.6244C49.9276 57.44 49.8884 57.2555 49.8492 57.0711C49.8236 56.9503 49.798 56.8294 49.7724 56.7086C49.6231 56.0026 49.4673 55.2967 49.2862 54.5982C49.108 53.9058 49.0529 53.2305 49.0399 52.5168C49.0341 52.3919 49.0341 52.3919 49.0282 52.2645C49.0165 51.4646 49.2752 50.8087 49.5822 50.0878C49.6216 49.9943 49.6216 49.9943 49.6618 49.8989C49.8284 49.5055 49.9994 49.1142 50.173 48.7239C50.262 48.5238 50.3503 48.3234 50.4385 48.123C51.2831 46.2092 51.2831 46.2092 51.7407 45.687C51.8151 45.6004 51.8894 45.5136 51.9635 45.4266C52.0015 45.3823 52.0394 45.338 52.0785 45.2924C52.3134 45.0128 52.5336 44.7214 52.756 44.4318C52.9643 44.1617 53.1762 43.896 53.3955 43.6348C53.4425 43.5782 53.4896 43.5216 53.538 43.4633C53.6266 43.3572 53.7159 43.2517 53.8063 43.1473C54.6246 42.1605 55.1571 40.9048 55.7472 39.7715C55.8764 39.5238 56.0058 39.2761 56.1352 39.0284C56.181 38.9406 56.181 38.9406 56.2278 38.851C56.4791 38.3706 56.7352 37.8929 56.995 37.417Z"
		fill="#D29534" />
</svg>