<svg width="128" height="128" viewBox="0 0 128 128" fill="none" xmlns="http://www.w3.org/2000/svg">
<path d="M75.2154 73.2382L69.7092 82.9217L64.6641 92.5588L59.6743 82.9217L53.5778 73.6092L48.8187 63.833L52.2865 55.6058L56.3724 47.5733L60.2554 39.4481L64.7379 31.3971L64.7287 31.4435L68.4733 39.8469L69.9305 42.9634C70.4378 44.058 71.5261 44.7351 72.7251 44.7814C73.4077 44.8092 74.0533 44.9484 74.2286 45.3472C74.4775 45.9408 73.8135 47.833 73.4168 48.8718C73.2417 49.3264 73.2693 49.8365 73.5091 50.2631L76.645 55.9768L80.8231 63.7217L75.2154 73.2382ZM97.6831 64.8626L85.5823 63.7774L97.7384 62.6921L101.492 62.386L108.788 61.5327L105.191 55.5779L98.9836 47.3878L93.6802 38.5762L89.0502 29.3194L81.8469 21.8063L77.5766 12.2991L70.3364 4.79529L67.7446 -4.44055e-06L67.7169 0.213311L66.3888 10.611L65.4204 21.0551L64.7287 26.4812L64.1845 21.0457L62.5796 10.6667L61.8602 0.964579L59.5821 4.2759L54.1035 13.1153L46.8079 20.6747L41.5785 28.4938C41.2372 29.0133 41.1357 29.6533 41.3018 30.2562L43.9487 39.5872C44.1609 40.3293 43.4784 40.9971 42.7497 40.7745L38.1105 39.3275C37.1882 39.0399 36.2013 39.411 35.694 40.2365L31.1193 47.7124L23.9252 55.3739L19.12 61.6162L27.9742 61.9779L38.3503 62.9982L42.3163 63.7217L38.2581 64.1391L27.9373 65.7437L19 65.9663L23.9529 72.2272L29.8557 80.7235L31.4882 95.7959L33.6742 85.5466L36.2843 88.8486L38.3319 92.8092L41.8551 114.616L44.1886 102.15L47.4167 106.314L53.7714 114.495L59.0195 123.464L61.4452 126.646L61.5006 124.401L62.4044 113.966L63.7879 103.559L64.6641 97.3264L65.5679 103.559L66.3427 114.003L67.6062 124.42L67.7723 128L70.9082 123.01L79.4765 110.72C79.4765 110.72 77.5766 107.334 78.7386 105.257C80.2052 102.641 84.9458 100.174 84.9458 100.174L87.3808 97.0851L89.9541 106.694L90.8303 92.7165L93.8094 88.9414C93.8094 88.9414 93.1914 86.1402 93.6987 85.4168C94.1414 84.7768 96.6593 84.415 96.6593 84.415L99.2787 80.2504L106.27 72.5704L109 66.1518L101.446 65.1594L97.6831 64.8626Z" fill="#6D5C4D"/>
</svg>
