<svg width="128" height="128" viewBox="0 0 128 128" fill="none" xmlns="http://www.w3.org/2000/svg">
	<path
		d="M9.90394 0.0222344C10.0643 0.0212938 10.2247 0.0203533 10.3899 0.0193842C10.9213 0.0168217 11.4527 0.0170035 11.984 0.017427C12.3536 0.0167117 12.7232 0.015914 13.0928 0.0150373C13.8685 0.0136627 14.6441 0.0137184 15.4198 0.0146863C16.4117 0.0157501 17.4035 0.0126438 18.3954 0.00836581C19.1593 0.00564781 19.9232 0.00549411 20.6871 0.00606721C21.0526 0.00597297 21.4181 0.00501291 21.7836 0.00315734C22.2964 0.000874984 22.809 0.00213615 23.3217 0.00426267C23.4715 0.00285599 23.6213 0.00144931 23.7756 0C26.0835 0.0210486 27.556 1.29351 29.107 2.87529C29.2367 3.00944 29.3664 3.1436 29.5 3.28181C30.3596 4.1663 31.227 5.01665 32.1604 5.82234C32.9295 6.50707 33.6369 7.25678 34.3563 7.99328C35.0775 8.72607 35.8181 9.41927 36.5954 10.0917C36.9983 10.4456 37.3738 10.8209 37.7465 11.2066C38.2465 11.7156 38.7517 12.2028 39.2927 12.6674C39.8741 13.1677 40.4153 13.6961 40.9535 14.2431C41.4819 14.7794 42.0117 15.3023 42.5799 15.7959C42.6973 15.8979 42.8147 15.9999 42.9356 16.105C43.2383 16.3671 43.5414 16.6287 43.8447 16.89C44.8252 17.752 45.683 18.6279 46.4626 19.6778C47.4378 20.9551 48.5151 22.0939 49.6579 23.2201C49.9705 23.5282 50.281 23.8383 50.5912 24.1488C51.5259 25.0806 52.4695 25.9854 53.4712 26.845C53.9733 27.2988 54.4049 27.8094 54.8465 28.3215C55.6626 29.2415 56.4774 29.8975 57.5431 30.5226C58.3169 31.0063 58.9677 31.6251 59.4744 32.3884C60.0308 33.2257 60.6117 33.7597 61.4437 34.314C61.6727 34.4707 61.9015 34.6276 62.1302 34.7848C62.2939 34.8965 62.2939 34.8965 62.4608 35.0105C62.846 35.2828 63.2023 35.5854 63.5626 35.8897C64.1481 36.3301 64.5918 36.4731 65.3236 36.4109C66.1834 36.2151 66.9259 35.904 67.4611 35.1845C68.0794 34.447 68.8317 33.94 69.61 33.3823C71.3791 32.1748 71.3791 32.1748 72.8628 30.6564C73.3129 30.0778 73.8578 29.7612 74.4778 29.3796C75.7605 28.5487 76.2664 27.6327 76.9166 26.2834C77.587 24.9569 78.4062 23.9863 79.4715 22.9616C79.6261 22.8097 79.7807 22.6578 79.9399 22.5013C80.8749 21.5911 81.825 20.7247 82.8531 19.9215C83.4475 19.452 84.0002 18.9407 84.5554 18.4255C85.4507 17.6757 86.2216 17.4629 87.3629 17.3141C88.7989 17.0895 89.9201 16.7613 90.8698 15.5845C91.3268 14.8214 91.3917 14.1113 91.4404 13.231C91.5301 11.635 91.9335 10.8302 93.0897 9.73438C93.7647 9.15235 94.4638 8.6467 95.2086 8.15862C96.9355 7.02529 98.1436 5.78292 99.3343 4.10276C100.355 2.67429 101.478 1.2592 103.293 0.91783C103.746 0.878849 104.195 0.86399 104.65 0.857066C104.828 0.851858 105.006 0.846649 105.189 0.841282C105.829 0.825114 106.469 0.816241 107.109 0.808902C107.298 0.806595 107.298 0.806595 107.491 0.804242C109.413 0.781325 111.336 0.774594 113.259 0.774801C114.051 0.77482 114.843 0.772268 115.635 0.769138C116.25 0.767097 116.866 0.766718 117.481 0.766816C117.774 0.766599 118.066 0.765789 118.359 0.764362C118.764 0.762563 119.17 0.763086 119.575 0.764197C119.805 0.763935 120.035 0.763673 120.271 0.763403C120.829 0.807039 121.131 0.859908 121.586 1.17696C122.053 1.88099 122.002 2.44986 121.995 3.26528C121.995 3.41919 121.995 3.5731 121.995 3.73168C121.994 4.23352 121.991 4.7353 121.987 5.23714C121.985 5.58082 121.984 5.9245 121.983 6.26818C121.948 13.1714 121.948 13.1714 121.676 14.5221C121.59 14.9601 121.56 15.3576 121.554 15.8031C121.454 19.8499 121.454 19.8499 120.259 21.1213C119.945 21.4046 119.625 21.681 119.3 21.9501C118.873 22.31 118.521 22.6741 118.161 23.0996C118.06 23.2187 117.958 23.3378 117.853 23.4605C117.655 23.6944 117.457 23.9292 117.262 24.165C116.288 25.2511 115.137 25.6552 113.73 25.9456C112.278 26.2549 111.603 26.8181 110.774 28.0454C110.377 28.6931 109.998 29.3512 109.622 30.0119C108.535 31.9138 107.156 33.475 105.505 34.9006C104.881 35.4403 104.297 36.0141 103.718 36.6028C103.03 37.3032 102.325 37.9683 101.58 38.6071C101.239 38.908 100.921 39.2225 100.603 39.5473C99.4666 40.7079 98.204 41.7285 96.9495 42.7564C96.4259 43.1889 95.903 43.6224 95.3804 44.0561C95.2119 44.1956 95.0435 44.3351 94.87 44.4788C93.968 45.252 93.2443 46.1052 92.507 47.0365C91.6139 48.1206 90.6046 49.0865 89.5477 50.0076C88.9263 50.5499 88.3271 51.1106 87.7328 51.6825C86.7233 52.6527 85.7104 53.5893 84.5912 54.4308C82.7447 55.821 81.1464 57.4112 79.5301 59.06C78.8176 59.7838 78.0958 60.4724 77.3189 61.1258C77.0063 61.3971 76.7425 61.6886 76.4821 62.0106C75.0512 63.6887 73.5163 65.1854 71.7246 66.4719C70.9907 67.0271 70.3385 67.6559 69.6816 68.2999C68.4946 69.2748 67.4509 69.5658 65.9335 69.5903C65.7679 69.595 65.6024 69.5996 65.4318 69.6044C65.0841 69.6133 64.7364 69.6205 64.3887 69.6261C63.8647 69.6362 63.3418 69.6564 62.8181 69.678C60.7645 69.7458 59.3206 69.7169 57.7163 68.31C56.8069 67.4379 56.0175 66.4868 55.2424 65.4949C54.2765 64.2675 53.2873 63.2066 52.0404 62.2636C50.9556 61.4424 49.986 60.5392 49.0282 59.5722C48.8365 59.3787 48.8365 59.3787 48.6409 59.1814C47.9193 58.4437 47.232 57.684 46.5588 56.9017C46.1751 56.4645 45.7673 56.0565 45.3516 55.65C44.7063 55.0088 44.0964 54.3539 43.504 53.6638C42.1255 52.0708 40.6681 50.5529 39.1907 49.0525C38.9333 48.7906 38.6772 48.5275 38.4211 48.2643C37.4616 47.2959 36.4843 46.4488 35.3649 45.6713C33.8209 44.5709 32.6078 43.191 31.4056 41.7399C30.9513 41.1938 30.4657 40.6881 29.9696 40.1799C29.3611 39.5142 29.0594 38.9284 28.767 38.0751C27.8776 35.5131 25.6761 34.2517 23.4232 33.0099C21.7245 32.073 20.322 31.0172 19.0659 29.5177C17.8334 28.0573 16.2037 26.9729 14.6849 25.8349C13.3886 24.8605 12.3889 23.7706 11.357 22.5209C10.3656 21.325 9.34815 20.2003 8.22587 19.1264C7.19298 18.0354 6.84109 17.1912 6.83356 15.7039C6.83096 15.474 6.82836 15.2441 6.82568 15.0073C6.83898 14.4575 6.92441 13.9693 7.05278 13.4354C7.29765 12.2363 7.27014 11.0593 7.25089 9.84006C7.24811 9.47293 7.24533 9.1058 7.24273 8.73867C7.23576 7.84138 7.22453 6.94414 7.21309 6.0469C7.20677 5.54029 7.20194 5.0337 7.19862 4.52707C7.19535 4.05187 7.18974 3.57668 7.18154 3.10154C7.18032 2.88649 7.17909 2.67143 7.17783 2.44986C7.17551 2.26129 7.17318 2.07273 7.17078 1.87845C7.2458 1.26851 7.42197 0.932595 7.7842 0.440841C8.49337 -0.0339407 9.08153 0.019762 9.90394 0.0222344Z"
		fill="#efe6d8" />
	<path
		d="M8.76573 58.5753C9.0759 58.5758 9.0759 58.5758 9.39234 58.5763C9.73225 58.5784 9.73225 58.5784 10.079 58.5805C10.3153 58.5813 10.5515 58.5821 10.7949 58.5829C11.4327 58.5853 12.0704 58.5888 12.7081 58.5927C13.0923 58.5948 13.4765 58.5965 13.8607 58.598C15.2702 58.6034 16.6797 58.6128 18.0892 58.6287C18.7464 58.636 19.4035 58.642 20.0607 58.6447C20.7145 58.6475 21.3681 58.6539 22.0219 58.6626C22.3818 58.6666 22.7419 58.6671 23.1019 58.6674C24.7077 58.6938 26.3628 58.8688 27.6186 59.978C27.7707 60.144 27.9229 60.3101 28.0796 60.4812C28.2048 60.6149 28.2048 60.6149 28.3326 60.7514C28.9076 61.3706 29.4617 62.0102 30.0081 62.655C30.3561 63.0473 30.7262 63.4067 31.1033 63.7707C31.7899 64.4497 32.3838 65.1681 32.9702 65.9331C34.1531 67.4746 35.3882 68.9396 36.873 70.2003C38.1838 71.326 39.4752 72.4863 40.5897 73.8104C42.1615 75.6562 43.741 77.2488 45.7179 78.6542C48.0705 80.4549 49.8642 82.6432 51.5735 85.0464C52.5425 86.3629 53.7122 87.17 55.064 88.0397C55.4307 88.2886 55.7973 88.5378 56.1635 88.7874C56.5297 89.0295 56.8962 89.271 57.2631 89.512C57.4492 89.6375 57.6353 89.763 57.8271 89.8923C58.898 90.5902 59.97 91.1644 61.1572 91.6283C61.274 91.6753 61.3907 91.7223 61.511 91.7708C62.6177 92.1777 63.6237 92.3331 64.7401 91.8801C65.3099 91.5915 65.8621 91.2823 66.4144 90.9612C66.6014 90.8564 66.7883 90.7515 66.981 90.6435C67.3533 90.4335 67.7243 90.2209 68.0937 90.0056C68.4335 89.8076 68.7753 89.6131 69.1196 89.4231C70.2418 88.7882 71.0547 88.044 71.9235 87.0966C73.316 85.6369 74.8027 84.5599 76.5018 83.4916C78.3835 82.2867 80.0996 80.8505 81.432 79.0438C82.3494 77.8472 83.4187 76.7955 84.4804 75.7296C84.8391 75.3686 85.1947 75.0048 85.5503 74.6407C86.8934 73.2802 88.2691 72.0782 89.8358 70.9838C91.6154 69.71 93.2281 68.0831 94.6472 66.4183C95.5268 65.4026 96.4678 64.4481 97.412 63.4933C97.6226 63.2797 97.8324 63.0652 98.0414 62.8499C101.43 59.3593 101.43 59.3593 103.887 59.283C104.205 59.2803 104.524 59.2795 104.842 59.2804C105.016 59.2795 105.191 59.2786 105.37 59.2776C105.945 59.275 106.519 59.2752 107.094 59.2756C107.493 59.2749 107.893 59.2741 108.293 59.2732C109.129 59.2719 109.966 59.2719 110.803 59.2729C111.876 59.274 112.95 59.2708 114.023 59.2666C114.848 59.2639 115.673 59.2637 116.498 59.2643C116.894 59.2642 117.29 59.2632 117.686 59.2614C118.238 59.2591 118.79 59.2603 119.342 59.2625C119.589 59.2604 119.589 59.2604 119.84 59.2582C120.066 59.2601 120.066 59.2601 120.295 59.2621C120.491 59.2621 120.491 59.2621 120.691 59.262C121.143 59.3524 121.307 59.5201 121.586 59.8831C121.646 60.3777 121.646 60.3777 121.632 60.9873C121.627 61.215 121.622 61.4427 121.617 61.6774C121.607 61.9381 121.597 62.1988 121.586 62.4595C121.58 62.6063 121.574 62.7532 121.568 62.9045C121.537 63.6612 121.502 64.4177 121.46 65.1739C121.454 65.2983 121.447 65.4226 121.44 65.5506C121.403 65.9561 121.403 65.9561 121.312 66.4634C121.222 67.0412 121.18 67.5976 121.157 68.1817C121.147 68.3991 121.138 68.6165 121.129 68.8405C121.119 69.0729 121.11 69.3053 121.1 69.5447C121.084 69.9128 121.068 70.2808 121.051 70.6489C121.011 71.5532 120.972 72.4575 120.936 73.3619C120.915 73.8705 120.894 74.3791 120.87 74.8877C120.848 75.3656 120.829 75.8437 120.811 76.3218C120.801 76.5392 120.79 76.7567 120.779 76.9807C120.767 77.2662 120.767 77.2662 120.755 77.5576C120.524 79.0248 119.592 79.8222 118.47 80.6785C117.898 81.0472 117.32 81.3977 116.73 81.7367C116.186 82.064 115.723 82.456 115.241 82.8682C114.229 83.6958 113.148 84.1539 111.953 84.6582C110.191 85.4491 109.208 86.0881 108.339 87.8162C107.927 88.5923 107.392 89.0532 106.714 89.5947C106.332 89.8896 106.332 89.8896 106.009 90.4321C105.987 90.7837 105.987 90.7837 105.965 91.1424C105.894 91.8091 105.836 91.8934 105.337 92.4133C105.125 92.5698 104.91 92.722 104.692 92.8705C104.456 93.0434 104.22 93.2169 103.985 93.391C103.804 93.5232 103.804 93.5232 103.619 93.6581C103.048 94.0887 102.514 94.5599 101.977 95.0329C101.126 95.7766 100.258 96.49 99.366 97.1838C97.5094 98.6366 95.9389 100.187 94.4639 102.026C93.5611 103.149 92.5414 104.116 91.4855 105.091C90.7823 105.741 90.1077 106.405 89.4473 107.098C88.5122 108.053 87.4805 108.838 86.413 109.638C85.5926 110.256 84.8459 110.89 84.1415 111.642C83.7125 112.093 83.2448 112.491 82.7742 112.898C82.1157 113.474 81.4752 114.07 80.8322 114.663C80.3533 115.092 80.3533 115.092 79.8837 115.45C79.3729 115.883 79.0375 116.342 78.6467 116.887C77.4647 118.471 76.04 119.828 74.6299 121.204C73.4544 122.355 72.3971 123.553 71.3737 124.846C71.0371 125.248 70.6928 125.639 70.3429 126.031C70.1856 126.209 70.0283 126.387 69.8662 126.57C68.8517 127.536 67.8347 127.997 66.4373 127.999C66.2599 127.999 66.0825 128 65.8997 128C65.6159 127.999 65.6159 127.999 65.3263 127.997C65.0338 127.996 65.0338 127.996 64.7353 127.995C64.1382 127.99 63.5411 127.983 62.944 127.974C62.7664 127.972 62.5887 127.97 62.4058 127.967C61.9168 127.959 61.4284 127.945 60.9396 127.928C60.7959 127.926 60.6521 127.923 60.504 127.921C58.3022 127.825 57.0519 126.612 55.5802 125.096C55.2746 124.781 54.9653 124.471 54.6552 124.161C53.4436 122.937 52.3468 121.66 51.3084 120.285C49.9116 118.45 48.2277 116.878 46.5405 115.318C45.5337 114.387 44.5632 113.433 43.6706 112.391C43.0168 111.639 42.3278 110.934 41.619 110.235C41.3635 109.98 41.1079 109.726 40.8524 109.472C40.4567 109.079 40.0608 108.687 39.6643 108.295C38.3058 106.95 36.9684 105.622 35.7908 104.111C34.5004 102.46 33.0087 101.016 31.4011 99.6775C30.0042 98.5094 28.9138 97.0653 27.8162 95.6195C27.3329 94.9876 26.8126 94.4316 26.2435 93.8777C25.9268 93.5611 25.634 93.2333 25.3422 92.8935C23.7735 91.0747 22.1243 89.3483 20.4059 87.6717C19.8211 87.0945 19.2811 86.5322 18.813 85.8544C18.0929 84.8194 17.1121 84.5307 15.9733 84.1061C14.865 83.6911 13.9063 83.1602 12.9152 82.5188C12.7015 82.3986 12.7015 82.3986 12.4835 82.2758C11.8543 81.8745 11.3107 81.4006 10.7505 80.9086C10.6372 80.8098 10.524 80.7111 10.4073 80.6094C10.1832 80.414 9.95938 80.2183 9.73578 80.0224C9.48292 79.8017 9.22789 79.5834 8.97234 79.3659C7.77413 78.3417 6.63714 77.2628 6.44782 75.6118C6.4233 75.0597 6.41562 74.5098 6.41392 73.9571C6.41106 73.7545 6.40821 73.552 6.40527 73.3432C6.39659 72.6982 6.39149 72.0531 6.38672 71.408C6.38 70.7642 6.37252 70.1204 6.36424 69.4767C6.35931 69.0771 6.35537 68.6774 6.3526 68.2778C6.34266 67.3077 6.30175 66.3593 6.17647 65.397C5.9757 63.6599 5.74865 60.8616 6.71672 59.3662C7.37115 58.6819 7.85534 58.5719 8.76573 58.5753Z"
		fill="#efe6d8" />
</svg>